<svg width="1297" height="544" fill="none" xmlns="http://www.w3.org/2000/svg"><path d="M528 1h508c257 0 329.5 271 188.5 327.5s-251-73.5-520.5 0-257 113.5-451.5 104c-155.6-7.6-232.167 70.167-251 110" stroke="#FAA53C" stroke-width="2" stroke-linecap="round" stroke-dasharray="7 7"/><g clip-path="url(#clip0)"><path d="M637.259 325.616s.215.699.459 1.706c.579 2.404 1.346 6.568-.079 7.541 0 0-2.975 1.914-3.745 1.765 0 0-3.825-11.021-13.821-10.484-5.917.333-16.239 4.104-11.825 20.561 0 0-61.073 21.15-64.92 23.343 0 0-1.698.306-2.294-2.293a13.68 13.68 0 00-.55-1.386c-1.445-3.239-5.956-10.919-15.478-9.504 0 0-13.77 1.82-11.133 17.073.122.715.282 1.458.486 2.231.204.774.428 1.573.705 2.403 0 0-4.439 2.945-7.058 2.055 0 0-5.019 1.907-5.206 1.672l-.717-1.329.072-.21c.245-.715.93-3.004-.293-2.707a28.951 28.951 0 01-3.531-8.487c-1.133-5.093-.567-11.219 6.741-14.629 0 0 16.811-10.467 20.835-14.876 7.329-8.028 19.044-23.44 42.004-30.58 9.917-3.084 25.871-9.273 40.155-10.633a5.882 5.882 0 011.571 1.531s12.539 6.146 13.238 6.434c.566.258 1.154.475 1.683.733.818.362 1.606.79 2.355 1.28 2.281 1.518 3.734 3.712 3.522 7.932.037-.014 6.626 5.21 6.824 8.858z" fill="#EEBB2D"/><path d="M518.402 377.982l-3.324.589s-7.115-15.429 7.05-21.016c5.39-2.121 15.904-1.922 19.714 12.174 0 0-.346 2.768-2.707 4.063 0 0 2.492-14.845-12.859-14.444-5.402.117-13.545 7.209-7.874 18.634zm91.726-32.158l-1.959.849s-6.389-13.8 6.842-19.925c5.259-2.434 15.957-1.266 18.898 9.888 0 0-.601-1.006-2.037.113 0 0-2.73-7.562-12.005-7.81-5.423-.153-13.902 5.098-9.739 16.885z" fill="#2A2B2A"/><path d="M539.194 366.918c-1.98-6.16-8.74-9.496-15.098-7.452-6.358 2.044-9.908 8.695-7.928 14.855 1.981 6.159 8.74 9.495 15.099 7.451 6.358-2.044 9.908-8.694 7.927-14.854z" fill="#3D4039"/><path d="M535.682 368.314c-1.457-4.532-6.359-7.01-10.948-5.534-4.59 1.475-7.13 6.345-5.673 10.877 1.457 4.532 6.359 7.01 10.949 5.534 4.589-1.475 7.129-6.345 5.672-10.877z" fill="#D6E3DD"/><path d="M533.134 368.884a5.998 5.998 0 01-1.877 6.388 5.996 5.996 0 01-6.618.726 5.996 5.996 0 01-3.217-5.829 6.006 6.006 0 014.142-5.213 6.028 6.028 0 017.57 3.928z" fill="#3D4039"/><path d="M534.915 369.762l-.567-2.234-4.503 1.419c-.054-.069-.107-.138-.17-.204l2.501-3.863-1.974-1.188-2.207 4.148a2.842 2.842 0 00-.267-.036l-.94-4.616-2.227.584 1.319 4.45a3.071 3.071 0 00-.296.2l-4.009-2.489-1.122 2.025 4.047 2.037a2.98 2.98 0 00-.109.726l-4.491 1.246.755 2.173 4.371-1.632c.026.07.097.123.147.179l-2.382 4.143 2.068 1.026 1.981-4.275c.143.024.287.038.433.04l.677 4.653 2.264-.409-1.108-4.778a2.53 2.53 0 00.219-.167l-.036.056 3.918 2.733 1.256-1.929-4.149-2.384c.058-.213.091-.432.099-.652l4.502-.982z" fill="#D6E3DD"/><path d="M526.37 369.477a.656.656 0 11-1.25.397.656.656 0 011.25-.397zm2.781-.57a.65.65 0 01-.55.85.654.654 0 11.224-1.232c.155.08.272.217.326.382zm.496 2.758a.65.65 0 01-.55.85.655.655 0 11.55-.85zm-2.809.575a.663.663 0 01-.2.7.658.658 0 01-.997-.182.652.652 0 01.372-.942.667.667 0 01.501.041.657.657 0 01.324.383z" fill="#C6C6C6" stroke="#3D4039" stroke-width=".1" stroke-miterlimit="10"/><path d="M632.008 335.89c1.98 6.157-1.573 12.793-7.926 14.852-6.352 2.058-13.128-1.289-15.089-7.433-1.962-6.145 1.573-12.793 7.925-14.851 6.353-2.059 13.112 1.27 15.09 7.432z" fill="#3D4039"/><path d="M628.501 337.281c-1.456-4.532-6.358-7.011-10.948-5.536-4.59 1.474-7.13 6.344-5.674 10.876 1.456 4.532 6.357 7.011 10.947 5.536 4.59-1.475 7.131-6.344 5.675-10.876z" fill="#D6E3DD"/><path d="M625.947 337.854a6.003 6.003 0 01-1.875 6.396 6.008 6.008 0 11-5.694-10.324 6.034 6.034 0 017.569 3.928z" fill="#3D4039"/><path d="M627.734 338.732l-.571-2.233-4.503 1.419a1.734 1.734 0 00-.17-.204l2.499-3.867-1.972-1.183-2.188 4.135c-.085-.015-.177-.022-.265-.032l-.94-4.615-2.236.586 1.323 4.449a3.137 3.137 0 00-.3.201l-3.977-2.504-1.12 2.028 4.047 2.037a2.933 2.933 0 00-.109.727l-4.488 1.244.735 2.181 4.338-1.621c.046.063.096.119.145.176l-2.376 4.145 2.057 1.034 1.975-4.277c.145.024.292.039.439.043l.692 4.656 2.263-.413-1.108-4.778.216-.161-.035.056 3.917 2.733 1.256-1.929-4.146-2.39c.058-.212.091-.431.099-.652l4.503-.991z" fill="#D6E3DD"/><path d="M619.178 338.43a.648.648 0 01-.201.699.657.657 0 01-1.076-.553.658.658 0 01.953-.53.673.673 0 01.324.384zm2.778-.564a.656.656 0 11-1.25.397.656.656 0 011.25-.397zm.499 2.762a.648.648 0 01-.2.699.654.654 0 11-.625-1.123.649.649 0 01.825.424zm-2.804.577a.66.66 0 01-.55.851.654.654 0 01-.588-1.058.655.655 0 011.138.207z" fill="#C6C6C6" stroke="#3D4039" stroke-width=".1" stroke-miterlimit="10"/><path d="M624.587 307.535l-.025.009c-1.303.661-6.692 1.275-6.692 1.275-2.797.946-6.104 2.158-9.785 3.565-20.566 7.879-52.82 21.969-73.708 31.236a3393.572 3393.572 0 00-20.342 9.109c-4.536 6.732-15.654 16.846-15.654 16.846l-.05-.009c-1.132-5.093-.566-11.219 6.741-14.629 0 0 2.925-1.821 6.631-4.266 5.172-3.41 11.858-8.044 14.204-10.61 7.329-8.028 19.045-23.44 42.004-30.58 9.917-3.084 25.871-9.273 40.155-10.633a5.868 5.868 0 011.572 1.53c.31.152 10.988 5.388 12.949 6.303.143.069.239.113.283.129.6.236 1.172.473 1.717.725z" fill="#E59C0A"/><path d="M573.293 331.763c.297.932-1.405 2.309-3.803 3.078-2.398.769-4.598.633-4.882-.303-.284-.936 1.401-2.307 3.799-3.076 2.397-.769 4.602-.649 4.886.301zm33.255-14.215c.301.93-1.401 2.308-3.799 3.077-2.398.768-4.581.641-4.88-.285-.299-.926 1.405-2.309 3.799-3.076 2.393-.768 4.59-.631 4.88.284zm14.557-.15a2.929 2.929 0 01-.89 3.124 2.925 2.925 0 11-2.791-5.012 2.928 2.928 0 013.681 1.888z" fill="#F49211"/><path d="M532.544 336.089s-10.625 11.634-5.054 9.844l6.887-2.309s-1.797-3.958-1.833-7.535z" fill="#EEBB2D"/><path d="M630.471 316.744c-2.219 1.036-11.885-3.203-11.885-3.203-4.007-2.545 8.076-4.669 8.076-4.669l.287-.06c2.281 1.519 3.743 3.709 3.522 7.932zm-87.541 9.461c2.864-2.388 15.227-12.259 25.043-14.269a.561.561 0 01.652.489c.284 2.269 1.281 10.455 1.445 14.036a1.553 1.553 0 01-.93 1.493l-23.336 10.181-2.8-3.249-.697-7.345a1.71 1.71 0 01.623-1.336z" fill="#D6E3DD"/><path d="M542.93 326.205c2.864-2.388 15.227-12.259 25.043-14.269a.561.561 0 01.652.489c.284 2.269 1.281 10.455 1.445 14.036a1.553 1.553 0 01-.93 1.493l-23.336 10.181-2.8-3.249-.697-7.345a1.71 1.71 0 01.623-1.336z" fill="#D6E3DD"/><path d="M542.93 326.205c2.864-2.388 15.227-12.259 25.043-14.269a.561.561 0 01.652.489c.284 2.269 1.281 10.455 1.445 14.036a1.553 1.553 0 01-.93 1.493l-23.336 10.181-2.8-3.249-.697-7.345a1.71 1.71 0 01.623-1.336z" fill="#D6E3DD"/><path d="M542.93 326.205c2.864-2.388 15.227-12.259 25.043-14.269a.561.561 0 01.652.489c.284 2.269 1.281 10.455 1.445 14.036a1.553 1.553 0 01-.93 1.493l-23.336 10.181-2.8-3.249-.697-7.345a1.71 1.71 0 01.623-1.336z" fill="#D6E3DD"/><path d="M514.37 376.169c.19.773.427 1.572.705 2.403 0 0-4.44 2.944-7.058 2.054 0 0-5.02 1.908-5.206 1.672l-.731-1.328s10.473-3.719 12.07-4.71a.553.553 0 01.22-.091zm-7.796 1.64s-2.808 2.636-4.418 2.951c.244-.716.929-3.004-.293-2.707 0 0-1.44-8.217 1.602-9.912 0 0 5.673 8.589 3.109 9.668z" fill="#F49211"/><path d="M506.573 377.809c-1.388-1.829-3.099-9.64-3.099-9.64s5.662 8.561 3.099 9.64z" fill="#E27E05"/><path d="M604.86 334.389c-1.45.467-3.296-2.289-3.296-2.289-.83-3.089-3.626-1.425-4.887-1.306-20.297 1.901-51.346 18.827-58.246 21.531-.569.212-4.745 3.898-4.701 4.004-4.487-2.549-9.855-1.727-12.906-.343-13.075 5.893-7.087 17.913-7.087 17.913l.15.038c-2.633-15.245 11.116-17.067 11.116-17.067 7.846-1.165 13.604 3.745 15.478 9.504-.051-.225 6.706-1.327 7.339-1.718l34.051-11.719 18.656-6.419s3.225-.491 3.373-5.184c.013-.216.012-.446.006-.688.31-1.945.76-3.866 1.346-5.746-.116-.375-.249-.555-.392-.511z" fill="#E59C0A"/><path d="M547.488 362.845s24.728-15.489 47.209-19.6l-47.209 19.6z" fill="#F7D877"/><path d="M505.381 362.796s11.844 1.721 22.054-17.659l-13.4 7.596s-4.68 6.034-8.654 10.063z" fill="#EEBB2D"/><path d="M622.603 306.679c-.143-.003-.302-.014-.479-.023a18.626 18.626 0 01-12.487-6.274c.326.146 11.004 5.382 12.966 6.297z" fill="#F49211"/><path d="M595.403 301.122s1.368-2.318 2.448-.445l-2.448.445z" fill="#111"/><path d="M598.589 295.691l-.206-.062-1.364 4.55.206.062 1.364-4.55z" fill="#111"/><path d="M637.736 327.334c.578 2.403 1.345 6.567-.08 7.541 0 0-2.975 1.914-3.744 1.764 0 0-3.825-11.02-13.821-10.484-5.917.333-16.24 4.104-11.825 20.561 0 0-61.074 21.151-64.921 23.343 0 0-1.698.306-2.293-2.293 0 0-.24-.718-.619-1.557 0 0 52.53-25.724 63.475-24.864 0 0 .459-14.921 14.704-16.787a15.441 15.441 0 0110.742 2.517s6.047 2.366 8.248.342a.435.435 0 01.134-.083z" fill="#F49211"/><path d="M514.455 351.014s12.699-7.865 15.372-11.844c0 0-6.864 8.445-2.483 6.461 24.381-11.05 80.787-33.461 80.84-33.345 1.25 2.932-94.361 40.555-94.361 40.555s1.327-.984.632-1.827z" fill="#F7D877"/><path d="M608.079 298.844s-3.462 1.954-4.135 3.018a1.012 1.012 0 01-.8.472 101.28 101.28 0 00-16.742 2.559s11.589-4.164 21.677-6.049z" fill="#E27E05"/><path d="M514.032 352.729l-.085.187a2.084 2.084 0 01-.098.215c-3.744 8.013-12.624 10.644-12.624 10.644a6.944 6.944 0 01.706-5.826 9.501 9.501 0 012.315-2.602c.193-.161.407-.316.623-.467 0 0 3.125-1.764 6.829-4.213l.059.006s4.655-.457 2.275 2.056z" fill="#E0E9EF"/><path d="M603.91 341.33c-.148 4.693-3.373 5.184-3.373 5.184l-18.656 6.419-34.051 11.719a6.615 6.615 0 01-1.691.777l-2.391-.811s46.434-23.217 59.838-23.289c.113.014.223.006.324.001z" fill="#E27E05"/><path d="M607.838 329.803c-1.111 1.175-1.964 3.151-2.589 5.097a41.003 41.003 0 00-1.342 5.745c.006.242.006.468-.006.688-.148 4.693-3.373 5.184-3.373 5.184l-18.656 6.419-34.051 11.719a6.625 6.625 0 01-1.69.777c-3.012.862-3.591-2.311-3.591-2.311-2.504-2.67-4.291-6.147-5.544-9.426a49.776 49.776 0 01-2.641-10.087c3.888-2.321 22.099-10.071 39.44-17.285 17.581-7.313 34.271-14.069 34.271-14.069 5.66 9.434-.228 17.549-.228 17.549zm-34.09-3.289s4.445 22.393 7.934 26.179" stroke="#E27E05" stroke-miterlimit="10"/><path d="M608.078 312.251a.246.246 0 01.009.137c-9.597 3.679-21.741 8.707-34.089 13.968-14.109 6.011-28.481 12.328-39.62 17.268 0 0-3.088-7.564-.835-9.852 0 0 14.692-17.524 38.035-24.492 7.666-2.286 29.261-9.521 31.51-5.498-.011-.019 4.432 6.851 4.99 8.469z" fill="#434443"/><path d="M575.197 310.628c.548 3.288 2.227 13.289 2.477 13.909l22.495-8.989s2.377-7.46-.089-11.083c-.303-.446-16.301 2.08-24.043 4.755a1.272 1.272 0 00-.84 1.408zM535.04 334.41c1.005-1.722 3.985-4.413 5.536-5.738a.406.406 0 01.405-.073.412.412 0 01.264.316c.294 1.693 1.068 6.342.747 6.762 0 0-4.078 2.908-6.228 2.481.003.009-1.437-2.528-.724-3.748z" fill="#D6E3DD"/><path d="M541.513 333.208s3.048 2.767 1.871 4.821c0 0-4.709 2.473-6.022-.853 0 0-.758-3.111 4.151-3.968z" fill="#2A2B2A"/><path d="M542.93 326.205c2.864-2.388 15.227-12.259 25.043-14.269a.561.561 0 01.652.489c.284 2.269 1.281 10.455 1.445 14.036a1.553 1.553 0 01-.93 1.493l-23.336 10.181-2.8-3.249-.697-7.345a1.71 1.71 0 01.623-1.336z" fill="#D6E3DD"/><g clip-path="url(#clip1)"><path d="M555.339 352.673l-.071.024-.193.064-.481-1.44.193-.064.07-.024.639-.213.015.116-.617.207.184.551.432-.145.037.11-.432.144.186.557.617-.207.016.119-.596.199.001.002zm1.251-.848a1.291 1.291 0 00-.343.055l-.007.482-.114.039.019-1.595.272-.09.972 1.262-.277.093-.222-.289a1.164 1.164 0 01-.3.043zm-.331-.863l-.01.791a1.23 1.23 0 01.337-.048c.062 0 .137-.008.225-.026l-.552-.717zm1.263-.628l.401-.134.058.105-.422.141.445 1.33-.266.089-.444-1.33-.402.134-.056-.105.42-.141.266-.089zm2.401.78l-.039-.027a.875.875 0 01-.389.17.566.566 0 01-.342-.026.37.37 0 01-.21-.233.353.353 0 01.01-.268.445.445 0 01.186-.201 1.274 1.274 0 01-.157-.133.354.354 0 01-.081-.14.337.337 0 01.024-.264.343.343 0 01.206-.18.28.28 0 01.247.029.387.387 0 01.158.205.344.344 0 01.004.214.362.362 0 01-.13.197c.184.125.359.241.529.349a.216.216 0 00-.008-.137l.039-.012.032-.011.038-.013.001.002a.388.388 0 01.002.236l.216.135-.336.108zm-.464.036a.578.578 0 00.325-.135c-.079-.058-.175-.127-.282-.208l-.304-.229c-.082.091-.099.207-.049.351.03.084.073.142.132.178a.308.308 0 00.178.043zm-.297-1.239c-.04.013-.07.045-.09.094-.02.049-.012.111.023.184.011.02.032.043.06.07a.813.813 0 00.083.07c.026.021.045.034.057.043.002.001.003.003.005.003l.011.009a.028.028 0 01.009.007l.009.006c.002.001.005.003.005.005.003.001.003.001.003.003l.003.001.003.001a.263.263 0 00.093-.159.279.279 0 00-.021-.164.348.348 0 00-.117-.146c-.047-.034-.092-.042-.136-.027zm2.45.235c.048.125.037.233-.031.329-.068.095-.181.169-.339.224l-.002.001h-.002a.325.325 0 00-.026.009l-.025.009a.68.68 0 01-.343.035.508.508 0 01-.247-.116l.067-.105a.442.442 0 00.199.093.505.505 0 00.278-.025l.005.001a.046.046 0 01.009-.003l.046-.015a.253.253 0 00.131-.1.165.165 0 00.02-.149c-.019-.056-.062-.097-.132-.121a1.893 1.893 0 00-.254-.062 3.432 3.432 0 01-.281-.064l-.025-.006a.566.566 0 01-.174-.062.344.344 0 01-.16-.192.344.344 0 01.05-.328.701.701 0 01.341-.225l.002-.001h.002l.004-.002h.002l.001-.001.004-.001a.694.694 0 01.338-.032.51.51 0 01.242.113l-.067.106a.448.448 0 00-.201-.093.56.56 0 00-.276.024.394.394 0 00-.186.126c-.041.054-.052.109-.034.165.018.052.059.085.124.104.065.017.144.031.237.042.111.012.228.033.354.066l.023.007a.737.737 0 01.181.07.396.396 0 01.145.179zm.74-.248a1.279 1.279 0 00-.343.055l-.007.483-.114.038.019-1.594.271-.091.973 1.263-.276.092-.221-.289a1.188 1.188 0 01-.302.043zm-.331-.862l-.01.791c.143-.036.254-.053.336-.049.062.001.138-.007.225-.026l-.551-.716zm1.771.614l.016-1.414.117-.039-.019 1.609-.275.092-.983-1.274.279-.093.865 1.119zm1.07-.161l-.071.023-.193.065-.481-1.44.193-.065.071-.023.638-.214.016.119-.617.206.184.551.432-.144.037.109-.432.144.186.557.617-.206.016.118-.596.2z" fill="#1F7240"/><path d="M556.868 339.999a6.601 6.601 0 00.037.686 1.142 1.142 0 01-.761-.523l-.06-.101c-.012-.021.007-.03.032-.043a.532.532 0 01.133-.052c.055-.011.107-.026.161-.034a.731.731 0 01.458.067zm1.636-.477c-.01.045-.019.09-.031.136l-.008.028a1.329 1.329 0 01-.406.655 1.228 1.228 0 01-.424.236c-.056.016-.128.037-.174.003a5.956 5.956 0 01-.025-.657.882.882 0 01.186-.233.949.949 0 01.458-.2c.065-.009.131-.012.198-.019a.578.578 0 01.171.012c.037.007.061.012.055.039z" fill="#5FAD56"/><path d="M557.344 339.415c-.038.44-.035.877.014 1.304a2.763 2.763 0 00-.325.064 6.406 6.406 0 01-.046-.697l.001-.003a7.121 7.121 0 01.025-.699.168.168 0 01.112-.144c.022-.007.044-.009.067-.007.092.011.158.09.152.182z" fill="#1F7240"/><path d="M560.879 342.89a3.197 3.197 0 01.13 1.515 3.206 3.206 0 01-2.824 2.708 3.214 3.214 0 01-3.393-2.189 3.224 3.224 0 01.781-3.312c.338-.338.76-.602 1.242-.764.034-.011.07-.021.106-.03.006-.005.013-.005.02-.007l.038-.01c.02-.007.039-.011.059-.017.032-.008.061-.016.094-.022.078-.016.154-.032.231-.043a.425.425 0 01.06-.007.355.355 0 01.047-.006c.005.001.007 0 .012-.001.27-.031.538-.027.797.013.033.003.065.01.098.014a3.219 3.219 0 012.502 2.158z" fill="#FFA73A"/><path d="M560.267 342.396c-.051.136-.289.064-.367.185-.05-.075-.098-.153-.145-.229-.056-.026-.121.028-.133.089-.012.061.008.121.024.182.039.146.049.301.028.451-.083-.019-.152.076-.161.161-.008.079.02.171-.01.243-.021.056-.086.11-.114.167-.033.063-.086.097-.154.091-.079-.006-.13.033-.169.091a1.392 1.392 0 01-.357.332.373.373 0 00-.172.305c-.003.055-.02.11-.036.165-.021.069-.059.116-.134.136-.05.012-.094.044-.141.065-.083.04-.164.099-.249.133-.079.034-.181.025-.24.097-.067.074-.038.189-.007.282.034-.009.067-.02.104-.02.035.001.073.013.093.043.033.046.012.11-.007.161a.573.573 0 01-.16.246c-.078.061-.203.068-.27-.006a7.137 7.137 0 01-.022.252c0 .028-.003.056.01.081.016.027.053.04.082.037.031 0 .061-.015.092-.025.062-.029.128-.058.196-.049.066.008.135.067.126.136-.011.056-.064.111-.04.16.018.031.053.041.089.044a.566.566 0 00.209-.023c.055-.018.113-.045.165-.023.051.021.09.094.091.148.001.056-.033.095-.011.16.004.011-.009.025-.009.04.002.026.004.055.01.08.003.017.017.029.022.045.031.071.021.099-.047.137-.071.041-.141.082-.214.119-.022.009-.04.023-.057.036a3.213 3.213 0 01-2.546-.859c-.002-.066-.01-.135-.005-.201a.19.19 0 01.078-.142l.127-.122c-.054-.13-.04-.177.09-.208.139-.034.227-.131.325-.22.09-.08.177-.158.267-.235a.121.121 0 01.123-.029c.038.01.078.018.117.025.039.007.068-.003.082-.047.025-.088.09-.131.182-.135a.445.445 0 00.261-.105c.144-.112.338-.1.479-.224a.152.152 0 01-.112-.099.208.208 0 01.175.06c.027.029.049.066.085.084.036.014.08.005.118-.008.047-.013.096-.029.125-.066.03-.038.037-.097.001-.13-.027-.023-.063-.02-.1-.028-.034-.006-.073-.025-.074-.059 0-.074.107-.135.123-.214.015-.087-.015-.184.029-.267.028-.057.096-.067.124-.114.036-.056-.009-.249.09-.27.016-.003.034.006.049.016.052.035.096.079.15.116.053.034.116.06.177.049.06-.01.116-.071.108-.132-.009-.064-.076-.111-.071-.175.006-.041.041-.07.079-.088.023-.012.047-.023.069-.038l.032-.03c-.055-.046-.108-.102-.166-.143-.016-.009-.167-.072-.175-.052a.14.14 0 00.008-.07.137.137 0 00-.021-.072.558.558 0 01.094-.101l-.518-.106c-.039-.007-.081-.015-.116.006-.021.012-.034.032-.047.051-.116.17-.247.295-.379.451-.03-.156-.133-.221-.24-.319-.083-.078-.169-.161-.297-.093-.012.006-.02.019-.033.033l.049.05c.038.04.032.081-.015.102a.955.955 0 01-.189.056c-.05.011-.102.009-.153.014l-.16.006.028-.153a.18.18 0 00-.066-.183c-.041-.033-.085-.068-.123-.102-.043-.038-.043-.06-.001-.097.028-.026.062-.043.092-.065.029-.022.061-.045.087-.071.032-.036.026-.061-.014-.087-.034-.018-.065-.04-.1-.048-.138-.031-.278-.058-.418-.086-.015-.002-.029.003-.041.002-.076.008-.076.008-.094.081a.193.193 0 01-.2.158c-.066-.003-.095-.04-.075-.104.016-.049.039-.097.062-.147-.041-.033-.08-.02-.12-.019-.051 0-.106.006-.159.001-.072-.008-.092-.038-.077-.11.009-.033.027-.061.033-.093.003-.021-.001-.049-.015-.061l-.021-.018c.065-.079.135-.157.207-.228.002 0 .003.002.005.001.051.005.1.019.15.029.088.02.193.037.27-.011.019-.011.036-.024.039-.045.006-.019.002-.038.004-.056.002-.045.04-.078.078-.105.052-.037.105-.07.162-.099.033-.016.073-.029.103-.007.018.011.026.033.043.048.021.02.055.018.082.009.027-.009.05-.026.077-.041.013-.006.028-.014.041-.018.116-.036.248.011.359.093a.8.8 0 01.245.292l.619-.18c.023-.006.045-.015.053-.035.015-.03-.013-.06-.034-.088a.314.314 0 01-.053-.299c-.009.02-.193-.015-.214-.02a.586.586 0 01-.109-.038 1.862 1.862 0 00.877-.315c.262.046.517.124.757.229.039.094.078.182.077.284.034-.002.067 0 .099-.006a.349.349 0 01.282.047c.066.042.141.074.212.11.021.012.043.027.065.042-.016.048-.027.088-.04.13a.218.218 0 00.004.145c.072.186.111.361.295.463.094.052.189.137.153.228z" fill="#FFC446"/><path d="M556.124 343.939a.744.744 0 01-.3.251c-.099.043-.462.165-.521.004-.019-.051.012-.104.044-.149.038-.057.08-.115.142-.141.072-.029.153-.009.229-.017.106-.014.363-.24.463-.17.068.051-.021.173-.057.222zm4.919.143a3.079 3.079 0 01-.033.322.219.219 0 01-.046-.021c-.026-.017-.052-.037-.081-.035-.031.003-.053.032-.072.058-.036.06-.068.12-.094.183a.655.655 0 01-.566.088c-.031-.01-.156-.052-.157.01-.001.013.003.024.002.036-.001.026-.024.046-.048.054-.024.01-.049.009-.074.017-.025.006-.049.021-.059.044-.011.026-.001.055-.015.08-.011.018-.033.025-.054.022-.028-.002-.043-.02-.062.006-.012.017-.012.044-.011.063 0 .015.022.124.011.128a.434.434 0 01.13-.031c.009-.001.019-.002.026.006.008.007.005.021.001.032-.012.073.035.141.082.2l-.122.108c-.037.034-.08.031-.131.034a.542.542 0 00-.369.18c-.079-.04-.173-.101-.214-.186.075-.025.15-.058.223-.092.008-.005.018-.011.023-.018.022-.029-.015-.081-.031-.108-.019-.028-.052-.032-.084-.038-.043-.011-.067.014-.109.014-.026.001-.054-.015-.058-.041-.006-.04.039-.067.041-.107.001-.028-.019-.051-.037-.072-.019-.021-.036-.05-.025-.076.039.02.077.039.118.035.04-.003.076-.03.108-.061a.909.909 0 00.1-.105.236.236 0 01.06-.062c.031-.018.067-.02.101-.029.102-.027.099-.117.02-.17-.028-.018-.059-.052-.045-.084.013-.026.044-.029.072-.034a.375.375 0 00.242-.145c.02-.021.042-.044.073-.047.03-.005.058.011.085.019.145.043.259-.126.403-.041.015.01.032.022.052.023.022 0 .039-.021.05-.042.018-.033.023-.072.033-.107.012-.037.032-.073.07-.086.036-.009.074.008.108.016a.351.351 0 00.245-.027c.031.106.066.101.118.087z" fill="#FFC446"/><path d="M558.919 348.596a1.493 1.493 0 00-.54-.752 2.42 2.42 0 00-.848-.37c-.293-.073-.598-.087-.886-.169a2.944 2.944 0 01-1.151-.62c-.088-.079-.174-.204-.284-.254-.063-.028-.258-.064-.295.022-.027.069.112.183.146.224.09.108.181.219.274.326.114.135.364.376.364.376s.085.085.113.16c-.338-.221-.615-.522-.886-.822a.503.503 0 01-.121-.274 4.238 4.238 0 00-.194-.809c-.018-.048-.179-.375-.271-.362-.014.002-.026.011-.035.029-.024.045-.005.108.001.156.058.426.05.879.221 1.282.1.231.238.44.361.659.143.259.314.481.577.606.248.123.528.202.793.264.272.063.773.083 1.261.136.082.009.161.017.242.03.129.016.251.037.367.06.414.134.757.48.882.943l.01.038c.002-.025.005-.051.004-.075l-.001-.012c-.003-.142-.004-.276-.023-.415-.018-.121-.037-.25-.081-.377zm.865-.289a1.485 1.485 0 01-.021-.926c.09-.297.259-.564.454-.805.191-.234.426-.429.607-.668.263-.348.461-.758.547-1.187.022-.117.016-.268.074-.374.034-.061.167-.207.25-.16.062.039.019.214.017.266-.007.141-.013.284-.023.426-.01.177-.065.519-.065.519s-.017.12.006.196c.137-.38.178-.787.214-1.19a.506.506 0 00-.068-.291c-.126-.245-.255-.497-.332-.763-.014-.05-.082-.408-.001-.452.013-.007.028-.007.046.002.046.022.069.083.093.125.209.375.488.732.594 1.157.059.245.074.495.108.743.041.293.039.574-.097.832a3.72 3.72 0 01-.474.688c-.18.213-.569.531-.927.866-.06.057-.118.111-.175.17-.093.09-.178.181-.257.269a1.354 1.354 0 00-.138 1.283l.015.037c-.016-.019-.035-.038-.049-.058l-.006-.01c-.083-.116-.163-.223-.231-.346-.056-.107-.119-.222-.161-.349z" fill="#1F7240"/></g></g><defs><clipPath id="clip0"><path fill="#fff" transform="rotate(-20.482 1177.42 -1175.945)" d="M0 0h146.184v60.629H0z"/></clipPath><clipPath id="clip1"><path fill="#fff" transform="rotate(-18.481 1324.246 -1523.448)" d="M0 0h10.994v12.313H0z"/></clipPath></defs></svg>