<svg width="957" height="428" fill="none" xmlns="http://www.w3.org/2000/svg"><path d="M188.5 1h508C953.5 1 1026 272 885 328.5s-251-73.5-520.5 0S178 417 1 427" stroke="#FAA53C" stroke-width="2" stroke-linecap="round" stroke-dasharray="7 7"/><g clip-path="url(#clip0)"><path d="M299.259 326.119s.215.699.459 1.706c.579 2.403 1.346 6.567-.079 7.541 0 0-2.975 1.913-3.745 1.764 0 0-3.825-11.02-13.821-10.484-5.917.333-16.239 4.104-11.825 20.561 0 0-61.073 21.151-64.92 23.343 0 0-1.698.306-2.294-2.293a13.773 13.773 0 00-.55-1.386c-1.445-3.239-5.956-10.919-15.478-9.503 0 0-13.77 1.819-11.133 17.072.122.715.282 1.458.486 2.232.204.773.428 1.572.705 2.403 0 0-4.439 2.944-7.058 2.054 0 0-5.019 1.907-5.206 1.672l-.717-1.328.072-.21c.245-.716.93-3.004-.293-2.707a28.957 28.957 0 01-3.531-8.488c-1.133-5.093-.567-11.219 6.741-14.629 0 0 16.811-10.467 20.835-14.875 7.329-8.028 19.044-23.441 42.004-30.58 9.917-3.085 25.871-9.274 40.155-10.633a5.879 5.879 0 011.571 1.53s12.539 6.146 13.238 6.434c.566.258 1.154.475 1.683.733.818.363 1.606.79 2.355 1.28 2.281 1.519 3.734 3.713 3.522 7.932.037-.013 6.626 5.21 6.824 8.859z" fill="#EEBB2D"/><path d="M180.402 378.485l-3.324.589s-7.115-15.43 7.05-21.017c5.39-2.121 15.904-1.922 19.714 12.174 0 0-.346 2.768-2.707 4.063 0 0 2.492-14.845-12.859-14.444-5.402.117-13.545 7.21-7.874 18.635zm91.726-32.159l-1.959.849s-6.389-13.8 6.842-19.925c5.259-2.434 15.957-1.266 18.898 9.888 0 0-.601-1.006-2.037.113 0 0-2.73-7.561-12.005-7.81-5.423-.153-13.902 5.098-9.739 16.885z" fill="#2A2B2A"/><path d="M201.194 367.42c-1.98-6.159-8.74-9.495-15.098-7.451-6.358 2.044-9.908 8.694-7.928 14.854 1.981 6.159 8.74 9.496 15.099 7.452 6.358-2.045 9.908-8.695 7.927-14.855z" fill="#3D4039"/><path d="M197.682 368.816c-1.457-4.532-6.359-7.009-10.948-5.534-4.59 1.476-7.13 6.345-5.673 10.877 1.457 4.532 6.359 7.01 10.949 5.534 4.589-1.475 7.129-6.345 5.672-10.877z" fill="#D6E3DD"/><path d="M195.134 369.386a5.998 5.998 0 01-1.877 6.389 6.002 6.002 0 11-5.693-10.317 6.034 6.034 0 016.436 1.867c.51.606.895 1.306 1.134 2.061z" fill="#3D4039"/><path d="M196.915 370.265l-.567-2.234-4.503 1.418c-.054-.069-.107-.138-.17-.204l2.501-3.863-1.974-1.187-2.207 4.147a3.215 3.215 0 00-.267-.036l-.94-4.615-2.227.583 1.319 4.45a3.266 3.266 0 00-.296.2l-4.009-2.488-1.122 2.024 4.047 2.038c-.066.236-.103.48-.109.726l-4.491 1.246.755 2.173 4.371-1.633c.026.07.097.123.147.18l-2.382 4.143 2.068 1.025 1.981-4.275c.143.025.287.038.433.041l.677 4.652 2.264-.409-1.108-4.778a2.52 2.52 0 00.219-.166l-.036.055 3.918 2.734 1.256-1.929-4.149-2.385c.058-.213.091-.431.099-.652l4.502-.981z" fill="#D6E3DD"/><path d="M188.37 369.979a.656.656 0 11-1.25.397.656.656 0 011.25-.397zm2.781-.57a.658.658 0 01-.55.851.654.654 0 11.55-.851zm.496 2.758a.658.658 0 01-.55.851.656.656 0 11.55-.851zm-2.809.576a.648.648 0 01-.2.699.658.658 0 01-.997-.182.658.658 0 01.873-.901.66.66 0 01.324.384z" fill="#C6C6C6" stroke="#3D4039" stroke-width=".1" stroke-miterlimit="10"/><path d="M294.008 336.393c1.98 6.156-1.573 12.793-7.926 14.851-6.352 2.058-13.128-1.288-15.089-7.433-1.962-6.144 1.573-12.793 7.925-14.851 6.353-2.058 13.112 1.271 15.09 7.433z" fill="#3D4039"/><path d="M290.501 337.783c-1.456-4.532-6.358-7.011-10.948-5.536-4.59 1.475-7.13 6.344-5.674 10.876 1.456 4.532 6.357 7.011 10.947 5.536 4.59-1.474 7.131-6.344 5.675-10.876z" fill="#D6E3DD"/><path d="M287.947 338.356a6.003 6.003 0 01-1.875 6.396 6 6 0 01-6.625.728 6.003 6.003 0 01-3.219-5.836 6.008 6.008 0 014.15-5.216 6.03 6.03 0 014.597.398 6.027 6.027 0 012.972 3.53z" fill="#3D4039"/><path d="M289.734 339.234l-.571-2.232-4.503 1.418a1.734 1.734 0 00-.17-.204l2.499-3.867-1.972-1.183-2.188 4.136c-.085-.015-.177-.023-.265-.033l-.94-4.615-2.236.586 1.323 4.449a3.337 3.337 0 00-.3.201l-3.977-2.504-1.12 2.028 4.047 2.038c-.067.236-.103.48-.109.726l-4.488 1.244.735 2.181 4.338-1.62c.046.062.096.119.145.175l-2.376 4.146 2.057 1.034 1.975-4.277c.145.024.292.038.439.042l.692 4.657 2.263-.414-1.108-4.778.216-.16-.035.055 3.917 2.734 1.256-1.929-4.146-2.39c.058-.213.091-.432.099-.652l4.503-.992z" fill="#D6E3DD"/><path d="M281.178 338.932a.648.648 0 01-.201.7.657.657 0 01-1.076-.554.658.658 0 01.706-.6.65.65 0 01.447.23.65.65 0 01.124.224zm2.778-.564a.656.656 0 11-1.25.397.656.656 0 011.25-.397zm.499 2.762a.65.65 0 01-.549.851.654.654 0 01-.647-.333.652.652 0 01.371-.942.667.667 0 01.502.039.649.649 0 01.323.385zm-2.804.578a.656.656 0 11-.825-.425.66.66 0 01.825.425z" fill="#C6C6C6" stroke="#3D4039" stroke-width=".1" stroke-miterlimit="10"/><path d="M286.587 308.037l-.025.01c-1.303.66-6.692 1.274-6.692 1.274-2.797.946-6.104 2.158-9.785 3.566-20.566 7.879-52.82 21.968-73.708 31.235a3347.444 3347.444 0 00-20.342 9.11c-4.536 6.731-15.654 16.845-15.654 16.845l-.05-.009c-1.132-5.093-.566-11.219 6.741-14.629 0 0 2.925-1.82 6.631-4.266 5.172-3.41 11.858-8.043 14.204-10.61 7.329-8.028 19.045-23.44 42.004-30.579 9.917-3.085 25.871-9.274 40.155-10.633a5.868 5.868 0 011.572 1.53c.31.151 10.988 5.387 12.949 6.303a5.6 5.6 0 00.283.129c.6.236 1.172.473 1.717.724z" fill="#E59C0A"/><path d="M235.293 332.265c.297.932-1.405 2.309-3.803 3.078-2.398.769-4.598.633-4.882-.303-.284-.936 1.401-2.307 3.799-3.076 2.397-.769 4.602-.649 4.886.301zm33.255-14.214c.301.93-1.401 2.307-3.799 3.076-2.398.769-4.581.641-4.88-.285-.299-.926 1.405-2.309 3.799-3.076 2.393-.767 4.59-.63 4.88.285zm14.557-.151a2.929 2.929 0 01-.89 3.124 2.927 2.927 0 01-3.228.374 2.93 2.93 0 01-1.58-2.839 2.918 2.918 0 012.017-2.547 2.928 2.928 0 013.681 1.888z" fill="#F49211"/><path d="M194.544 336.591s-10.625 11.634-5.054 9.845l6.887-2.31s-1.797-3.957-1.833-7.535z" fill="#EEBB2D"/><path d="M292.471 317.247c-2.219 1.035-11.885-3.203-11.885-3.203-4.007-2.546 8.076-4.669 8.076-4.669l.287-.061c2.281 1.519 3.743 3.71 3.522 7.933zm-87.541 9.461c2.864-2.389 15.227-12.26 25.043-14.269a.544.544 0 01.227.007.543.543 0 01.355.266.55.55 0 01.07.216c.284 2.269 1.281 10.454 1.445 14.036a1.557 1.557 0 01-.93 1.493l-23.336 10.18-2.8-3.249-.697-7.345a1.71 1.71 0 01.623-1.335z" fill="#D6E3DD"/><path d="M204.93 326.708c2.864-2.389 15.227-12.26 25.043-14.269a.544.544 0 01.227.007.543.543 0 01.355.266.55.55 0 01.07.216c.284 2.269 1.281 10.454 1.445 14.036a1.557 1.557 0 01-.93 1.493l-23.336 10.18-2.8-3.249-.697-7.345a1.71 1.71 0 01.623-1.335z" fill="#D6E3DD"/><path d="M204.93 326.708c2.864-2.389 15.227-12.26 25.043-14.269a.544.544 0 01.227.007.543.543 0 01.355.266.55.55 0 01.07.216c.284 2.269 1.281 10.454 1.445 14.036a1.557 1.557 0 01-.93 1.493l-23.336 10.18-2.8-3.249-.697-7.345a1.71 1.71 0 01.623-1.335z" fill="#D6E3DD"/><path d="M204.93 326.708c2.864-2.389 15.227-12.26 25.043-14.269a.544.544 0 01.227.007.543.543 0 01.355.266.55.55 0 01.07.216c.284 2.269 1.281 10.454 1.445 14.036a1.557 1.557 0 01-.93 1.493l-23.336 10.18-2.8-3.249-.697-7.345a1.71 1.71 0 01.623-1.335z" fill="#D6E3DD"/><path d="M176.37 376.671c.19.774.427 1.572.705 2.403 0 0-4.44 2.944-7.058 2.054 0 0-5.02 1.908-5.206 1.672l-.731-1.327s10.473-3.72 12.07-4.711a.553.553 0 01.22-.091zm-7.796 1.64s-2.808 2.636-4.418 2.951c.244-.715.929-3.004-.293-2.707 0 0-1.44-8.217 1.602-9.912 0 0 5.673 8.589 3.109 9.668z" fill="#F49211"/><path d="M168.573 378.311c-1.388-1.829-3.099-9.639-3.099-9.639s5.662 8.56 3.099 9.639z" fill="#E27E05"/><path d="M266.86 334.892c-1.45.466-3.296-2.29-3.296-2.29-.83-3.089-3.626-1.425-4.887-1.306-20.297 1.901-51.346 18.827-58.246 21.531-.569.212-4.745 3.899-4.701 4.004-4.487-2.549-9.855-1.726-12.906-.343-13.075 5.893-7.087 17.913-7.087 17.913l.15.038c-2.633-15.245 11.116-17.066 11.116-17.066 7.846-1.166 13.604 3.744 15.478 9.503-.051-.225 6.706-1.326 7.339-1.718l34.051-11.718 18.656-6.42s3.225-.491 3.373-5.184c.013-.216.012-.446.006-.688a41.03 41.03 0 011.346-5.746c-.116-.374-.249-.555-.392-.51z" fill="#E59C0A"/><path d="M209.488 363.348s24.728-15.489 47.209-19.6l-47.209 19.6z" fill="#F7D877"/><path d="M167.381 363.298s11.844 1.721 22.054-17.659l-13.4 7.597s-4.68 6.034-8.654 10.062z" fill="#EEBB2D"/><path d="M284.603 307.181c-.143-.003-.302-.014-.479-.023a18.625 18.625 0 01-12.487-6.273c.326.145 11.004 5.381 12.966 6.296z" fill="#F49211"/><path d="M257.403 301.625s1.368-2.319 2.448-.446l-2.448.446z" fill="#111"/><path d="M260.589 296.194l-.206-.062-1.364 4.549.206.062 1.364-4.549z" fill="#111"/><path d="M299.736 327.836c.578 2.404 1.345 6.567-.08 7.541 0 0-2.975 1.914-3.744 1.765 0 0-3.825-11.021-13.821-10.484-5.917.332-16.24 4.104-11.825 20.561 0 0-61.074 21.15-64.921 23.343 0 0-1.698.305-2.293-2.294 0 0-.24-.717-.619-1.557 0 0 52.53-25.724 63.475-24.864 0 0 .459-14.921 14.704-16.787a15.436 15.436 0 0110.742 2.518s6.047 2.365 8.248.341a.477.477 0 01.134-.083z" fill="#F49211"/><path d="M176.455 351.516s12.699-7.865 15.372-11.844c0 0-6.864 8.445-2.483 6.462 24.381-11.051 80.787-33.462 80.84-33.346 1.25 2.932-94.361 40.556-94.361 40.556s1.327-.984.632-1.828z" fill="#F7D877"/><path d="M270.079 299.346s-3.462 1.955-4.135 3.018a1.012 1.012 0 01-.8.473 101.069 101.069 0 00-16.742 2.559s11.589-4.165 21.677-6.05z" fill="#E27E05"/><path d="M176.032 353.232l-.085.186a1.991 1.991 0 01-.098.215c-3.744 8.013-12.624 10.644-12.624 10.644a6.939 6.939 0 01.706-5.826 9.512 9.512 0 012.315-2.601c.193-.162.407-.317.623-.468 0 0 3.125-1.763 6.829-4.213l.059.007s4.655-.458 2.275 2.056z" fill="#E0E9EF"/><path d="M265.91 341.832c-.148 4.693-3.373 5.184-3.373 5.184l-18.656 6.42-34.051 11.718a6.615 6.615 0 01-1.691.777l-2.391-.81s46.434-23.217 59.838-23.29c.113.014.223.006.324.001z" fill="#E27E05"/><path d="M269.838 330.305c-1.111 1.175-1.964 3.151-2.589 5.098a40.97 40.97 0 00-1.342 5.745c.006.241.006.467-.006.687-.148 4.694-3.373 5.184-3.373 5.184l-18.656 6.42-34.051 11.718a6.625 6.625 0 01-1.69.777c-3.012.862-3.591-2.311-3.591-2.311-2.504-2.669-4.291-6.147-5.544-9.425a49.802 49.802 0 01-2.641-10.088c3.888-2.32 22.099-10.071 39.44-17.285 17.581-7.313 34.271-14.068 34.271-14.068 5.66 9.434-.228 17.548-.228 17.548zm-34.09-3.289s4.445 22.394 7.934 26.179" stroke="#E27E05" stroke-miterlimit="10"/><path d="M270.078 312.753a.25.25 0 01.009.138c-9.597 3.678-21.741 8.707-34.089 13.967-14.109 6.012-28.481 12.328-39.62 17.268 0 0-3.088-7.564-.835-9.851 0 0 14.692-17.524 38.035-24.492 7.666-2.286 29.261-9.522 31.51-5.499-.011-.019 4.432 6.851 4.99 8.469z" fill="#434443"/><path d="M237.197 311.13c.548 3.288 2.227 13.289 2.477 13.909l22.495-8.989s2.377-7.46-.089-11.083c-.303-.446-16.301 2.08-24.043 4.755a1.273 1.273 0 00-.84 1.408zm-40.157 23.783c1.005-1.723 3.985-4.413 5.536-5.739a.415.415 0 01.405-.073.414.414 0 01.264.316c.294 1.693 1.068 6.342.747 6.763 0 0-4.078 2.908-6.228 2.481.003.008-1.437-2.529-.724-3.748z" fill="#D6E3DD"/><path d="M203.513 333.71s3.048 2.767 1.871 4.821c0 0-4.709 2.473-6.022-.853 0 0-.758-3.111 4.151-3.968z" fill="#2A2B2A"/><path d="M204.93 326.708c2.864-2.389 15.227-12.26 25.043-14.269a.544.544 0 01.227.007.543.543 0 01.355.266.55.55 0 01.07.216c.284 2.269 1.281 10.454 1.445 14.036a1.557 1.557 0 01-.93 1.493l-23.336 10.18-2.8-3.249-.697-7.345a1.71 1.71 0 01.623-1.335z" fill="#D6E3DD"/><g clip-path="url(#clip1)"><path d="M217.339 353.175l-.071.024-.193.064-.481-1.439.193-.065.07-.024.639-.213.015.117-.617.206.184.551.432-.144.037.109-.432.144.186.557.617-.206.016.118-.596.199.001.002zm1.251-.848a1.291 1.291 0 00-.343.055l-.007.483-.114.038.019-1.594.272-.091.972 1.263-.277.092-.222-.288a1.2 1.2 0 01-.3.042zm-.331-.862l-.01.79a1.27 1.27 0 01.337-.048 1.07 1.07 0 00.225-.026l-.552-.716zm1.263-.628l.401-.134.058.104-.422.141.445 1.33-.266.089-.444-1.33-.402.134-.056-.105.42-.141.266-.088zm2.401.779l-.039-.027a.875.875 0 01-.389.17.566.566 0 01-.342-.026.37.37 0 01-.21-.233.353.353 0 01.01-.268.45.45 0 01.186-.201 1.274 1.274 0 01-.157-.133.323.323 0 01-.081-.14.337.337 0 01.024-.264.341.341 0 01.206-.179.276.276 0 01.247.028.391.391 0 01.158.205.348.348 0 01.004.215.366.366 0 01-.13.197c.184.124.359.24.529.348a.212.212 0 00-.008-.136l.039-.013.032-.011.038-.013.001.002a.388.388 0 01.002.236c.066.043.138.087.216.135l-.336.108zm-.464.036a.584.584 0 00.325-.134c-.079-.059-.175-.128-.282-.209-.108-.081-.21-.156-.304-.229-.082.091-.099.208-.049.351.03.084.073.142.132.178a.3.3 0 00.178.043zm-.297-1.239c-.04.014-.07.045-.09.094-.02.049-.012.111.023.184.011.02.032.043.06.07a.988.988 0 00.083.071c.026.021.045.034.057.043.002.001.003.003.005.002a.073.073 0 00.011.009c.003.001.006.005.009.008l.009.005c.002.002.005.003.005.005.003.001.003.001.003.003l.003.001.003.002a.268.268 0 00.093-.16.277.277 0 00-.021-.163.352.352 0 00-.117-.147c-.047-.033-.092-.042-.136-.027zm2.45.236c.048.125.037.233-.031.328s-.181.169-.339.224l-.002.001-.002.001-.009.003-.017.006-.025.008a.682.682 0 01-.343.036.517.517 0 01-.247-.116l.067-.106a.456.456 0 00.372.096c.049-.011.085-.018.105-.027h.005a.251.251 0 00.186-.117.167.167 0 00.02-.15c-.019-.056-.062-.097-.132-.12a1.752 1.752 0 00-.254-.062 3.457 3.457 0 01-.281-.065l-.025-.006a.566.566 0 01-.174-.062.341.341 0 01-.16-.192.344.344 0 01.05-.328.715.715 0 01.341-.225h.002l.002-.001.004-.001.002-.001.001-.001.004-.001a.706.706 0 01.338-.032.501.501 0 01.242.114l-.067.105a.46.46 0 00-.374-.095.967.967 0 00-.103.027.392.392 0 00-.186.125c-.041.055-.052.11-.034.166.018.051.059.085.124.103.065.017.144.031.237.043.111.012.228.032.354.065.007.002.014.006.023.007a.737.737 0 01.181.07.404.404 0 01.145.18zm.74-.248a1.123 1.123 0 00-.343.055l-.007.482-.114.038.019-1.594.271-.091.973 1.263-.276.092-.221-.289a1.153 1.153 0 01-.302.044zm-.331-.863l-.01.791c.143-.035.254-.053.336-.049.062.001.138-.007.225-.026l-.551-.716zm1.771.614l.016-1.413.117-.039-.019 1.609-.275.092-.983-1.275.279-.093.865 1.119zm1.07-.161l-.071.024-.193.064-.481-1.44.193-.064.071-.024.638-.213.016.118-.617.206.184.551.432-.144.037.11-.432.144.186.557.617-.207.016.119-.596.199z" fill="#1F7240"/><path d="M218.868 340.501a6.623 6.623 0 00.037.686 1.138 1.138 0 01-.761-.523l-.06-.101c-.012-.021.007-.029.032-.043a.532.532 0 01.133-.052c.055-.011.107-.025.161-.034a.731.731 0 01.458.067zm1.636-.477c-.01.045-.019.09-.031.136l-.008.028a1.319 1.319 0 01-.406.655 1.231 1.231 0 01-.424.236c-.056.016-.128.038-.174.003a5.946 5.946 0 01-.025-.657.849.849 0 01.186-.232.93.93 0 01.458-.2c.065-.01.131-.012.198-.02a.578.578 0 01.171.012c.037.008.061.012.055.039z" fill="#5FAD56"/><path d="M219.344 339.917c-.038.44-.035.877.014 1.304a2.416 2.416 0 00-.232.043 1.12 1.12 0 00-.093.021 6.373 6.373 0 01-.046-.697l.001-.003a7.143 7.143 0 01.025-.699.168.168 0 01.112-.144.169.169 0 01.067-.007.172.172 0 01.152.182z" fill="#1F7240"/><path d="M222.879 343.392a3.2 3.2 0 01.13 1.515 3.205 3.205 0 01-5.369 1.849 3.204 3.204 0 01-.848-1.33 3.224 3.224 0 01.781-3.312c.338-.338.76-.602 1.242-.764.034-.011.07-.02.106-.03.006-.004.013-.004.02-.007l.038-.01c.02-.007.039-.01.059-.017.032-.008.061-.016.094-.021a3.22 3.22 0 01.231-.043c.021-.005.04-.006.06-.008a.355.355 0 01.047-.006c.005.001.007 0 .012-.001.27-.031.538-.026.797.013l.098.014a3.219 3.219 0 012.502 2.158z" fill="#FFA73A"/><path d="M222.267 342.898c-.051.136-.289.065-.367.185-.05-.075-.098-.153-.145-.229-.056-.026-.121.028-.133.089-.012.061.008.121.024.183.039.145.049.3.028.451-.083-.02-.152.075-.161.16-.008.079.02.171-.01.243-.021.056-.086.111-.114.167-.033.063-.086.098-.154.091-.079-.006-.13.033-.169.091-.098.137-.221.24-.357.332a.373.373 0 00-.172.305c-.003.056-.02.111-.036.165-.021.069-.059.117-.134.137-.05.012-.094.043-.141.064-.083.04-.164.1-.249.133-.079.034-.181.026-.24.098-.067.074-.038.188-.007.281.034-.008.067-.02.104-.02.035.001.073.013.093.044.033.046.012.109-.007.161a.585.585 0 01-.16.246c-.078.06-.203.068-.27-.006a7.578 7.578 0 01-.022.252c0 .027-.003.055.01.081.016.026.053.039.082.037.031-.001.061-.016.092-.026.062-.028.128-.058.196-.048.066.007.135.066.126.136-.011.055-.064.11-.04.159.018.031.053.042.089.045a.566.566 0 00.209-.023c.055-.019.113-.045.165-.023.051.02.09.093.091.147.001.057-.033.095-.011.16.004.011-.009.025-.009.04.002.027.004.056.01.081.003.016.017.029.022.044.031.072.021.1-.047.138-.071.04-.141.081-.214.118a.292.292 0 00-.057.036 3.21 3.21 0 01-2.546-.859c-.002-.066-.01-.135-.005-.201a.192.192 0 01.078-.142l.127-.122c-.054-.13-.04-.177.09-.208.139-.034.227-.13.325-.22.09-.079.177-.158.267-.235a.121.121 0 01.123-.029c.038.01.078.019.117.025.039.007.068-.002.082-.047.025-.087.09-.131.182-.135a.437.437 0 00.261-.104c.144-.113.338-.101.479-.225a.15.15 0 01-.112-.098.205.205 0 01.175.06c.027.028.049.065.085.083.036.015.08.005.118-.007.047-.014.096-.03.125-.067.03-.037.037-.097.001-.129-.027-.023-.063-.021-.1-.028-.034-.006-.073-.026-.074-.06 0-.074.107-.135.123-.214.015-.087-.015-.183.029-.267.028-.056.096-.067.124-.114.036-.056-.009-.249.09-.269.016-.003.034.006.049.015.052.035.096.08.15.116.053.034.116.06.177.05.06-.011.116-.071.108-.133-.009-.064-.076-.111-.071-.174.006-.042.041-.071.079-.089.023-.012.047-.022.069-.037l.032-.031c-.055-.046-.108-.102-.166-.142-.016-.01-.167-.073-.175-.053a.14.14 0 00.008-.07.14.14 0 00-.021-.072.522.522 0 01.094-.1c-.172-.037-.346-.07-.518-.107-.039-.007-.081-.015-.116.007a.15.15 0 00-.047.05c-.116.17-.247.295-.379.451-.03-.156-.133-.22-.24-.318-.083-.079-.169-.161-.297-.094-.012.007-.02.019-.033.033l.049.051c.038.039.032.081-.015.101a.892.892 0 01-.189.056c-.05.012-.102.009-.153.014l-.16.006.028-.152a.18.18 0 00-.066-.184c-.041-.033-.085-.068-.123-.102-.043-.038-.043-.06-.001-.096.028-.027.062-.043.092-.066.029-.022.061-.045.087-.071.032-.035.026-.061-.014-.087-.034-.018-.065-.04-.1-.048-.138-.03-.278-.058-.418-.085-.015-.003-.029.002-.041.001-.076.008-.076.008-.094.081a.193.193 0 01-.2.158c-.066-.003-.095-.04-.075-.103.016-.05.039-.098.062-.147-.041-.034-.08-.02-.12-.02-.051 0-.106.006-.159.002-.072-.008-.092-.039-.077-.111.009-.032.027-.061.033-.092.003-.021-.001-.049-.015-.062l-.021-.018c.065-.078.135-.156.207-.227h.005c.051.006.1.019.15.029.088.02.193.038.27-.011.019-.011.036-.024.039-.045.006-.019.002-.038.004-.055.002-.046.04-.078.078-.106.052-.037.105-.069.162-.098.033-.017.073-.03.103-.008.018.011.026.034.043.048.021.02.055.018.082.01.027-.009.05-.027.077-.041a.375.375 0 01.041-.019c.116-.036.248.012.359.093a.8.8 0 01.245.292l.619-.18c.023-.005.045-.015.053-.035.015-.03-.013-.06-.034-.087a.314.314 0 01-.053-.299c-.009.02-.193-.015-.214-.021a.666.666 0 01-.109-.037 1.828 1.828 0 00.877-.316c.262.046.517.124.757.23.039.093.078.182.077.283.034-.001.067 0 .099-.006a.357.357 0 01.282.047c.066.043.141.074.212.11l.065.042c-.016.048-.027.089-.04.13a.218.218 0 00.004.145c.072.186.111.361.295.463.094.053.189.137.153.228z" fill="#FFC446"/><path d="M218.124 344.441a.736.736 0 01-.3.251c-.099.043-.462.165-.521.004-.019-.051.012-.103.044-.149.038-.057.08-.115.142-.141.072-.029.153-.009.229-.017.106-.013.363-.24.463-.17.068.052-.021.173-.057.222zm4.919.143a3.126 3.126 0 01-.033.323c-.017-.007-.034-.014-.046-.022-.026-.016-.052-.037-.081-.035-.031.003-.053.033-.072.059a1.307 1.307 0 00-.094.182.655.655 0 01-.566.088c-.031-.01-.156-.052-.157.01-.001.013.003.024.002.037-.001.025-.024.045-.048.053-.024.01-.049.009-.074.017a.087.087 0 00-.059.044c-.011.026-.001.055-.015.08a.054.054 0 01-.054.023c-.028-.003-.043-.02-.062.006-.012.016-.012.043-.011.063 0 .015.022.124.011.127a.434.434 0 01.13-.031c.009 0 .019-.001.026.006.008.008.005.021.001.032-.012.074.035.142.082.2l-.122.108c-.037.035-.08.032-.131.034a.542.542 0 00-.369.18c-.079-.04-.173-.1-.214-.186a2.13 2.13 0 00.223-.091c.008-.006.018-.012.023-.018.022-.03-.015-.082-.031-.109-.019-.028-.052-.031-.084-.038-.043-.011-.067.015-.109.014-.026.001-.054-.014-.058-.04-.006-.04.039-.068.041-.108.001-.027-.019-.05-.037-.072-.019-.021-.036-.049-.025-.075.039.019.077.038.118.035.04-.004.076-.031.108-.061.036-.032.068-.068.1-.105a.257.257 0 01.06-.063c.031-.018.067-.02.101-.029.102-.026.099-.117.02-.169-.028-.018-.059-.052-.045-.084.013-.027.044-.03.072-.034a.387.387 0 00.242-.146c.02-.021.042-.043.073-.046.03-.005.058.01.085.018.145.043.259-.126.403-.04.015.009.032.021.052.022.022 0 .039-.021.05-.041.018-.034.023-.072.033-.108.012-.036.032-.073.07-.085.036-.01.074.007.108.015a.346.346 0 00.245-.027c.031.106.066.102.118.087z" fill="#FFC446"/><path d="M220.919 349.099a1.496 1.496 0 00-.54-.753 2.42 2.42 0 00-.848-.37c-.293-.072-.598-.087-.886-.169a2.944 2.944 0 01-1.151-.62c-.088-.079-.174-.204-.284-.253-.063-.029-.258-.065-.295.022-.027.068.112.182.146.223.09.108.181.219.274.327.114.135.364.375.364.375s.085.085.113.16c-.338-.221-.615-.521-.886-.822a.503.503 0 01-.121-.274 4.246 4.246 0 00-.194-.808c-.018-.049-.179-.376-.271-.362-.014.002-.026.011-.035.028-.024.046-.005.109.001.156.058.426.05.879.221 1.282.1.232.238.44.361.659.143.259.314.481.577.606.248.123.528.202.793.265.272.062.773.083 1.261.135.082.009.161.018.242.03.129.017.251.038.367.061.414.133.757.479.882.942l.01.039c.002-.026.005-.051.004-.076l-.001-.012c-.003-.142-.004-.276-.023-.415-.018-.12-.037-.25-.081-.376zm.865-.29a1.485 1.485 0 01-.021-.926c.09-.297.259-.564.454-.805.191-.234.426-.429.607-.668.263-.347.461-.758.547-1.187.022-.116.016-.268.074-.374.034-.061.167-.207.25-.16.062.039.019.214.017.267-.007.14-.013.284-.023.425a7.07 7.07 0 01-.065.519s-.017.12.006.196c.137-.379.178-.787.214-1.189a.507.507 0 00-.068-.292c-.126-.245-.255-.496-.332-.763-.014-.049-.082-.408-.001-.452.013-.007.028-.007.046.002.046.022.069.083.093.125.209.375.488.732.594 1.157.059.245.074.495.108.744.041.293.039.573-.097.831a3.72 3.72 0 01-.474.688c-.18.214-.569.532-.927.867-.06.057-.118.111-.175.169a5.73 5.73 0 00-.257.269 1.354 1.354 0 00-.138 1.283l.015.038c-.016-.02-.035-.038-.049-.058l-.006-.011c-.083-.115-.163-.222-.231-.345-.056-.108-.119-.223-.161-.35z" fill="#1F7240"/></g></g><defs><clipPath id="clip0"><path fill="#fff" transform="rotate(-20.482 1009.809 -240.254)" d="M0 0h146.184v60.629H0z"/></clipPath><clipPath id="clip1"><path fill="#fff" transform="rotate(-18.481 1156.792 -484.412)" d="M0 0h10.994v12.313H0z"/></clipPath></defs></svg>