<svg width="83" height="75" fill="none" xmlns="http://www.w3.org/2000/svg"><g clip-path="url(#clip0)"><path d="M71.033 42.29c-2.148 2.856-3.63 6.189-5.76 9.084-.532.722-1.1 1.419-1.687 2.1.049-.151.103-.294.147-.446a.566.566 0 00-.609-.691.561.561 0 00-.32.146c-2.74 2.366-5.31 4.28-8.319 5.625a.648.648 0 00-.533.093l-.636.398A24.188 24.188 0 0149.03 59.8a56.415 56.415 0 01-17.78.24c-5.636-.83-10.686-3.572-15.08-7.111-3.772-3.053-6.81-6.905-10.299-10.233-1.144-2.944-1.957-5.997-3.327-8.834-.2-.422-.768-.166-.797.221-.367 4.368 1.34 8.834 3.146 12.76a36.354 36.354 0 007.437 10.488c5.675 5.62 13.328 9.119 21.175 10.248a35.877 35.877 0 0024.307-5.325 37.23 37.23 0 009.184-8.545c2.378-3.047 4.957-6.836 5.573-10.738a.847.847 0 00-.448-1.067.84.84 0 00-1.088.385z" fill="#637A26"/><path d="M82.79 13.197c-.26-1.82-2.25-7.101-4.844-6.036a.054.054 0 00-.034.049c-.088 1.05.763 1.732 1.282 2.6a11.05 11.05 0 011.468 4.418c-.03-.098-.054-.197-.089-.29a1.079 1.079 0 00-1.167-.736 1.076 1.076 0 00-.932 1.02c-.053 2.945.319 5.826.177 8.761a42.237 42.237 0 01-1.864 10.012c-1.733 5.776-4.717 11.126-8.24 15.994a72.354 72.354 0 01-5.832 7.092 44.932 44.932 0 01-4.824 3.843 37.59 37.59 0 01-23.05 6.492C18.206 65.662 5.524 52.46 3.792 36.166a.674.674 0 00-.284-.492c0-.387 0-.775-.039-1.163-.068-1.369 0-2.684-.455-3.926.088-.56.181-1.114.289-1.669a.908.908 0 00-.624-1.116.9.9 0 00-1.113.626c-3.807 10.664-.289 22.988 6.41 31.67 7.294 9.461 19.844 13.878 31.494 12.45 10.925-1.335 19.928-8.343 27.061-16.475.299-.314.597-.623.886-.942a36.93 36.93 0 005.162-6.871A56.245 56.245 0 0079.296 34.6a51.782 51.782 0 001.468-5.423c.26-.953.49-1.905.73-2.847 1.037-4.245 1.927-8.726 1.296-13.133z" fill="#405315"/><path d="M69.384 51.011c-5.91 5.531-10.163 12.186-17.277 16.412a35.168 35.168 0 01-21.665 4.564c-7.622-.834-14.732-4.972-19.854-10.576a31.867 31.867 0 01-6.185-10.415c-1.296-3.533-1.678-7.219-2.51-10.865a.492.492 0 00-.489-.491.489.489 0 00-.49.49c-1.49 7.476 2.326 16.153 6.915 21.85a35.013 35.013 0 0020.716 12.426c17.159 3.288 34.225-7.474 41.715-22.703a.576.576 0 00-.52-.818.571.571 0 00-.355.126zM81.938 5.83c-.685-1.786-2.544-3.568-4.57-3.312a1.138 1.138 0 00-1.088.988 1.146 1.146 0 00.785 1.245c.204.077.403.166.597.265.22 1.04.56 2.052 1.013 3.013.279.697.567 1.688 1.125 2.307a3.113 3.113 0 00.607 1.963.665.665 0 00.822.108c1.81-1.365 1.429-4.697.71-6.577z" fill="#1E2B04"/><path d="M5.832 47.757c-.11-.2-.244-.384-.4-.55a1.85 1.85 0 00-.49-.363.874.874 0 00-1.267.491 2.545 2.545 0 00-.04 1.32 1.867 1.867 0 00.881 1.183.977.977 0 001.468-.594 1.919 1.919 0 00-.152-1.487zm.235 7.46a.586.586 0 00-.876.49c-.054 1.473.543 3.392 1.997 3.996a.732.732 0 00.9-.516c.42-1.492-.88-3.145-2.02-3.97zm5.798-1.615a.91.91 0 00-.063-.343 2.568 2.568 0 00-.216-.49 1.611 1.611 0 00-.86-.737.86.86 0 00-1.058.604c-.074.392-.003.8.201 1.143.093.152.2.295.318.427a.812.812 0 00.25.216c.195.098.259.118.195.074a.766.766 0 00.822.034.745.745 0 00.372-.687c.01.04.024-.04.04-.24zm4.952 9.438a2.637 2.637 0 00-.67-.741 4.94 4.94 0 01-.686-.672 3.8 3.8 0 00-.783-.82.848.848 0 00-1.233.49c-.489 1.429 1.66 3.652 3.093 2.808a.79.79 0 00.279-1.065zm6.394-2.847c-.43-.79-1.555-1.384-2.417-1.016a.692.692 0 00-.352.624c.069.947 1.184 1.624 2.055 1.639a.83.83 0 00.823-.832.835.835 0 00-.109-.415zm3.347 9.163a2.175 2.175 0 00-.626-.593 7.025 7.025 0 00-.744-.378c-.597-.26-1.189-.55-1.844-.369a.744.744 0 00-.519.913 2.602 2.602 0 001.301 1.276c.243.136.493.259.749.368a2.88 2.88 0 001.086.216c.798.04 1.028-.917.597-1.433zm3.244-4.083a.649.649 0 00-.166.628c.274.981 2.446 1.728 2.798.452.352-1.276-1.893-1.767-2.632-1.08zm4.589 6.587a3.324 3.324 0 00-1.556-.354 2.328 2.328 0 00-1.468.21.66.66 0 00-.286.779.663.663 0 00.154.252 2.35 2.35 0 001.34.6 3.31 3.31 0 001.606.083.866.866 0 00.611-.717.871.871 0 00-.4-.854zm8.327-6.587a1.746 1.746 0 00-.94.044 3.632 3.632 0 00-.395.182c-.054.024-.43.314-.274.206a.764.764 0 00-.27 1.031.763.763 0 00.27.28c-.191-.104.137.097.195.132.127.06.258.113.392.157.332.108.69.108 1.022 0a1.081 1.081 0 00.783-1.03 1.058 1.058 0 00-.783-1.002zm5.142 3.818c-.415-.692-1.198-.702-1.907-.574-.32.019-.626.137-.876.339 0 0-.161.294-.2.348a.605.605 0 00-.035.373c.137.574.622.721 1.11.898.573.206 1.327.26 1.762-.245a.982.982 0 00.147-1.139zm6.513-6.449a2.307 2.307 0 00-1.14-.093 4.21 4.21 0 00-1.164.52.687.687 0 00.342 1.276c.38.018.76-.002 1.135-.058.42-.105.797-.337 1.081-.663a.594.594 0 00-.254-.982zm7.554-2.768c-.108 0-.117 0 0 .03a.904.904 0 00-.49 0 1.539 1.539 0 00-.62.275 5.43 5.43 0 00-.446.373c-.137.117-.254.319-.352.412a.82.82 0 00.934 1.315 3.23 3.23 0 00.866-.383c.402-.255.694-.653.818-1.114a.725.725 0 00-.387-.838.716.716 0 00-.323-.07zm7.472-9.133a.98.98 0 00-.421-.545.873.873 0 00-.92 0c-.106.07-.203.152-.289.246l-.117.152-.034.04c-.06.063-.123.117-.186.176l-.04.039-.156.118c.03 0 0 0-.054.03a4.326 4.326 0 00-.347.255l-.059.048c.132-.112.093-.083-.112.08.112-.109.034-.045-.05.028a.716.716 0 000 1.222c-.146-.112.201.158.24.182.136.079.285.13.44.152.416.056.838-.023 1.204-.225.617-.295 1.175-1.32.9-1.998z" fill="#85A237"/><path d="M68.371 4.854c-5.65-2.331-12.315-1.05-18.103 0a111.35 111.35 0 00-19.81 5.56c-3.675 1.394-7.59 2.896-11.175 4.84a17.958 17.958 0 00-4.115 2.586c-.396.29-.783.584-1.16.888a9.317 9.317 0 00-2.226 2.714c-4.002 5.477-5.025 12.79.832 17.604 4.892 4.024 5.754 10.797 10.881 14.63 4.78 3.553 10.603 4.417 16.381 3.568 12.516-1.836 23.779-12.107 30.677-22.178 3.523-5.134 6.723-11.229 6.796-17.59.069-5.972-3.674-10.433-8.978-12.622z" fill="#E8DC89"/><path d="M73.738 5.399c-5.568-3.78-13.21-2.793-19.502-2.022a92.676 92.676 0 00-20.814 5.25A117.358 117.358 0 0019.42 14.97a40.583 40.583 0 00-5.87 3.558c-3.215-.982-6.493 4.677-7.315 6.969-1.067 2.979-.607 8.947 2.446 10.86a11.83 11.83 0 001.668 2.253c1.233 1.257 2.823 2.15 4.37 3.028.67.918 1.394 1.797 1.99 2.636.162.22.319.446.49.667-.377 1.63 1.282 3.97 2.05 5.158a19.012 19.012 0 006.096 5.723c.976.59 2.015 1.068 3.098 1.423.745.37 1.553.597 2.382.667a48.57 48.57 0 002.784.491c1.944.285 3.912.366 5.872.24a31.337 31.337 0 004.995-.534 34.664 34.664 0 0010.04-3.328c5.26-2.576 12.418-7.548 13.944-13.584a.536.536 0 000-.265 50.038 50.038 0 002.579-3.156c3.914-5.163 7.236-11.155 8.17-17.643.759-5.306-.866-11.597-5.47-14.733zm2.912 15.739c-1.126 6.684-5.427 13.064-9.786 18.07a50.706 50.706 0 01-15.07 11.636c-6.4 3.288-14.492 5.89-21.38 2.626-6.978-3.328-7.472-13.963-13.637-17.874a118.07 118.07 0 00-2.265-2.267c-3.048-2.994-4.222-6.523-1.761-10.307 2.045-3.16 6.36-4.907 9.585-6.571C35.389 9.708 50.62 4.8 65.46 5.55c8.508.432 12.52 7.7 11.19 15.597v-.01z" fill="#B6BE5D"/><path d="M78.553 8.176c-3.396-5.781-9.566-6.42-15.662-6.262a105.93 105.93 0 00-21.303 2.817 102.966 102.966 0 00-16.214 5.29.207.207 0 00-.162-.23c-2.837-.49-6.468 1.56-9.012 2.7a24.54 24.54 0 00-4.594 2.694c-4.14 2.066-7.814 5.629-9.16 10.1-.934 3.087-.352 7.538 1.747 10.409.323.731.675 1.423.979 2.037 1.189 5.045 5.235 9.874 8.787 13.408a34.753 34.753 0 007.784 5.967.142.142 0 000 .197c3.836 2.984 8.954 4.147 13.66 4.878 4.96.78 10.037.29 14.757-1.423 9.115-3.284 17.281-10.905 21.665-19.513 6.556-9.227 12.863-22.63 6.728-33.069zM46.3 57.096c-6.904 1.993-15.53 2.11-21.69-2.026a8.554 8.554 0 01-.64-.491 32.421 32.421 0 01-1.664-2.906 79.506 79.506 0 00-4.824-7.852 76.918 76.918 0 00-5.382-6.724 50.99 50.99 0 00-3.63-3.823 8.363 8.363 0 01-1.253-4.755c.122-3.921 3.058-7.175 6.038-9.379 5.704-4.29 13.01-6.998 19.693-9.275a103.452 103.452 0 0122.017-4.83c6.776-.74 16.37-2.4 21.038 3.833 4.668 6.233 2.031 14.772-.87 21.212C69.5 42.56 59.726 53.22 46.3 57.096z" fill="#83A032"/><path d="M79.81 6.748C76.635 1.35 71.106-.486 65.132.103c-4.144.412-8.269 1.472-12.35 2.272l-13.21 2.597c-7.402 1.472-15.005 2.704-21.968 5.732-6.18 2.694-11.967 6.826-15.03 13.025-2.055 4.157-2.084 9.285.279 13.08A35.904 35.904 0 009.296 49.18a38.272 38.272 0 0014.679 11.356c11.742 5.197 25.388 3.622 35.995-3.465 5.382-3.583 9.487-8.701 12.878-14.13 3.62-5.795 6.806-12.269 8.66-18.87 1.668-5.835 1.414-12.043-1.698-17.324zm.524 10.89c-.2 7.465-4.31 14.92-7.829 21.295-3.424 6.218-7.867 11.946-13.743 16.024-5.876 4.078-12.834 6.007-19.865 6.12-2.7.035-5.394-.27-8.019-.908-2.167-.982-4.8-1.428-6.928-2.454a36.944 36.944 0 01-8.42-5.929 22.061 22.061 0 01-2.902-3.288c-.934-1.614-1.614-3.347-2.392-5.015-.675-1.438-2.295-4.869-4.232-6.174a10.574 10.574 0 01-1.15-1.64c-.367-1.015-.73-2.031-1.101-3.052-.778-4.24 1.11-8.913 4.144-12.353 4.438-5.05 10.926-7.734 17.218-9.58C31.9 8.692 38.96 7.573 45.889 6.2l11.307-2.243c4.247-.844 8.64-2.096 12.995-1.473C77.35 3.51 80.51 11.2 80.334 17.638z" fill="#518206"/><path d="M41.505 12.898c-4.403.338-9.785.711-13.817 2.61-2.187 1.026-4.961 4.167-2.637 6.302 2.412 6.974 10.818 10.748 17.614 11.646 7.706 1.016 17.467-3.573 18.103-12.161.704-10.08-13-8.874-19.263-8.397z" fill="#CAAA82"/><path d="M59.75 16.255c-.744-.982-2.129.103-1.894 1.109.49 2.017-4.755 2.395-6.018 3.091-1.878 1.036-2.3 3.559-3.537 5.13-2.03 2.576-5.808 1.928-7.56-.492-1.496-2.09-.268-4.672-.831-6.964-1.135-4.608-6.101-4.117-9.712-3.013a8.307 8.307 0 00-.49.167 18.18 18.18 0 00-3.723 1.251c-3.283 1.536-5.96 5.148-6.13 8.79-.044.957 1.154 1.08 1.624.442l.093-.123a12.29 12.29 0 003.087 7.43c4.453 5.296 13.113 7.538 19.713 7.661 6.449.103 12.8-2.905 16.39-8.318 3.333-5.06 2.555-11.543-1.012-16.161z" fill="#B0895E"/><path d="M59.49 19.023c-.704-.81-1.878.063-1.678.981.402 1.85.49 5.335-2.734 3.838a3.417 3.417 0 00-2.853 0c-2.412.947-2.98 4.2-5.01 5.698-5.583 4.117-12.095-.142-15.569-4.878a35.46 35.46 0 00-.455-1.075 4.023 4.023 0 00-1.09-1.424c-.754-1.398-1.469-2.763-2.839-3.74-1.873-1.344-4.173.143-5.382 1.571-3.278 3.843-2.505 10.395.46 14.1.1.136.246.231.411.265 1.796 2.503 4.683 4.5 7.12 5.816 5.807 3.14 12.603 4.603 19.12 3.298 10.725-2.145 18.553-15.16 10.5-24.45zM48.874 35.925l-.092.103a1.637 1.637 0 00-.245.353l-.2.035c0-.05-.025-.099-.04-.148.196-.108.392-.22.578-.343z" fill="#97683A"/><path d="M61.77 25.82c-.078-.403-.606-.27-.665.068a.157.157 0 00-.195.069c-.925 1.855-.871 4.137-1.444 6.14-.039.137-.093.27-.137.407a11.48 11.48 0 01-4.452 5.776c-3.724 2.454-7.98 1.183-11.293-1.187-2.935-2.086-5.21-2.042-8.444-.673-4.888 2.047-8.533-2.262-11.166-5.79a1.115 1.115 0 00-.489-.384 3.58 3.58 0 00-1.12-.755.976.976 0 00-1.468.829 16.435 16.435 0 002.77 8.157 23.97 23.97 0 005.822 6.183 20.055 20.055 0 0014.982 3.646c10.499-1.609 19.575-11.395 17.3-22.486z" fill="#7D4716"/></g><defs><clipPath id="clip0"><path fill="#fff" d="M0 0h83v75H0z"/></clipPath></defs></svg>