<svg width="89" height="79" fill="none" xmlns="http://www.w3.org/2000/svg"><path d="M19.189 7.966a6.595 6.595 0 00-.595-3.256 6.645 6.645 0 00-2.105-2.566 1.843 1.843 0 011.328-.502 1.852 1.852 0 011.291.586c.2.26.362.545.48.85.65 1.503 1.2 3.274 1.018 4.888h-1.418z" fill="#744D3E"/><path d="M3.409 38.464c-4.955-6.858-4.39-16.973.919-23.555 5.309-6.583 14.746-9.393 22.973-7.273 8.227 2.12 14.956 8.829 17.59 16.856 1.407 4.303 1.71 8.909 1.332 13.419-.938 11.59-6.65 23.026-16.31 29.597-3.036 2.062-6.495 3.65-10.16 3.92-3.664.27-7.547-.937-9.964-3.674C3.16 60.195 9.674 47.738 3.73 38.99l-.322-.526z" fill="#FFA100"/><path d="M8.153 19.109a.829.829 0 01-.016.103c-.016.069-.027.143-.054.24a5.522 5.522 0 01-.229.663 4.272 4.272 0 01-.314.624c-.06.099-.127.192-.2.28a.388.388 0 01-.42.112.391.391 0 01-.25-.265 1.314 1.314 0 01-.031-.392c.015-.28.085-.555.205-.81a2.28 2.28 0 01.482-.685c.067-.068.142-.13.222-.182l.09-.053a.365.365 0 01.485.153c.032.066.043.14.03.212zm2.273 4.051s0 .032.024.088c.015.078.023.158.024.238 0 .232-.045.462-.131.678a1.658 1.658 0 01-.373.582c-.077.082-.167.15-.267.204a.41.41 0 01-.589-.341v-.02a1.403 1.403 0 01.027-.293 2.37 2.37 0 01.187-.556c.08-.179.18-.349.295-.508a1.66 1.66 0 01.136-.161l.062-.066a.38.38 0 01.533.02c.033.04.058.086.072.136zm3.547-5.499c.004.124-.005.249-.03.37a3.09 3.09 0 01-.226.742c-.1.236-.232.457-.392.659a1.48 1.48 0 01-.266.265.397.397 0 01-.552-.077.395.395 0 01-.077-.212 1.63 1.63 0 01.035-.368c.049-.254.133-.5.25-.73.112-.233.254-.451.421-.649.08-.097.169-.186.267-.265a.357.357 0 01.57.265zM5.22 25.106v.082c0 .05 0 .111-.031.185a1.897 1.897 0 01-.176.477 1.76 1.76 0 01-.29.41 1.27 1.27 0 01-.203.17h-.019a.429.429 0 01-.634-.244.926.926 0 01-.019-.3 1.488 1.488 0 01.613-1.045c.059-.042.121-.078.187-.108l.08-.027a.396.396 0 01.485.265c.01.044.013.09.008.135zm4.673 3.907a.83.83 0 010 .084c-.016.059 0 .096-.02.165-.018.068-.02.137-.034.209a2.01 2.01 0 01-.048.22 2.334 2.334 0 01-.133.404c-.024.058-.05.111-.07.151a.518.518 0 01-.034.064l-.043.068a.408.408 0 01-.64.056.823.823 0 01-.156-.31 1.267 1.267 0 010-.738c.074-.24.215-.456.407-.62a.802.802 0 01.214-.137.77.77 0 01.08-.027.39.39 0 01.407.144.39.39 0 01.064.137c.009.043.01.086.006.13zm19.583 34.533a.92.92 0 01-.016.106 1.36 1.36 0 01-.091.265 2.315 2.315 0 01-1.157 1.177 1.34 1.34 0 01-.378.112.391.391 0 01-.43-.347.379.379 0 01.044-.217 2.11 2.11 0 01.189-.289 4.51 4.51 0 01.474-.513c.167-.162.345-.313.533-.45.083-.064.15-.098.208-.138l.09-.053a.36.36 0 01.486.154.337.337 0 01.048.193zm.786-5.616v.1c-.013.091-.037.18-.07.265a2.16 2.16 0 01-.404.683c-.175.203-.387.37-.624.495a1.28 1.28 0 01-.355.124.397.397 0 01-.453-.325.377.377 0 01.024-.204v-.016c.044-.1.096-.197.158-.288.122-.189.261-.366.415-.53.153-.163.319-.315.496-.452.077-.064.139-.098.192-.138l.088-.053a.364.364 0 01.493.143.35.35 0 01.04.196zm-4.411 3.086s0 .048-.018.127a1.81 1.81 0 01-.123.355 2.584 2.584 0 01-.266.45c-.115.16-.246.307-.392.439a2.874 2.874 0 01-.514.339c-.158.08-.323.143-.494.188a1.863 1.863 0 01-.37.058h-.144a.364.364 0 01-.235-.63l.032-.03c.03-.026.06-.052.091-.076l.235-.18c.192-.143.434-.328.674-.516l.346-.286.307-.264c.093-.085.157-.13.224-.194l.098-.087a.346.346 0 01.512.115c.031.06.044.126.037.192zm-1.623 5.24a1.24 1.24 0 01-.205.312 2.13 2.13 0 01-.626.496 2.08 2.08 0 01-.765.233c-.126.014-.254.01-.379-.014a.395.395 0 01-.295-.468.382.382 0 01.098-.183 2.1 2.1 0 01.267-.212 4.525 4.525 0 011.194-.574c.093-.029.165-.042.229-.058a.813.813 0 01.098-.021.37.37 0 01.408.299c.009.064 0 .13-.024.19zm10.34-8.926l.035.105c.026.105.039.212.04.32a2.17 2.17 0 01-.181.937 2.141 2.141 0 01-.563.776c-.11.1-.236.18-.373.238a.384.384 0 01-.5-.241.376.376 0 01-.006-.204v-.032s0-.04.032-.097c.032-.059.05-.143.09-.239.08-.185.184-.42.296-.65.054-.117.11-.231.163-.342l.152-.307c.048-.098.088-.154.12-.225.032-.072.053-.1.053-.1a.355.355 0 01.488-.114c.07.038.125.1.154.174zm.517-44.126l.398.394c.25.25.618.61 1.03 1.06.214.219.435.462.67.724.234.262.474.543.727.829.254.286.501.595.747.913.245.317.5.638.749.96.247.323.482.662.703.998.221.336.437.67.64.995.202.326.38.651.533.961.152.31.314.606.437.89.122.283.237.529.328.77.09.24.168.434.22.606.11.341.163.53.163.53a.124.124 0 01-.09.147.12.12 0 01-.136-.053s-.11-.174-.267-.484c-.085-.156-.186-.344-.306-.558-.12-.215-.245-.46-.39-.726-.143-.264-.295-.553-.46-.857a38.133 38.133 0 00-.533-.953c-.192-.33-.379-.664-.584-1.003-.205-.339-.418-.68-.629-1.024-.21-.344-.44-.675-.671-.998-.232-.323-.467-.635-.693-.94a13.028 13.028 0 00-.688-.847c-.23-.259-.442-.513-.648-.735a23.444 23.444 0 00-1.015-1.04l-.408-.384a.121.121 0 01.035-.203.122.122 0 01.136.028h.002zm.465 2.877l.178.201.48.53 1.473 1.609c.267.296.533.595.75.892.207.268.4.548.575.839.175.284.316.59.418.907a.126.126 0 01-.09.157.118.118 0 01-.115-.024 2.153 2.153 0 01-.2-.19 6.833 6.833 0 01-.463-.53 15.21 15.21 0 01-.584-.815 14.325 14.325 0 01-.312-.469l-.325-.487c-.216-.325-.44-.648-.664-.942-.224-.294-.442-.556-.631-.794-.387-.442-.67-.72-.67-.72a.12.12 0 01.087-.206c.033 0 .064.012.087.034l.005.008z" fill="#D78325"/><path d="M19.154 3.652c.503.993 1.287 1.975 1.959 2.867 1.436 1.91 3.563 3.231 5.823 4.036 2.26.804 4.661 1.133 7.054 1.344 3.915.347 7.995.37 11.601-1.19-1.543-.808-2.569-2.309-3.68-3.645-2.758-3.322-6.514-5.947-10.764-6.8-4.251-.852-8.99.279-11.993 3.38" fill="#80B133"/><path d="M21.262 3.623h.96c.303 0 .676 0 1.103.032l.682.026.749.059c.266.024.533.037.818.069l.869.105c.301.03.605.077.917.127.311.05.634.093.956.146.645.124 1.314.238 1.986.402.672.164 1.351.334 2.03.508.68.175 1.346.405 1.994.646.648.241 1.282.485 1.892.733.304.13.595.265.885.4.29.135.57.265.837.4l.78.405c.267.132.486.277.715.41.23.132.445.264.648.386l.567.373c.357.239.664.448.906.638.49.37.763.588.763.588a.123.123 0 01.04.13.121.121 0 01-.022.042.128.128 0 01-.157.032s-.304-.17-.823-.482a34.627 34.627 0 00-.95-.545l-.583-.336-.648-.347-.711-.381-.773-.39c-.266-.142-.533-.264-.82-.404-.289-.14-.568-.265-.864-.403-.6-.248-1.21-.529-1.85-.764-.64-.236-1.29-.472-1.943-.704a21.657 21.657 0 00-1.985-.585 70.668 70.668 0 00-1.954-.456 17.46 17.46 0 00-1.865-.31l-.864-.11c-.266-.032-.551-.05-.8-.075l-.761-.063-.675-.032-.591-.029h-1.464a.126.126 0 01-.125-.122.121.121 0 01.123-.121l.008.002z" fill="#006D58"/><path d="M70.091 42.791c-4.387-5.955-8.941-18.262-15.71-21.16-3.116-1.323-6.831-.794-9.776.881-2.945 1.676-5.186 4.367-6.884 7.284-4.461 7.66-5.357 17.013-3.366 25.673 0 0 3.553 9.528 20.844 5.27C72.489 56.478 70.09 42.79 70.09 42.79z" fill="#E9B52F"/><path d="M67.186 44.112c-1.034 1.96.248 5.518 1.525 7.334 1.276 1.815 3.355 2.97 5.53 3.44 2.174.471 4.445.35 6.641-.032 3.238-.56 6.708-1.921 8.118-4.872-4.078.296-8.606-.156-11.46-3.06-1.207-1.228-2.028-2.818-3.382-3.885 0 0-1.828-1.627-3.93-1.117a4.03 4.03 0 00-1.795.72c-.53.383-.958.888-1.247 1.472z" fill="#F0CA43"/><path d="M34.342 55.471a39.721 39.721 0 001.657 5.423c1.506 3.899 3.606 7.612 6.503 10.64 5.405 5.645 13.701 8.57 21.4 7.08 7.7-1.49 14.45-7.56 16.212-15.147 1.762-7.588-1.815-16.232-8.69-19.983l-.48-.312c-1.756-1.024-.376.53-1.525-1.058l-3.69 1.132L46.56 55.723s-1.084-3.354-6.577-2.118c-4.227.943-5.642 1.866-5.642 1.866z" fill="#FFA100"/><path d="M69.692 42.082c-4.531-.913-10.128.778-13.896 3.44-3.768 2.663-6.663 6.395-9.234 10.222a13.573 13.573 0 0113.08-1.324A13.474 13.474 0 0165 58.567a13.345 13.345 0 012.642 6.215c7.385-13.543 3.369-20.302 2.05-22.705M44.323 53.746c-.741-.397-1.706-.112-2.313.465-.608.577-.93 1.385-1.194 2.176a23.611 23.611 0 00-.958 10.28 23.662 23.662 0 003.521 9.713l-5.428-3.311c-2.087-1.273-4.198-2.565-5.933-4.282-1.735-1.718-3.086-3.933-3.297-6.352a4.41 4.41 0 01.251-2.07 5.312 5.312 0 01.98-1.424c3.513-3.94 11.226-7.358 14.37-5.19" fill="#F0CA43"/><path d="M43.358 53.444a.939.939 0 01.184-.013c.271-.002.541.039.8.121a4.621 4.621 0 011.034.49c.111.077.22.153.325.238a3.039 3.039 0 01.52.545c.063.09.12.185.17.283.072.146.123.301.152.461.013.116.018.18.018.18l-.069-.164c-.021-.053-.056-.114-.09-.183a1.31 1.31 0 00-.145-.214 2.884 2.884 0 00-.191-.238 4.15 4.15 0 00-.246-.236 3.119 3.119 0 00-.282-.233 7.05 7.05 0 00-.957-.593 5.173 5.173 0 00-.6-.264 3.32 3.32 0 00-.623-.18z" fill="#EBBC41"/><path d="M42.542 67.085v.114c0 .076.017.15.032.264.077.529.272 1.034.57 1.477.06.093.113.17.153.222l.061.088a.183.183 0 01.036.142.18.18 0 01-.081.122.18.18 0 01-.195 0s-.04-.02-.107-.063a1.776 1.776 0 01-.25-.201 2.118 2.118 0 01-.293-.352 2.257 2.257 0 01-.36-.98 2.015 2.015 0 010-.455c.009-.107.028-.214.059-.317l.034-.106a.165.165 0 01.086-.098.168.168 0 01.13-.008.173.173 0 01.125.15zm1.741 1.109s.088.142.2.341c.112.199.266.474.413.741.146.267.312.53.429.73.117.202.19.342.19.342a.184.184 0 01-.083.249.191.191 0 01-.192-.013 2.276 2.276 0 01-.312-.284 4.228 4.228 0 01-.533-.741 3.877 3.877 0 01-.347-.85 2.137 2.137 0 01-.074-.407.169.169 0 01.12-.169.172.172 0 01.194.071l-.005-.01zm2.622 2.707l.16.286c.094.167.224.379.365.582a5.3 5.3 0 00.424.53l.208.246a.184.184 0 01-.027.265.183.183 0 01-.178.031 1.534 1.534 0 01-.33-.172 1.926 1.926 0 01-.56-.58 2.181 2.181 0 01-.328-.746 1.36 1.36 0 01-.037-.264v-.098a.168.168 0 01.129-.162.172.172 0 01.19.082h-.016zM77.884 53.77l.088.06c.079.058.152.122.221.19a3.6 3.6 0 01.533.699 2.954 2.954 0 01.296.823c.025.131.037.264.035.398a.185.185 0 01-.288.146.189.189 0 01-.064-.072s-.067-.135-.155-.328a14.05 14.05 0 00-.717-1.38l-.186-.317a.167.167 0 01.061-.23.171.171 0 01.181 0l-.005.01zm.336 3.662c.06.089.113.182.16.278a4.523 4.523 0 01.432 1.3c.018.105.029.21.031.317a.187.187 0 01-.189.188.19.19 0 01-.154-.08 2.375 2.375 0 01-.158-.277 4.32 4.32 0 01-.248-.64 4.408 4.408 0 01-.154-.668 2.285 2.285 0 01-.03-.317.171.171 0 01.12-.165.175.175 0 01.195.064h-.005zm-.133 3.563l.074.074c.066.073.127.151.181.233A2.522 2.522 0 0178.746 63a1.637 1.637 0 01-.093.394.185.185 0 01-.2.118.187.187 0 01-.16-.165l-.04-.355a6.702 6.702 0 00-.328-1.482l-.12-.344a.169.169 0 01.2-.218c.03.007.06.023.083.046zm-.8 3.625l.064.114c.056.11.104.225.141.342.053.166.09.336.112.508a3.15 3.15 0 01-.114 1.183 2.458 2.458 0 01-.4.789l-.088.108a.184.184 0 01-.31-.052.181.181 0 01-.005-.122v-.013l.04-.117c.03-.074.064-.18.104-.304a4.711 4.711 0 00.192-1.882c0-.135-.024-.23-.04-.315-.016-.085-.021-.13-.021-.13a.166.166 0 01.11-.191.17.17 0 01.204.083h.011zm-22.456-7.206h.072c.07-.005.14 0 .208.016.092.018.181.047.266.087.1.047.194.105.28.175a1.13 1.13 0 01.36.503.726.726 0 01.053.28.309.309 0 01-.442.249h-.03a1.616 1.616 0 01-.183-.114 3.517 3.517 0 01-.318-.265l-.154-.145a2.226 2.226 0 01-.136-.143c-.04-.045-.064-.08-.099-.114l-.048-.055a.293.293 0 01.054-.41.335.335 0 01.117-.064zm1.309 3.107a1.009 1.009 0 01-.059.249 1.824 1.824 0 01-.424.672 1.148 1.148 0 01-.184.164 1.027 1.027 0 01-.22.127.322.322 0 01-.414-.18.296.296 0 01-.019-.143.947.947 0 01.062-.246c.028-.077.063-.151.104-.222a1.921 1.921 0 01.533-.59 1.07 1.07 0 01.224-.127.298.298 0 01.378.166.313.313 0 01.019.13zm-3.225-1.199a.679.679 0 01.197 0 1.01 1.01 0 01.525.24.64.64 0 01.123.136.66.66 0 01.096.172.35.35 0 01-.224.445l-.054.013a.675.675 0 01-.367-.048.882.882 0 01-.179-.092 1.026 1.026 0 01-.266-.265.663.663 0 01-.094-.175.32.32 0 01.205-.407l.038-.019zm-1.818-.479c-.023.091-.056.18-.099.265a2.166 2.166 0 01-.532.677 1.53 1.53 0 01-.459.28.314.314 0 01-.392-.203.305.305 0 010-.162 1.514 1.514 0 01.24-.49c.056-.078.126-.153.192-.23a2.23 2.23 0 01.443-.354c.077-.05.16-.09.247-.12a.29.29 0 01.361.187.283.283 0 01.007.147l-.008.003zm.192 3.488c.016.015.03.032.043.05.026.04.056.059.09.106.035.048.072.09.107.14.034.05.072.106.104.16a1.93 1.93 0 01.224.51v.037a.312.312 0 01-.128.33.32.32 0 01-.115.049.348.348 0 01-.104 0 .692.692 0 01-.25-.096.857.857 0 01-.21-.166 1.23 1.23 0 01-.182-.246 1.203 1.203 0 01-.107-.286.948.948 0 01.003-.458.308.308 0 01.027-.061.297.297 0 01.288-.168c.04.002.079.013.114.03.037.016.07.04.096.07zm8.123-.664a1.88 1.88 0 01-.165.265 3.84 3.84 0 01-.424.479c-.085.077-.168.156-.266.222a2.369 2.369 0 01-.243.175 1.627 1.627 0 01-.266.145.304.304 0 01-.314-.057.299.299 0 01-.086-.305c.033-.104.08-.202.139-.294a1.997 1.997 0 01.453-.53c.09-.081.188-.156.29-.224.085-.06.174-.115.267-.162.096-.048.198-.086.303-.11a.27.27 0 01.284.114c.02.03.033.064.039.1a.263.263 0 01-.01.182z" fill="#D78325"/><path d="M38.825 32.051l-.347.794c-.117.265-.242.569-.381.926l-.224.572c-.072.204-.15.418-.23.64-.08.223-.167.456-.247.7l-.24.754c-.17.516-.306 1.074-.471 1.64-.166.567-.299 1.17-.419 1.779s-.232 1.233-.344 1.853a21.319 21.319 0 00-.245 1.868c-.056.62-.11 1.228-.152 1.818 0 .297-.024.588-.035.874-.01.286-.023.564-.02.834.002.27 0 .529 0 .794 0 .264 0 .502.015.738 0 .476.035.91.059 1.294.024.384.043.72.074.995l.078.868a.18.18 0 01-.165.194.18.18 0 01-.195-.154l-.125-.87c-.043-.279-.08-.617-.115-1.006-.021-.194-.04-.4-.061-.62-.021-.22-.027-.447-.04-.688-.014-.24-.032-.49-.037-.749-.006-.26 0-.53 0-.794-.017-.553 0-1.133.029-1.733.03-.601.066-1.223.141-1.853.075-.63.152-1.265.24-1.9a20.85 20.85 0 01.365-1.882c.144-.617.293-1.218.442-1.8.08-.291.171-.574.254-.85.082-.275.167-.547.266-.807.099-.259.179-.513.267-.76.088-.245.183-.476.266-.7.083-.226.168-.44.253-.644l.253-.571c.155-.36.296-.67.422-.919l.389-.794a.164.164 0 01.093-.085.167.167 0 01.213.097.163.163 0 01-.005.126l-.021.021z" fill="#F0CA43"/><path d="M38.56 38.377l-.108.404a24.17 24.17 0 00-.267 1.06c-.059.219-.112.46-.17.714-.06.254-.107.529-.171.794a31.303 31.303 0 00-.312 1.75c-.04.298-.09.595-.125.891-.035.296-.072.585-.101.868-.03.283-.051.556-.075.813-.024.256-.043.505-.056.733-.024.452-.05.83-.059 1.095l-.018.419a.18.18 0 01-.18.158.182.182 0 01-.18-.158s0-.154-.027-.421a9.837 9.837 0 01-.024-1.117c.01-.463.016-1 .064-1.588.048-.588.117-1.188.21-1.797a26.67 26.67 0 01.352-1.779 20.2 20.2 0 01.422-1.519c.136-.44.266-.794.365-1.059l.152-.391a.163.163 0 01.151-.107.167.167 0 01.158.237zm14.12-15.899l.195.058c.181.053.36.116.533.188.117.048.267.095.392.159l.445.212.49.264c.166.104.339.217.52.336.38.268.743.558 1.087.869.391.345.76.715 1.101 1.108a19.38 19.38 0 011.956 2.713c.299.463.565.977.832 1.464.266.487.511.971.754 1.437l.696 1.345c.22.428.44.823.642 1.188.413.725.773 1.323 1.047 1.72.275.397.432.627.432.627a.18.18 0 01-.17.277.182.182 0 01-.118-.06l-.128-.158c-.08-.106-.208-.265-.352-.458a21.257 21.257 0 01-1.138-1.707 52.402 52.402 0 01-1.407-2.52c-.248-.463-.5-.942-.762-1.426a38.175 38.175 0 00-.823-1.448 18.703 18.703 0 00-1.866-2.647 14.48 14.48 0 00-1.02-1.082 11 11 0 00-1.022-.853c-.17-.116-.33-.23-.485-.338l-.455-.265-.413-.222c-.128-.066-.25-.114-.358-.164-.21-.104-.402-.164-.532-.215l-.192-.071a.165.165 0 01-.099-.208.165.165 0 01.208-.102l.01-.021zm3.318 4.875l.21.265c.129.161.32.389.534.672.213.283.46.617.717.98.256.362.533.756.778 1.153s.504.794.727 1.186c.224.392.422.749.59 1.059.167.31.295.58.389.764l.14.294a.18.18 0 01-.208.26.181.181 0 01-.108-.085l-.179-.265-.458-.717c-.379-.595-.88-1.39-1.383-2.18l-1.389-2.179-.456-.72-.173-.264a.166.166 0 01.053-.207.169.169 0 01.214.013l.002-.029z" fill="#F0CA43"/></svg>