<svg width="104" height="59" fill="none" xmlns="http://www.w3.org/2000/svg"><path d="M69.542 29.5c0 5.23-1.38 10.364-3.995 14.879a29.37 29.37 0 01-10.89 10.815 29.05 29.05 0 01-14.811 3.798 29.061 29.061 0 01-14.688-4.256A29.392 29.392 0 0114.602 43.59a29.707 29.707 0 01-3.54-14.996 29.683 29.683 0 014.442-14.749A29.346 29.346 0 0126.715 3.368a28.773 28.773 0 019.738-3.11A29.432 29.432 0 0140.303 0c1.297.002 2.591.088 3.876.258a29.182 29.182 0 0118.126 9.816A29.657 29.657 0 0169.542 29.5z" fill="#70770B"/><path d="M69.542 29.5a29.528 29.528 0 01-7.553 19.778 29.024 29.024 0 01-19.798 2.695 29.218 29.218 0 01-16.895-10.754 29.672 29.672 0 01-6.109-19.185 29.636 29.636 0 017.528-18.666 28.773 28.773 0 019.738-3.11A29.432 29.432 0 0140.303 0c1.297.002 2.59.088 3.876.258a29.182 29.182 0 0118.126 9.816A29.657 29.657 0 0169.542 29.5z" fill="#748210"/><path opacity=".35" d="M99.234 26.672H40.856c-1.278 15.436 9.185 29.434 24.283 31.937 15.914 2.645 31.003-8.5 33.683-24.892.285-1.773.418-3.568.395-5.365.025-.557.033-1.122.017-1.68z" fill="#322F20"/><path d="M103.967 28.352a31.284 31.284 0 01-.396 5.365c-2.688 16.392-17.769 27.537-33.683 24.892-15.097-2.495-25.52-16.5-24.283-31.937h58.288c.049.558.074 1.115.074 1.68z" fill="#748210"/><path d="M103.621 26.672a28.005 28.005 0 01-4.125 15.082 27.664 27.664 0 01-11.542 10.451c-14.017 6.97-31.332 1.414-38.473-12.367a27.437 27.437 0 01-3.142-13.166h57.282z" fill="#E9D478"/><path d="M103.992 26.672h-.743a26.994 26.994 0 01-2.333 11.727 27.654 27.654 0 01-12.978 13.49 28.712 28.712 0 01-12.665 2.92 29.277 29.277 0 01-12.756-2.92 27.962 27.962 0 01-12.665-12.292 27.218 27.218 0 01-3.117-12.925h-.725c-.09 4.673 1 9.292 3.166 13.424a28.022 28.022 0 005.392 7.31 28.851 28.851 0 007.504 5.223 29.597 29.597 0 0012.999 3.01c4.502 0 8.947-1.029 12.999-3.01a28.58 28.58 0 0013.497-13.997 27.867 27.867 0 002.4-10.205 25.69 25.69 0 00.025-1.755z" fill="#798029"/><path d="M57.768 39.555l13.399-9.905c1.995-1.48.626-1.971-.825-1.921l-16.49.615c-6.506.258-1.13 14.904 3.916 11.211zm10.595 7.577l4.782-15.802c.759-2.304-.651-1.971-1.756-1.123L58.543 40.27c-5.146 4.01 7.932 12.783 9.82 6.862zm13.069.083l-5.574-15.61c-.824-2.346-1.74-1.257-2.152.107L69.42 47.298c-1.715 6.171 14.075 5.838 12.013-.083zm10.497-7.452l-13.87-9.515c-2.085-1.422-2.16 0-1.648 1.331l5.895 15.178c2.35 6.055 14.859-3.343 9.623-6.994zm4.007-12.126l-16.879.216c-2.473.058-1.649 1.231-.503 1.996l13.836 9.016c5.516 3.551 9.854-11.295 3.546-11.228z" fill="#EECA16"/><path d="M76.749 39.846a2.99 2.99 0 00-.357-1.371 2.96 2.96 0 00-.946-1.049 2.969 2.969 0 00-.955 1.046 3 3 0 00-.365 1.374 1.34 1.34 0 00.328 1.036 1.32 1.32 0 00.983.444 1.31 1.31 0 00.984-.444 1.335 1.335 0 00.328-1.036zm6.068-3.426a2.94 2.94 0 00-.99-1.012 2.91 2.91 0 00-1.343-.427 3.023 3.023 0 00.058 2.76 1.33 1.33 0 00.797.717 1.307 1.307 0 001.469-.481 1.337 1.337 0 00.01-1.557zm3.463-6.754a2.887 2.887 0 00-2.654.649 2.946 2.946 0 001.97 1.905 1.31 1.31 0 001.506-.397 1.338 1.338 0 00-.307-1.96 1.311 1.311 0 00-.514-.197zm-22.584 0a2.919 2.919 0 012.663.65 3.014 3.014 0 01-.76 1.194 2.98 2.98 0 01-1.219.71 1.309 1.309 0 01-1.505-.397 1.333 1.333 0 01-.281-1.049 1.338 1.338 0 01.587-.91c.156-.102.332-.17.515-.198zm3.323 6.754a2.94 2.94 0 01.99-1.012 2.91 2.91 0 011.343-.427 3.025 3.025 0 01-.09 2.76 1.33 1.33 0 01-.793.793 1.308 1.308 0 01-1.53-.495 1.336 1.336 0 01.08-1.62z" fill="#FFFDB8"/><path d="M44.18.258c-.512.773-2.054 1.339-3.868 1.339s-3.348-.566-3.859-1.34A29.434 29.434 0 0140.303 0c1.297.002 2.591.088 3.876.258z" fill="#9DA52B"/></svg>