<svg width="56" height="85" fill="none" xmlns="http://www.w3.org/2000/svg"><g clip-path="url(#clip0)"><path d="M40.135 13.54c-1.943.231-3.74.471-5.65-.127-2.114-.663-3.617-2.279-4.878-4.025-2.414-3.337-4.662-6.877-8.605-8.574-3.58-1.543-7.816-.965-10.125 2.376a5.5 5.5 0 00-.715 4.986c.426 1.094 1.402 2.112 2.536 2.234.406.272.793.146 1.167-.204a.407.407 0 00.183-.191 6.063 6.063 0 001.08-2.222c.127-.061.253-.118.379-.167a3.886 3.886 0 013.418.407c2.333 1.384 2.764 4.452 2.256 6.89a10.082 10.082 0 01-3.455 5.506 10.897 10.897 0 01-2.91 1.738c-1 .406-2.057.565-3.077.89a.276.276 0 000 .534c.105.024.215.045.325.061a.369.369 0 00.284.488c2.256.363 4.821-.207 7.04-.618a52.67 52.67 0 007.142-1.876c4.67-1.567 9.325-3.78 13.276-6.748a.614.614 0 00.211-.716c.086-.053.17-.11.252-.17.18-.123.15-.505-.134-.473z" fill="#A9D667"/><path d="M37.148 15.029c-1.22.895-2.44 1.628-3.976 1.628a5.024 5.024 0 01-4.007-2.153c-.915-1.27-1.415-2.902-2.033-4.33-.667-1.557-1.335-3.113-2.004-4.668-.15-.35-.72-.097-.61.257.7 2.246 1.346 4.541 1.2 6.918a8.189 8.189 0 01-.68 2.759 11.196 11.196 0 00-.65-7.012c-1.58-3.63-5.963-7.08-10.076-5.628a5.663 5.663 0 00-3.553 4.147 5.497 5.497 0 00.073 2.364 2.914 2.914 0 001.862 1.1c.407.272.793.146 1.167-.204a.406.406 0 00.183-.192 6.062 6.062 0 001.08-2.222 5.39 5.39 0 01.379-.166 3.885 3.885 0 013.418.406c2.334 1.384 2.764 4.453 2.256 6.89a10.082 10.082 0 01-3.455 5.506 10.898 10.898 0 01-2.91 1.738c-1 .407-2.057.566-3.077.891a.277.277 0 000 .533c.106.025.215.045.325.061a.372.372 0 00.285.489c2.255.362 4.82-.208 7.04-.619a52.656 52.656 0 007.141-1.876 50.157 50.157 0 0010.516-4.883c.114-.138.215-.287.3-.444a.432.432 0 000-.407c.109-.129.208-.265.297-.407.212-.269-.187-.7-.491-.476z" fill="#8DC252"/><path d="M26.526 21.654a49.158 49.158 0 0011.727-5.644.33.33 0 00-.378-.224c-1.731.358-3.252 1.416-4.995 1.766a6.574 6.574 0 01-2.76-.053c-.919-.212-1.663-.814-2.512-1.172-1.395-.61-2.537-.033-3.439 1.066a6.128 6.128 0 01-1.59 1.518 3.297 3.297 0 01-1.585.407 9.531 9.531 0 002.703-6.947c-.174-3.34-2.483-6.653-5.869-7.325-1.683-.325-3.549.367-4.288 1.986-.382.834-.187 2.092-1.264 2.377-.574.146-1.191-.139-1.744-.525a3.115 3.115 0 002.162 1.51c.407.272.793.146 1.167-.204a.407.407 0 00.183-.191 6.063 6.063 0 001.08-2.222c.127-.061.253-.118.379-.167a3.886 3.886 0 013.418.407c2.334 1.384 2.764 4.452 2.256 6.89a10.082 10.082 0 01-3.455 5.506 10.897 10.897 0 01-2.91 1.738c-1 .406-2.057.565-3.077.89a.277.277 0 000 .534c.106.024.215.045.325.06a.37.37 0 00.285.49c2.255.361 4.82-.208 7.04-.62a52.676 52.676 0 007.141-1.851z" fill="#71AD3D"/><path d="M21.563 16.502a7.508 7.508 0 00.948-5.079c-.492-2.82-3.756-6.015-6.809-5.038a2.288 2.288 0 00-1.33 1.221c-.406.814-.336 1.73-1.292 2.116-1.032.407-1.918-.106-2.597-.911a3.164 3.164 0 002.211 1.583c.407.272.793.146 1.167-.204a.406.406 0 00.183-.191 6.062 6.062 0 001.08-2.222c.127-.061.253-.118.379-.167a3.886 3.886 0 013.418.407c2.334 1.384 2.764 4.452 2.256 6.89a10.082 10.082 0 01-3.455 5.506 10.898 10.898 0 01-2.91 1.738c-.687.264-1.392.478-2.11.638h1.029a6.882 6.882 0 004.727-2.112 21.241 21.241 0 003.105-4.175z" fill="#559928"/><path d="M52.139 20.865c-1.57-4.18-4.549-8.815-9.577-8.734a7.126 7.126 0 00-4.918 2.23c-.326.25-.666.483-1.017.696a4.47 4.47 0 01-1.91.582 6.837 6.837 0 00-.492-.158c-2.138-.623-4.471-.358-6.544.362a12.322 12.322 0 00-4.752 3.02 18.47 18.47 0 01-1.113.773 7.592 7.592 0 01-2.508.964l-.236-.028a15.024 15.024 0 00-6.581.814l-.577.056c-.369.033-.739.061-1.11.086-.293 0-.577-.033-.845-.045a7.714 7.714 0 00-6.662 1.306C-.362 25.695-.26 31.166.268 35.364 1.532 45.375 7.361 54.007 10.15 63.57a38.296 38.296 0 011.231 5.844c.033 2.246-.406 4.403-.703 6.621a9.66 9.66 0 00.216 4.281c.102.444.25.876.438 1.29 1.456 3.178 4.76 3.634 7.906 3.305a19.678 19.678 0 006.24-1.746c.37-.09.736-.175 1.11-.253 1.54-.33 3.121-.46 4.686-.655.813-.101 1.7-.211 2.598-.382a19.267 19.267 0 009.007-3.74 22.4 22.4 0 004.471-4.477.344.344 0 00.228-.166c.33-.508.649-1.023.955-1.547a24.769 24.769 0 001.46-2.682c3.345-6.653 5.137-14.109 5.767-21.483a62.119 62.119 0 00-3.621-26.915z" fill="#E25050"/><path d="M47.363 73.658a.346.346 0 00.227-.167c.33-.507.65-1.022.955-1.546a24.76 24.76 0 001.46-2.682c3.345-6.654 5.137-14.109 5.768-21.483a62.12 62.12 0 00-3.634-26.92 22.062 22.062 0 00-1.626-3.47c.398 2.115.593 4.264.581 6.417 0 1.005.195 4.733-1.626 4.285-.906-.228-1.309-1.453-1.626-2.198a18.194 18.194 0 00-1.292-2.34 20.574 20.574 0 00-7.101-6.641 19.396 19.396 0 00-3.443-1.555 4.969 4.969 0 01-1.289.285 6.887 6.887 0 00-.492-.159c-2.138-.622-4.47-.358-6.544.363a12.322 12.322 0 00-4.752 3.02 18.05 18.05 0 01-1.113.773 7.592 7.592 0 01-2.508.964l-.236-.028a15.024 15.024 0 00-6.58.813l-.578.057c-.369.033-.739.061-1.11.086l-.406-.025a11.095 11.095 0 00-4.272 3.386c-.925.258-1.81.646-2.626 1.152A12.2 12.2 0 00.203 28.84l-.024.028a24.75 24.75 0 00.09 6.511c1.264 10.011 7.092 18.643 9.88 28.206a38.303 38.303 0 011.233 5.828c.032 2.246-.407 4.403-.704 6.62a9.66 9.66 0 00.216 4.282c.102.444.25.876.439 1.29 1.455 3.178 4.76 3.634 7.906 3.305a19.675 19.675 0 006.239-1.746c.37-.09.736-.175 1.11-.253 1.54-.33 3.121-.46 4.686-.655.813-.102 1.7-.211 2.598-.382a19.266 19.266 0 009.007-3.74 22.402 22.402 0 004.484-4.477zM18.54 79.897a8.309 8.309 0 01-.545 1.872c-.212.443-.695-1.453-.736-1.628-.427-1.795-.85-3.585-1.293-5.376-.032-.138-.069-.272-.101-.407-.138-.985-.325-1.961-.455-2.897-.22-1.55-.472-3.097-.716-4.644a14.859 14.859 0 013.845 13.08zM29.108 23.33a10.916 10.916 0 00-5.004 3.198c-2.78 3.077-4.11 7.378-7.764 9.69a5.515 5.515 0 01-5.589.358 6.328 6.328 0 01-3.166-4.794c-.289-2.153.43-4.314 1.581-6.104a15.14 15.14 0 011.907-2.304c.313-.325.654-.626.991-.924a8.853 8.853 0 012.44-.345c1.625 0 3.113.72 4.698.899 1.471.163 2.788-.488 3.874-1.42 1.085-.932 1.926-2.316 2.918-3.43a6.8 6.8 0 011.96-1.56c.303-.142.627-.238.959-.284h.666c1.763.002 3.515.261 5.203.769 1.602.468 3.634 1.7 3.085 3.662-.504 1.82-3.52 1.461-4.877 1.596a13.69 13.69 0 00-3.87.972l-.012.02zm10.064 43.722c-.321-2.91-.573-5.819-.975-8.72-.468-3.346-1.09-6.675-1.797-9.979a147.851 147.851 0 00-2.386-9.527 24.657 24.657 0 00-1.724-4.798 15.098 15.098 0 01-.491-5.323c.17-1.94 1.028-4.619 3.406-4.496 2.305.118 3.829 3.174 4.85 4.883a37.51 37.51 0 012.922 6.104c3.146 8.387 3.463 18.069.406 26.53-.797 2.201-2.105 4.293-4.21 5.327z" fill="#C53535"/><path d="M55.773 47.784a62.462 62.462 0 00-2.334-23.041 33.295 33.295 0 01-.845 6.014c-.537 2.56-1.244 5.08-1.768 7.643-.506 2.54-.8 5.119-.878 7.708-.135 3.585.053 7.296.093 10.987a33.993 33.993 0 01-6.955 15.51c-1.491 1.843-3.381 3.552-5.893 3.47-2.846-.097-3.659-3.227-3.777-5.53-.15-2.67-.166-5.351-.26-8.025v-.18a34.283 34.283 0 00-.179-7.19 32.906 32.906 0 00-2.967-9.934c-1.504-3.125-3.56-6.421-6.983-7.634a6.092 6.092 0 00-4.878.427c-1.69.859-3.02 2.1-4.975 2.34a6.608 6.608 0 01-6.64-3.645 6.627 6.627 0 01-.677-2.585c-.028-.53-.853-.883-1.105-.297-.759 1.76-1.52 3.524-2.285 5.29a10.391 10.391 0 01-1.943-2.108c1.639 9.32 6.992 17.528 9.638 26.57.211.716.402 1.44.573 2.173a5.527 5.527 0 01.951-3.138c1.553-2.205 4.24-1.05 5.69.574a17.351 17.351 0 011.858 2.812c.277.477.557.949.838 1.425.3.614.59 1.22.841 1.876a23.82 23.82 0 011.52 6.25c.28 2.654.407 7.326-1.914 9.185a20.168 20.168 0 004.983-1.566c.37-.09.736-.175 1.11-.253 1.54-.33 3.122-.46 4.687-.655.813-.102 1.699-.212 2.597-.382a19.267 19.267 0 008.983-3.74 22.402 22.402 0 004.471-4.477.346.346 0 00.228-.167c.33-.507.649-1.022.955-1.546a24.778 24.778 0 001.46-2.682c3.357-6.65 5.15-14.105 5.78-21.479zM15.418 84.78c-2.354-1.555-3.297-5.18-3.553-7.846-.187-1.937-.22-3.882-.524-5.803-.122 1.628-.407 3.255-.647 4.904a9.66 9.66 0 00.216 4.28c.102.444.25.877.439 1.29a5.53 5.53 0 004.069 3.175z" fill="#A91B1B"/><path d="M55.996 42.97c-.134.301-.268.598-.407.895a43.75 43.75 0 00-2.113 6.418c-1.15 4.476-1.793 9.083-3.077 13.54-1.305 4.533-3.341 8.765-6.825 12.025-2.748 2.572-9.515 6.918-11.735 1.465a9.63 9.63 0 01-.532-3.85c1.032-11.085-.89-22.468-6.02-32.402-.37-.712-1.394-.085-1.061.623a65.167 65.167 0 011.406 3.207 45.15 45.15 0 011.04 7.366 55.283 55.283 0 01-.658 10.617c-.544 3.776-1.016 8.257.187 12.05.13.997.265 1.994.322 2.995a8.873 8.873 0 01-1.017 5.022 4.634 4.634 0 01-.187.3l.18-.076c.369-.09.735-.175 1.109-.253 1.54-.33 3.122-.46 4.686-.655.813-.102 1.7-.212 2.598-.383a19.266 19.266 0 008.987-3.74 22.402 22.402 0 004.471-4.476.346.346 0 00.228-.167c.33-.507.649-1.022.955-1.546a24.777 24.777 0 001.46-2.682c3.345-6.654 5.137-14.109 5.767-21.483a56.61 56.61 0 00.236-4.81zM2.943 45.46c1.626 4.339 3.69 8.546 5.39 12.872.057-.126.114-.244.179-.366a6.88 6.88 0 014.349-3.35 6.742 6.742 0 012.735-.146c.765.114 1.541.354 2.321.232 1.573-.252 2.163-1.75 1.886-3.206-.622-3.256-3.47-5.494-6.654-5.926-1.857-.252-3.609-.3-5.284-1.257a7.706 7.706 0 01-3.365-4.07c-.106-.321-.667-.407-.732 0-.207 1.38-.435 2.747-.638 4.115-.057.366-.122.732-.187 1.103zm41.924-21.413c-.179-.444-.362-.85-.561-1.299a27.039 27.039 0 00-3.89-6.063 20.331 20.331 0 00-2.569-2.503l-.203.2a11.85 11.85 0 01-1.016.675 4.434 4.434 0 01-1.882.578c.666.366 1.329.745 1.967 1.16a22.729 22.729 0 014.304 3.662 21.886 21.886 0 012.07 2.576l.316.582a43.58 43.58 0 012.972 6.446.422.422 0 10.813-.223 20.361 20.361 0 00-2.321-5.791zm-19.369-7.191c-.94.554-1.804 1.23-2.569 2.01a18.05 18.05 0 01-1.113.774 7.592 7.592 0 01-2.508.964l-.236-.028a15.023 15.023 0 00-6.581.813l-.577.057c-.369.033-.739.061-1.11.086-.293 0-.577-.033-.845-.045a7.45 7.45 0 00-1.041-.2c-.554.434-1.078.904-1.569 1.409a10.744 10.744 0 00-1.809 2.441c-.333.615-.744 1.42-.69 2.157a4.521 4.521 0 00-.216 1.193.204.204 0 00.345.146c.577-.68 1.008-1.465 1.516-2.19a13.331 13.331 0 011.98-2.164 12.424 12.424 0 015.317-2.82c3.252-.814 7.572 0 9.263 3.12.12.3.256.594.407.88.325.635 1.341.191 1.142-.484a6.58 6.58 0 00-.545-1.295 7.283 7.283 0 011.012-6.279c.131-.19.274-.372.427-.545z" fill="#8C0000"/><path opacity=".3" d="M42.334 38.75a36.92 36.92 0 00-4.203-9.572 7.736 7.736 0 00-1.183-2.194c-.72-.867-2.093-1.436-3.085-.639a1.628 1.628 0 00-.622 1.221.534.534 0 00.053.513.68.68 0 00.04.545 70.247 70.247 0 015.878 16.685 68.221 68.221 0 011.244 8.84c.236 3.035.057 6.067.211 9.099.025.476.777.635.874.118V63.3c.683-.745.813-2.182 1.037-3.093a31.615 31.615 0 001.41-9.588 41.47 41.47 0 00-1.654-11.87zm4.732-21.658a1.63 1.63 0 00.231-1.193c-.17-.985-1.012-1.542-1.817-2.006-.744-.431-1.914-1.046-2.804-.79a1.626 1.626 0 00-1.22 1.84c.187 1.396 2 2.482 3.52 2.784a2.03 2.03 0 001.045.069.57.57 0 00.199-.061c.145-.052.281-.123.407-.212a.757.757 0 00.438-.431zM32.96 18.87c-.377-1.115-1.58-1.445-2.625-1.563a3.372 3.372 0 00-1.723.24 3.865 3.865 0 00-.712.322 2.624 2.624 0 00-1.22 2.49 2.167 2.167 0 001.842 1.946c1.138.224 2.378-.407 3.325-.956.882-.534 1.484-1.445 1.114-2.479zm-15.925 7.671c-.386-1.587-1.817-3.117-3.544-2.975-1.85.155-2.752 1.978-3.09 3.594a7.644 7.644 0 01-.134.337c-.642 1.628-.512 3.87 1.05 4.949 1.56 1.079 3.617.273 4.726-1.11a5.637 5.637 0 00.992-4.795z" fill="#fff"/></g><defs><clipPath id="clip0"><path fill="#fff" d="M0 0h56v85H0z"/></clipPath></defs></svg>