<svg width="103" height="115" fill="none" xmlns="http://www.w3.org/2000/svg"><path d="M2.605 113.765H0V99.587h8.909l-.208 1.077H2.605v5.426H6.87v1.077H2.605v5.483H8.7l-.207 1.096h-5.89v.019zm13.646-3.8c-.415-.132-.85-.246-1.34-.34-.49-.095-1.114-.17-1.868-.189l-1.492 4.253H10.42l4.907-14.064h2.68l4.89 14.064h-2.738l-1.113-3.213c-1.19-.095-2.114-.265-2.794-.511zm-.377-8.62l-2.435 6.976c1.378.113 2.416.283 3.133.567.547.189 1.246.34 2.076.435l-2.774-7.978zm13.099-1.815h3.964l.207 1.097h-4.171v13.1h-2.624v-13.1h-3.963l-.19-1.097h6.778zm19.007 14.008l-.264-.359c-1 .416-2.322.529-3.964.359-1.208-.151-2.19-.567-2.964-1.248-.773-.699-1.17-1.588-1.17-2.684 0-.945.302-1.72.887-2.344.585-.624 1.34-1.04 2.246-1.229-.547-.813-.887-1.361-1-1.644a3.244 3.244 0 01-.245-.719 4.112 4.112 0 01-.057-.756c0-.851.34-1.607 1-2.269.661-.661 1.435-.983 2.36-.983.906.02 1.604.341 2.114.983.51.624.774 1.399.792 2.288.02.624-.17 1.266-.604 1.909a3.44 3.44 0 01-1.736 1.361 202.412 202.412 0 003.662 4.651c.245-.359.358-.775.34-1.229h1.075v.019c0 .737-.226 1.437-.68 2.098.454.567.964 1.172 1.51 1.834l-3.302-.038zm-4.228-1.059a5.425 5.425 0 003.284-.226c-.529-.757-1.17-1.645-1.888-2.685-.717-1.039-1.396-2.004-2.02-2.93-1 .567-1.49 1.55-1.471 2.968.019.832.226 1.475.641 1.966.416.454.887.775 1.454.907zm1.038-11.852c-.396 0-.755.189-1.076.567-.32.378-.434.945-.34 1.701.038.208.151.473.321.794.17.321.359.624.529.87.17.264.302.434.377.548.019.019.019.038.038.038a.613.613 0 00.075.113c.02.019.038.057.057.095.019.019.038.056.057.075.018.019.037.038.037.057.02.019.02.019.02.038l.018.019.019.019c.604-.246 1.038-.624 1.302-1.135.265-.51.359-1.021.302-1.512-.094-.699-.283-1.248-.604-1.645-.32-.434-.698-.642-1.132-.642zm21.064 9.338c.057 1.248-.358 2.174-1.245 2.817-.888.643-2.114.964-3.681.983h-.547c-1.265 0-2.322-.227-3.153-.7-.83-.472-1.453-1.058-1.85-1.758l.907-.737c.453.662.943 1.134 1.49 1.418.548.284 1.058.473 1.53.529.471.057.811.095 1.019.076.019 0 .019 0 .038.019h.547c.547 0 1.038-.17 1.453-.492a1.54 1.54 0 00.623-1.266c0-.549-.264-1.04-.811-1.456-.548-.416-1.246-.851-2.077-1.304-.736-.397-1.49-.87-2.302-1.399-.057-.038-.133-.076-.208-.133-.396-.189-.85-.548-1.359-1.058-.51-.511-.793-1.229-.85-2.174.02-1.21.491-2.117 1.416-2.76.925-.624 2.152-.964 3.7-.983h.151c1.245.019 2.284.264 3.095.718.812.454 1.416 1.04 1.812 1.72l-.906.738c-.453-.662-.962-1.135-1.51-1.418a5.06 5.06 0 00-1.529-.529 9.053 9.053 0 00-1-.076c-.83.019-1.491.208-2.02.567-.528.359-.792.813-.792 1.361 0 .511.264.927.792 1.286.529.34 1.19.699 1.982 1.077.944.435 1.925.964 2.945 1.626.056.038.113.095.188.132.472.284.925.662 1.397 1.153.397.473.66 1.154.755 2.023zm7.343 0c-.416-.132-.85-.246-1.34-.34a11.414 11.414 0 00-1.87-.189l-1.49 4.253h-1.133l4.908-14.064h2.68l4.889 14.064h-2.718l-1.114-3.213c-1.208-.095-2.133-.265-2.812-.511zm-.378-8.62l-2.435 6.976c1.378.113 2.416.283 3.133.567.548.189 1.246.34 2.077.435l-2.775-7.978zm13.892 10.681l4.341-12.477h1.152l-4.946 14.197H84.54l-4.945-14.197h2.756l4.36 12.477zm9.985 1.739H94.09V99.587H103l-.208 1.096h-6.096v5.426h4.265v1.077h-4.265v5.483h6.096l-.207 1.096h-5.89z" fill="#1F7240"/><path d="M53.837 6.04a60.099 60.099 0 00-1.532 5.392c-.065.263-.13.526-.175.789-2.494-1.315-4.507-3.923-5.164-6.663a.779.779 0 01-.044-.22c-.087-.35-.153-.7-.24-1.073-.044-.22.153-.241.415-.285a4.58 4.58 0 011.335-.066c.525.066 1.029.088 1.532.176 1.444.263 2.867.854 3.873 1.95zm15.953.614c-.22.372-.438.745-.679 1.118-.065.087-.11.153-.153.219a12.598 12.598 0 01-2.954 3.134 11.338 11.338 0 01-2.604 1.468 11.541 11.541 0 01-3.457.811c-.329.022-.657.044-1.007.022-.547-.022-1.247-.044-1.554-.482a53.119 53.119 0 011.729-5.896 8.043 8.043 0 011.663-1.205c.219-.11.438-.22.678-.307 1.467-.592 3.086-.657 4.661-.416.613.11 1.204.285 1.817.416a5.206 5.206 0 011.488.614c.306.175.503.285.372.504z" fill="#5FAD56"/><path d="M59.811 2.27c-1.641 3.792-2.91 7.671-3.742 11.594a23.874 23.874 0 00-2.188-.306c-.284-.044-.59-.066-.897-.088a61.03 61.03 0 011.663-6.312l.022-.022a64.621 64.621 0 012.298-6.115A1.564 1.564 0 0158.389.08c.219 0 .416.044.613.131a1.595 1.595 0 01.81 2.06z" fill="#1F7240"/><path d="M80.906 43.517c0 3.901-.744 7.627-2.1 11.046a28.655 28.655 0 01-1.248 2.762C72.568 67.012 62.48 73.63 50.839 73.63c-2.188 0-4.354-.24-6.411-.679-8.687-1.885-15.952-7.517-20.066-15.144-2.298-4.252-3.59-9.117-3.59-14.29 0-10.826 5.712-20.316 14.268-25.62a28.31 28.31 0 012.517-1.403c4.004-1.994 8.534-3.09 13.304-3.09.329 0 .679.022 1.029.044.066-.022.131 0 .197 0 .131 0 .24.022.372.022.197 0 .372.022.569.022.306.022.59.044.897.087a35.07 35.07 0 012.188.307c.197.022.372.066.547.11.153.022.285.044.438.088a.206.206 0 00.11.021 28.298 28.298 0 017.045 2.477c.285.132.547.285.832.416a31.002 31.002 0 016.04 4.274c5.995 5.457 9.781 13.413 9.781 22.245z" fill="#FFA73A"/><path d="M76.923 37.337c-.853 1.052-2.757-.285-3.807.548-.22-.811-.416-1.644-.613-2.455-.416-.394-1.16-.11-1.444.395-.285.504-.285 1.095-.328 1.687a10.663 10.663 0 01-1.095 4.077c-.678-.417-1.575.219-1.903.942-.307.68-.329 1.578-.81 2.126-.35.438-1.094.723-1.51 1.14-.481.46-1.05.613-1.641.35-.678-.285-1.247-.087-1.773.307-1.269.92-2.67 1.468-4.157 1.885-1.16.35-1.992 1.03-2.43 2.192-.196.482-.502.92-.809 1.358-.394.548-.875.855-1.597.811-.482-.044-.963.11-1.445.154-.853.11-1.75.394-2.604.438-.81.066-1.684-.307-2.428.154-.81.46-.898 1.556-.898 2.476.328.022.657.022.985.132.306.11.613.328.7.657.153.504-.219 1.008-.547 1.403-.612.701-1.269 1.402-2.144 1.71-.876.306-2.014 0-2.386-.856a92.607 92.607 0 01-.94 2.17c-.088.241-.197.482-.154.745.066.285.35.504.613.57.285.088.59.044.897.044.635-.066 1.313-.132 1.882.153.57.263 1.007.987.722 1.578-.262.46-.897.79-.831 1.293.065.33.35.526.656.658.613.263 1.27.394 1.926.416.547 0 1.138-.065 1.532.285.393.329.525 1.096.372 1.578-.154.504-.57.745-.57 1.38 0 .11-.153.198-.196.33a4.506 4.506 0 00-.153.745c-.022.153.065.307.065.46.066.723-.11.942-.831 1.074-.744.153-1.488.307-2.254.416-.219.022-.416.088-.613.154-8.687-1.885-15.952-7.517-20.066-15.144.175-.592.306-1.228.547-1.798.197-.504.59-.832 1.116-1.03.481-.219.985-.46 1.488-.701-.088-1.315.175-1.688 1.422-1.578 1.335.11 2.407-.482 3.545-.986 1.029-.438 2.035-.877 3.064-1.293.416-.176.81-.154 1.181.11.307.197.635.394.963.57.329.175.613.175.876-.176.481-.702 1.181-.899 2.013-.658.897.263 1.772.154 2.626-.153 1.619-.57 3.304.11 4.923-.57a1.438 1.438 0 01-.7-1.205c.59.11 1.116.504 1.379 1.052.153.328.24.723.503.986.284.241.7.285 1.072.285.46.022.941.022 1.313-.22.372-.24.613-.745.394-1.139-.175-.285-.503-.373-.81-.548-.284-.153-.569-.438-.481-.745.219-.657 1.357-.877 1.729-1.534.393-.723.415-1.666 1.05-2.28.416-.416 1.05-.306 1.444-.635.482-.395.657-2.236 1.598-2.126.153.022.284.153.393.285.35.46.613.986.985 1.468.372.46.854.877 1.423.965.569.087 1.247-.285 1.356-.855.11-.592-.35-1.206-.11-1.753.176-.351.57-.505.964-.548.24-.044.481-.066.722-.132.131-.066.24-.11.372-.175-.35-.57-.657-1.227-1.05-1.753-.11-.132-1.27-1.14-1.401-.987.153-.175.24-.372.285-.591.065-.22.087-.46.021-.702a5.16 5.16 0 011.138-.613c-1.422-.833-2.866-1.644-4.289-2.477-.328-.175-.678-.373-1.05-.285-.219.044-.394.175-.569.307-1.532 1.161-3.064 1.885-4.705 2.871.197-1.468-.525-2.345-1.181-3.529-.504-.942-1.029-1.928-2.364-1.709-.131.022-.24.11-.394.197.11.22.197.417.285.592.219.46.044.81-.438.855a8.612 8.612 0 01-1.838-.066c-.481-.044-.94-.22-1.4-.329-.46-.131-.92-.263-1.445-.416.241-.439.46-.855.7-1.271.329-.592.35-1.206-.043-1.82-.263-.416-.547-.854-.788-1.27-.263-.46-.197-.658.285-.855.328-.154.678-.198 1.006-.307.328-.11.678-.22.985-.373.394-.219.416-.46.131-.81-.24-.264-.46-.549-.744-.724a177.027 177.027 0 00-3.457-1.994c-.132-.066-.263-.066-.372-.11-.7-.153-.7-.153-1.072.439-.482.81-1.401 1.14-2.254.81-.57-.219-.722-.635-.35-1.14.284-.394.634-.744.984-1.117-.262-.416-.656-.416-1.006-.526-.46-.153-.963-.263-1.423-.46-.613-.285-.7-.614-.35-1.206.175-.263.416-.46.57-.723.087-.175.13-.438.043-.592-.044-.065-.088-.153-.132-.219a28.31 28.31 0 012.517-1.402c.022 0 .022.021.044.021.437.198.831.46 1.247.702.722.438 1.598.898 2.429.701.197-.044.394-.11.482-.285.109-.153.13-.328.196-.482.154-.394.591-.57 1.007-.701a11.626 11.626 0 011.729-.395c.35-.044.744-.044.94.241.132.154.132.373.241.548.132.241.438.329.7.329.263 0 .526-.088.81-.131a2.68 2.68 0 01.416-.044c1.138.022 2.166.833 2.91 1.885.744 1.052 1.226 2.345 1.313 3.309l6.04.24c.219.023.438 0 .569-.152.219-.22.066-.57-.044-.877-.35-.92-.197-2.038.416-2.805-.132.153-1.663-.702-1.838-.811a6.309 6.309 0 01-.854-.658c1.27.307 2.604.46 3.961.46 1.62 0 3.217-.219 4.77-.657a31.009 31.009 0 016.04 4.274c.066.942.153 1.84-.153 2.74.306.087.59.196.897.24.963.088 1.729.482 2.363 1.25.46.57 1.029 1.073 1.554 1.6.153.175.306.372.46.57-.285.372-.504.7-.745 1.03a2.009 2.009 0 00-.393 1.292c.087 1.863-.088 3.529 1.247 4.975.678.745 1.269 1.776.678 2.477z" fill="#FFC446"/><path d="M35.544 38.74c-1.007.723-2.189 1.227-3.414 1.337-1.007.087-4.596.087-4.64-1.513-.021-.504.417-.876.832-1.183.504-.395 1.05-.79 1.685-.833.722-.044 1.379.372 2.08.526.984.197 3.938-1.052 4.616-.132.46.658-.7 1.469-1.16 1.798zm43.261 15.823a28.655 28.655 0 01-1.247 2.762 2.57 2.57 0 01-.35-.33c-.175-.218-.35-.481-.613-.547-.285-.066-.569.132-.81.307a11.33 11.33 0 00-1.378 1.337c-1.773.526-3.808.197-5.296-.899-.24-.175-1.225-.92-1.422-.372-.044.11-.044.219-.088.328-.087.22-.35.33-.59.33-.241.021-.46-.067-.7-.067-.242-.022-.504.044-.657.22-.175.197-.175.482-.372.657-.153.131-.372.131-.547.044-.241-.11-.329-.307-.57-.132-.153.11-.24.351-.284.526-.044.132-.175 1.162-.284 1.162.416-.022.831 0 1.247.11.088.021.175.043.219.131.044.088-.022.197-.088.285-.328.614-.11 1.359.132 2.016-.46.198-.941.395-1.4.592-.438.197-.81.044-1.27-.088-1.27-.328-2.692-.153-3.808.504-.59-.591-1.247-1.402-1.356-2.279.744 0 1.51-.066 2.254-.153.087-.022.197-.044.262-.088.285-.197.11-.767.044-1.052-.088-.307-.372-.438-.635-.592-.35-.219-.634-.066-1.006-.197-.24-.066-.438-.285-.394-.526.066-.373.547-.482.678-.833.088-.24-.022-.504-.11-.745-.109-.241-.174-.548 0-.745.285.285.57.57.942.657.372.088.766-.044 1.138-.219.415-.175.81-.394 1.203-.635.219-.154.46-.307.722-.373.329-.066.657.022.985.044.985.066 1.225-.745.678-1.447-.197-.24-.372-.635-.153-.876.197-.198.482-.132.744-.088a3.547 3.547 0 002.276-.394c.088-.066.197-.132.306-.176.241-.131.504-.263.788-.197.285.044.481.263.7.416 1.16.811 2.67-.35 3.699.833.109.132.218.285.393.35.197.067.416-.065.57-.218.262-.241.415-.57.612-.855.219-.285.503-.548.875-.548.35.022.635.285.92.46.678.46 1.466.57 2.253.483-.043 1.03.285 1.095.788 1.117z" fill="#FFC446"/><path d="M46.55 88.27c-.021-3.177-.853-5.873-2.56-8.262-1.685-2.367-3.982-4.23-6.433-5.786-2.385-1.512-5.055-2.542-7.375-4.12-3.37-2.301-6.346-5.348-8.38-8.898-.548-.964-.942-2.323-1.773-3.09-.482-.439-2.1-1.337-2.692-.68-.437.526.46 1.95.635 2.411.481 1.227.963 2.477 1.466 3.704.613 1.534 2.123 4.405 2.123 4.405s.503 1.008.525 1.753c-2.342-2.958-3.917-6.443-5.427-9.906-.394-.876-.438-1.84-.263-2.783.394-2.543.788-5.15.679-7.737-.022-.482-.482-3.857-1.335-4.01-.131-.022-.263.022-.394.153-.35.329-.372.943-.46 1.38-.743 3.946-2.166 7.934-1.838 12.011.197 2.345.81 4.602 1.248 6.904.503 2.717 1.356 5.194 3.326 7.079 1.838 1.819 4.092 3.353 6.258 4.69 2.232 1.359 6.63 3.024 10.81 4.931.7.329 1.379.636 2.057.986a50.314 50.314 0 013.086 1.622c3.282 2.41 5.295 6.487 5.032 10.958l-.021.373c.087-.22.197-.439.262-.658l.022-.11c.394-1.27.788-2.454 1.029-3.747.197-1.118.415-2.323.394-3.572zm8.556 0c.022-3.177.854-5.873 2.56-8.262 1.686-2.367 3.983-4.23 6.434-5.786 2.385-1.512 5.055-2.542 7.375-4.12 3.37-2.301 6.345-5.348 8.38-8.898.548-.964.941-2.323 1.773-3.09.481-.439 2.1-1.337 2.692-.68.437.526-.46 1.95-.635 2.411-.481 1.227-.963 2.477-1.466 3.704-.613 1.534-2.123 4.405-2.123 4.405s-.503 1.008-.525 1.753c2.341-2.958 3.917-6.443 5.427-9.906.394-.876.438-1.84.262-2.783-.393-2.543-.787-5.15-.678-7.737.022-.482.482-3.857 1.335-4.01.131-.022.263.022.394.153.35.329.372.943.46 1.38.743 3.946 2.166 7.934 1.838 12.011-.197 2.345-.81 4.602-1.248 6.904-.503 2.717-1.357 5.194-3.326 7.079-1.838 1.819-4.092 3.353-6.258 4.69-2.232 1.359-6.63 3.024-10.81 4.931-.7.329-1.379.636-2.057.986a50.314 50.314 0 00-3.086 1.622c-3.282 2.41-5.295 6.487-5.033 10.958l.022.373c-.087-.22-.197-.439-.262-.658l-.022-.11c-.394-1.27-.788-2.454-1.029-3.747-.175-1.118-.394-2.323-.394-3.572z" fill="#1F7240"/></svg>