<svg width="20" height="18" viewBox="0 0 20 18" fill="none" xmlns="http://www.w3.org/2000/svg">
<path d="M5.6709 0.721296C7.33929 0.71238 8.92534 1.4451 10 2.72127C11.068 1.43638 12.6584 0.701574 14.3291 0.721296C17.4611 0.721296 20 3.26021 20 6.39215C20 11.7593 10.6329 16.9997 10.2532 17.2023C10.0999 17.3047 9.90011 17.3047 9.74684 17.2023C9.36708 16.9997 7.06582e-07 11.8352 7.06582e-07 6.39215C7.06582e-07 3.26021 2.53897 0.721296 5.6709 0.721296ZM10 16.1896C11.4684 15.3289 18.9873 10.7466 18.9873 6.39215C18.9873 3.81951 16.9018 1.73391 14.3291 1.73391C12.7537 1.71322 11.2793 2.50787 10.4304 3.83516C10.258 4.07284 9.92555 4.12581 9.68786 3.95339C9.64246 3.92044 9.60253 3.88056 9.56963 3.83516C8.1617 1.68196 5.27481 1.0778 3.12162 2.48572C1.80348 3.34763 1.01009 4.81719 1.01271 6.3921C1.01266 10.7972 8.53167 15.3542 10 16.1896Z" fill="#5FAD56"/>
</svg>
