<svg width="1297" height="544" viewBox="0 0 1297 544" fill="none" xmlns="http://www.w3.org/2000/svg">
<path d="M528 1C611.667 1 830.4 1 1036 1C1293 1 1365.5 272 1224.5 328.5C1083.5 385 973.5 255 704 328.5C434.5 402 447 442 252.5 432.5C96.9 424.9 20.3333 502.667 1.5 542.5" stroke="#FAA53C" stroke-width="2" stroke-linecap="round" stroke-dasharray="7 7"/>
<g clip-path="url(#clip0)">
<path d="M637.259 325.616C637.259 325.616 637.474 326.315 637.718 327.322C638.297 329.726 639.064 333.89 637.639 334.863C637.639 334.863 634.664 336.777 633.894 336.628C633.894 336.628 630.069 325.607 620.073 326.144C614.156 326.477 603.834 330.248 608.248 346.705C608.248 346.705 547.175 367.855 543.328 370.048C543.328 370.048 541.63 370.354 541.034 367.755C540.876 367.283 540.692 366.82 540.484 366.369C539.039 363.13 534.528 355.45 525.006 356.865C525.006 356.865 511.236 358.685 513.873 373.938C513.995 374.653 514.155 375.396 514.359 376.169C514.563 376.943 514.787 377.742 515.064 378.572C515.064 378.572 510.625 381.517 508.006 380.627C508.006 380.627 502.987 382.534 502.8 382.299L502.083 380.97L502.155 380.76C502.4 380.045 503.085 377.756 501.862 378.053C500.241 375.43 499.048 372.565 498.331 369.566C497.198 364.473 497.764 358.347 505.072 354.937C505.072 354.937 521.883 344.47 525.907 340.061C533.236 332.033 544.951 316.621 567.911 309.481C577.828 306.397 593.782 300.208 608.066 298.848C608.681 299.255 609.214 299.775 609.637 300.379C609.637 300.379 622.176 306.525 622.875 306.813C623.441 307.071 624.029 307.288 624.558 307.546C625.376 307.908 626.164 308.336 626.913 308.826C629.194 310.344 630.647 312.538 630.435 316.758C630.472 316.744 637.061 321.968 637.259 325.616Z" fill="#EEBB2D"/>
<path d="M518.402 377.982L515.078 378.571C515.078 378.571 507.963 363.142 522.128 357.555C527.518 355.434 538.032 355.633 541.842 369.729C541.842 369.729 541.496 372.497 539.135 373.792C539.135 373.792 541.627 358.947 526.276 359.348C520.874 359.465 512.731 366.557 518.402 377.982Z" fill="#2A2B2A"/>
<path d="M610.128 345.824L608.169 346.673C608.169 346.673 601.78 332.873 615.011 326.748C620.27 324.314 630.968 325.482 633.909 336.636C633.909 336.636 633.308 335.63 631.872 336.749C631.872 336.749 629.142 329.187 619.867 328.939C614.444 328.786 605.965 334.037 610.128 345.824Z" fill="#2A2B2A"/>
<path d="M539.194 366.918C537.214 360.758 530.454 357.422 524.096 359.466C517.738 361.51 514.188 368.161 516.168 374.321C518.149 380.48 524.908 383.816 531.267 381.772C537.625 379.728 541.175 373.078 539.194 366.918Z" fill="#3D4039"/>
<path d="M535.682 368.314C534.225 363.782 529.323 361.304 524.734 362.78C520.144 364.255 517.604 369.125 519.061 373.657C520.518 378.189 525.42 380.667 530.01 379.191C534.599 377.716 537.139 372.846 535.682 368.314Z" fill="#D6E3DD"/>
<path d="M533.134 368.884C533.487 370.015 533.497 371.225 533.163 372.362C532.829 373.499 532.166 374.511 531.257 375.272C530.349 376.033 529.236 376.508 528.058 376.637C526.88 376.766 525.69 376.544 524.639 375.998C523.587 375.453 522.72 374.608 522.148 373.57C521.575 372.533 521.323 371.349 521.422 370.169C521.521 368.988 521.967 367.863 522.704 366.935C523.441 366.008 524.436 365.319 525.564 364.956C526.319 364.717 527.114 364.629 527.903 364.696C528.692 364.764 529.46 364.987 530.163 365.352C530.866 365.716 531.49 366.216 532 366.822C532.51 367.428 532.895 368.129 533.134 368.884Z" fill="#3D4039"/>
<path d="M534.915 369.762L534.348 367.528L529.845 368.947C529.791 368.878 529.738 368.809 529.675 368.743L532.176 364.88L530.202 363.692L527.995 367.84C527.904 367.822 527.816 367.813 527.728 367.804L526.788 363.188L524.561 363.772L525.88 368.222C525.778 368.283 525.679 368.349 525.584 368.422L521.575 365.933L520.453 367.958L524.5 369.995C524.434 370.232 524.397 370.476 524.391 370.721L519.9 371.967L520.655 374.14L525.026 372.508C525.052 372.578 525.123 372.631 525.173 372.687L522.791 376.83L524.859 377.856L526.84 373.581C526.983 373.605 527.127 373.619 527.273 373.621L527.95 378.274L530.214 377.865L529.106 373.087C529.182 373.035 529.255 372.98 529.325 372.92L529.289 372.976L533.207 375.709L534.463 373.78L530.314 371.396C530.372 371.183 530.405 370.964 530.413 370.744L534.915 369.762Z" fill="#D6E3DD"/>
<path d="M526.37 369.477C526.409 369.6 526.411 369.732 526.375 369.857C526.34 369.981 526.268 370.093 526.169 370.176C526.07 370.26 525.949 370.313 525.82 370.327C525.691 370.342 525.561 370.318 525.446 370.259C525.331 370.2 525.236 370.108 525.173 369.995C525.11 369.881 525.082 369.752 525.092 369.623C525.103 369.494 525.152 369.371 525.232 369.269C525.312 369.168 525.421 369.092 525.545 369.053C525.627 369.026 525.713 369.015 525.799 369.022C525.885 369.029 525.969 369.052 526.046 369.092C526.123 369.131 526.191 369.186 526.246 369.252C526.302 369.318 526.344 369.394 526.37 369.477Z" fill="#C6C6C6" stroke="#3D4039" stroke-width="0.1" stroke-miterlimit="10"/>
<path d="M529.151 368.907C529.19 369.03 529.192 369.163 529.157 369.287C529.121 369.412 529.049 369.523 528.95 369.606C528.851 369.69 528.73 369.743 528.601 369.757C528.472 369.772 528.342 369.748 528.227 369.689C528.112 369.63 528.017 369.538 527.954 369.425C527.891 369.311 527.863 369.182 527.874 369.053C527.884 368.924 527.933 368.801 528.013 368.699C528.094 368.598 528.202 368.522 528.326 368.483C528.491 368.431 528.671 368.446 528.825 368.525C528.98 368.605 529.097 368.742 529.151 368.907Z" fill="#C6C6C6" stroke="#3D4039" stroke-width="0.1" stroke-miterlimit="10"/>
<path d="M529.647 371.665C529.686 371.788 529.688 371.921 529.653 372.045C529.617 372.17 529.545 372.281 529.446 372.364C529.347 372.448 529.226 372.501 529.097 372.515C528.969 372.53 528.838 372.506 528.723 372.447C528.608 372.388 528.513 372.296 528.45 372.183C528.387 372.069 528.359 371.94 528.37 371.811C528.38 371.682 528.429 371.559 528.509 371.457C528.59 371.356 528.699 371.281 528.822 371.241C528.904 371.214 528.99 371.204 529.076 371.211C529.162 371.218 529.246 371.242 529.322 371.282C529.399 371.321 529.467 371.375 529.523 371.441C529.578 371.507 529.621 371.583 529.647 371.665Z" fill="#C6C6C6" stroke="#3D4039" stroke-width="0.1" stroke-miterlimit="10"/>
<path d="M526.838 372.24C526.878 372.364 526.88 372.496 526.844 372.62C526.808 372.745 526.736 372.856 526.638 372.94C526.539 373.024 526.417 373.076 526.289 373.091C526.16 373.105 526.03 373.082 525.915 373.023C525.799 372.963 525.704 372.871 525.641 372.758C525.579 372.645 525.551 372.515 525.561 372.386C525.572 372.257 525.62 372.134 525.701 372.033C525.781 371.931 525.89 371.856 526.013 371.816C526.095 371.79 526.182 371.78 526.268 371.787C526.353 371.794 526.437 371.818 526.514 371.857C526.59 371.896 526.659 371.951 526.714 372.016C526.77 372.082 526.812 372.158 526.838 372.24Z" fill="#C6C6C6" stroke="#3D4039" stroke-width="0.1" stroke-miterlimit="10"/>
<path d="M632.008 335.89C633.988 342.047 630.435 348.683 624.082 350.742C617.73 352.8 610.954 349.453 608.993 343.309C607.031 337.164 610.566 330.516 616.918 328.458C623.271 326.399 630.03 329.728 632.008 335.89Z" fill="#3D4039"/>
<path d="M628.501 337.281C627.045 332.749 622.143 330.27 617.553 331.745C612.963 333.219 610.423 338.089 611.879 342.621C613.335 347.153 618.236 349.632 622.826 348.157C627.416 346.682 629.957 341.813 628.501 337.281Z" fill="#D6E3DD"/>
<path d="M625.947 337.854C626.301 338.986 626.312 340.197 625.978 341.336C625.644 342.474 624.981 343.488 624.072 344.25C623.163 345.012 622.049 345.487 620.87 345.617C619.691 345.746 618.5 345.524 617.447 344.978C616.394 344.431 615.527 343.586 614.954 342.547C614.381 341.509 614.128 340.324 614.228 339.142C614.327 337.96 614.774 336.834 615.513 335.906C616.251 334.977 617.248 334.289 618.378 333.926C619.902 333.444 621.556 333.587 622.975 334.323C624.395 335.06 625.464 336.33 625.947 337.854Z" fill="#3D4039"/>
<path d="M627.734 338.732L627.163 336.499L622.66 337.918C622.609 337.846 622.552 337.778 622.49 337.714L624.989 333.847L623.017 332.664L620.829 336.799C620.744 336.784 620.652 336.777 620.564 336.767L619.624 332.152L617.388 332.738L618.711 337.187C618.608 337.248 618.507 337.315 618.411 337.388L614.434 334.884L613.314 336.912L617.361 338.949C617.294 339.186 617.258 339.43 617.252 339.676L612.764 340.92L613.499 343.101L617.837 341.48C617.883 341.543 617.933 341.599 617.982 341.656L615.606 345.801L617.663 346.835L619.638 342.558C619.783 342.582 619.93 342.597 620.077 342.601L620.769 347.257L623.032 346.844L621.924 342.066L622.14 341.905L622.105 341.961L626.022 344.694L627.278 342.765L623.132 340.375C623.19 340.163 623.223 339.944 623.231 339.723L627.734 338.732Z" fill="#D6E3DD"/>
<path d="M619.178 338.43C619.218 338.553 619.22 338.685 619.184 338.81C619.148 338.934 619.076 339.046 618.977 339.129C618.879 339.213 618.757 339.266 618.628 339.28C618.5 339.295 618.37 339.271 618.254 339.212C618.139 339.153 618.044 339.061 617.981 338.947C617.918 338.834 617.89 338.705 617.901 338.576C617.912 338.447 617.96 338.324 618.041 338.222C618.121 338.121 618.23 338.045 618.353 338.006C618.435 337.979 618.522 337.969 618.607 337.976C618.693 337.983 618.777 338.007 618.854 338.046C618.93 338.086 618.998 338.14 619.054 338.206C619.11 338.272 619.152 338.348 619.178 338.43Z" fill="#C6C6C6" stroke="#3D4039" stroke-width="0.1" stroke-miterlimit="10"/>
<path d="M621.956 337.866C621.995 337.989 621.997 338.121 621.961 338.246C621.926 338.37 621.854 338.482 621.755 338.565C621.656 338.649 621.535 338.701 621.406 338.716C621.277 338.731 621.147 338.707 621.032 338.648C620.917 338.589 620.822 338.497 620.759 338.383C620.696 338.27 620.668 338.141 620.678 338.012C620.689 337.883 620.737 337.76 620.818 337.658C620.898 337.557 621.007 337.481 621.13 337.442C621.212 337.415 621.299 337.405 621.385 337.412C621.471 337.419 621.554 337.443 621.631 337.482C621.708 337.522 621.776 337.576 621.831 337.642C621.887 337.708 621.929 337.784 621.956 337.866Z" fill="#C6C6C6" stroke="#3D4039" stroke-width="0.1" stroke-miterlimit="10"/>
<path d="M622.455 340.628C622.495 340.751 622.497 340.884 622.461 341.008C622.426 341.133 622.354 341.244 622.255 341.327C622.156 341.411 622.035 341.464 621.906 341.478C621.777 341.493 621.647 341.469 621.532 341.41C621.417 341.351 621.322 341.259 621.259 341.146C621.196 341.032 621.168 340.903 621.178 340.774C621.189 340.645 621.237 340.522 621.318 340.42C621.398 340.319 621.507 340.244 621.63 340.204C621.712 340.177 621.799 340.166 621.885 340.173C621.971 340.18 622.055 340.204 622.132 340.243C622.209 340.283 622.277 340.337 622.332 340.403C622.388 340.469 622.43 340.546 622.455 340.628Z" fill="#C6C6C6" stroke="#3D4039" stroke-width="0.1" stroke-miterlimit="10"/>
<path d="M619.651 341.205C619.69 341.329 619.692 341.461 619.656 341.586C619.621 341.71 619.549 341.821 619.45 341.905C619.351 341.989 619.23 342.041 619.101 342.056C618.972 342.071 618.842 342.047 618.727 341.988C618.612 341.928 618.517 341.836 618.454 341.723C618.391 341.61 618.363 341.481 618.374 341.351C618.384 341.222 618.433 341.099 618.513 340.998C618.594 340.896 618.702 340.821 618.826 340.781C618.991 340.729 619.171 340.744 619.325 340.824C619.48 340.903 619.597 341.04 619.651 341.205Z" fill="#C6C6C6" stroke="#3D4039" stroke-width="0.1" stroke-miterlimit="10"/>
<path d="M624.587 307.535L624.562 307.544C623.259 308.205 617.87 308.819 617.87 308.819C615.073 309.765 611.766 310.977 608.085 312.384C587.519 320.263 555.265 334.353 534.377 343.62C522.298 348.986 514.035 352.729 514.035 352.729C509.499 359.461 498.381 369.575 498.381 369.575L498.331 369.566C497.199 364.473 497.765 358.347 505.072 354.937C505.072 354.937 507.997 353.116 511.703 350.671C516.875 347.261 523.561 342.627 525.907 340.061C533.236 332.033 544.952 316.621 567.911 309.481C577.828 306.397 593.782 300.208 608.066 298.848C608.682 299.255 609.215 299.774 609.638 300.378C609.948 300.53 620.626 305.766 622.587 306.681C622.73 306.75 622.826 306.794 622.87 306.81C623.47 307.046 624.042 307.283 624.587 307.535Z" fill="#E59C0A"/>
<path d="M573.293 331.763C573.59 332.695 571.888 334.072 569.49 334.841C567.092 335.61 564.892 335.474 564.608 334.538C564.324 333.602 566.009 332.231 568.407 331.462C570.804 330.693 573.009 330.813 573.293 331.763Z" fill="#F49211"/>
<path d="M606.548 317.548C606.849 318.478 605.147 319.856 602.749 320.625C600.351 321.393 598.168 321.266 597.869 320.34C597.57 319.414 599.274 318.031 601.668 317.264C604.061 316.496 606.258 316.633 606.548 317.548Z" fill="#F49211"/>
<path d="M621.105 317.398C621.282 317.948 621.292 318.539 621.134 319.095C620.975 319.651 620.655 320.148 620.215 320.522C619.774 320.896 619.232 321.132 618.657 321.198C618.083 321.265 617.502 321.159 616.987 320.896C616.472 320.632 616.048 320.221 615.766 319.716C615.485 319.211 615.36 318.633 615.407 318.057C615.453 317.48 615.67 316.931 616.029 316.477C616.388 316.024 616.874 315.687 617.424 315.51C618.162 315.273 618.965 315.339 619.655 315.693C620.345 316.046 620.867 316.66 621.105 317.398Z" fill="#F49211"/>
<path d="M532.544 336.089C532.544 336.089 521.919 347.723 527.49 345.933L534.377 343.624C534.377 343.624 532.58 339.666 532.544 336.089Z" fill="#EEBB2D"/>
<path d="M630.471 316.744C628.252 317.78 618.586 313.541 618.586 313.541C614.579 310.996 626.662 308.872 626.662 308.872L626.949 308.812C629.23 310.331 630.692 312.521 630.471 316.744Z" fill="#D6E3DD"/>
<path d="M542.93 326.205C545.794 323.817 558.157 313.946 567.973 311.936C568.048 311.923 568.125 311.926 568.2 311.943C568.274 311.961 568.344 311.994 568.405 312.04C568.466 312.085 568.517 312.143 568.555 312.21C568.593 312.276 568.617 312.349 568.625 312.425C568.909 314.694 569.906 322.88 570.07 326.461C570.084 326.775 570.003 327.086 569.837 327.352C569.67 327.619 569.427 327.829 569.14 327.954L545.804 338.135L543.004 334.886L542.307 327.541C542.305 327.286 542.36 327.034 542.468 326.803C542.575 326.572 542.733 326.367 542.93 326.205Z" fill="#D6E3DD"/>
<path d="M542.93 326.205C545.794 323.817 558.157 313.946 567.973 311.936C568.048 311.923 568.125 311.926 568.2 311.943C568.274 311.961 568.344 311.994 568.405 312.04C568.466 312.085 568.517 312.143 568.555 312.21C568.593 312.276 568.617 312.349 568.625 312.425C568.909 314.694 569.906 322.88 570.07 326.461C570.084 326.775 570.003 327.086 569.837 327.352C569.67 327.619 569.427 327.829 569.14 327.954L545.804 338.135L543.004 334.886L542.307 327.541C542.305 327.286 542.36 327.034 542.468 326.803C542.575 326.572 542.733 326.367 542.93 326.205Z" fill="#D6E3DD"/>
<path d="M542.93 326.205C545.794 323.817 558.157 313.946 567.973 311.936C568.048 311.923 568.125 311.926 568.2 311.943C568.274 311.961 568.344 311.994 568.405 312.04C568.466 312.085 568.517 312.143 568.555 312.21C568.593 312.276 568.617 312.349 568.625 312.425C568.909 314.694 569.906 322.88 570.07 326.461C570.084 326.775 570.003 327.086 569.837 327.352C569.67 327.619 569.427 327.829 569.14 327.954L545.804 338.135L543.004 334.886L542.307 327.541C542.305 327.286 542.36 327.034 542.468 326.803C542.575 326.572 542.733 326.367 542.93 326.205Z" fill="#D6E3DD"/>
<path d="M542.93 326.205C545.794 323.817 558.157 313.946 567.973 311.936C568.048 311.923 568.125 311.926 568.2 311.943C568.274 311.961 568.344 311.994 568.405 312.04C568.466 312.085 568.517 312.143 568.555 312.21C568.593 312.276 568.617 312.349 568.625 312.425C568.909 314.694 569.906 322.88 570.07 326.461C570.084 326.775 570.003 327.086 569.837 327.352C569.67 327.619 569.427 327.829 569.14 327.954L545.804 338.135L543.004 334.886L542.307 327.541C542.305 327.286 542.36 327.034 542.468 326.803C542.575 326.572 542.733 326.367 542.93 326.205Z" fill="#D6E3DD"/>
<path d="M514.37 376.169C514.56 376.942 514.797 377.741 515.075 378.572C515.075 378.572 510.635 381.516 508.017 380.626C508.017 380.626 502.997 382.534 502.811 382.298L502.08 380.97C502.08 380.97 512.553 377.251 514.15 376.26C514.216 376.214 514.291 376.183 514.37 376.169Z" fill="#F49211"/>
<path d="M506.574 377.809C506.574 377.809 503.766 380.445 502.156 380.76C502.4 380.044 503.085 377.756 501.863 378.053C501.863 378.053 500.423 369.836 503.465 368.141C503.465 368.141 509.138 376.73 506.574 377.809Z" fill="#F49211"/>
<path d="M506.573 377.809C505.185 375.98 503.474 368.169 503.474 368.169C503.474 368.169 509.136 376.73 506.573 377.809Z" fill="#E27E05"/>
<path d="M604.86 334.389C603.41 334.856 601.564 332.1 601.564 332.1C600.734 329.011 597.938 330.675 596.677 330.794C576.38 332.695 545.331 349.621 538.431 352.325C537.862 352.537 533.686 356.223 533.73 356.329C529.243 353.78 523.875 354.602 520.824 355.986C507.749 361.879 513.737 373.899 513.737 373.899L513.887 373.937C511.254 358.692 525.003 356.87 525.003 356.87C532.849 355.705 538.607 360.615 540.481 366.374C540.43 366.149 547.187 365.047 547.82 364.656L581.871 352.937L600.527 346.518C600.527 346.518 603.752 346.027 603.9 341.334C603.913 341.118 603.912 340.888 603.906 340.646C604.216 338.701 604.666 336.78 605.252 334.9C605.136 334.525 605.003 334.345 604.86 334.389Z" fill="#E59C0A"/>
<path d="M547.488 362.845C547.488 362.845 572.216 347.356 594.697 343.245L547.488 362.845Z" fill="#F7D877"/>
<path d="M505.381 362.796C505.381 362.796 517.225 364.517 527.435 345.137L514.035 352.733C514.035 352.733 509.355 358.767 505.381 362.796Z" fill="#EEBB2D"/>
<path d="M622.603 306.679C622.46 306.676 622.301 306.665 622.124 306.656C617.305 306.264 612.827 304.015 609.637 300.382C609.963 300.528 620.641 305.764 622.603 306.679Z" fill="#F49211"/>
<path d="M595.403 301.122C595.403 301.122 596.771 298.804 597.851 300.677L595.403 301.122Z" fill="#111111"/>
<path d="M598.589 295.691L598.383 295.629L597.019 300.179L597.225 300.241L598.589 295.691Z" fill="#111111"/>
<path d="M637.736 327.334C638.314 329.737 639.081 333.901 637.656 334.875C637.656 334.875 634.681 336.789 633.912 336.639C633.912 336.639 630.087 325.619 620.091 326.155C614.174 326.488 603.851 330.259 608.266 346.716C608.266 346.716 547.192 367.867 543.345 370.059C543.345 370.059 541.647 370.365 541.052 367.766C541.052 367.766 540.812 367.048 540.433 366.209C540.433 366.209 592.963 340.485 603.908 341.345C603.908 341.345 604.367 326.424 618.612 324.558C622.38 324.045 626.205 324.942 629.354 327.075C629.354 327.075 635.401 329.441 637.602 327.417C637.642 327.381 637.687 327.353 637.736 327.334Z" fill="#F49211"/>
<path d="M514.455 351.014C514.455 351.014 527.154 343.149 529.827 339.17C529.827 339.17 522.963 347.615 527.344 345.631C551.725 334.581 608.131 312.17 608.184 312.286C609.434 315.218 513.823 352.841 513.823 352.841C513.823 352.841 515.15 351.857 514.455 351.014Z" fill="#F7D877"/>
<path d="M608.079 298.844C608.079 298.844 604.617 300.798 603.944 301.862C603.858 301.999 603.74 302.113 603.601 302.195C603.462 302.277 603.305 302.325 603.144 302.334C597.502 302.718 591.902 303.574 586.402 304.893C586.402 304.893 597.991 300.729 608.079 298.844Z" fill="#E27E05"/>
<path d="M514.032 352.729L513.947 352.916C513.918 352.99 513.886 353.061 513.849 353.131C510.105 361.144 501.225 363.775 501.225 363.775C500.91 362.811 500.809 361.79 500.931 360.783C501.053 359.777 501.395 358.809 501.931 357.949C502.536 356.946 503.321 356.064 504.246 355.347C504.439 355.186 504.653 355.031 504.869 354.88C504.869 354.88 507.994 353.116 511.698 350.667L511.757 350.673C511.757 350.673 516.412 350.216 514.032 352.729Z" fill="#E0E9EF"/>
<path d="M603.91 341.33C603.762 346.023 600.537 346.514 600.537 346.514L581.881 352.933L547.83 364.652C547.306 364.989 546.737 365.251 546.139 365.429L543.748 364.618C543.748 364.618 590.182 341.401 603.586 341.329C603.699 341.343 603.809 341.335 603.91 341.33Z" fill="#E27E05"/>
<path d="M607.838 329.803C606.727 330.978 605.874 332.954 605.249 334.9C604.664 336.781 604.216 338.7 603.907 340.645C603.913 340.887 603.913 341.113 603.901 341.333C603.753 346.026 600.528 346.517 600.528 346.517L581.872 352.936L547.821 364.655C547.297 364.992 546.728 365.254 546.131 365.432C543.119 366.294 542.54 363.121 542.54 363.121C540.036 360.451 538.249 356.974 536.996 353.695C535.765 350.435 534.88 347.054 534.355 343.608C538.243 341.287 556.454 333.537 573.795 326.323C591.376 319.01 608.066 312.254 608.066 312.254C613.726 321.688 607.838 329.803 607.838 329.803Z" stroke="#E27E05" stroke-miterlimit="10"/>
<path d="M573.748 326.514C573.748 326.514 578.193 348.907 581.682 352.693" stroke="#E27E05" stroke-miterlimit="10"/>
<path d="M608.078 312.251C608.094 312.295 608.097 312.343 608.087 312.388C598.49 316.067 586.346 321.095 573.998 326.356C559.889 332.367 545.517 338.684 534.378 343.624C534.378 343.624 531.29 336.06 533.543 333.772C533.543 333.772 548.235 316.248 571.578 309.28C579.244 306.994 600.839 299.759 603.088 303.782C603.077 303.763 607.52 310.633 608.078 312.251Z" fill="#434443"/>
<path d="M575.197 310.628C575.745 313.916 577.424 323.917 577.674 324.537L600.169 315.548C600.169 315.548 602.546 308.088 600.08 304.465C599.777 304.019 583.779 306.545 576.037 309.22C575.754 309.319 575.515 309.514 575.361 309.771C575.207 310.028 575.149 310.332 575.197 310.628Z" fill="#D6E3DD"/>
<path d="M535.04 334.41C536.045 332.688 539.025 329.997 540.576 328.672C540.632 328.625 540.698 328.593 540.769 328.581C540.84 328.568 540.914 328.574 540.981 328.599C541.049 328.623 541.109 328.666 541.156 328.721C541.202 328.777 541.233 328.844 541.245 328.915C541.539 330.608 542.313 335.257 541.992 335.677C541.992 335.677 537.914 338.585 535.764 338.158C535.767 338.167 534.327 335.63 535.04 334.41Z" fill="#D6E3DD"/>
<path d="M541.513 333.208C541.513 333.208 544.561 335.975 543.384 338.029C543.384 338.029 538.675 340.502 537.362 337.176C537.362 337.176 536.604 334.065 541.513 333.208Z" fill="#2A2B2A"/>
<path d="M542.93 326.205C545.794 323.817 558.157 313.946 567.973 311.936C568.048 311.923 568.125 311.926 568.2 311.943C568.274 311.961 568.344 311.994 568.405 312.04C568.466 312.085 568.517 312.143 568.555 312.21C568.593 312.276 568.617 312.349 568.625 312.425C568.909 314.694 569.906 322.88 570.07 326.461C570.084 326.775 570.003 327.086 569.837 327.352C569.67 327.619 569.427 327.829 569.14 327.954L545.804 338.135L543.004 334.886L542.307 327.541C542.305 327.286 542.36 327.034 542.468 326.803C542.575 326.572 542.733 326.367 542.93 326.205Z" fill="#D6E3DD"/>
<g clip-path="url(#clip1)">
<path d="M555.339 352.673L555.268 352.697L555.075 352.761L554.594 351.321L554.787 351.257L554.857 351.233L555.496 351.02L555.511 351.136L554.894 351.343L555.078 351.894L555.51 351.749L555.547 351.859L555.115 352.003L555.301 352.56L555.918 352.353L555.934 352.472L555.338 352.671L555.339 352.673Z" fill="#1F7240"/>
<path d="M556.59 351.825C556.543 351.826 556.495 351.829 556.443 351.836C556.39 351.843 556.324 351.856 556.247 351.88L556.24 352.362L556.126 352.401L556.145 350.806L556.417 350.716L557.389 351.978L557.112 352.071L556.89 351.782C556.766 351.813 556.667 351.827 556.59 351.825ZM556.259 350.962L556.249 351.753C556.393 351.718 556.504 351.7 556.586 351.705C556.648 351.705 556.723 351.697 556.811 351.679L556.259 350.962Z" fill="#1F7240"/>
<path d="M557.522 350.334L557.923 350.2L557.981 350.305L557.559 350.446L558.004 351.776L557.738 351.865L557.294 350.535L556.892 350.669L556.836 350.564L557.256 350.423L557.522 350.334Z" fill="#1F7240"/>
<path d="M559.923 351.114L559.884 351.087C559.797 351.163 559.667 351.219 559.495 351.257C559.367 351.283 559.254 351.274 559.153 351.231C559.05 351.186 558.98 351.109 558.943 350.998C558.911 350.902 558.915 350.813 558.953 350.73C558.991 350.646 559.054 350.579 559.139 350.529C559.056 350.465 559.003 350.421 558.982 350.396C558.959 350.371 558.943 350.349 558.933 350.331C558.922 350.313 558.911 350.287 558.901 350.256C558.872 350.17 558.881 350.081 558.925 349.992C558.97 349.902 559.037 349.844 559.131 349.812C559.223 349.784 559.305 349.793 559.378 349.841C559.451 349.887 559.504 349.956 559.536 350.046C559.559 350.109 559.562 350.18 559.54 350.26C559.518 350.34 559.476 350.406 559.41 350.457C559.594 350.582 559.769 350.698 559.939 350.806C559.951 350.761 559.949 350.715 559.931 350.669C559.947 350.664 559.958 350.66 559.97 350.657C559.981 350.653 559.991 350.65 560.002 350.646C560.014 350.642 560.025 350.638 560.04 350.633L560.041 350.635C560.066 350.71 560.067 350.789 560.043 350.871C560.109 350.913 560.181 350.957 560.259 351.006L559.923 351.114ZM559.459 351.15C559.581 351.139 559.689 351.094 559.784 351.015C559.705 350.957 559.609 350.888 559.502 350.807C559.394 350.725 559.292 350.65 559.198 350.578C559.116 350.669 559.099 350.785 559.149 350.929C559.179 351.013 559.222 351.071 559.281 351.107C559.338 351.139 559.397 351.155 559.459 351.15ZM559.162 349.911C559.122 349.924 559.092 349.956 559.072 350.005C559.052 350.054 559.06 350.116 559.095 350.189C559.106 350.209 559.127 350.232 559.155 350.259C559.183 350.286 559.212 350.31 559.238 350.329C559.264 350.35 559.283 350.363 559.295 350.372C559.297 350.373 559.298 350.375 559.3 350.375C559.303 350.378 559.309 350.382 559.311 350.384C559.314 350.385 559.317 350.388 559.32 350.391C559.323 350.393 559.326 350.396 559.329 350.397C559.331 350.398 559.334 350.4 559.334 350.402C559.337 350.403 559.337 350.403 559.337 350.405L559.34 350.406L559.343 350.407C559.395 350.362 559.426 350.309 559.436 350.248C559.445 350.187 559.438 350.132 559.415 350.084C559.382 350.017 559.344 349.967 559.298 349.938C559.251 349.904 559.206 349.896 559.162 349.911Z" fill="#1F7240"/>
<path d="M561.612 350.146C561.66 350.271 561.649 350.379 561.581 350.475C561.513 350.57 561.4 350.644 561.242 350.699L561.24 350.7L561.238 350.7C561.236 350.701 561.233 350.702 561.229 350.703C561.223 350.705 561.217 350.707 561.212 350.709C561.206 350.711 561.196 350.714 561.187 350.718C561.059 350.76 560.944 350.773 560.844 350.753C560.744 350.733 560.661 350.695 560.597 350.637L560.664 350.532C560.732 350.584 560.798 350.615 560.863 350.625C560.928 350.635 560.986 350.637 561.036 350.627C561.085 350.617 561.121 350.609 561.141 350.6C561.143 350.6 561.143 350.6 561.146 350.601C561.148 350.6 561.151 350.599 561.155 350.598C561.165 350.595 561.18 350.59 561.201 350.583C561.257 350.564 561.3 350.53 561.332 350.483C561.363 350.437 561.369 350.386 561.352 350.334C561.333 350.278 561.29 350.237 561.22 350.213C561.151 350.19 561.065 350.169 560.966 350.151C560.878 350.136 560.785 350.113 560.685 350.087C560.678 350.085 560.669 350.084 560.66 350.081C560.613 350.075 560.555 350.054 560.486 350.019C560.417 349.985 560.364 349.921 560.326 349.827C560.287 349.704 560.304 349.595 560.376 349.499C560.448 349.404 560.561 349.328 560.717 349.274L560.719 349.273L560.721 349.273C560.721 349.273 560.723 349.272 560.725 349.271L560.727 349.271L560.728 349.27C560.73 349.269 560.73 349.269 560.732 349.269C560.859 349.229 560.973 349.218 561.07 349.237C561.168 349.256 561.249 349.295 561.312 349.35L561.245 349.456C561.177 349.404 561.109 349.373 561.044 349.363C560.979 349.353 560.922 349.353 560.871 349.361C560.822 349.371 560.787 349.381 560.768 349.387C560.684 349.417 560.624 349.459 560.582 349.513C560.541 349.567 560.53 349.622 560.548 349.678C560.566 349.73 560.607 349.763 560.672 349.782C560.737 349.799 560.816 349.813 560.909 349.824C561.02 349.836 561.137 349.857 561.263 349.89C561.27 349.892 561.277 349.895 561.286 349.897C561.344 349.91 561.402 349.933 561.467 349.967C561.523 350.001 561.573 350.061 561.612 350.146Z" fill="#1F7240"/>
<path d="M562.352 349.898C562.305 349.899 562.257 349.902 562.204 349.909C562.151 349.916 562.086 349.93 562.009 349.953L562.002 350.436L561.888 350.474L561.907 348.88L562.178 348.789L563.151 350.052L562.875 350.144L562.654 349.855C562.528 349.886 562.429 349.9 562.352 349.898ZM562.021 349.036L562.011 349.827C562.154 349.791 562.265 349.774 562.347 349.778C562.409 349.779 562.485 349.771 562.572 349.752L562.021 349.036Z" fill="#1F7240"/>
<path d="M563.792 349.65L563.808 348.236L563.925 348.197L563.906 349.806L563.631 349.898L562.648 348.624L562.927 348.531L563.792 349.65Z" fill="#1F7240"/>
<path d="M564.862 349.489L564.791 349.512L564.598 349.577L564.117 348.137L564.31 348.072L564.381 348.049L565.019 347.835L565.035 347.954L564.418 348.16L564.602 348.711L565.034 348.567L565.071 348.676L564.639 348.82L564.825 349.377L565.442 349.171L565.458 349.289L564.862 349.489Z" fill="#1F7240"/>
<path d="M556.868 339.999C556.869 340.199 556.877 340.402 556.896 340.598C556.898 340.627 556.901 340.656 556.905 340.685C556.608 340.635 556.316 340.439 556.156 340.183C556.152 340.177 556.147 340.169 556.144 340.162C556.124 340.129 556.105 340.096 556.084 340.061C556.072 340.04 556.091 340.031 556.116 340.018C556.16 339.994 556.203 339.977 556.249 339.966C556.304 339.955 556.356 339.94 556.41 339.932C556.565 339.91 556.729 339.922 556.868 339.999Z" fill="#5FAD56"/>
<path d="M558.504 339.522C558.494 339.567 558.485 339.612 558.473 339.658C558.47 339.669 558.467 339.677 558.465 339.686C558.425 339.838 558.359 339.978 558.272 340.104C558.211 340.193 558.139 340.272 558.059 340.341C557.963 340.422 557.855 340.491 557.736 340.54C557.704 340.554 557.671 340.567 557.635 340.577C557.579 340.593 557.507 340.614 557.461 340.58C557.441 340.364 557.432 340.145 557.436 339.923C557.471 339.857 557.515 339.798 557.564 339.744C557.582 339.726 557.601 339.707 557.622 339.69C557.75 339.581 557.912 339.519 558.08 339.49C558.145 339.481 558.211 339.478 558.278 339.471C558.335 339.467 558.393 339.47 558.449 339.483C558.486 339.49 558.51 339.495 558.504 339.522Z" fill="#5FAD56"/>
<path d="M557.344 339.415C557.306 339.855 557.309 340.292 557.358 340.719C557.281 340.73 557.204 340.743 557.126 340.761C557.096 340.767 557.064 340.775 557.033 340.783C557.006 340.554 556.989 340.322 556.987 340.086C556.987 340.086 556.987 340.086 556.988 340.083C556.985 339.851 556.993 339.618 557.013 339.384C557.02 339.315 557.065 339.26 557.125 339.24C557.147 339.233 557.169 339.231 557.192 339.233C557.284 339.244 557.35 339.323 557.344 339.415Z" fill="#1F7240"/>
<path d="M560.879 342.89C561.011 343.286 561.063 343.689 561.041 344.082C561.036 344.191 561.025 344.3 561.009 344.405C560.832 345.557 560.036 346.571 558.857 346.965C558.636 347.039 558.408 347.088 558.185 347.113C557.242 347.215 556.315 346.889 555.64 346.254C555.263 345.9 554.967 345.449 554.792 344.924C554.424 343.825 554.68 342.668 555.366 341.84C555.431 341.761 555.501 341.683 555.573 341.612C555.911 341.274 556.333 341.01 556.815 340.848C556.849 340.837 556.885 340.827 556.921 340.818C556.927 340.813 556.934 340.813 556.941 340.811C556.954 340.807 556.966 340.805 556.979 340.801C556.999 340.794 557.018 340.79 557.038 340.784C557.07 340.776 557.099 340.768 557.132 340.762C557.21 340.746 557.286 340.73 557.363 340.719C557.384 340.715 557.403 340.713 557.423 340.712C557.439 340.709 557.453 340.707 557.47 340.706C557.475 340.707 557.477 340.706 557.482 340.705C557.752 340.674 558.02 340.678 558.279 340.718C558.312 340.721 558.344 340.728 558.377 340.732C558.639 340.778 558.894 340.856 559.134 340.962C559.926 341.313 560.579 341.993 560.879 342.89Z" fill="#FFA73A"/>
<path d="M560.267 342.396C560.216 342.532 559.978 342.46 559.9 342.581C559.85 342.506 559.802 342.428 559.755 342.352C559.699 342.326 559.634 342.38 559.622 342.441C559.61 342.502 559.63 342.562 559.646 342.623C559.685 342.769 559.695 342.924 559.674 343.074C559.591 343.055 559.522 343.15 559.513 343.235C559.505 343.314 559.533 343.406 559.503 343.478C559.482 343.534 559.417 343.588 559.389 343.645C559.356 343.708 559.303 343.742 559.235 343.736C559.156 343.73 559.105 343.769 559.066 343.827C558.968 343.963 558.845 344.066 558.709 344.159C558.603 344.234 558.542 344.331 558.537 344.464C558.534 344.519 558.517 344.574 558.501 344.629C558.48 344.698 558.442 344.745 558.367 344.765C558.317 344.777 558.273 344.809 558.226 344.83C558.143 344.87 558.062 344.929 557.977 344.963C557.898 344.997 557.796 344.988 557.737 345.06C557.67 345.134 557.699 345.249 557.73 345.342C557.764 345.333 557.797 345.322 557.834 345.322C557.869 345.323 557.907 345.335 557.927 345.365C557.96 345.411 557.939 345.475 557.92 345.526C557.881 345.618 557.839 345.712 557.76 345.772C557.682 345.833 557.557 345.84 557.49 345.766C557.484 345.85 557.477 345.934 557.468 346.018C557.468 346.046 557.465 346.074 557.478 346.099C557.494 346.126 557.531 346.139 557.56 346.136C557.591 346.136 557.621 346.121 557.652 346.111C557.714 346.082 557.78 346.053 557.848 346.062C557.914 346.07 557.983 346.129 557.974 346.198C557.963 346.254 557.91 346.309 557.934 346.358C557.952 346.389 557.987 346.399 558.023 346.402C558.094 346.408 558.165 346.399 558.232 346.379C558.287 346.361 558.345 346.334 558.397 346.356C558.448 346.377 558.487 346.45 558.488 346.504C558.489 346.56 558.455 346.599 558.477 346.664C558.481 346.675 558.468 346.689 558.468 346.704C558.47 346.73 558.472 346.759 558.478 346.784C558.481 346.801 558.495 346.813 558.5 346.829C558.531 346.9 558.521 346.928 558.453 346.966C558.382 347.007 558.312 347.048 558.239 347.085C558.217 347.094 558.199 347.108 558.182 347.121C557.238 347.224 556.312 346.897 555.636 346.262C555.634 346.196 555.626 346.127 555.631 346.061C555.634 346.003 555.662 345.957 555.709 345.919C555.75 345.88 555.793 345.839 555.836 345.797C555.782 345.667 555.796 345.62 555.926 345.589C556.065 345.555 556.153 345.458 556.251 345.369C556.341 345.289 556.428 345.211 556.518 345.134C556.554 345.102 556.594 345.091 556.641 345.105C556.679 345.115 556.719 345.123 556.758 345.13C556.797 345.137 556.826 345.127 556.84 345.083C556.865 344.995 556.93 344.952 557.022 344.948C557.122 344.944 557.207 344.903 557.283 344.843C557.427 344.731 557.621 344.743 557.762 344.619C557.711 344.609 557.666 344.569 557.65 344.52C557.713 344.511 557.78 344.534 557.825 344.58C557.852 344.609 557.874 344.646 557.91 344.664C557.946 344.678 557.99 344.669 558.028 344.656C558.075 344.643 558.124 344.627 558.153 344.59C558.183 344.552 558.19 344.493 558.154 344.46C558.127 344.437 558.091 344.44 558.054 344.432C558.02 344.426 557.981 344.407 557.98 344.373C557.98 344.299 558.087 344.238 558.103 344.159C558.118 344.072 558.088 343.975 558.132 343.892C558.16 343.835 558.228 343.825 558.256 343.778C558.292 343.722 558.247 343.529 558.346 343.508C558.362 343.505 558.38 343.514 558.395 343.524C558.447 343.559 558.491 343.603 558.545 343.64C558.598 343.674 558.661 343.7 558.722 343.689C558.782 343.679 558.838 343.618 558.83 343.557C558.821 343.493 558.754 343.446 558.759 343.382C558.765 343.341 558.8 343.312 558.838 343.294C558.861 343.282 558.885 343.271 558.907 343.256C558.918 343.245 558.928 343.237 558.939 343.226C558.884 343.18 558.831 343.124 558.773 343.083C558.757 343.074 558.606 343.011 558.598 343.031C558.607 343.008 558.609 342.985 558.606 342.961C558.605 342.937 558.6 342.911 558.585 342.889C558.612 342.853 558.642 342.818 558.679 342.788C558.507 342.752 558.333 342.718 558.161 342.682C558.122 342.675 558.08 342.667 558.045 342.688C558.024 342.7 558.011 342.72 557.998 342.739C557.882 342.909 557.751 343.034 557.619 343.19C557.589 343.034 557.486 342.969 557.379 342.871C557.296 342.793 557.21 342.71 557.082 342.778C557.07 342.784 557.062 342.797 557.049 342.811C557.068 342.83 557.083 342.847 557.098 342.861C557.136 342.901 557.13 342.942 557.083 342.963C557.022 342.988 556.959 343.007 556.894 343.019C556.844 343.03 556.792 343.028 556.741 343.033C556.69 343.035 556.639 343.037 556.581 343.039C556.59 342.986 556.599 342.937 556.609 342.886C556.622 342.815 556.603 342.752 556.543 342.703C556.502 342.67 556.458 342.635 556.42 342.601C556.377 342.563 556.377 342.541 556.419 342.504C556.447 342.478 556.481 342.461 556.511 342.439C556.54 342.417 556.572 342.394 556.598 342.368C556.63 342.332 556.624 342.307 556.584 342.281C556.55 342.263 556.519 342.241 556.484 342.233C556.346 342.202 556.206 342.175 556.066 342.147C556.051 342.145 556.037 342.15 556.025 342.149C555.949 342.157 555.949 342.157 555.931 342.23C555.91 342.328 555.828 342.393 555.731 342.388C555.665 342.385 555.636 342.348 555.656 342.284C555.672 342.235 555.695 342.187 555.718 342.137C555.677 342.104 555.638 342.117 555.598 342.118C555.547 342.118 555.492 342.124 555.439 342.119C555.367 342.111 555.347 342.081 555.362 342.009C555.371 341.976 555.389 341.948 555.395 341.916C555.398 341.895 555.394 341.867 555.38 341.855C555.373 341.849 555.366 341.842 555.359 341.837C555.424 341.758 555.494 341.68 555.566 341.609C555.568 341.609 555.569 341.611 555.571 341.61C555.622 341.615 555.671 341.629 555.721 341.639C555.809 341.659 555.914 341.676 555.991 341.628C556.01 341.617 556.027 341.604 556.03 341.583C556.036 341.564 556.032 341.545 556.034 341.527C556.036 341.482 556.074 341.449 556.112 341.422C556.164 341.385 556.217 341.352 556.274 341.323C556.307 341.307 556.347 341.294 556.377 341.316C556.395 341.327 556.403 341.349 556.42 341.364C556.441 341.384 556.475 341.382 556.502 341.373C556.529 341.364 556.552 341.347 556.579 341.332C556.592 341.326 556.607 341.318 556.62 341.314C556.736 341.278 556.868 341.325 556.979 341.407C557.09 341.489 557.182 341.604 557.224 341.699L557.843 341.519C557.866 341.513 557.888 341.504 557.896 341.484C557.911 341.454 557.883 341.424 557.862 341.396C557.795 341.315 557.773 341.196 557.809 341.097C557.8 341.117 557.616 341.082 557.595 341.077C557.557 341.068 557.521 341.055 557.486 341.039C557.625 341.027 557.765 340.998 557.903 340.952C558.067 340.897 558.221 340.821 558.363 340.724C558.625 340.77 558.88 340.848 559.12 340.953C559.159 341.047 559.198 341.135 559.197 341.237C559.231 341.235 559.264 341.237 559.296 341.231C559.397 341.207 559.488 341.221 559.578 341.278C559.644 341.32 559.719 341.352 559.79 341.388C559.811 341.4 559.833 341.415 559.855 341.43C559.839 341.478 559.828 341.518 559.815 341.56C559.8 341.61 559.801 341.659 559.819 341.705C559.891 341.891 559.93 342.066 560.114 342.168C560.208 342.22 560.303 342.305 560.267 342.396Z" fill="#FFC446"/>
<path d="M556.124 343.939C556.047 344.046 555.944 344.138 555.824 344.19C555.725 344.233 555.362 344.355 555.303 344.194C555.284 344.143 555.315 344.09 555.347 344.045C555.385 343.988 555.427 343.93 555.489 343.904C555.561 343.875 555.642 343.895 555.718 343.887C555.824 343.873 556.081 343.647 556.181 343.717C556.249 343.768 556.16 343.89 556.124 343.939Z" fill="#FFC446"/>
<path d="M561.043 344.082C561.037 344.19 561.027 344.3 561.01 344.404C560.993 344.398 560.976 344.391 560.964 344.383C560.938 344.366 560.912 344.346 560.883 344.348C560.852 344.351 560.83 344.38 560.811 344.406C560.775 344.466 560.743 344.526 560.717 344.589C560.556 344.702 560.338 344.738 560.151 344.677C560.12 344.667 559.995 344.625 559.994 344.687C559.993 344.7 559.997 344.711 559.996 344.723C559.995 344.749 559.972 344.769 559.948 344.777C559.924 344.787 559.899 344.786 559.874 344.794C559.849 344.8 559.825 344.815 559.815 344.838C559.804 344.864 559.814 344.893 559.8 344.918C559.789 344.936 559.767 344.943 559.746 344.94C559.718 344.938 559.703 344.92 559.684 344.946C559.672 344.963 559.672 344.99 559.673 345.009C559.673 345.024 559.695 345.133 559.684 345.137C559.725 345.121 559.768 345.109 559.814 345.106C559.823 345.105 559.833 345.104 559.84 345.112C559.848 345.119 559.845 345.133 559.841 345.144C559.829 345.217 559.876 345.285 559.923 345.344C559.883 345.38 559.841 345.416 559.801 345.452C559.764 345.486 559.721 345.483 559.67 345.486C559.53 345.495 559.392 345.561 559.301 345.666C559.222 345.626 559.128 345.565 559.087 345.48C559.162 345.455 559.237 345.422 559.31 345.388C559.318 345.383 559.328 345.377 559.333 345.37C559.355 345.341 559.318 345.289 559.302 345.262C559.283 345.234 559.25 345.23 559.218 345.224C559.175 345.213 559.151 345.238 559.109 345.238C559.083 345.239 559.055 345.223 559.051 345.197C559.045 345.157 559.09 345.13 559.092 345.09C559.093 345.062 559.073 345.039 559.055 345.018C559.036 344.997 559.019 344.968 559.03 344.942C559.069 344.962 559.107 344.981 559.148 344.977C559.188 344.974 559.224 344.947 559.256 344.916C559.292 344.885 559.324 344.849 559.356 344.811C559.373 344.788 559.392 344.764 559.416 344.749C559.447 344.731 559.483 344.729 559.517 344.72C559.619 344.693 559.616 344.603 559.537 344.55C559.509 344.532 559.478 344.498 559.492 344.466C559.505 344.44 559.536 344.437 559.564 344.432C559.648 344.419 559.725 344.376 559.781 344.315C559.788 344.306 559.797 344.295 559.806 344.287C559.826 344.266 559.848 344.243 559.879 344.24C559.909 344.235 559.937 344.251 559.964 344.259C560.109 344.302 560.223 344.133 560.367 344.218C560.382 344.228 560.399 344.24 560.419 344.241C560.441 344.241 560.458 344.22 560.469 344.199C560.487 344.166 560.492 344.127 560.502 344.092C560.514 344.055 560.534 344.019 560.572 344.006C560.608 343.997 560.646 344.014 560.68 344.022C560.765 344.046 560.848 344.03 560.925 343.995C560.956 344.101 560.991 344.096 561.043 344.082Z" fill="#FFC446"/>
<path d="M558.919 348.596C558.808 348.274 558.633 348.029 558.379 347.844C558.128 347.661 557.832 347.549 557.531 347.474C557.238 347.401 556.933 347.387 556.645 347.305C556.226 347.186 555.821 346.977 555.494 346.685C555.406 346.606 555.32 346.481 555.21 346.431C555.147 346.403 554.952 346.367 554.915 346.453C554.888 346.522 555.027 346.636 555.061 346.677C555.151 346.785 555.242 346.896 555.335 347.003C555.449 347.138 555.699 347.379 555.699 347.379C555.699 347.379 555.784 347.464 555.812 347.539C555.474 347.318 555.197 347.017 554.926 346.717C554.857 346.641 554.819 346.545 554.805 346.443C554.759 346.171 554.71 345.893 554.611 345.634C554.593 345.586 554.432 345.259 554.34 345.272C554.326 345.274 554.314 345.283 554.305 345.301C554.281 345.346 554.3 345.409 554.306 345.457C554.364 345.883 554.356 346.336 554.527 346.739C554.627 346.97 554.765 347.179 554.888 347.398C555.031 347.657 555.202 347.879 555.465 348.004C555.713 348.127 555.993 348.206 556.258 348.268C556.53 348.331 557.031 348.351 557.519 348.404C557.601 348.413 557.68 348.421 557.761 348.434C557.89 348.45 558.012 348.471 558.128 348.494C558.542 348.628 558.885 348.974 559.01 349.437L559.02 349.475C559.022 349.45 559.025 349.424 559.024 349.4L559.023 349.388C559.02 349.246 559.019 349.112 559 348.973C558.982 348.852 558.963 348.723 558.919 348.596Z" fill="#1F7240"/>
<path d="M559.784 348.307C559.678 347.983 559.671 347.681 559.763 347.381C559.853 347.084 560.022 346.817 560.217 346.576C560.408 346.342 560.643 346.147 560.824 345.908C561.087 345.56 561.285 345.15 561.371 344.721C561.393 344.604 561.387 344.453 561.445 344.347C561.479 344.286 561.612 344.14 561.695 344.187C561.757 344.226 561.714 344.401 561.712 344.453C561.705 344.594 561.699 344.737 561.689 344.879C561.679 345.056 561.624 345.398 561.624 345.398C561.624 345.398 561.607 345.518 561.63 345.594C561.767 345.214 561.808 344.807 561.844 344.404C561.854 344.302 561.825 344.203 561.776 344.113C561.65 343.868 561.521 343.616 561.444 343.35C561.43 343.3 561.362 342.942 561.443 342.898C561.456 342.891 561.471 342.891 561.489 342.9C561.535 342.922 561.558 342.983 561.582 343.025C561.791 343.4 562.07 343.757 562.176 344.182C562.235 344.427 562.25 344.677 562.284 344.925C562.325 345.218 562.323 345.499 562.187 345.757C562.063 346.004 561.887 346.236 561.713 346.445C561.533 346.658 561.144 346.976 560.786 347.311C560.726 347.368 560.668 347.422 560.611 347.481C560.518 347.571 560.433 347.662 560.354 347.75C560.103 348.106 560.038 348.588 560.216 349.033L560.231 349.07C560.215 349.051 560.196 349.032 560.182 349.012L560.176 349.002C560.093 348.886 560.013 348.779 559.945 348.656C559.889 348.549 559.826 348.434 559.784 348.307Z" fill="#1F7240"/>
</g>
</g>
<defs>
<clipPath id="clip0">
<rect width="146.184" height="60.6294" fill="white" transform="translate(485.902 337.649) rotate(-20.4816)"/>
</clipPath>
<clipPath id="clip1">
<rect width="10.9939" height="12.3132" fill="white" transform="translate(551.211 341.207) rotate(-18.481)"/>
</clipPath>
</defs>
</svg>
