<svg width="20" height="18" viewBox="0 0 20 18" fill="none" xmlns="http://www.w3.org/2000/svg">
<path d="M5.6709 0.721296C7.33928 0.71238 8.92534 1.4451 10 2.72127C11.068 1.43638 12.6584 0.701574 14.3291 0.721296C17.4611 0.721296 20 3.26021 20 6.39215C20 11.7593 10.6329 16.9997 10.2532 17.2023C10.0999 17.3047 9.90011 17.3047 9.74683 17.2023C9.36707 16.9997 0 11.8352 0 6.39215C0 3.26021 2.53897 0.721296 5.6709 0.721296ZM10 16.1896C11.4684 15.3289 18.9873 10.7466 18.9873 6.39215C18.9873 3.81951 16.9018 1.73391 14.3291 1.73391C12.7537 1.71322 11.2793 2.50787 10.4304 3.83516C10.258 4.07284 9.92554 4.12581 9.68786 3.95339C9.64246 3.92044 9.60253 3.88056 9.56963 3.83516C8.1617 1.68196 5.27481 1.0778 3.12161 2.48572C1.80348 3.34763 1.01009 4.81719 1.01271 6.3921C1.01266 10.7972 8.53167 15.3542 10 16.1896Z" fill="#5FAD56"/>
<path d="M0.500288 7C0.00028801 5.5 2.50039 2 5 1.5C6.66361 1.16723 8.15484 2.02137 8.88846 2.86637C8.92564 3.07758 9.20058 3.1 10.0004 3.5C11.0002 4 10.5004 3 11.5004 2C12.5004 1 14.0004 1 15.5004 1C17.0004 1 19.0004 4.5 19.5004 5.5C20.0004 6.5 17.5004 10.5 17.0004 11C16.5004 11.5 13.4992 14.0006 12.4992 15.0006C11.4994 16.0004 10.4999 16.9999 9.00039 16.5C7.50062 16 5.49976 13 3.99976 12C2.49976 11 1.00029 8.5 0.500288 7Z" fill="#5FAD56"/>
</svg>
