<svg width="957" height="428" viewBox="0 0 957 428" fill="none" xmlns="http://www.w3.org/2000/svg">
<path d="M188.5 1C272.167 1 490.9 1 696.5 1C953.5 1 1026 272 885 328.5C744 385 634 255 364.5 328.5C95 402 178 417 1 427" stroke="#FAA53C" stroke-width="2" stroke-linecap="round" stroke-dasharray="7 7"/>
<g clip-path="url(#clip0)">
<path d="M299.259 326.119C299.259 326.119 299.474 326.818 299.718 327.825C300.297 330.228 301.064 334.392 299.639 335.366C299.639 335.366 296.664 337.279 295.894 337.13C295.894 337.13 292.069 326.11 282.073 326.646C276.156 326.979 265.834 330.75 270.248 347.207C270.248 347.207 209.175 368.358 205.328 370.55C205.328 370.55 203.63 370.856 203.034 368.257C202.876 367.785 202.692 367.323 202.484 366.871C201.039 363.632 196.528 355.952 187.006 357.368C187.006 357.368 173.236 359.187 175.873 374.44C175.995 375.155 176.155 375.898 176.359 376.672C176.563 377.445 176.787 378.244 177.064 379.075C177.064 379.075 172.625 382.019 170.006 381.129C170.006 381.129 164.987 383.036 164.8 382.801L164.083 381.473L164.155 381.263C164.4 380.547 165.085 378.259 163.862 378.556C162.241 375.933 161.048 373.067 160.331 370.068C159.198 364.975 159.764 358.849 167.072 355.439C167.072 355.439 183.883 344.972 187.907 340.564C195.236 332.536 206.951 317.123 229.911 309.984C239.828 306.899 255.782 300.71 270.066 299.351C270.681 299.758 271.214 300.277 271.637 300.881C271.637 300.881 284.176 307.027 284.875 307.315C285.441 307.573 286.029 307.79 286.558 308.048C287.376 308.411 288.164 308.838 288.913 309.328C291.194 310.847 292.647 313.041 292.435 317.26C292.472 317.247 299.061 322.47 299.259 326.119Z" fill="#EEBB2D"/>
<path d="M180.402 378.485L177.078 379.074C177.078 379.074 169.963 363.644 184.128 358.057C189.518 355.936 200.032 356.135 203.842 370.231C203.842 370.231 203.496 372.999 201.135 374.294C201.135 374.294 203.627 359.449 188.276 359.85C182.874 359.967 174.731 367.06 180.402 378.485Z" fill="#2A2B2A"/>
<path d="M272.128 346.326L270.169 347.175C270.169 347.175 263.78 333.375 277.011 327.25C282.27 324.816 292.968 325.984 295.909 337.138C295.909 337.138 295.308 336.132 293.872 337.251C293.872 337.251 291.142 329.69 281.867 329.441C276.444 329.288 267.965 334.539 272.128 346.326Z" fill="#2A2B2A"/>
<path d="M201.194 367.42C199.214 361.261 192.454 357.925 186.096 359.969C179.738 362.013 176.188 368.663 178.168 374.823C180.149 380.982 186.908 384.319 193.267 382.275C199.625 380.23 203.175 373.58 201.194 367.42Z" fill="#3D4039"/>
<path d="M197.682 368.816C196.225 364.284 191.323 361.807 186.734 363.282C182.144 364.758 179.604 369.627 181.061 374.159C182.518 378.691 187.42 381.169 192.01 379.693C196.599 378.218 199.139 373.348 197.682 368.816Z" fill="#D6E3DD"/>
<path d="M195.134 369.386C195.487 370.517 195.497 371.728 195.163 372.864C194.829 374.001 194.166 375.014 193.257 375.775C192.349 376.535 191.236 377.01 190.058 377.139C188.88 377.269 187.69 377.046 186.639 376.501C185.587 375.955 184.72 375.11 184.148 374.073C183.575 373.035 183.323 371.852 183.422 370.671C183.521 369.49 183.967 368.365 184.704 367.438C185.441 366.51 186.436 365.821 187.564 365.458C188.319 365.219 189.114 365.131 189.903 365.199C190.692 365.267 191.46 365.489 192.163 365.854C192.866 366.219 193.49 366.719 194 367.325C194.51 367.931 194.895 368.631 195.134 369.386Z" fill="#3D4039"/>
<path d="M196.915 370.265L196.348 368.031L191.845 369.449C191.791 369.38 191.738 369.311 191.675 369.245L194.176 365.382L192.202 364.195L189.995 368.342C189.904 368.325 189.816 368.315 189.728 368.306L188.788 363.691L186.561 364.274L187.88 368.724C187.778 368.785 187.679 368.852 187.584 368.924L183.575 366.436L182.453 368.46L186.5 370.498C186.434 370.734 186.397 370.978 186.391 371.224L181.9 372.47L182.655 374.643L187.026 373.01C187.052 373.08 187.123 373.133 187.173 373.19L184.791 377.333L186.859 378.358L188.84 374.083C188.983 374.108 189.127 374.121 189.273 374.124L189.95 378.776L192.214 378.367L191.106 373.589C191.182 373.538 191.255 373.482 191.325 373.423L191.289 373.478L195.207 376.212L196.463 374.283L192.314 371.898C192.372 371.685 192.405 371.467 192.413 371.246L196.915 370.265Z" fill="#D6E3DD"/>
<path d="M188.37 369.979C188.409 370.102 188.411 370.235 188.375 370.359C188.34 370.484 188.268 370.595 188.169 370.679C188.07 370.762 187.949 370.815 187.82 370.83C187.691 370.844 187.561 370.821 187.446 370.761C187.331 370.702 187.236 370.61 187.173 370.497C187.11 370.384 187.082 370.254 187.092 370.125C187.103 369.996 187.152 369.873 187.232 369.772C187.312 369.67 187.421 369.595 187.545 369.555C187.627 369.528 187.713 369.517 187.799 369.524C187.885 369.531 187.969 369.555 188.046 369.594C188.123 369.634 188.191 369.688 188.246 369.754C188.302 369.82 188.344 369.897 188.37 369.979Z" fill="#C6C6C6" stroke="#3D4039" stroke-width="0.1" stroke-miterlimit="10"/>
<path d="M191.151 369.409C191.19 369.533 191.192 369.665 191.157 369.789C191.121 369.914 191.049 370.025 190.95 370.109C190.851 370.192 190.73 370.245 190.601 370.26C190.472 370.274 190.342 370.251 190.227 370.191C190.112 370.132 190.017 370.04 189.954 369.927C189.891 369.814 189.863 369.684 189.874 369.555C189.884 369.426 189.933 369.303 190.013 369.202C190.094 369.1 190.202 369.025 190.326 368.985C190.491 368.933 190.671 368.948 190.825 369.028C190.98 369.107 191.097 369.244 191.151 369.409Z" fill="#C6C6C6" stroke="#3D4039" stroke-width="0.1" stroke-miterlimit="10"/>
<path d="M191.647 372.167C191.686 372.291 191.688 372.423 191.653 372.547C191.617 372.672 191.545 372.783 191.446 372.867C191.347 372.95 191.226 373.003 191.097 373.018C190.969 373.032 190.838 373.009 190.723 372.949C190.608 372.89 190.513 372.798 190.45 372.685C190.387 372.572 190.359 372.442 190.37 372.313C190.38 372.184 190.429 372.061 190.509 371.96C190.59 371.858 190.699 371.783 190.822 371.743C190.904 371.717 190.99 371.707 191.076 371.714C191.162 371.721 191.246 371.745 191.322 371.784C191.399 371.823 191.467 371.878 191.523 371.943C191.578 372.009 191.621 372.085 191.647 372.167Z" fill="#C6C6C6" stroke="#3D4039" stroke-width="0.1" stroke-miterlimit="10"/>
<path d="M188.838 372.743C188.878 372.866 188.88 372.998 188.844 373.123C188.808 373.247 188.736 373.358 188.638 373.442C188.539 373.526 188.417 373.578 188.289 373.593C188.16 373.608 188.03 373.584 187.915 373.525C187.799 373.466 187.704 373.374 187.641 373.26C187.579 373.147 187.551 373.018 187.561 372.889C187.572 372.76 187.62 372.637 187.701 372.535C187.781 372.434 187.89 372.358 188.013 372.318C188.095 372.292 188.182 372.282 188.268 372.289C188.353 372.296 188.437 372.32 188.514 372.359C188.59 372.399 188.659 372.453 188.714 372.519C188.77 372.584 188.812 372.661 188.838 372.743Z" fill="#C6C6C6" stroke="#3D4039" stroke-width="0.1" stroke-miterlimit="10"/>
<path d="M294.008 336.393C295.988 342.549 292.435 349.186 286.082 351.244C279.73 353.302 272.954 349.956 270.993 343.811C269.031 337.667 272.566 331.018 278.918 328.96C285.271 326.902 292.03 330.231 294.008 336.393Z" fill="#3D4039"/>
<path d="M290.501 337.783C289.045 333.251 284.143 330.772 279.553 332.247C274.963 333.722 272.423 338.591 273.879 343.123C275.335 347.655 280.236 350.134 284.826 348.659C289.416 347.185 291.957 342.315 290.501 337.783Z" fill="#D6E3DD"/>
<path d="M287.947 338.356C288.301 339.488 288.312 340.7 287.978 341.838C287.644 342.976 286.981 343.99 286.072 344.752C285.163 345.514 284.049 345.99 282.87 346.119C281.691 346.249 280.5 346.026 279.447 345.48C278.394 344.934 277.527 344.088 276.954 343.049C276.381 342.011 276.128 340.826 276.228 339.644C276.327 338.462 276.774 337.336 277.513 336.408C278.251 335.48 279.248 334.791 280.378 334.428C281.902 333.946 283.556 334.089 284.975 334.826C286.395 335.562 287.464 336.832 287.947 338.356Z" fill="#3D4039"/>
<path d="M289.734 339.234L289.163 337.002L284.66 338.42C284.609 338.348 284.552 338.28 284.49 338.216L286.989 334.349L285.017 333.166L282.829 337.302C282.744 337.287 282.652 337.279 282.564 337.269L281.624 332.654L279.388 333.24L280.711 337.689C280.608 337.75 280.507 337.818 280.411 337.89L276.434 335.386L275.314 337.414L279.361 339.452C279.294 339.688 279.258 339.932 279.252 340.178L274.764 341.422L275.499 343.603L279.837 341.983C279.883 342.045 279.933 342.102 279.982 342.158L277.606 346.304L279.663 347.338L281.638 343.061C281.783 343.085 281.93 343.099 282.077 343.103L282.769 347.76L285.032 347.346L283.924 342.568L284.14 342.408L284.105 342.463L288.022 345.197L289.278 343.268L285.132 340.878C285.19 340.665 285.223 340.446 285.231 340.226L289.734 339.234Z" fill="#D6E3DD"/>
<path d="M281.178 338.932C281.218 339.055 281.22 339.188 281.184 339.312C281.148 339.437 281.076 339.548 280.977 339.632C280.879 339.715 280.757 339.768 280.628 339.782C280.5 339.797 280.37 339.773 280.254 339.714C280.139 339.655 280.044 339.563 279.981 339.45C279.918 339.337 279.89 339.207 279.901 339.078C279.912 338.949 279.96 338.826 280.041 338.724C280.121 338.623 280.23 338.548 280.353 338.508C280.435 338.481 280.522 338.471 280.607 338.478C280.693 338.485 280.777 338.509 280.854 338.549C280.93 338.588 280.998 338.642 281.054 338.708C281.11 338.774 281.152 338.85 281.178 338.932Z" fill="#C6C6C6" stroke="#3D4039" stroke-width="0.1" stroke-miterlimit="10"/>
<path d="M283.956 338.368C283.995 338.491 283.997 338.624 283.961 338.748C283.926 338.873 283.854 338.984 283.755 339.068C283.656 339.151 283.535 339.204 283.406 339.219C283.277 339.233 283.147 339.209 283.032 339.15C282.917 339.091 282.822 338.999 282.759 338.886C282.696 338.773 282.668 338.643 282.678 338.514C282.689 338.385 282.737 338.262 282.818 338.16C282.898 338.059 283.007 337.984 283.13 337.944C283.212 337.917 283.299 337.907 283.385 337.914C283.471 337.921 283.554 337.945 283.631 337.985C283.708 338.024 283.776 338.078 283.831 338.144C283.887 338.21 283.929 338.286 283.956 338.368Z" fill="#C6C6C6" stroke="#3D4039" stroke-width="0.1" stroke-miterlimit="10"/>
<path d="M284.455 341.13C284.495 341.254 284.497 341.386 284.461 341.51C284.426 341.635 284.354 341.746 284.255 341.83C284.156 341.913 284.035 341.966 283.906 341.981C283.777 341.995 283.647 341.972 283.532 341.912C283.417 341.853 283.322 341.761 283.259 341.648C283.196 341.535 283.168 341.405 283.178 341.276C283.189 341.147 283.237 341.024 283.318 340.923C283.398 340.821 283.507 340.746 283.63 340.706C283.712 340.679 283.799 340.669 283.885 340.675C283.971 340.682 284.055 340.706 284.132 340.745C284.209 340.785 284.277 340.839 284.332 340.905C284.388 340.971 284.43 341.048 284.455 341.13Z" fill="#C6C6C6" stroke="#3D4039" stroke-width="0.1" stroke-miterlimit="10"/>
<path d="M281.651 341.708C281.69 341.831 281.692 341.963 281.656 342.088C281.621 342.212 281.549 342.323 281.45 342.407C281.351 342.491 281.23 342.543 281.101 342.558C280.972 342.573 280.842 342.549 280.727 342.49C280.612 342.431 280.517 342.339 280.454 342.225C280.391 342.112 280.363 341.983 280.374 341.854C280.384 341.725 280.433 341.602 280.513 341.5C280.594 341.399 280.702 341.323 280.826 341.283C280.991 341.231 281.171 341.247 281.325 341.326C281.48 341.405 281.597 341.543 281.651 341.708Z" fill="#C6C6C6" stroke="#3D4039" stroke-width="0.1" stroke-miterlimit="10"/>
<path d="M286.587 308.037L286.562 308.047C285.259 308.707 279.87 309.321 279.87 309.321C277.073 310.267 273.766 311.479 270.085 312.887C249.519 320.766 217.265 334.855 196.377 344.122C184.298 349.488 176.035 353.232 176.035 353.232C171.499 359.963 160.381 370.077 160.381 370.077L160.331 370.068C159.199 364.975 159.765 358.849 167.072 355.439C167.072 355.439 169.997 353.619 173.703 351.173C178.875 347.763 185.561 343.13 187.907 340.563C195.236 332.535 206.952 317.123 229.911 309.984C239.828 306.899 255.782 300.71 270.066 299.351C270.682 299.758 271.215 300.277 271.638 300.881C271.948 301.032 282.626 306.268 284.587 307.184C284.73 307.252 284.826 307.296 284.87 307.313C285.47 307.549 286.042 307.786 286.587 308.037Z" fill="#E59C0A"/>
<path d="M235.293 332.265C235.59 333.197 233.888 334.574 231.49 335.343C229.092 336.112 226.892 335.976 226.608 335.04C226.324 334.104 228.009 332.733 230.407 331.964C232.804 331.195 235.009 331.315 235.293 332.265Z" fill="#F49211"/>
<path d="M268.548 318.051C268.849 318.981 267.147 320.358 264.749 321.127C262.351 321.896 260.168 321.768 259.869 320.842C259.57 319.916 261.274 318.533 263.668 317.766C266.061 316.999 268.258 317.136 268.548 318.051Z" fill="#F49211"/>
<path d="M283.105 317.9C283.282 318.45 283.292 319.041 283.134 319.597C282.975 320.153 282.655 320.65 282.215 321.024C281.774 321.399 281.232 321.634 280.657 321.701C280.083 321.767 279.502 321.662 278.987 321.398C278.472 321.134 278.048 320.723 277.766 320.218C277.485 319.713 277.36 319.136 277.407 318.559C277.453 317.983 277.67 317.433 278.029 316.98C278.388 316.526 278.874 316.19 279.424 316.012C280.162 315.775 280.965 315.841 281.655 316.195C282.345 316.549 282.867 317.162 283.105 317.9Z" fill="#F49211"/>
<path d="M194.544 336.591C194.544 336.591 183.919 348.225 189.49 346.436L196.377 344.126C196.377 344.126 194.58 340.169 194.544 336.591Z" fill="#EEBB2D"/>
<path d="M292.471 317.247C290.252 318.282 280.586 314.044 280.586 314.044C276.579 311.498 288.662 309.375 288.662 309.375L288.949 309.314C291.23 310.833 292.692 313.024 292.471 317.247Z" fill="#D6E3DD"/>
<path d="M204.93 326.708C207.794 324.319 220.157 314.448 229.973 312.439C230.048 312.425 230.125 312.428 230.2 312.446C230.274 312.463 230.344 312.496 230.405 312.542C230.466 312.588 230.517 312.646 230.555 312.712C230.593 312.778 230.617 312.852 230.625 312.928C230.909 315.197 231.906 323.382 232.07 326.964C232.084 327.277 232.003 327.588 231.837 327.855C231.67 328.121 231.427 328.331 231.14 328.457L207.804 338.637L205.004 335.388L204.307 328.043C204.305 327.788 204.36 327.536 204.468 327.305C204.575 327.074 204.733 326.87 204.93 326.708Z" fill="#D6E3DD"/>
<path d="M204.93 326.708C207.794 324.319 220.157 314.448 229.973 312.439C230.048 312.425 230.125 312.428 230.2 312.446C230.274 312.463 230.344 312.496 230.405 312.542C230.466 312.588 230.517 312.646 230.555 312.712C230.593 312.778 230.617 312.852 230.625 312.928C230.909 315.197 231.906 323.382 232.07 326.964C232.084 327.277 232.003 327.588 231.837 327.855C231.67 328.121 231.427 328.331 231.14 328.457L207.804 338.637L205.004 335.388L204.307 328.043C204.305 327.788 204.36 327.536 204.468 327.305C204.575 327.074 204.733 326.87 204.93 326.708Z" fill="#D6E3DD"/>
<path d="M204.93 326.708C207.794 324.319 220.157 314.448 229.973 312.439C230.048 312.425 230.125 312.428 230.2 312.446C230.274 312.463 230.344 312.496 230.405 312.542C230.466 312.588 230.517 312.646 230.555 312.712C230.593 312.778 230.617 312.852 230.625 312.928C230.909 315.197 231.906 323.382 232.07 326.964C232.084 327.277 232.003 327.588 231.837 327.855C231.67 328.121 231.427 328.331 231.14 328.457L207.804 338.637L205.004 335.388L204.307 328.043C204.305 327.788 204.36 327.536 204.468 327.305C204.575 327.074 204.733 326.87 204.93 326.708Z" fill="#D6E3DD"/>
<path d="M204.93 326.708C207.794 324.319 220.157 314.448 229.973 312.439C230.048 312.425 230.125 312.428 230.2 312.446C230.274 312.463 230.344 312.496 230.405 312.542C230.466 312.588 230.517 312.646 230.555 312.712C230.593 312.778 230.617 312.852 230.625 312.928C230.909 315.197 231.906 323.382 232.07 326.964C232.084 327.277 232.003 327.588 231.837 327.855C231.67 328.121 231.427 328.331 231.14 328.457L207.804 338.637L205.004 335.388L204.307 328.043C204.305 327.788 204.36 327.536 204.468 327.305C204.575 327.074 204.733 326.87 204.93 326.708Z" fill="#D6E3DD"/>
<path d="M176.37 376.671C176.56 377.445 176.797 378.243 177.075 379.074C177.075 379.074 172.635 382.018 170.017 381.128C170.017 381.128 164.997 383.036 164.811 382.8L164.08 381.473C164.08 381.473 174.553 377.753 176.15 376.762C176.216 376.716 176.291 376.685 176.37 376.671Z" fill="#F49211"/>
<path d="M168.574 378.311C168.574 378.311 165.766 380.947 164.156 381.262C164.4 380.547 165.085 378.258 163.863 378.555C163.863 378.555 162.423 370.338 165.465 368.643C165.465 368.643 171.138 377.232 168.574 378.311Z" fill="#F49211"/>
<path d="M168.573 378.311C167.185 376.482 165.474 368.672 165.474 368.672C165.474 368.672 171.136 377.232 168.573 378.311Z" fill="#E27E05"/>
<path d="M266.86 334.892C265.41 335.358 263.564 332.602 263.564 332.602C262.734 329.513 259.938 331.177 258.677 331.296C238.38 333.197 207.331 350.123 200.431 352.827C199.862 353.039 195.686 356.726 195.73 356.831C191.243 354.282 185.875 355.105 182.824 356.488C169.749 362.381 175.737 374.401 175.737 374.401L175.887 374.439C173.254 359.194 187.003 357.373 187.003 357.373C194.849 356.207 200.607 361.117 202.481 366.876C202.43 366.651 209.187 365.55 209.82 365.158L243.871 353.44L262.527 347.02C262.527 347.02 265.752 346.529 265.9 341.836C265.913 341.62 265.912 341.39 265.906 341.148C266.216 339.203 266.666 337.283 267.252 335.402C267.136 335.028 267.003 334.847 266.86 334.892Z" fill="#E59C0A"/>
<path d="M209.488 363.348C209.488 363.348 234.216 347.859 256.697 343.748L209.488 363.348Z" fill="#F7D877"/>
<path d="M167.381 363.298C167.381 363.298 179.225 365.019 189.435 345.639L176.035 353.236C176.035 353.236 171.355 359.27 167.381 363.298Z" fill="#EEBB2D"/>
<path d="M284.603 307.181C284.46 307.178 284.301 307.167 284.124 307.158C279.305 306.767 274.827 304.517 271.637 300.885C271.963 301.03 282.641 306.266 284.603 307.181Z" fill="#F49211"/>
<path d="M257.403 301.625C257.403 301.625 258.771 299.306 259.851 301.179L257.403 301.625Z" fill="#111111"/>
<path d="M260.589 296.194L260.383 296.132L259.019 300.681L259.225 300.743L260.589 296.194Z" fill="#111111"/>
<path d="M299.736 327.836C300.314 330.24 301.081 334.403 299.656 335.377C299.656 335.377 296.681 337.291 295.912 337.142C295.912 337.142 292.087 326.121 282.091 326.658C276.174 326.99 265.851 330.762 270.266 347.219C270.266 347.219 209.192 368.369 205.345 370.562C205.345 370.562 203.647 370.867 203.052 368.268C203.052 368.268 202.812 367.551 202.433 366.711C202.433 366.711 254.963 340.987 265.908 341.847C265.908 341.847 266.367 326.926 280.612 325.06C284.38 324.547 288.205 325.444 291.354 327.578C291.354 327.578 297.401 329.943 299.602 327.919C299.642 327.884 299.687 327.856 299.736 327.836Z" fill="#F49211"/>
<path d="M176.455 351.516C176.455 351.516 189.154 343.651 191.827 339.672C191.827 339.672 184.963 348.117 189.344 346.134C213.725 335.083 270.131 312.672 270.184 312.788C271.434 315.72 175.823 353.344 175.823 353.344C175.823 353.344 177.15 352.36 176.455 351.516Z" fill="#F7D877"/>
<path d="M270.079 299.346C270.079 299.346 266.617 301.301 265.944 302.364C265.858 302.501 265.74 302.615 265.601 302.697C265.462 302.78 265.305 302.827 265.144 302.837C259.502 303.22 253.902 304.076 248.402 305.396C248.402 305.396 259.991 301.231 270.079 299.346Z" fill="#E27E05"/>
<path d="M176.032 353.232L175.947 353.418C175.918 353.492 175.886 353.564 175.849 353.633C172.105 361.646 163.225 364.277 163.225 364.277C162.91 363.314 162.809 362.292 162.931 361.286C163.053 360.279 163.395 359.311 163.931 358.451C164.536 357.449 165.321 356.567 166.246 355.85C166.439 355.688 166.653 355.533 166.869 355.382C166.869 355.382 169.994 353.619 173.698 351.169L173.757 351.176C173.757 351.176 178.412 350.718 176.032 353.232Z" fill="#E0E9EF"/>
<path d="M265.91 341.832C265.762 346.525 262.537 347.016 262.537 347.016L243.881 353.436L209.83 365.154C209.306 365.491 208.737 365.753 208.139 365.931L205.748 365.121C205.748 365.121 252.182 341.904 265.586 341.831C265.699 341.845 265.809 341.837 265.91 341.832Z" fill="#E27E05"/>
<path d="M269.838 330.305C268.727 331.48 267.874 333.456 267.249 335.403C266.664 337.283 266.216 339.203 265.907 341.148C265.913 341.389 265.913 341.615 265.901 341.835C265.753 346.529 262.528 347.019 262.528 347.019L243.872 353.439L209.821 365.157C209.297 365.494 208.728 365.756 208.131 365.934C205.119 366.796 204.54 363.623 204.54 363.623C202.036 360.954 200.249 357.476 198.996 354.198C197.765 350.937 196.88 347.556 196.355 344.11C200.243 341.79 218.454 334.039 235.795 326.825C253.376 319.512 270.066 312.757 270.066 312.757C275.726 322.191 269.838 330.305 269.838 330.305Z" stroke="#E27E05" stroke-miterlimit="10"/>
<path d="M235.748 327.016C235.748 327.016 240.193 349.41 243.682 353.195" stroke="#E27E05" stroke-miterlimit="10"/>
<path d="M270.078 312.753C270.094 312.797 270.097 312.845 270.087 312.891C260.49 316.569 248.346 321.598 235.998 326.858C221.889 332.87 207.517 339.186 196.378 344.126C196.378 344.126 193.29 336.562 195.543 334.275C195.543 334.275 210.235 316.751 233.578 309.783C241.244 307.497 262.839 300.261 265.088 304.284C265.077 304.265 269.52 311.135 270.078 312.753Z" fill="#434443"/>
<path d="M237.197 311.13C237.745 314.418 239.424 324.419 239.674 325.039L262.169 316.05C262.169 316.05 264.546 308.59 262.08 304.967C261.777 304.521 245.779 307.047 238.037 309.722C237.754 309.821 237.515 310.016 237.361 310.273C237.207 310.531 237.149 310.834 237.197 311.13Z" fill="#D6E3DD"/>
<path d="M197.04 334.913C198.045 333.19 201.025 330.5 202.576 329.174C202.632 329.127 202.698 329.096 202.769 329.083C202.84 329.07 202.914 329.076 202.981 329.101C203.049 329.126 203.109 329.168 203.156 329.224C203.202 329.279 203.233 329.346 203.245 329.417C203.539 331.11 204.313 335.759 203.992 336.18C203.992 336.18 199.914 339.088 197.764 338.661C197.767 338.669 196.327 336.132 197.04 334.913Z" fill="#D6E3DD"/>
<path d="M203.513 333.71C203.513 333.71 206.561 336.477 205.384 338.531C205.384 338.531 200.675 341.004 199.362 337.678C199.362 337.678 198.604 334.567 203.513 333.71Z" fill="#2A2B2A"/>
<path d="M204.93 326.708C207.794 324.319 220.157 314.448 229.973 312.439C230.048 312.425 230.125 312.428 230.2 312.446C230.274 312.463 230.344 312.496 230.405 312.542C230.466 312.588 230.517 312.646 230.555 312.712C230.593 312.778 230.617 312.852 230.625 312.928C230.909 315.197 231.906 323.382 232.07 326.964C232.084 327.277 232.003 327.588 231.837 327.855C231.67 328.121 231.427 328.331 231.14 328.457L207.804 338.637L205.004 335.388L204.307 328.043C204.305 327.788 204.36 327.536 204.468 327.305C204.575 327.074 204.733 326.87 204.93 326.708Z" fill="#D6E3DD"/>
<g clip-path="url(#clip1)">
<path d="M217.339 353.175L217.268 353.199L217.075 353.263L216.594 351.824L216.787 351.759L216.857 351.735L217.496 351.522L217.511 351.639L216.894 351.845L217.078 352.396L217.51 352.252L217.547 352.361L217.115 352.505L217.301 353.062L217.918 352.856L217.934 352.974L217.338 353.173L217.339 353.175Z" fill="#1F7240"/>
<path d="M218.59 352.327C218.543 352.328 218.495 352.331 218.443 352.338C218.39 352.345 218.324 352.359 218.247 352.382L218.24 352.865L218.126 352.903L218.145 351.309L218.417 351.218L219.389 352.481L219.112 352.573L218.89 352.285C218.766 352.315 218.667 352.329 218.59 352.327ZM218.259 351.465L218.249 352.255C218.393 352.22 218.504 352.203 218.586 352.207C218.648 352.208 218.723 352.199 218.811 352.181L218.259 351.465Z" fill="#1F7240"/>
<path d="M219.522 350.837L219.923 350.703L219.981 350.807L219.559 350.948L220.004 352.278L219.738 352.367L219.294 351.037L218.892 351.171L218.836 351.066L219.256 350.925L219.522 350.837Z" fill="#1F7240"/>
<path d="M221.923 351.616L221.884 351.589C221.797 351.665 221.667 351.721 221.495 351.759C221.367 351.785 221.254 351.776 221.153 351.733C221.05 351.688 220.98 351.611 220.943 351.5C220.911 351.404 220.915 351.315 220.953 351.232C220.991 351.149 221.054 351.081 221.139 351.031C221.056 350.967 221.003 350.923 220.982 350.898C220.959 350.874 220.943 350.851 220.933 350.833C220.922 350.815 220.911 350.789 220.901 350.758C220.872 350.672 220.881 350.584 220.925 350.494C220.97 350.405 221.037 350.346 221.131 350.315C221.223 350.286 221.305 350.295 221.378 350.343C221.451 350.389 221.504 350.459 221.536 350.548C221.559 350.611 221.562 350.683 221.54 350.763C221.518 350.843 221.476 350.908 221.41 350.96C221.594 351.084 221.769 351.2 221.939 351.308C221.951 351.263 221.949 351.217 221.931 351.172C221.947 351.167 221.958 351.163 221.97 351.159C221.981 351.155 221.991 351.152 222.002 351.148C222.014 351.144 222.025 351.14 222.04 351.135L222.041 351.137C222.066 351.212 222.067 351.291 222.043 351.373C222.109 351.416 222.181 351.46 222.259 351.508L221.923 351.616ZM221.459 351.652C221.581 351.641 221.689 351.596 221.784 351.518C221.705 351.459 221.609 351.39 221.502 351.309C221.394 351.228 221.292 351.153 221.198 351.08C221.116 351.171 221.099 351.288 221.149 351.431C221.179 351.515 221.222 351.573 221.281 351.609C221.338 351.641 221.397 351.658 221.459 351.652ZM221.162 350.413C221.122 350.427 221.092 350.458 221.072 350.507C221.052 350.556 221.06 350.618 221.095 350.691C221.106 350.711 221.127 350.734 221.155 350.761C221.183 350.788 221.212 350.812 221.238 350.832C221.264 350.853 221.283 350.866 221.295 350.875C221.297 350.876 221.298 350.878 221.3 350.877C221.303 350.88 221.309 350.885 221.311 350.886C221.314 350.887 221.317 350.891 221.32 350.894C221.323 350.895 221.326 350.898 221.329 350.899C221.331 350.901 221.334 350.902 221.334 350.904C221.337 350.905 221.337 350.905 221.337 350.907L221.34 350.908L221.343 350.91C221.395 350.864 221.426 350.811 221.436 350.75C221.445 350.69 221.438 350.635 221.415 350.587C221.382 350.519 221.344 350.47 221.298 350.44C221.251 350.407 221.206 350.398 221.162 350.413Z" fill="#1F7240"/>
<path d="M223.612 350.649C223.66 350.774 223.649 350.882 223.581 350.977C223.513 351.072 223.4 351.146 223.242 351.201L223.24 351.202L223.238 351.203C223.236 351.203 223.233 351.205 223.229 351.206C223.223 351.208 223.217 351.21 223.212 351.212C223.206 351.214 223.196 351.217 223.187 351.22C223.059 351.263 222.944 351.275 222.844 351.256C222.744 351.236 222.661 351.197 222.597 351.14L222.664 351.034C222.732 351.086 222.798 351.117 222.863 351.128C222.928 351.138 222.986 351.14 223.036 351.13C223.085 351.119 223.121 351.112 223.141 351.103C223.143 351.102 223.143 351.102 223.146 351.103C223.148 351.103 223.151 351.102 223.155 351.1C223.165 351.097 223.18 351.092 223.201 351.085C223.257 351.066 223.3 351.033 223.332 350.986C223.363 350.939 223.369 350.888 223.352 350.836C223.333 350.78 223.29 350.739 223.22 350.716C223.151 350.692 223.065 350.672 222.966 350.654C222.878 350.638 222.785 350.616 222.685 350.589C222.678 350.587 222.669 350.586 222.66 350.583C222.613 350.577 222.555 350.556 222.486 350.521C222.417 350.487 222.364 350.424 222.326 350.329C222.287 350.206 222.304 350.098 222.376 350.001C222.448 349.907 222.561 349.831 222.717 349.776L222.719 349.776L222.721 349.775C222.721 349.775 222.723 349.774 222.725 349.774L222.727 349.773L222.728 349.772C222.73 349.772 222.73 349.772 222.732 349.771C222.859 349.731 222.973 349.721 223.07 349.739C223.168 349.758 223.249 349.797 223.312 349.853L223.245 349.958C223.177 349.906 223.109 349.876 223.044 349.865C222.979 349.855 222.922 349.855 222.871 349.863C222.822 349.874 222.787 349.883 222.768 349.89C222.684 349.92 222.624 349.961 222.582 350.015C222.541 350.07 222.53 350.125 222.548 350.181C222.566 350.232 222.607 350.266 222.672 350.284C222.737 350.301 222.816 350.315 222.909 350.327C223.02 350.339 223.137 350.359 223.263 350.392C223.27 350.394 223.277 350.398 223.286 350.399C223.344 350.412 223.402 350.435 223.467 350.469C223.523 350.504 223.573 350.564 223.612 350.649Z" fill="#1F7240"/>
<path d="M224.352 350.401C224.305 350.401 224.257 350.405 224.204 350.412C224.151 350.419 224.086 350.432 224.009 350.456L224.002 350.938L223.888 350.976L223.907 349.382L224.178 349.291L225.151 350.554L224.875 350.646L224.654 350.357C224.528 350.389 224.429 350.403 224.352 350.401ZM224.021 349.538L224.011 350.329C224.154 350.294 224.265 350.276 224.347 350.28C224.409 350.281 224.485 350.273 224.572 350.254L224.021 349.538Z" fill="#1F7240"/>
<path d="M225.792 350.152L225.808 348.739L225.925 348.7L225.906 350.309L225.631 350.401L224.648 349.126L224.927 349.033L225.792 350.152Z" fill="#1F7240"/>
<path d="M226.862 349.991L226.791 350.015L226.598 350.079L226.117 348.639L226.31 348.575L226.381 348.551L227.019 348.338L227.035 348.456L226.418 348.662L226.602 349.213L227.034 349.069L227.071 349.179L226.639 349.323L226.825 349.88L227.442 349.673L227.458 349.792L226.862 349.991Z" fill="#1F7240"/>
<path d="M218.868 340.501C218.869 340.702 218.877 340.904 218.896 341.101C218.898 341.13 218.901 341.159 218.905 341.187C218.608 341.138 218.316 340.941 218.156 340.685C218.152 340.679 218.147 340.671 218.144 340.664C218.124 340.632 218.105 340.598 218.084 340.563C218.072 340.542 218.091 340.534 218.116 340.52C218.16 340.496 218.203 340.479 218.249 340.468C218.304 340.457 218.356 340.443 218.41 340.434C218.565 340.412 218.729 340.424 218.868 340.501Z" fill="#5FAD56"/>
<path d="M220.504 340.024C220.494 340.069 220.485 340.114 220.473 340.16C220.47 340.172 220.467 340.18 220.465 340.188C220.425 340.34 220.359 340.481 220.272 340.606C220.211 340.696 220.139 340.774 220.059 340.843C219.963 340.925 219.855 340.993 219.736 341.043C219.704 341.056 219.671 341.069 219.635 341.079C219.579 341.095 219.507 341.117 219.461 341.082C219.441 340.867 219.432 340.647 219.436 340.425C219.471 340.359 219.515 340.3 219.564 340.247C219.582 340.228 219.601 340.21 219.622 340.193C219.75 340.083 219.912 340.021 220.08 339.993C220.145 339.983 220.211 339.981 220.278 339.973C220.335 339.969 220.393 339.972 220.449 339.985C220.486 339.993 220.51 339.997 220.504 340.024Z" fill="#5FAD56"/>
<path d="M219.344 339.917C219.306 340.357 219.309 340.794 219.358 341.221C219.281 341.232 219.204 341.245 219.126 341.264C219.096 341.269 219.064 341.277 219.033 341.285C219.006 341.057 218.989 340.825 218.987 340.588C218.987 340.588 218.987 340.588 218.988 340.585C218.985 340.354 218.993 340.121 219.013 339.886C219.02 339.817 219.065 339.762 219.125 339.742C219.147 339.735 219.169 339.733 219.192 339.735C219.284 339.746 219.35 339.826 219.344 339.917Z" fill="#1F7240"/>
<path d="M222.879 343.392C223.011 343.788 223.063 344.191 223.041 344.585C223.036 344.693 223.025 344.803 223.009 344.907C222.832 346.06 222.036 347.073 220.857 347.467C220.636 347.541 220.408 347.59 220.185 347.615C219.242 347.718 218.315 347.391 217.64 346.756C217.263 346.402 216.967 345.952 216.792 345.426C216.424 344.327 216.68 343.17 217.366 342.342C217.431 342.263 217.501 342.186 217.573 342.114C217.911 341.776 218.333 341.512 218.815 341.35C218.849 341.339 218.885 341.33 218.921 341.32C218.927 341.316 218.934 341.316 218.941 341.313C218.954 341.309 218.966 341.307 218.979 341.303C218.999 341.296 219.018 341.293 219.038 341.286C219.07 341.278 219.099 341.27 219.132 341.265C219.21 341.248 219.286 341.233 219.363 341.222C219.384 341.217 219.403 341.216 219.423 341.214C219.439 341.211 219.453 341.209 219.47 341.208C219.475 341.209 219.477 341.208 219.482 341.207C219.752 341.176 220.02 341.181 220.279 341.22C220.312 341.224 220.344 341.23 220.377 341.234C220.639 341.28 220.894 341.358 221.134 341.464C221.926 341.815 222.579 342.495 222.879 343.392Z" fill="#FFA73A"/>
<path d="M222.267 342.898C222.216 343.034 221.978 342.963 221.9 343.083C221.85 343.008 221.802 342.93 221.755 342.854C221.699 342.828 221.634 342.882 221.622 342.943C221.61 343.004 221.63 343.064 221.646 343.126C221.685 343.271 221.695 343.426 221.674 343.577C221.591 343.557 221.522 343.652 221.513 343.737C221.505 343.816 221.533 343.908 221.503 343.98C221.482 344.036 221.417 344.091 221.389 344.147C221.356 344.21 221.303 344.245 221.235 344.238C221.156 344.232 221.105 344.271 221.066 344.329C220.968 344.466 220.845 344.569 220.709 344.661C220.603 344.736 220.542 344.833 220.537 344.966C220.534 345.022 220.517 345.077 220.501 345.131C220.48 345.2 220.442 345.248 220.367 345.268C220.317 345.28 220.273 345.311 220.226 345.332C220.143 345.372 220.062 345.432 219.977 345.465C219.898 345.499 219.796 345.491 219.737 345.563C219.67 345.637 219.699 345.751 219.73 345.844C219.764 345.836 219.797 345.824 219.834 345.824C219.869 345.825 219.907 345.837 219.927 345.868C219.96 345.914 219.939 345.977 219.92 346.029C219.881 346.12 219.839 346.214 219.76 346.275C219.682 346.335 219.557 346.343 219.49 346.269C219.484 346.352 219.477 346.436 219.468 346.521C219.468 346.548 219.465 346.576 219.478 346.602C219.494 346.628 219.531 346.641 219.56 346.639C219.591 346.638 219.621 346.623 219.652 346.613C219.714 346.585 219.78 346.555 219.848 346.565C219.914 346.572 219.983 346.631 219.974 346.701C219.963 346.756 219.91 346.811 219.934 346.86C219.952 346.891 219.987 346.902 220.023 346.905C220.094 346.911 220.165 346.902 220.232 346.882C220.287 346.863 220.345 346.837 220.397 346.859C220.448 346.879 220.487 346.952 220.488 347.006C220.489 347.063 220.455 347.101 220.477 347.166C220.481 347.177 220.468 347.191 220.468 347.206C220.47 347.233 220.472 347.262 220.478 347.287C220.481 347.303 220.495 347.316 220.5 347.331C220.531 347.403 220.521 347.431 220.453 347.469C220.382 347.509 220.312 347.55 220.239 347.587C220.217 347.597 220.199 347.61 220.182 347.623C219.238 347.726 218.312 347.4 217.636 346.764C217.634 346.698 217.626 346.629 217.631 346.563C217.634 346.506 217.662 346.459 217.709 346.421C217.75 346.382 217.793 346.341 217.836 346.299C217.782 346.169 217.796 346.122 217.926 346.091C218.065 346.057 218.153 345.961 218.251 345.871C218.341 345.792 218.428 345.713 218.518 345.636C218.554 345.604 218.594 345.593 218.641 345.607C218.679 345.617 218.719 345.626 218.758 345.632C218.797 345.639 218.826 345.63 218.84 345.585C218.865 345.498 218.93 345.454 219.022 345.45C219.122 345.447 219.207 345.406 219.283 345.346C219.427 345.233 219.621 345.245 219.762 345.121C219.711 345.111 219.666 345.072 219.65 345.023C219.713 345.014 219.78 345.036 219.825 345.083C219.852 345.111 219.874 345.148 219.91 345.166C219.946 345.181 219.99 345.171 220.028 345.159C220.075 345.145 220.124 345.129 220.153 345.092C220.183 345.055 220.19 344.995 220.154 344.963C220.127 344.94 220.091 344.942 220.054 344.935C220.02 344.929 219.981 344.909 219.98 344.875C219.98 344.801 220.087 344.74 220.103 344.661C220.118 344.574 220.088 344.478 220.132 344.394C220.16 344.338 220.228 344.327 220.256 344.28C220.292 344.224 220.247 344.031 220.346 344.011C220.362 344.008 220.38 344.017 220.395 344.026C220.447 344.061 220.491 344.106 220.545 344.142C220.598 344.176 220.661 344.202 220.722 344.192C220.782 344.181 220.838 344.121 220.83 344.059C220.821 343.995 220.754 343.948 220.759 343.885C220.765 343.843 220.8 343.814 220.838 343.796C220.861 343.784 220.885 343.774 220.907 343.759C220.918 343.748 220.928 343.739 220.939 343.728C220.884 343.682 220.831 343.626 220.773 343.586C220.757 343.576 220.606 343.513 220.598 343.533C220.607 343.51 220.609 343.487 220.606 343.463C220.605 343.439 220.6 343.414 220.585 343.391C220.612 343.355 220.642 343.32 220.679 343.291C220.507 343.254 220.333 343.221 220.161 343.184C220.122 343.177 220.08 343.169 220.045 343.191C220.024 343.203 220.011 343.222 219.998 343.241C219.882 343.411 219.751 343.536 219.619 343.692C219.589 343.536 219.486 343.472 219.379 343.374C219.296 343.295 219.21 343.213 219.082 343.28C219.07 343.287 219.062 343.299 219.049 343.313C219.068 343.332 219.083 343.349 219.098 343.364C219.136 343.403 219.13 343.445 219.083 343.465C219.022 343.491 218.959 343.509 218.894 343.521C218.844 343.533 218.792 343.53 218.741 343.535C218.69 343.537 218.639 343.539 218.581 343.541C218.59 343.489 218.599 343.439 218.609 343.389C218.622 343.317 218.603 343.254 218.543 343.205C218.502 343.172 218.458 343.137 218.42 343.103C218.377 343.065 218.377 343.043 218.419 343.007C218.447 342.98 218.481 342.964 218.511 342.941C218.54 342.919 218.572 342.896 218.598 342.87C218.63 342.835 218.624 342.809 218.584 342.783C218.55 342.765 218.519 342.743 218.484 342.735C218.346 342.705 218.206 342.677 218.066 342.65C218.051 342.647 218.037 342.652 218.025 342.651C217.949 342.659 217.949 342.659 217.931 342.732C217.91 342.83 217.828 342.895 217.731 342.89C217.665 342.887 217.636 342.85 217.656 342.787C217.672 342.737 217.695 342.689 217.718 342.64C217.677 342.606 217.638 342.62 217.598 342.62C217.547 342.62 217.492 342.626 217.439 342.622C217.367 342.614 217.347 342.583 217.362 342.511C217.371 342.479 217.389 342.45 217.395 342.419C217.398 342.398 217.394 342.37 217.38 342.357C217.373 342.352 217.366 342.344 217.359 342.339C217.424 342.261 217.494 342.183 217.566 342.112C217.568 342.111 217.569 342.113 217.571 342.112C217.622 342.118 217.671 342.131 217.721 342.141C217.809 342.161 217.914 342.179 217.991 342.13C218.01 342.119 218.027 342.106 218.03 342.085C218.036 342.066 218.032 342.047 218.034 342.03C218.036 341.984 218.074 341.952 218.112 341.924C218.164 341.887 218.217 341.855 218.274 341.826C218.307 341.809 218.347 341.796 218.377 341.818C218.395 341.829 218.403 341.852 218.42 341.866C218.441 341.886 218.475 341.884 218.502 341.876C218.529 341.867 218.552 341.849 218.579 341.835C218.592 341.828 218.607 341.821 218.62 341.816C218.736 341.78 218.868 341.828 218.979 341.909C219.09 341.991 219.182 342.106 219.224 342.201L219.843 342.021C219.866 342.016 219.888 342.006 219.896 341.986C219.911 341.956 219.883 341.926 219.862 341.899C219.795 341.817 219.773 341.698 219.809 341.6C219.8 341.62 219.616 341.585 219.595 341.579C219.557 341.57 219.521 341.557 219.486 341.542C219.625 341.53 219.765 341.5 219.903 341.454C220.067 341.4 220.221 341.323 220.363 341.226C220.625 341.272 220.88 341.35 221.12 341.456C221.159 341.549 221.198 341.638 221.197 341.739C221.231 341.738 221.264 341.739 221.296 341.733C221.397 341.71 221.488 341.724 221.578 341.78C221.644 341.823 221.719 341.854 221.79 341.89C221.811 341.903 221.833 341.918 221.855 341.932C221.839 341.98 221.828 342.021 221.815 342.062C221.8 342.112 221.801 342.161 221.819 342.207C221.891 342.393 221.93 342.568 222.114 342.67C222.208 342.723 222.303 342.807 222.267 342.898Z" fill="#FFC446"/>
<path d="M218.124 344.441C218.047 344.549 217.944 344.64 217.824 344.692C217.725 344.735 217.362 344.857 217.303 344.696C217.284 344.645 217.315 344.593 217.347 344.547C217.385 344.49 217.427 344.432 217.489 344.406C217.561 344.377 217.642 344.397 217.718 344.389C217.824 344.376 218.081 344.149 218.181 344.219C218.249 344.271 218.16 344.392 218.124 344.441Z" fill="#FFC446"/>
<path d="M223.043 344.584C223.037 344.692 223.027 344.802 223.01 344.907C222.993 344.9 222.976 344.893 222.964 344.885C222.938 344.869 222.912 344.848 222.883 344.85C222.852 344.853 222.83 344.883 222.811 344.909C222.775 344.968 222.743 345.028 222.717 345.091C222.556 345.204 222.338 345.24 222.151 345.179C222.12 345.169 221.995 345.127 221.994 345.189C221.993 345.202 221.997 345.213 221.996 345.226C221.995 345.251 221.972 345.271 221.948 345.279C221.924 345.289 221.899 345.288 221.874 345.296C221.849 345.302 221.825 345.318 221.815 345.34C221.804 345.366 221.814 345.395 221.8 345.42C221.789 345.438 221.767 345.446 221.746 345.443C221.718 345.44 221.703 345.423 221.684 345.449C221.672 345.465 221.672 345.492 221.673 345.512C221.673 345.527 221.695 345.636 221.684 345.639C221.725 345.623 221.768 345.611 221.814 345.608C221.823 345.608 221.833 345.607 221.84 345.614C221.848 345.622 221.845 345.635 221.841 345.646C221.829 345.72 221.876 345.788 221.923 345.846C221.883 345.882 221.841 345.918 221.801 345.954C221.764 345.989 221.721 345.986 221.67 345.988C221.53 345.997 221.392 346.063 221.301 346.168C221.222 346.128 221.128 346.068 221.087 345.982C221.162 345.957 221.237 345.925 221.31 345.891C221.318 345.885 221.328 345.879 221.333 345.873C221.355 345.843 221.318 345.791 221.302 345.764C221.283 345.736 221.25 345.733 221.218 345.726C221.175 345.715 221.151 345.741 221.109 345.74C221.083 345.741 221.055 345.726 221.051 345.7C221.045 345.66 221.09 345.632 221.092 345.592C221.093 345.565 221.073 345.542 221.055 345.52C221.036 345.499 221.019 345.471 221.03 345.445C221.069 345.464 221.107 345.483 221.148 345.48C221.188 345.476 221.224 345.449 221.256 345.419C221.292 345.387 221.324 345.351 221.356 345.314C221.373 345.291 221.392 345.267 221.416 345.251C221.447 345.233 221.483 345.231 221.517 345.222C221.619 345.196 221.616 345.105 221.537 345.053C221.509 345.035 221.478 345.001 221.492 344.969C221.505 344.942 221.536 344.939 221.564 344.935C221.648 344.921 221.725 344.878 221.781 344.818C221.788 344.808 221.797 344.798 221.806 344.789C221.826 344.768 221.848 344.746 221.879 344.743C221.909 344.738 221.937 344.753 221.964 344.761C222.109 344.804 222.223 344.635 222.367 344.721C222.382 344.73 222.399 344.742 222.419 344.743C222.441 344.743 222.458 344.722 222.469 344.702C222.487 344.668 222.492 344.63 222.502 344.594C222.514 344.558 222.534 344.521 222.572 344.509C222.608 344.499 222.646 344.516 222.68 344.524C222.765 344.548 222.848 344.533 222.925 344.497C222.956 344.603 222.991 344.599 223.043 344.584Z" fill="#FFC446"/>
<path d="M220.919 349.099C220.808 348.777 220.633 348.531 220.379 348.346C220.128 348.163 219.832 348.051 219.531 347.976C219.238 347.904 218.933 347.889 218.645 347.807C218.226 347.688 217.821 347.479 217.494 347.187C217.406 347.108 217.32 346.983 217.21 346.934C217.147 346.905 216.952 346.869 216.915 346.956C216.888 347.024 217.027 347.138 217.061 347.179C217.151 347.287 217.242 347.398 217.335 347.506C217.449 347.641 217.699 347.881 217.699 347.881C217.699 347.881 217.784 347.966 217.812 348.041C217.474 347.82 217.197 347.52 216.926 347.219C216.857 347.143 216.819 347.047 216.805 346.945C216.759 346.674 216.71 346.396 216.611 346.137C216.593 346.088 216.432 345.761 216.34 345.775C216.326 345.777 216.314 345.786 216.305 345.803C216.281 345.849 216.3 345.912 216.306 345.959C216.364 346.385 216.356 346.838 216.527 347.241C216.627 347.473 216.765 347.681 216.888 347.9C217.031 348.159 217.202 348.381 217.465 348.506C217.713 348.629 217.993 348.708 218.258 348.771C218.53 348.833 219.031 348.854 219.519 348.906C219.601 348.915 219.68 348.924 219.761 348.936C219.89 348.953 220.012 348.974 220.128 348.997C220.542 349.13 220.885 349.476 221.01 349.939L221.02 349.978C221.022 349.952 221.025 349.927 221.024 349.902L221.023 349.89C221.02 349.748 221.019 349.614 221 349.475C220.982 349.355 220.963 349.225 220.919 349.099Z" fill="#1F7240"/>
<path d="M221.784 348.809C221.678 348.486 221.671 348.184 221.763 347.883C221.853 347.586 222.022 347.319 222.217 347.078C222.408 346.844 222.643 346.649 222.824 346.41C223.087 346.063 223.285 345.652 223.371 345.223C223.393 345.107 223.387 344.955 223.445 344.849C223.479 344.788 223.612 344.642 223.695 344.689C223.757 344.728 223.714 344.903 223.712 344.956C223.705 345.096 223.699 345.24 223.689 345.381C223.679 345.558 223.624 345.9 223.624 345.9C223.624 345.9 223.607 346.02 223.63 346.096C223.767 345.717 223.808 345.309 223.844 344.907C223.854 344.804 223.825 344.705 223.776 344.615C223.65 344.37 223.521 344.119 223.444 343.852C223.43 343.803 223.362 343.444 223.443 343.4C223.456 343.393 223.471 343.393 223.489 343.402C223.535 343.424 223.558 343.485 223.582 343.527C223.791 343.902 224.07 344.259 224.176 344.684C224.235 344.929 224.25 345.179 224.284 345.428C224.325 345.721 224.323 346.001 224.187 346.259C224.063 346.506 223.887 346.738 223.713 346.947C223.533 347.161 223.144 347.479 222.786 347.814C222.726 347.871 222.668 347.925 222.611 347.983C222.518 348.074 222.433 348.164 222.354 348.252C222.103 348.608 222.038 349.09 222.216 349.535L222.231 349.573C222.215 349.553 222.196 349.535 222.182 349.515L222.176 349.504C222.093 349.389 222.013 349.282 221.945 349.159C221.889 349.051 221.826 348.936 221.784 348.809Z" fill="#1F7240"/>
</g>
</g>
<defs>
<clipPath id="clip0">
<rect width="146.184" height="60.6294" fill="white" transform="translate(147.902 338.151) rotate(-20.4816)"/>
</clipPath>
<clipPath id="clip1">
<rect width="10.9939" height="12.3132" fill="white" transform="translate(213.211 341.71) rotate(-18.481)"/>
</clipPath>
</defs>
</svg>
