<svg width="104" height="59" viewBox="0 0 104 59" fill="none" xmlns="http://www.w3.org/2000/svg">
<path d="M69.5421 29.5C69.5413 34.7291 68.1625 39.8639 65.547 44.3787C62.9315 48.8934 59.1733 52.6258 54.6572 55.1936C50.1411 57.7613 45.0296 59.0722 39.846 58.9918C34.6625 58.9114 29.5933 57.4428 25.1576 54.7363C20.7219 52.0298 17.0792 48.1826 14.6024 43.5889C12.1257 38.9952 10.904 33.8201 11.0625 28.5934C11.221 23.3668 12.7539 18.2766 15.5044 13.8442C18.2548 9.41176 22.1238 5.79638 26.7152 3.36834C29.7527 1.75753 33.05 0.704295 36.4531 0.257824C37.7297 0.0877262 39.016 0.00160307 40.3037 0C41.5997 0.00166798 42.8942 0.0877885 44.1791 0.257824C51.2002 1.2084 57.6409 4.69641 62.3053 10.0743C66.9698 15.4522 69.5412 22.3546 69.5421 29.5Z" fill="#70770B"/>
<path d="M69.5419 29.5C69.5512 36.8107 66.8582 43.8623 61.9891 49.2776C55.908 52.4921 48.8995 53.4463 42.191 51.973C35.4826 50.4997 29.5019 46.6929 25.2962 41.2192C21.0905 35.7455 18.928 28.9539 19.1874 22.0337C19.4468 15.1136 22.1116 8.50608 26.715 3.36834C29.7525 1.75753 33.0498 0.704295 36.4529 0.257824C37.7295 0.0877262 39.0158 0.00160307 40.3035 0C41.5995 0.00166798 42.8939 0.0877885 44.1789 0.257824C51.2 1.2084 57.6407 4.69641 62.3051 10.0743C66.9696 15.4522 69.541 22.3546 69.5419 29.5Z" fill="#748210"/>
<path opacity="0.35" d="M99.2339 26.6724H40.856C39.578 42.1085 50.0414 56.1058 65.1389 58.6092C81.0526 61.254 96.1418 50.1094 98.8216 33.7168C99.1075 31.9436 99.24 30.1487 99.2174 28.3524C99.2421 27.7951 99.2504 27.2296 99.2339 26.6724Z" fill="#322F20"/>
<path d="M103.967 28.3524C103.989 30.1487 103.857 31.9436 103.571 33.7168C100.883 50.1094 85.802 61.254 69.8882 58.6092C54.7908 56.1142 44.3685 42.1085 45.6053 26.6724H103.893C103.942 27.2296 103.967 27.7868 103.967 28.3524Z" fill="#748210"/>
<path d="M103.621 26.6724C103.704 31.994 102.273 37.2281 99.4959 41.7538C96.7191 46.2795 92.7134 49.9067 87.9543 52.2052C73.937 59.1748 56.6215 53.6191 49.481 39.838C47.352 35.786 46.2715 31.2576 46.3394 26.6724H103.621Z" fill="#E9D478"/>
<path d="M103.992 26.6724H103.249C103.357 30.7087 102.56 34.7175 100.916 38.3992C98.2767 44.2813 93.6873 49.0516 87.9376 51.8892C83.9901 53.8186 79.6592 54.8168 75.2726 54.8084C70.8577 54.8108 66.4985 53.8132 62.5169 51.8892C57.0906 49.2778 52.6476 44.9656 49.8519 39.5968C47.7618 35.6178 46.6905 31.1751 46.7351 26.6724H46.0095C45.9202 31.3452 47.0097 35.9642 49.1757 40.0958C50.566 42.813 52.3876 45.2824 54.5683 47.4064C56.7792 49.5374 59.3119 51.3004 62.0716 52.6294C66.1236 54.61 70.5679 55.639 75.0706 55.639C79.5733 55.639 84.0176 54.61 88.0696 52.6294C94.0528 49.6988 98.8288 44.746 101.567 38.632C103.005 35.4158 103.819 31.952 103.967 28.4272C104 27.7951 104 27.2296 103.992 26.6724Z" fill="#798029"/>
<path d="M57.7678 39.5551L71.1667 29.6497C73.1621 28.1693 71.7933 27.6786 70.3421 27.7285L53.8512 28.344C47.3456 28.6018 52.7216 43.2478 57.7678 39.5551Z" fill="#EECA16"/>
<path d="M68.3628 47.1318L73.1452 31.3297C73.9038 29.0259 72.4938 29.3586 71.3889 30.2069L58.5425 40.2703C53.3973 44.2791 66.4746 53.0534 68.3628 47.1318Z" fill="#EECA16"/>
<path d="M81.4322 47.2149L75.8583 31.6041C75.0338 29.2587 74.1185 30.3483 73.7062 31.7122L69.4186 47.2981C67.7036 53.4692 83.4936 53.1365 81.4322 47.2149Z" fill="#EECA16"/>
<path d="M91.9287 39.7629L78.0598 30.2484C75.9737 28.8262 75.8995 30.2484 76.4107 31.5791L82.3062 46.7574C84.6562 52.8121 97.1646 43.414 91.9287 39.7629Z" fill="#EECA16"/>
<path d="M95.9358 27.6369L79.0573 27.8532C76.5837 27.9114 77.4083 29.0841 78.5544 29.8492L92.3903 38.8647C97.9065 42.4161 102.244 27.5704 95.9358 27.6369Z" fill="#EECA16"/>
<path d="M76.7485 39.8462C76.7412 39.3667 76.619 38.8961 76.3921 38.4746C76.1652 38.0531 75.8405 37.6933 75.4457 37.426C75.0483 37.692 74.7208 38.051 74.491 38.4725C74.2612 38.894 74.1361 39.3653 74.1264 39.8462C74.1057 40.0324 74.1241 40.2208 74.1806 40.3992C74.237 40.5776 74.3301 40.742 74.4539 40.8817C74.5776 41.0213 74.7292 41.133 74.8987 41.2095C75.0682 41.286 75.2518 41.3255 75.4374 41.3255C75.6231 41.3255 75.8067 41.286 75.9762 41.2095C76.1457 41.133 76.2972 41.0213 76.421 40.8817C76.5447 40.742 76.6379 40.5776 76.6943 40.3992C76.7507 40.2208 76.7692 40.0324 76.7485 39.8462Z" fill="#FFFDB8"/>
<path d="M82.8174 36.4195C82.574 36.0062 82.2342 35.6591 81.8275 35.4083C81.4209 35.1576 80.9597 35.0108 80.484 34.9807C80.2738 35.412 80.1693 35.8879 80.1794 36.3684C80.1894 36.8489 80.3137 37.3199 80.5417 37.7419C80.6178 37.9108 80.728 38.0618 80.8654 38.1852C81.0028 38.3085 81.1642 38.4016 81.3393 38.4583C81.5144 38.5151 81.6993 38.5342 81.8822 38.5146C82.0651 38.495 82.2419 38.437 82.4013 38.3444C82.5607 38.2518 82.6991 38.1266 82.8076 37.9769C82.9162 37.8271 82.9925 37.6561 83.0317 37.4749C83.0709 37.2936 83.0721 37.1061 83.0352 36.9244C82.9983 36.7426 82.9241 36.5707 82.8174 36.4195Z" fill="#FFFDB8"/>
<path d="M86.2805 29.6663C85.8191 29.5471 85.3358 29.5439 84.8729 29.657C84.41 29.7701 83.9816 29.9961 83.6255 30.315C83.7771 30.7694 84.0356 31.18 84.3788 31.5116C84.7219 31.8433 85.1396 32.0862 85.5962 32.2196C85.7688 32.2882 85.9539 32.3193 86.1394 32.3109C86.3248 32.3024 86.5063 32.2546 86.6722 32.1705C86.838 32.0864 86.9844 31.968 87.1018 31.823C87.2191 31.6779 87.3048 31.5095 87.3533 31.3288C87.4017 31.1481 87.4118 30.9591 87.3829 30.7742C87.354 30.5892 87.2867 30.4125 87.1854 30.2556C87.0842 30.0987 86.9512 29.9651 86.7953 29.8636C86.6394 29.762 86.464 29.6948 86.2805 29.6663Z" fill="#FFFDB8"/>
<path d="M63.6961 29.6664C64.1589 29.5486 64.6432 29.5461 65.1071 29.6591C65.5711 29.7721 66.0009 29.9973 66.3594 30.3151C66.2039 30.7687 65.9432 31.1782 65.599 31.5095C65.2547 31.8408 64.837 32.0843 64.3805 32.2197C64.2078 32.2883 64.0227 32.3194 63.8373 32.3109C63.6519 32.3024 63.4703 32.2546 63.3045 32.1705C63.1386 32.0865 62.9922 31.968 62.8749 31.823C62.7575 31.678 62.6718 31.5096 62.6234 31.3289C62.5749 31.1481 62.5648 30.9591 62.5938 30.7742C62.6227 30.5893 62.69 30.4126 62.7912 30.2557C62.8924 30.0988 63.0254 29.9652 63.1813 29.8636C63.3372 29.7621 63.5127 29.6949 63.6961 29.6664Z" fill="#FFFDB8"/>
<path d="M67.019 36.4195C67.2624 36.0062 67.6022 35.6591 68.0089 35.4083C68.4155 35.1576 68.8767 35.0108 69.3524 34.9807C69.5576 35.4147 69.6564 35.892 69.6407 36.3725C69.6249 36.853 69.4949 37.3226 69.2617 37.7419C69.1951 37.9244 69.0896 38.0899 68.9526 38.2268C68.8157 38.3637 68.6507 38.4687 68.4692 38.5343C68.2877 38.6 68.0942 38.6247 67.9022 38.6068C67.7103 38.5888 67.5245 38.5287 67.3581 38.4306C67.1916 38.3324 67.0485 38.1987 66.9389 38.0387C66.8292 37.8788 66.7556 37.6966 66.7233 37.5049C66.6909 37.3132 66.7007 37.1166 66.7518 36.9291C66.8028 36.7416 66.8941 36.5677 67.019 36.4195Z" fill="#FFFDB8"/>
<path d="M44.1791 0.257823C43.6679 1.03129 42.126 1.59684 40.312 1.59684C38.498 1.59684 36.9643 1.03129 36.4531 0.257823C37.7298 0.0877262 39.016 0.00160307 40.3038 0C41.5997 0.00166798 42.8942 0.0877885 44.1791 0.257823Z" fill="#9DA52B"/>
</svg>
