<svg width="56" height="85" viewBox="0 0 56 85" fill="none" xmlns="http://www.w3.org/2000/svg">
<g clip-path="url(#clip0)">
<path d="M40.1351 13.5392C38.1921 13.7712 36.3955 14.0113 34.4851 13.4131C32.3714 12.7497 30.8675 11.1341 29.6074 9.3883C27.1929 6.0513 24.9451 2.51082 21.0023 0.813828C17.4213 -0.728519 13.1858 -0.150647 10.8771 3.19043C10.3697 3.9042 10.0401 4.72902 9.91568 5.59617C9.79124 6.46332 9.87558 7.34768 10.1617 8.17558C10.5885 9.27028 11.564 10.2877 12.6981 10.4097C13.1045 10.6824 13.4907 10.5563 13.8646 10.2063C13.9452 10.1647 14.0096 10.0974 14.0476 10.015C14.5566 9.35659 14.9247 8.60021 15.1288 7.79305C15.2548 7.73201 15.3808 7.67503 15.5068 7.6262C16.0696 7.42687 16.6707 7.3599 17.2634 7.43047C17.8562 7.50104 18.4248 7.70726 18.9253 8.03315C21.2584 9.41679 21.6893 12.4852 21.1812 14.9228C20.6686 17.0899 19.4537 19.026 17.7262 20.4289C16.8525 21.1565 15.8705 21.7428 14.8158 22.1666C13.8159 22.5735 12.759 22.7322 11.7388 23.0578C11.6806 23.074 11.6294 23.1089 11.5929 23.157C11.5564 23.2052 11.5366 23.2639 11.5366 23.3244C11.5366 23.3848 11.5564 23.4436 11.5929 23.4917C11.6294 23.5398 11.6806 23.5747 11.7388 23.5909C11.8445 23.6153 11.9542 23.6357 12.064 23.652C12.046 23.7027 12.0393 23.7567 12.0444 23.8103C12.0494 23.8639 12.066 23.9157 12.0931 23.9622C12.1202 24.0087 12.1571 24.0487 12.2012 24.0794C12.2453 24.1102 12.2956 24.131 12.3485 24.1403C14.6044 24.5025 17.1693 23.9328 19.3886 23.5217C21.8101 23.0642 24.1965 22.4374 26.5304 21.6457C31.2008 20.0789 35.8549 17.8651 39.8059 14.8984C39.9148 14.8189 39.9945 14.7056 40.0327 14.5761C40.0709 14.4467 40.0655 14.3082 40.0172 14.1822C40.1026 14.1293 40.1879 14.0723 40.2692 14.0113C40.4481 13.8892 40.4196 13.5067 40.1351 13.5392Z" fill="#A9D667"/>
<path d="M37.1476 15.029C35.9282 15.9243 34.7088 16.6568 33.1723 16.6568C32.3823 16.6385 31.6077 16.434 30.9114 16.06C30.215 15.686 29.6166 15.1529 29.1645 14.504C28.2499 13.2343 27.75 11.6024 27.1321 10.174C26.4655 8.61676 25.7975 7.06084 25.1282 5.50629C24.9778 5.15631 24.4087 5.40862 24.5185 5.76267C25.2176 8.00904 25.8639 10.3042 25.7176 12.6808C25.6538 13.6332 25.4241 14.567 25.0388 15.44C25.5818 13.0936 25.3537 10.6344 24.3884 8.4282C22.8072 4.79819 18.4254 1.34724 14.3119 2.80006C13.4188 3.13568 12.6248 3.69179 12.0037 4.41675C11.3827 5.14171 10.9546 6.01203 10.7593 6.9469C10.6118 7.73099 10.6368 8.53784 10.8325 9.31129C11.2895 9.90286 11.9559 10.2962 12.6941 10.4101C13.1006 10.6827 13.4868 10.5566 13.8607 10.2066C13.9413 10.165 14.0057 10.0977 14.0436 10.0153C14.5527 9.3569 14.9207 8.60051 15.1248 7.79336C15.2509 7.73231 15.3769 7.67534 15.5029 7.62651C16.0657 7.42718 16.6667 7.36021 17.2595 7.43078C17.8523 7.50135 18.4209 7.70756 18.9213 8.03346C21.2545 9.41709 21.6853 12.4855 21.1773 14.9232C20.6647 17.0902 19.4498 19.0264 17.7222 20.4292C16.8485 21.1568 15.8665 21.7431 14.8119 22.1669C13.8119 22.5738 12.7551 22.7326 11.7349 23.0581C11.6767 23.0744 11.6255 23.1092 11.589 23.1573C11.5525 23.2055 11.5327 23.2642 11.5327 23.3247C11.5327 23.3851 11.5525 23.4439 11.589 23.492C11.6255 23.5401 11.6767 23.575 11.7349 23.5912C11.8405 23.6156 11.9503 23.636 12.06 23.6523C12.0421 23.703 12.0354 23.757 12.0404 23.8106C12.0455 23.8642 12.0621 23.916 12.0892 23.9625C12.1163 24.009 12.1532 24.049 12.1973 24.0797C12.2414 24.1105 12.2916 24.1313 12.3446 24.1406C14.6005 24.5028 17.1654 23.9331 19.3847 23.522C21.8062 23.0646 24.1926 22.4377 26.5265 21.646C30.2083 20.4303 33.737 18.7916 37.042 16.7626C37.1565 16.6249 37.2572 16.4763 37.3428 16.319C37.3762 16.2564 37.3937 16.1865 37.3937 16.1155C37.3937 16.0445 37.3762 15.9746 37.3428 15.912C37.4509 15.7834 37.55 15.6474 37.6395 15.5051C37.8508 15.2365 37.4525 14.8051 37.1476 15.029Z" fill="#8DC252"/>
<path d="M26.5265 21.654C30.6679 20.3008 34.6113 18.4027 38.2533 16.0096C38.2288 15.9322 38.1768 15.8666 38.107 15.8253C38.0373 15.784 37.9548 15.7699 37.8753 15.7857C36.1437 16.1439 34.6235 17.2019 32.8797 17.5519C31.9663 17.7298 31.0257 17.7118 30.1197 17.499C29.2011 17.2874 28.4573 16.6851 27.6077 16.327C26.2135 15.7166 25.0713 16.2944 24.169 17.3932C23.7349 17.9909 23.1964 18.5052 22.5796 18.9111C22.0937 19.1779 21.5486 19.3178 20.9944 19.3181C21.8881 18.4015 22.5881 17.3139 23.0525 16.1203C23.5169 14.9268 23.7363 13.6517 23.6974 12.3714C23.5227 9.03034 21.2139 5.71775 17.828 5.04628C16.1452 4.72072 14.2794 5.41254 13.5397 7.0322C13.1576 7.86645 13.3527 9.12394 12.2755 9.4088C11.7024 9.5553 11.0845 9.27044 10.5317 8.88383C10.7599 9.27854 11.0718 9.61831 11.4455 9.87918C11.8191 10.14 12.2454 10.3157 12.6942 10.3936C13.1007 10.6663 13.4868 10.5401 13.8608 10.1901C13.9413 10.1486 14.0057 10.0813 14.0437 9.99888C14.5527 9.34047 14.9208 8.58408 15.1249 7.77693C15.2509 7.71588 15.3769 7.65891 15.5029 7.61007C16.0657 7.41075 16.6668 7.34378 17.2596 7.41435C17.8523 7.48491 18.421 7.69113 18.9214 8.01703C21.2545 9.40066 21.6854 12.4691 21.1773 14.9067C20.6648 17.0738 19.4498 19.0099 17.7223 20.4128C16.8486 21.1404 15.8666 21.7267 14.8119 22.1505C13.812 22.5574 12.7552 22.7161 11.7349 23.0417C11.6768 23.0579 11.6255 23.0928 11.589 23.1409C11.5525 23.189 11.5328 23.2478 11.5328 23.3082C11.5328 23.3687 11.5525 23.4274 11.589 23.4756C11.6255 23.5237 11.6768 23.5586 11.7349 23.5748C11.8406 23.5992 11.9503 23.6196 12.0601 23.6358C12.0421 23.6866 12.0355 23.7406 12.0405 23.7942C12.0455 23.8477 12.0622 23.8996 12.0893 23.9461C12.1163 23.9925 12.1532 24.0326 12.1973 24.0633C12.2414 24.0941 12.2917 24.1148 12.3446 24.1242C14.6005 24.4864 17.1654 23.9166 19.3848 23.5056C21.8056 23.0561 24.192 22.4374 26.5265 21.654Z" fill="#71AD3D"/>
<path d="M21.5634 16.502C22.4699 14.9748 22.8055 13.175 22.5105 11.4232C22.0187 8.60307 18.7547 5.40849 15.702 6.38518C15.4094 6.48791 15.1407 6.6491 14.9122 6.85896C14.6838 7.06883 14.5003 7.323 14.3729 7.60603C13.9664 8.41994 14.0355 9.33558 13.0803 9.72218C12.0478 10.1291 11.1617 9.61637 10.4829 8.81061C10.7107 9.22248 11.0274 9.57829 11.41 9.85214C11.7925 10.126 12.2312 10.311 12.6941 10.3937C13.1006 10.6663 13.4868 10.5402 13.8607 10.1902C13.9413 10.1486 14.0057 10.0813 14.0436 9.99891C14.5527 9.34049 14.9207 8.58411 15.1248 7.77695C15.2509 7.71591 15.3769 7.65894 15.5029 7.6101C16.0657 7.41078 16.6667 7.34381 17.2595 7.41437C17.8523 7.48494 18.4209 7.69116 18.9213 8.01706C21.2545 9.40069 21.6853 12.4691 21.1773 14.9067C20.6647 17.0738 19.4498 19.0099 17.7222 20.4128C16.8485 21.1404 15.8665 21.7267 14.8119 22.1505C14.1254 22.4153 13.4202 22.6288 12.7023 22.7894C13.0681 22.7894 13.4136 22.7894 13.7306 22.7894C15.5208 22.7278 17.2166 21.9701 18.4579 20.6773C19.6601 19.4183 20.7031 18.016 21.5634 16.502Z" fill="#559928"/>
<path d="M52.1385 20.8646C50.5695 16.6852 47.5901 12.05 42.562 12.1314C40.6939 12.2005 38.9277 13.0014 37.6436 14.3615C37.3175 14.6114 36.9783 14.8437 36.6275 15.0574C36.0426 15.3931 35.3895 15.592 34.717 15.6394C34.5504 15.5783 34.3837 15.5254 34.2252 15.4806C32.0871 14.858 29.754 15.1225 27.681 15.8428C25.8856 16.469 24.2593 17.5024 22.9293 18.8624C22.5675 19.131 22.2017 19.3914 21.8155 19.6356C21.0434 20.1037 20.1942 20.4303 19.3076 20.6001L19.0718 20.5716C16.8451 20.3494 14.5968 20.6274 12.491 21.3855L11.9138 21.4425C11.5453 21.475 11.1754 21.5035 10.8041 21.5279C10.5115 21.5279 10.2269 21.4954 9.95866 21.4832C8.82217 21.1785 7.63116 21.1378 6.47655 21.3642C5.32195 21.5906 4.23427 22.0781 3.29654 22.7895C-0.361726 25.6951 -0.260107 31.1646 0.26831 35.3643C1.53245 45.3753 7.36129 54.0068 10.1497 63.5701C10.7117 65.4829 11.1235 67.4368 11.3813 69.4139C11.4138 71.6603 10.9748 73.8172 10.6781 76.035C10.4284 77.4602 10.502 78.9233 10.8936 80.3162C10.9963 80.7598 11.1434 81.192 11.3325 81.6062C12.7877 84.7845 16.0924 85.2403 19.2385 84.9107C21.4003 84.6775 23.5086 84.0876 25.4779 83.1648C25.8478 83.0753 26.2136 82.9898 26.5875 82.9125C28.1281 82.5829 29.7093 82.4527 31.2742 82.2573C32.0871 82.1556 32.9733 82.0457 33.8716 81.8748C37.1446 81.4215 40.2463 80.1337 42.879 78.1349C44.5735 76.862 46.0789 75.3549 47.3503 73.6584C47.3978 73.6482 47.4426 73.6281 47.4818 73.5993C47.5211 73.5706 47.5538 73.5339 47.5779 73.4916C47.9085 72.9843 48.2269 72.4688 48.5331 71.9452C49.0742 71.0821 49.5615 70.1865 49.9923 69.2634C53.3376 62.6097 55.1302 55.1544 55.7602 47.7804C56.553 38.6508 55.3161 29.4587 52.1385 20.8646Z" fill="#E25050"/>
<path d="M47.3626 73.6583C47.4101 73.6481 47.455 73.6279 47.4942 73.5992C47.5334 73.5704 47.5661 73.5337 47.5902 73.4914C47.9208 72.9841 48.2392 72.4686 48.5454 71.945C49.0865 71.082 49.5739 70.1863 50.0047 69.2632C53.35 62.6095 55.1425 55.1542 55.7726 47.7802C56.562 38.6484 55.321 29.4548 52.1387 20.8604C51.6984 19.6582 51.1544 18.4967 50.5128 17.3891C50.9112 19.5047 51.1058 21.6538 51.094 23.8067C51.094 24.8119 51.2891 28.5395 49.4681 28.0919C48.5617 27.864 48.1593 26.6391 47.8422 25.8944C47.4693 25.0837 47.0373 24.3016 46.5497 23.5544C44.7466 20.8044 42.3116 18.527 39.4485 16.9129C38.3541 16.2839 37.2011 15.7633 36.0057 15.3584C35.5907 15.5102 35.1574 15.606 34.7172 15.6432C34.5505 15.5822 34.3839 15.5293 34.2253 15.4845C32.0873 14.8619 29.7541 15.1264 27.6811 15.8467C25.8858 16.4728 24.2595 17.5063 22.9294 18.8663C22.5677 19.1349 22.2018 19.3953 21.8157 19.6395C21.0436 20.1076 20.1943 20.4342 19.3077 20.604L19.072 20.5755C16.8452 20.3533 14.597 20.6313 12.4911 21.3894L11.914 21.4464C11.5454 21.4789 11.1755 21.5074 10.8043 21.5318L10.3978 21.5074C8.71477 22.2629 7.24647 23.4266 6.12576 24.8933C5.20052 25.151 4.31645 25.5387 3.49993 26.0449C2.24365 26.773 1.1273 27.7198 0.203425 28.8407L0.179036 28.8692C-0.0780418 31.034 -0.0479729 33.2234 0.268461 35.3804C1.5326 45.3914 7.36144 54.0229 10.1499 63.5862C10.7111 65.4937 11.1228 67.4422 11.3815 69.4138C11.414 71.6601 10.975 73.817 10.6783 76.0349C10.4286 77.46 10.5022 78.9232 10.8937 80.316C10.9965 80.7597 11.1436 81.1918 11.3327 81.606C12.7879 84.7843 16.0925 85.2401 19.2386 84.9105C21.4004 84.6774 23.5087 84.0875 25.478 83.1647C25.8479 83.0751 26.2137 82.9897 26.5877 82.9124C28.1282 82.5827 29.7094 82.4525 31.2743 82.2572C32.0873 82.1554 32.9734 82.0456 33.8717 81.8746C37.1447 81.4214 40.2464 80.1336 42.8792 78.1347C44.5779 76.8628 46.0875 75.3555 47.3626 73.6583ZM18.5395 79.8969C18.432 80.5401 18.2492 81.1684 17.9948 81.7688C17.7834 82.2124 17.2997 80.316 17.2591 80.141C16.8323 78.3464 16.4096 76.5558 15.9665 74.7652C15.934 74.6268 15.8974 74.4925 15.8649 74.3582C15.7267 73.3734 15.5397 72.3967 15.4096 71.4607C15.1901 69.9103 14.9381 68.3638 14.6942 66.8174C16.3317 68.5318 17.5353 70.6138 18.2043 72.8893C18.8733 75.1649 18.9883 77.5677 18.5395 79.8969ZM29.1078 23.3306C27.1768 23.9136 25.4449 25.0207 24.1041 26.5292C21.3238 29.6058 19.9947 33.9072 16.3405 36.2187C15.5255 36.7721 14.5774 37.0972 13.5947 37.1601C12.6119 37.2231 11.6303 37.0217 10.7514 36.5768C9.88339 36.0844 9.14401 35.3934 8.59369 34.5603C8.04337 33.7271 7.69773 32.7754 7.585 31.7829C7.2964 29.6302 8.01586 27.4693 9.16619 25.6787C9.72434 24.8499 10.3629 24.0784 11.0726 23.3753C11.3855 23.0498 11.727 22.7486 12.0644 22.4515C12.8573 22.2231 13.6781 22.1067 14.5032 22.1056C16.1291 22.1056 17.6168 22.8259 19.202 23.005C20.6735 23.1678 21.9905 22.5167 23.0757 21.5847C24.161 20.6528 25.0024 19.2692 25.9942 18.1541C26.5453 17.5177 27.2096 16.9892 27.9534 16.5955C28.2573 16.4534 28.5806 16.3574 28.9127 16.3106C29.1363 16.3106 29.3558 16.3106 29.5793 16.3106C31.3417 16.3132 33.0943 16.5722 34.7822 17.0798C36.3837 17.5478 38.4161 18.7808 37.8674 20.7423C37.3633 22.5614 34.3473 22.2033 32.9897 22.3376C31.6593 22.4711 30.3556 22.7987 29.12 23.3102L29.1078 23.3306ZM39.1721 67.0535C38.851 64.1438 38.599 61.234 38.1966 58.3325C37.7292 54.9873 37.1073 51.6585 36.4 48.354C35.709 45.1472 34.9136 41.9717 34.014 38.8273C33.6068 37.1726 33.0292 35.5647 32.2905 34.0293C31.8113 32.2985 31.6447 30.4959 31.7987 28.7064C31.9694 26.7652 32.8271 24.0875 35.2049 24.2096C37.5097 24.3276 39.0339 27.3838 40.0542 29.093C41.2102 31.0354 42.1884 33.0784 42.9767 35.1973C46.1229 43.5845 46.4399 53.2659 43.3832 61.7265C42.5865 63.9281 41.2777 66.0198 39.1721 67.0535Z" fill="#C53535"/>
<path d="M55.7725 47.7843C56.4379 40.0253 55.6465 32.2101 53.4393 24.7427C53.3413 26.7692 53.0583 28.7825 52.5938 30.7574C52.0573 33.3171 51.35 35.8362 50.8257 38.4C50.3201 40.9404 50.0264 43.5185 49.9477 46.1076C49.8135 49.6929 50.0005 53.4043 50.0412 57.0953C49.0732 62.7715 46.68 68.1083 43.0864 72.6043C41.5946 74.4478 39.7045 76.1569 37.1925 76.0756C34.3472 75.9779 33.5342 72.8484 33.4163 70.5451C33.2659 67.8755 33.2497 65.1937 33.1562 62.52C33.1562 62.459 33.1562 62.402 33.1562 62.3409C33.3489 59.9444 33.2889 57.5341 32.9773 55.1501C32.5193 51.7026 31.5177 48.3497 30.0101 45.2164C28.5061 42.091 26.4494 38.7947 23.0269 37.582C22.2285 37.3119 21.3828 37.2104 20.5433 37.2839C19.7037 37.3575 18.8885 37.6045 18.1492 38.0093C16.4582 38.868 15.129 40.1092 13.1739 40.3493C12.2802 40.4462 11.3761 40.3598 10.5169 40.0952C9.65767 39.8305 8.86136 39.3933 8.1766 38.8102C7.49184 38.2271 6.93301 37.5103 6.53425 36.7037C6.13549 35.8971 5.90517 35.0176 5.85736 34.1188C5.82891 33.5898 5.00376 33.2358 4.75175 33.8218C3.993 35.5825 3.23154 37.346 2.46736 39.1121C1.72555 38.5027 1.07168 37.7933 0.524414 37.0041C2.16251 46.3233 7.51578 54.5315 10.1619 63.574C10.3733 64.2902 10.5643 65.0146 10.7351 65.7471C10.7275 64.629 11.0592 63.5349 11.6862 62.6095C13.2389 60.4039 15.9257 61.5596 17.3769 63.1833C18.0858 64.0581 18.7079 64.9999 19.2344 65.9954C19.5108 66.4715 19.7913 66.9436 20.0718 67.4197C20.3726 68.0342 20.6612 68.6405 20.9132 69.2957C21.7002 71.3008 22.2116 73.4036 22.4334 75.5465C22.7139 78.1998 22.8399 82.8717 20.5189 84.7314C22.2408 84.4275 23.9159 83.9008 25.5023 83.1647C25.8722 83.0751 26.238 82.9897 26.612 82.9123C28.1525 82.5827 29.7337 82.4525 31.2986 82.2572C32.1116 82.1554 32.9977 82.0455 33.896 81.8746C37.1604 81.4173 40.2533 80.1297 42.8791 78.1347C44.5735 76.8619 46.0789 75.3547 47.3503 73.6583C47.3978 73.6481 47.4427 73.6279 47.4819 73.5992C47.5211 73.5704 47.5538 73.5337 47.5779 73.4914C47.9085 72.9841 48.2269 72.4686 48.5331 71.945C49.0742 71.082 49.5615 70.1863 49.9924 69.2632C53.3499 62.6136 55.1424 55.1582 55.7725 47.7843Z" fill="#A91B1B"/>
<path d="M15.4175 84.78C13.064 83.2255 12.121 79.5995 11.8649 76.934C11.6779 74.9969 11.6454 73.0517 11.3406 71.1309C11.2186 72.7587 10.9341 74.3865 10.6943 76.0346C10.4446 77.4598 10.5182 78.9229 10.9097 80.3158C11.0125 80.7594 11.1596 81.1916 11.3487 81.6058C11.7178 82.4264 12.2813 83.1444 12.9903 83.6976C13.6994 84.2507 14.5325 84.6223 15.4175 84.78Z" fill="#A91B1B"/>
<path d="M55.9959 42.9699C55.8618 43.2711 55.7277 43.5682 55.5895 43.8652C54.7206 45.9466 54.0139 48.0923 53.4758 50.2829C52.3255 54.7593 51.6832 59.366 50.3988 63.8222C49.094 68.3556 47.0576 72.5879 43.5741 75.8476C40.8263 78.4195 34.0585 82.7658 31.8391 77.3126C31.4019 76.079 31.2207 74.769 31.3067 73.4628C32.3391 62.3775 30.4165 50.995 25.2868 41.0613C24.9169 40.3492 23.8926 40.9759 24.2259 41.684C24.7218 42.7366 25.1906 43.8056 25.6323 44.8908C26.1812 47.3132 26.5292 49.7768 26.6729 52.2566C26.7952 55.8087 26.5747 59.3643 26.0144 62.874C25.4697 66.6505 24.9982 71.131 26.2013 74.9238C26.3314 75.9208 26.4656 76.9179 26.5225 77.919C26.6849 79.6565 26.3314 81.4035 25.5063 82.9407C25.4494 83.0425 25.3843 83.1442 25.3193 83.2419L25.4981 83.1646C25.868 83.075 26.2339 82.9896 26.6078 82.9123C28.1484 82.5826 29.7295 82.4524 31.2945 82.2571C32.1074 82.1553 32.9935 82.0455 33.8918 81.8745C37.1577 81.4179 40.252 80.1303 42.879 78.1346C44.5734 76.8618 46.0788 75.3546 47.3502 73.6582C47.3977 73.648 47.4426 73.6278 47.4818 73.5991C47.521 73.5703 47.5538 73.5336 47.5778 73.4913C47.9084 72.984 48.2269 72.4685 48.5331 71.9449C49.0741 71.0819 49.5615 70.1862 49.9923 69.2631C53.3376 62.6094 55.1301 55.1541 55.7602 47.7801C55.9065 46.1849 55.9851 44.5815 55.9959 42.9699Z" fill="#8C0000"/>
<path d="M2.94287 45.4605C4.56877 49.7986 6.63366 54.0064 8.33272 58.3323C8.38963 58.2062 8.44654 58.0882 8.51157 57.9661C8.96794 57.1387 9.58964 56.4144 10.3379 55.8381C11.0862 55.2619 11.945 54.8462 12.8609 54.6169C13.7531 54.3814 14.6841 54.3315 15.5964 54.4704C16.3606 54.5843 17.137 54.8244 17.9174 54.7023C19.4905 54.45 20.0798 52.9524 19.8034 51.4956C19.1815 48.2399 16.3321 46.0017 13.1494 45.5703C11.2919 45.318 9.53995 45.2692 7.86528 44.3129C6.29956 43.3957 5.10761 41.9545 4.49967 40.2433C4.39399 39.9218 3.83305 39.8364 3.76801 40.2433C3.56071 41.6229 3.33309 42.9903 3.12985 44.3576C3.07294 44.7239 3.00791 45.0901 2.94287 45.4605Z" fill="#8C0000"/>
<path d="M44.8668 24.0466C44.688 23.6031 44.5051 23.1961 44.3059 22.7485C43.2853 20.5625 41.977 18.5232 40.4159 16.6849C39.6349 15.7765 38.7753 14.939 37.847 14.1821L37.6438 14.3815C37.3172 14.6245 36.978 14.85 36.6276 15.0571C36.0514 15.3883 35.4082 15.5858 34.7456 15.6349C35.4122 16.0012 36.0748 16.3797 36.7129 16.7948C38.2944 17.8316 39.7404 19.062 41.0175 20.4573C41.771 21.2625 42.4627 22.1237 43.0865 23.0333L43.4035 23.6153C44.5675 25.6795 45.5612 27.8353 46.3748 30.0614C46.4045 30.1693 46.4757 30.261 46.5729 30.3164C46.6701 30.3717 46.7853 30.3861 46.8931 30.3564C47.0009 30.3267 47.0925 30.2554 47.1478 30.1581C47.203 30.0608 47.2174 29.9455 47.1878 29.8376C46.7161 27.7993 45.9333 25.846 44.8668 24.0466Z" fill="#8C0000"/>
<path d="M25.4981 16.856C24.5574 17.4103 23.6937 18.0862 22.9292 18.8663C22.5675 19.1349 22.2016 19.3953 21.8155 19.6395C21.0434 20.1076 20.1941 20.4342 19.3075 20.604L19.0718 20.5755C16.845 20.3532 14.5968 20.6313 12.4909 21.3894L11.9138 21.4464C11.5452 21.4789 11.1753 21.5074 10.8041 21.5318C10.5114 21.5318 10.2269 21.4993 9.95861 21.4871C9.61691 21.396 9.26917 21.3294 8.91803 21.2877C8.36388 21.721 7.83968 22.1914 7.34904 22.6957C6.63356 23.4197 6.02452 24.2418 5.54023 25.1374C5.20692 25.7519 4.79638 26.5577 4.84922 27.2943C4.72425 27.6802 4.65179 28.0813 4.63379 28.4866C4.63356 28.5268 4.6452 28.5662 4.66727 28.5997C4.68933 28.6333 4.72082 28.6595 4.75777 28.6752C4.79471 28.6909 4.83547 28.6952 4.87489 28.6877C4.91431 28.6803 4.95064 28.6613 4.9793 28.6331C5.55649 27.9535 5.98735 27.1681 6.49545 26.4437C7.07372 25.6514 7.73758 24.9253 8.47498 24.2788C9.98978 22.917 11.8155 21.9485 13.7917 21.4586C17.0435 20.6447 21.3643 21.4586 23.0552 24.5799C23.1755 24.8797 23.3111 25.1731 23.4617 25.4589C23.7869 26.0938 24.8031 25.6502 24.6039 24.9746C24.469 24.525 24.2864 24.0912 24.0592 23.6805C23.742 22.6255 23.6683 21.5121 23.8437 20.4243C24.019 19.3366 24.4388 18.3029 25.0713 17.4013C25.2022 17.2109 25.3448 17.0287 25.4981 16.856Z" fill="#8C0000"/>
<g opacity="0.3">
<path opacity="0.3" d="M42.334 38.7493C41.3939 35.3752 39.9787 32.1523 38.131 29.1777C37.8578 28.3874 37.4584 27.6466 36.9482 26.9843C36.2287 26.1175 34.8548 25.5477 33.863 26.3454C33.677 26.4914 33.5249 26.6762 33.4175 26.8871C33.3101 27.0979 33.2499 27.3297 33.2411 27.5662C33.2059 27.6492 33.1923 27.7397 33.2015 27.8294C33.2108 27.9191 33.2426 28.005 33.294 28.079C33.2627 28.1677 33.2501 28.262 33.2571 28.3559C33.2641 28.4498 33.2905 28.5412 33.3346 28.6243C35.9889 33.9155 37.9638 39.5217 39.2123 45.3093C39.8194 48.2253 40.2349 51.1779 40.4561 54.1483C40.6918 57.1842 40.513 60.216 40.6674 63.2478C40.6918 63.7239 41.4438 63.8826 41.5413 63.3658C41.5413 63.3454 41.5413 63.3251 41.5413 63.3007C42.2242 62.5559 42.3543 61.1194 42.5779 60.2078C43.5379 57.1036 44.0137 53.8696 43.9883 50.62C44.0146 46.6037 43.4573 42.605 42.334 38.7493Z" fill="white"/>
<path opacity="0.3" d="M47.0655 17.0916C47.2935 16.739 47.3765 16.3117 47.2972 15.8992C47.1264 14.9144 46.285 14.3569 45.4802 13.893C44.7364 13.4616 43.5657 12.8471 42.6755 13.1035C42.2786 13.2006 41.9327 13.4438 41.7068 13.7846C41.4808 14.1255 41.3913 14.539 41.4561 14.9429C41.6431 16.3388 43.456 17.4253 44.9762 17.7265C45.3124 17.8405 45.6726 17.8643 46.0208 17.7956C46.0904 17.7877 46.1579 17.767 46.22 17.7346C46.3645 17.683 46.5013 17.6118 46.6265 17.523C46.7258 17.4859 46.8161 17.4283 46.8918 17.354C46.9674 17.2797 47.0266 17.1903 47.0655 17.0916Z" fill="white"/>
<path opacity="0.3" d="M32.9608 18.8702C32.5828 17.7551 31.3797 17.4255 30.335 17.3075C29.7494 17.2354 29.1552 17.3182 28.6116 17.5476C28.3642 17.6304 28.1259 17.7381 27.9002 17.8691C27.485 18.1288 27.1506 18.4997 26.9351 18.9399C26.7196 19.3801 26.6315 19.8719 26.6808 20.3596C26.725 20.8437 26.9307 21.2989 27.2647 21.6518C27.5987 22.0046 28.0416 22.2347 28.5221 22.3048C29.6603 22.5287 30.9 21.8979 31.8471 21.3485C32.7292 20.8154 33.3307 19.9038 32.9608 18.8702Z" fill="white"/>
<path opacity="0.3" d="M17.0352 26.5412C16.649 24.9541 15.2183 23.4239 13.4907 23.5664C11.6413 23.721 10.7389 25.5441 10.4015 27.1597C10.3568 27.2778 10.3121 27.3917 10.2674 27.4975C9.62517 29.1253 9.75524 31.3676 11.3161 32.446C12.877 33.5245 14.9337 32.7187 16.0434 31.3351C16.5584 30.6622 16.915 29.8817 17.0868 29.0516C17.2585 28.2216 17.2409 27.3635 17.0352 26.5412Z" fill="white"/>
</g>
</g>
<defs>
<clipPath id="clip0">
<rect width="56" height="85" fill="white"/>
</clipPath>
</defs>
</svg>
