<svg width="83" height="75" viewBox="0 0 83 75" fill="none" xmlns="http://www.w3.org/2000/svg">
<g clip-path="url(#clip0)">
<path d="M71.0326 42.2901C68.8847 45.1464 67.4023 48.4787 65.2739 51.3743C64.7406 52.0957 64.1731 52.7926 63.5859 53.4748C63.6349 53.3226 63.6887 53.1803 63.7327 53.0282C63.7606 52.9104 63.7501 52.7868 63.7026 52.6756C63.6552 52.5643 63.5733 52.4713 63.4691 52.4103C63.365 52.3492 63.244 52.3234 63.1241 52.3366C63.0042 52.3497 62.8916 52.4012 62.8031 52.4834C60.0632 54.8489 57.4945 56.763 54.4855 58.1077C54.3951 58.0839 54.3007 58.0799 54.2087 58.096C54.1167 58.1121 54.0292 58.1479 53.9522 58.2009L53.3161 58.5985C51.9272 59.1302 50.4925 59.5327 49.0301 59.8008C43.1531 60.8204 37.1523 60.9015 31.25 60.0413C25.6136 59.2119 20.5643 56.4685 16.1706 52.93C12.3984 49.8774 9.35998 46.0248 5.87148 42.6974C4.72658 39.7528 3.91439 36.7001 2.54443 33.8635C2.34383 33.4414 1.77628 33.6966 1.74692 34.0843C1.37997 38.4522 3.08752 42.9182 4.89294 46.8444C6.73039 50.7562 9.24882 54.3078 12.3299 57.3323C18.0054 62.9516 25.6576 66.4508 33.5055 67.5796C41.9814 68.7617 50.5997 66.8737 57.8125 62.2547C61.3334 59.948 64.4386 57.0589 66.9962 53.7104C69.374 50.6627 71.9525 46.8739 72.569 42.9722C72.644 42.7706 72.6394 42.5479 72.5562 42.3496C72.4729 42.1513 72.3173 41.9923 72.1212 41.9052C71.925 41.8181 71.7031 41.8094 71.5008 41.8809C71.2984 41.9525 71.131 42.0988 71.0326 42.2901Z" fill="#637A26"/>
<path d="M82.7898 13.197C82.5305 11.3763 80.5392 6.09553 77.946 7.16051C77.9361 7.16439 77.9276 7.17111 77.9215 7.17985C77.9154 7.18858 77.912 7.19893 77.9118 7.20959C77.8237 8.25984 78.675 8.94202 79.1937 9.81069C79.9908 11.1614 80.4912 12.6673 80.6615 14.2276C80.6321 14.1295 80.6077 14.0313 80.5734 13.9381C80.4955 13.6976 80.3359 13.4922 80.1225 13.3577C79.9091 13.2231 79.6553 13.168 79.4055 13.2018C79.1557 13.2357 78.9257 13.3565 78.7555 13.543C78.5854 13.7296 78.4859 13.9701 78.4744 14.2227C78.4206 17.1674 78.7925 20.0482 78.6506 22.983C78.4352 26.3837 77.8093 29.7455 76.7865 32.9948C75.0544 38.7712 72.0699 44.1207 68.5471 48.9891C66.7548 51.4746 64.8068 53.8432 62.715 56.0808C61.1965 57.471 59.5847 58.7549 57.8908 59.9236C51.1158 64.5442 43.0239 66.8237 34.8412 66.4165C18.206 65.6607 5.52408 52.4589 3.79205 36.1652C3.78327 36.0676 3.75332 35.9731 3.7043 35.8883C3.65528 35.8036 3.58838 35.7306 3.50828 35.6744C3.50828 35.2867 3.50828 34.899 3.46914 34.5113C3.40064 33.1421 3.46914 31.8268 3.01411 30.5851C3.10218 30.0256 3.19514 29.4711 3.30278 28.9165C3.36766 28.6855 3.33839 28.438 3.2214 28.2286C3.10441 28.0193 2.90929 27.8651 2.67896 27.8C2.44863 27.7349 2.20196 27.7643 1.99322 27.8816C1.78447 27.999 1.63075 28.1947 1.56587 28.4257C-2.24066 39.0902 1.2772 51.4135 7.97532 60.0953C15.2704 69.5574 27.8202 73.9744 39.4697 72.5463C50.3952 71.2114 59.3978 64.2031 66.5313 56.071C66.8298 55.7569 67.1282 55.4477 67.4169 55.1287C69.3984 53.0479 71.1308 50.742 72.5787 48.2579C75.4257 44.0321 77.6857 39.4372 79.2964 34.5997C79.8834 32.82 80.3734 31.0097 80.7642 29.1766C81.0236 28.2245 81.2535 27.2724 81.4932 26.3301C82.5305 22.0849 83.421 17.6042 82.7898 13.197Z" fill="#405315"/>
<path d="M69.3836 51.0111C63.4732 56.5421 59.2214 63.197 52.1074 67.4226C45.5616 71.2377 37.9653 72.838 30.4425 71.9868C22.8196 71.1525 15.7105 67.0152 10.5878 61.4106C7.88065 58.3684 5.78116 54.8329 4.40343 50.9964C3.10686 47.4628 2.72523 43.7771 1.89347 40.1307C1.89347 40.0005 1.84192 39.8757 1.75017 39.7836C1.65841 39.6916 1.53396 39.6399 1.4042 39.6399C1.27444 39.6399 1.14999 39.6916 1.05823 39.7836C0.966477 39.8757 0.914929 40.0005 0.914929 40.1307C-0.577349 47.6051 3.23897 56.282 7.82833 61.9799C13.048 68.4528 20.3893 72.8565 28.5441 74.4063C45.7028 77.6945 62.7686 66.9318 70.2594 51.7031C70.3141 51.5857 70.3277 51.4533 70.2979 51.3272C70.268 51.2011 70.1966 51.0888 70.0951 51.0087C69.9936 50.9285 69.8681 50.8851 69.7389 50.8855C69.6097 50.886 69.4845 50.9302 69.3836 51.0111Z" fill="#1E2B04"/>
<path d="M81.9383 5.83039C81.2533 4.04398 79.3941 2.26247 77.3685 2.51767C77.1 2.52725 76.8434 2.63168 76.6442 2.81252C76.4449 2.99336 76.3158 3.23899 76.2795 3.50606C76.2432 3.77313 76.3021 4.04447 76.4459 4.27219C76.5896 4.49992 76.809 4.66939 77.0652 4.75069C77.2687 4.82826 77.468 4.91673 77.6621 5.01571C77.8812 6.05638 78.2211 7.06772 78.6749 8.02906C78.9538 8.72596 79.2424 9.71732 79.8002 10.3357C79.7745 11.0401 79.9885 11.7324 80.4069 12.2988C80.5115 12.4074 80.6498 12.4772 80.7991 12.4969C80.9484 12.5165 81.0999 12.4847 81.2289 12.4068C83.0392 11.0424 82.6576 7.71005 81.9383 5.83039Z" fill="#1E2B04"/>
<path d="M5.83241 47.7573C5.7229 47.5575 5.58804 47.3727 5.43121 47.2076C5.28923 47.0603 5.1239 46.9376 4.94194 46.8445C4.82899 46.7797 4.70308 46.7411 4.57337 46.7312C4.44365 46.7214 4.31338 46.7407 4.19203 46.7877C4.07068 46.8347 3.96129 46.9082 3.87181 47.003C3.78233 47.0977 3.715 47.2112 3.67472 47.3352C3.54572 47.7641 3.53221 48.2196 3.63558 48.6554C3.6944 48.9023 3.80285 49.1346 3.95429 49.3379C4.10572 49.5413 4.29695 49.7115 4.51627 49.8382C4.64715 49.9202 4.79552 49.9701 4.94927 49.9836C5.10301 49.9971 5.25777 49.974 5.4009 49.9161C5.54404 49.8582 5.67148 49.7672 5.77284 49.6504C5.87419 49.5337 5.94658 49.3945 5.98408 49.2443C6.05955 48.999 6.08501 48.7408 6.05895 48.4854C6.0329 48.2299 5.95585 47.9823 5.83241 47.7573Z" fill="#85A237"/>
<path d="M6.06711 55.217C5.97939 55.1672 5.88038 55.1409 5.7796 55.1406C5.67882 55.1404 5.57967 55.1661 5.49169 55.2154C5.40371 55.2647 5.32986 55.3359 5.27725 55.4221C5.22464 55.5084 5.19505 55.6067 5.19131 55.7077C5.13749 57.18 5.7344 59.099 7.18754 59.7026C7.37504 59.7538 7.5751 59.7282 7.74387 59.6316C7.91263 59.535 8.03632 59.3752 8.0878 59.1873C8.50857 57.6954 7.20711 56.0415 6.06711 55.217Z" fill="#85A237"/>
<path d="M11.8652 53.6024C11.8664 53.4848 11.8448 53.3682 11.8016 53.2589C11.7471 53.0882 11.675 52.9237 11.5863 52.7681C11.3976 52.4263 11.0916 52.1647 10.7252 52.0319C10.5053 51.9717 10.2705 52.0015 10.0724 52.1146C9.8743 52.2278 9.72901 52.4151 9.6684 52.6356C9.59393 53.0285 9.66528 53.4352 9.869 53.7791C9.96192 53.9308 10.0684 54.0737 10.187 54.2061C10.2546 54.2944 10.3395 54.3679 10.4366 54.422C10.6323 54.5202 10.6959 54.5398 10.6323 54.4956C10.7519 54.5789 10.8927 54.6264 11.0383 54.6325C11.1838 54.6386 11.3281 54.603 11.4542 54.53C11.5735 54.4612 11.6714 54.3605 11.7371 54.2392C11.8027 54.1179 11.8335 53.9807 11.8261 53.8429C11.8359 53.8822 11.8505 53.8036 11.8652 53.6024Z" fill="#85A237"/>
<path d="M16.8166 63.04C16.6423 62.7524 16.4148 62.5008 16.1463 62.2989C15.8968 62.0977 15.6674 61.8725 15.4613 61.6266C15.2427 61.3157 14.9788 61.0394 14.6785 60.807C14.5678 60.7441 14.4444 60.7068 14.3174 60.6981C14.1905 60.6893 14.0632 60.7092 13.9449 60.7563C13.8266 60.8033 13.7203 60.8764 13.6339 60.9701C13.5475 61.0638 13.4831 61.1758 13.4455 61.2978C12.9563 62.7259 15.1042 64.9491 16.5377 64.105C16.7132 63.9987 16.8405 63.8281 16.8926 63.6292C16.9446 63.4304 16.9174 63.219 16.8166 63.04Z" fill="#85A237"/>
<path d="M23.2114 60.1933C22.7809 59.4032 21.6556 58.8093 20.7944 59.1774C20.6846 59.2392 20.5937 59.3299 20.5316 59.4397C20.4695 59.5496 20.4386 59.6744 20.4422 59.8007C20.5107 60.7479 21.6262 61.4251 22.4971 61.4399C22.6419 61.4383 22.7838 61.3989 22.9087 61.3255C23.0336 61.2521 23.1373 61.1473 23.2095 61.0214C23.2816 60.8955 23.3198 60.7528 23.3201 60.6076C23.3205 60.4624 23.283 60.3196 23.2114 60.1933Z" fill="#85A237"/>
<path d="M26.5581 69.3563C26.391 69.1184 26.178 68.9165 25.9318 68.7625C25.6916 68.6219 25.4432 68.4957 25.1881 68.3846C24.5912 68.1245 23.9992 67.8349 23.3436 68.0165C23.1546 68.0693 22.994 68.1948 22.8969 68.3658C22.7997 68.5368 22.7739 68.7393 22.825 68.9293C23.0912 69.4982 23.5534 69.9513 24.1264 70.2054C24.3695 70.3408 24.6194 70.4636 24.875 70.5734C25.2198 70.715 25.5886 70.7884 25.9612 70.7894C26.7587 70.8286 26.9887 69.8716 26.5581 69.3563Z" fill="#85A237"/>
<path d="M29.8018 65.2728C29.7214 65.3535 29.6637 65.4541 29.6344 65.5645C29.6052 65.6748 29.6056 65.7909 29.6355 65.901C29.9095 66.8825 32.0818 67.6285 32.4341 66.3525C32.7864 65.0765 30.5406 64.5857 29.8018 65.2728Z" fill="#85A237"/>
<path d="M34.3911 71.8591C33.9086 71.6167 33.3747 71.4954 32.8352 71.5057C32.3361 71.4142 31.8208 71.4882 31.3674 71.7168C31.282 71.7683 31.2094 71.8385 31.1549 71.9222C31.1004 72.0059 31.0655 72.1009 31.0528 72.2C31.04 72.2992 31.0499 72.3999 31.0815 72.4947C31.1131 72.5895 31.1657 72.6759 31.2353 72.7474C31.6071 73.0852 32.0768 73.295 32.5759 73.3461C33.0959 73.5059 33.6471 73.5345 34.1807 73.4296C34.3407 73.3819 34.4835 73.2888 34.592 73.1616C34.7005 73.0344 34.7701 72.8785 34.7923 72.7126C34.8145 72.5467 34.7885 72.3779 34.7173 72.2264C34.6461 72.075 34.5328 71.9475 34.3911 71.8591Z" fill="#85A237"/>
<path d="M42.7183 65.273C42.407 65.2016 42.0822 65.2168 41.7789 65.3172C41.6433 65.3697 41.511 65.4304 41.3826 65.4988C41.3288 65.5233 40.9521 65.8129 41.1086 65.7049C40.9962 65.7731 40.9032 65.8692 40.8387 65.984C40.7741 66.0988 40.7402 66.2283 40.7402 66.3601C40.7402 66.4919 40.7741 66.6214 40.8387 66.7362C40.9032 66.851 40.9962 66.9471 41.1086 67.0153C40.9178 66.9122 41.2456 67.1134 41.3043 67.1478C41.4315 67.2081 41.5622 67.2606 41.6957 67.3048C42.0281 67.4129 42.386 67.4129 42.7183 67.3048C42.942 67.2404 43.139 67.1053 43.28 66.9197C43.4211 66.734 43.4986 66.5076 43.5012 66.2742C43.497 66.0446 43.4184 65.8226 43.2771 65.6419C43.1358 65.4613 42.9396 65.3317 42.7183 65.273Z" fill="#85A237"/>
<path d="M47.8609 69.0911C47.4451 68.3991 46.6622 68.3893 45.9528 68.5169C45.6328 68.5357 45.3267 68.6541 45.077 68.8556C45.077 68.8556 44.9155 69.15 44.8764 69.204C44.8258 69.3215 44.8138 69.4522 44.8421 69.577C44.9791 70.1512 45.4635 70.2984 45.9528 70.4751C46.5252 70.6812 47.2787 70.7352 47.7142 70.2297C47.8547 70.0794 47.9445 69.8886 47.9708 69.6842C47.9972 69.4798 47.9587 69.2724 47.8609 69.0911Z" fill="#85A237"/>
<path d="M54.3731 62.6424C54.0068 62.5161 53.6149 62.4841 53.2331 62.5492C52.8209 62.6624 52.4283 62.8378 52.0686 63.0694C51.941 63.1463 51.8418 63.2628 51.7861 63.4013C51.7304 63.5398 51.7212 63.6928 51.7599 63.837C51.7986 63.9812 51.8831 64.1089 52.0006 64.2006C52.1181 64.2924 52.2622 64.3432 52.4111 64.3454C52.7905 64.3626 53.1706 64.3429 53.5462 64.2865C53.9657 64.1818 54.3431 63.9505 54.6275 63.624C54.6981 63.5508 54.7488 63.4606 54.7746 63.3621C54.8005 63.2636 54.8006 63.1601 54.7751 63.0615C54.7495 62.963 54.6991 62.8726 54.6287 62.7992C54.5583 62.7258 54.4703 62.6718 54.3731 62.6424Z" fill="#85A237"/>
<path d="M61.9271 59.8745C61.8195 59.8745 61.8097 59.8745 61.9271 59.9039C61.7671 59.8589 61.5978 59.8589 61.4378 59.9039C61.2129 59.948 61.0007 60.0419 60.8165 60.1787C60.6615 60.295 60.5129 60.4195 60.3712 60.5517C60.2342 60.6695 60.1168 60.8707 60.019 60.964C59.8836 61.1013 59.8008 61.2821 59.7854 61.4746C59.7699 61.667 59.8227 61.8588 59.9344 62.0161C60.0461 62.1733 60.2096 62.286 60.3961 62.3341C60.5825 62.3823 60.7799 62.3628 60.9535 62.2793C61.2593 62.195 61.5511 62.066 61.8195 61.8965C62.2214 61.6409 62.513 61.2433 62.6366 60.7824C62.6654 60.6743 62.6688 60.561 62.6465 60.4513C62.6242 60.3417 62.5767 60.2388 62.5079 60.1507C62.4391 60.0626 62.3508 59.9918 62.25 59.9439C62.1492 59.8959 62.0387 59.8722 61.9271 59.8745Z" fill="#85A237"/>
<path d="M69.3986 50.7411C69.3286 50.5144 69.1791 50.3209 68.9778 50.1963C68.8396 50.1107 68.6804 50.0654 68.5179 50.0654C68.3555 50.0654 68.1962 50.1107 68.058 50.1963C67.9522 50.266 67.8552 50.3484 67.7693 50.4417L67.6519 50.5938L67.6177 50.6331C67.5589 50.6969 67.4953 50.7509 67.4317 50.8098L67.3926 50.849L67.236 50.9668C67.2654 50.9668 67.236 50.9668 67.1822 50.9963C67.1284 51.0257 66.9474 51.1631 66.8348 51.2515L66.7761 51.3005C66.9082 51.1877 66.8691 51.2171 66.6636 51.3791C66.7761 51.2711 66.6978 51.3349 66.6146 51.4085C66.5104 51.4726 66.4243 51.5624 66.3646 51.6694C66.3048 51.7763 66.2734 51.8969 66.2734 52.0195C66.2734 52.1422 66.3048 52.2627 66.3646 52.3697C66.4243 52.4767 66.5104 52.5665 66.6146 52.6305C66.4679 52.5177 66.8153 52.7876 66.8544 52.8121C66.99 52.891 67.1395 52.9427 67.2947 52.9643C67.7097 53.0201 68.1315 52.941 68.4983 52.7385C69.1148 52.444 69.6726 51.4183 69.3986 50.7411Z" fill="#85A237"/>
<path d="M68.3711 4.85391C62.7201 2.52274 56.0562 3.80366 50.2681 4.85391C43.508 6.09175 36.8763 7.95314 30.4575 10.4144C26.7831 11.8082 22.8689 13.3099 19.2825 15.2534C17.8006 15.9248 16.4164 16.7948 15.1678 17.8398C14.7715 18.1293 14.3849 18.4238 14.0082 18.7281C13.1013 19.483 12.3459 20.404 11.782 21.4421C7.77977 26.9191 6.75719 34.2316 12.6138 39.0461C17.5065 43.0704 18.3676 49.8431 23.4952 53.6761C28.2753 57.2293 34.0977 58.093 39.876 57.244C52.3915 55.4085 63.6546 45.1366 70.5533 35.0659C74.076 29.9324 77.2759 23.837 77.3493 17.4766C77.4178 11.5039 73.6748 7.04276 68.3711 4.85391Z" fill="#E8DC89"/>
<path d="M73.7384 5.3986C68.1704 1.61965 60.528 2.6061 54.236 3.37662C47.1192 4.31468 40.1347 6.07685 33.4224 8.62789C28.6219 10.4329 23.9442 12.551 19.4194 14.9687C17.3658 15.9865 15.4017 17.1768 13.5482 18.5268C10.3337 17.5452 7.05556 23.2039 6.23358 25.4958C5.16697 28.4748 5.62688 34.4426 8.67994 36.3566C9.14526 37.171 9.70531 37.9272 10.3484 38.6092C11.5813 39.8656 13.1714 40.7588 14.7175 41.6373C15.3878 42.5551 16.112 43.4335 16.7089 44.2728C16.8703 44.4936 17.0269 44.7194 17.1982 44.9402C16.8214 46.5696 18.48 48.9106 19.2482 50.0982C20.8319 52.4358 22.9143 54.3905 25.3445 55.8207C26.3197 56.4115 27.3587 56.889 28.4416 57.2439C29.187 57.6146 29.9954 57.841 30.8244 57.9114C31.7491 58.1077 32.6787 58.2598 33.6083 58.4021C35.5517 58.6873 37.5195 58.7679 39.4796 58.6426C41.1563 58.5983 42.8268 58.4194 44.475 58.1077C47.9713 57.5189 51.3571 56.3968 54.5149 54.7802C59.7746 52.2037 66.9326 47.2321 68.4591 41.1956C68.4813 41.1087 68.4813 41.0175 68.4591 40.9306C69.3692 39.9049 70.2303 38.8497 71.0376 37.7749C74.9517 32.612 78.2739 26.6196 79.2084 20.1316C79.9668 14.8264 78.3424 8.53465 73.7384 5.3986ZM76.6495 21.1377C75.5242 27.822 71.2235 34.2021 66.8641 39.208C62.6178 44.0057 57.5046 47.9539 51.7945 50.8442C45.3949 54.1324 37.3023 56.7335 30.4134 53.4699C23.4364 50.1424 22.9422 39.5074 16.7774 35.5959C16.0386 34.8303 15.2753 34.0794 14.5121 33.3285C11.4639 30.3348 10.2896 26.8061 12.7507 23.0223C14.7958 19.8617 19.1112 18.1145 22.3355 16.4508C35.3893 9.7076 50.6203 4.79986 65.4599 5.55075C73.9683 5.98263 77.9803 13.251 76.6495 21.1475V21.1377Z" fill="#B6BE5D"/>
<path d="M78.5527 8.17627C75.1571 2.39496 68.9874 1.75695 62.8911 1.914C55.7134 2.12843 48.576 3.07227 41.5882 4.73104C36.0471 6.04287 30.6238 7.81242 25.3737 10.0216C25.3811 9.96975 25.3684 9.91708 25.3385 9.87424C25.3085 9.8314 25.2634 9.80161 25.2123 9.79092C22.3745 9.30014 18.7441 11.3516 16.1999 12.4902C14.5757 13.2187 13.0352 14.1221 11.6056 15.1845C7.46641 17.2507 3.79198 20.8137 2.44648 25.2846C1.51197 28.3716 2.09421 32.8229 4.19318 35.6939C4.5161 36.4252 4.86838 37.1172 5.17172 37.7306C6.36065 42.7758 10.4069 47.605 13.959 51.1386C16.2597 53.4867 18.8805 55.496 21.7433 57.1064C21.7182 57.1328 21.7042 57.168 21.7042 57.2045C21.7042 57.2411 21.7182 57.2762 21.7433 57.3027C25.5792 60.2866 30.697 61.4497 35.4038 62.181C40.3636 62.9611 45.4395 62.4715 50.1602 60.7577C59.2754 57.4745 67.4413 49.8527 71.8252 41.2446C78.3814 32.018 84.6881 18.615 78.5527 8.17627ZM46.2999 57.0966C39.3963 59.0891 30.7704 59.2069 24.6105 55.0697C24.3903 54.9175 24.1799 54.7556 23.9695 54.5789C23.3654 53.6399 22.8102 52.6701 22.306 51.6735C20.8509 48.9646 19.2401 46.3427 17.4818 43.8211C15.8145 41.4808 14.0177 39.2361 12.0998 37.0975C10.9562 35.7612 9.74449 34.4851 8.46941 33.2744C7.58495 31.8515 7.14847 30.1943 7.21688 28.5188C7.3392 24.5975 10.2748 21.3437 13.2545 19.1401C18.9594 14.8508 26.2642 12.1417 32.9477 9.86453C40.0901 7.45744 47.4727 5.83814 54.9649 5.03532C61.7413 4.29425 71.3359 2.63544 76.0035 8.86826C80.6712 15.1011 78.034 23.6405 75.1326 30.0795C69.5011 42.5599 59.7255 53.2195 46.2999 57.0966Z" fill="#83A032"/>
<path d="M79.8102 6.74821C76.6349 1.3497 71.1061 -0.485788 65.1321 0.10314C60.988 0.51539 56.8634 1.57546 52.7829 2.37542L39.5726 4.97161C32.1699 6.44393 24.5666 7.67577 17.6043 10.7038C11.4248 13.3982 5.63669 17.5305 2.57385 23.729C0.518911 27.8858 0.489555 33.0144 2.85274 36.8081C4.17208 41.3157 6.36144 45.5195 9.29644 49.1805C13.187 54.1158 18.2277 58.0157 23.9746 60.537C35.7171 65.7343 49.3629 64.1589 59.9703 57.0721C65.3523 53.4895 69.4572 48.3707 72.8479 42.9428C76.4685 37.1467 79.6537 30.6734 81.508 24.0725C83.1764 18.2372 82.922 12.0289 79.8102 6.74821ZM80.3337 17.6385C80.1331 25.1031 76.0233 32.558 72.5054 38.9331C69.0805 45.1512 64.6379 50.8786 58.7618 54.9569C52.8856 59.0352 45.9282 60.964 38.8974 61.0768C36.197 61.1117 33.5029 60.8067 30.8782 60.1689C28.7107 59.1874 26.0784 58.7408 23.9501 57.715C20.8814 56.1424 18.0472 54.1469 15.5298 51.7865C14.4561 50.7898 13.4842 49.6883 12.6284 48.4983C11.6939 46.8837 11.0138 45.1512 10.2358 43.4826C9.56065 42.0446 7.94116 38.6141 6.00364 37.3087C5.56949 36.8 5.1845 36.2512 4.85386 35.6695C4.4869 34.6536 4.12484 33.6377 3.75299 32.6169C2.97505 28.3766 4.86364 23.7044 7.89712 20.2641C12.3348 15.2141 18.8226 12.5295 25.1146 10.6842C31.9008 8.69168 38.961 7.57271 45.889 6.19855L57.1961 3.95571C61.443 3.11158 65.8366 1.86011 70.1912 2.48339C77.3492 3.50911 80.5099 11.1995 80.3337 17.6385Z" fill="#518206"/>
<path d="M41.505 12.8976C37.1016 13.2362 31.7196 13.6092 27.688 15.5085C25.501 16.5342 22.7268 19.6752 25.0508 21.81C27.4629 28.7839 35.8686 32.558 42.6646 33.4561C50.3706 34.472 60.1316 29.8832 60.7676 21.2947C61.4722 11.2142 47.7677 12.4215 41.505 12.8976Z" fill="#CAAA82"/>
<path d="M59.7499 16.2545C59.0062 15.2729 57.6215 16.3575 57.8564 17.3636C58.3457 19.3807 53.1007 19.7586 51.8384 20.4555C49.9596 21.491 49.5388 24.0136 48.3009 25.5841C46.2705 28.1606 42.4933 27.5128 40.7417 25.0933C39.2445 23.0026 40.4726 20.4211 39.9099 18.1292C38.7748 13.5209 33.8087 14.0116 30.1979 15.1159C30.0315 15.1649 29.8701 15.2238 29.7086 15.2827C28.4262 15.5641 27.1778 15.9837 25.9853 16.5342C22.7023 18.0703 20.0259 21.6824 19.8547 25.324C19.8107 26.281 21.0094 26.4037 21.4791 25.7657L21.572 25.643C21.7388 28.3975 22.8265 31.0152 24.6593 33.0733C29.1117 38.3687 37.7718 40.6115 44.3721 40.7342C50.8207 40.8373 57.1714 37.8289 60.7627 32.4156C64.0946 27.3558 63.3167 20.8726 59.7499 16.2545Z" fill="#B0895E"/>
<path d="M59.4907 19.0225C58.7861 18.2128 57.6119 19.0863 57.8125 20.0041C58.2137 21.8543 58.3018 25.3388 55.0775 23.8419C54.6299 23.6363 54.1435 23.5299 53.6512 23.5299C53.159 23.5299 52.6725 23.6363 52.225 23.8419C49.8129 24.7891 49.2453 28.0429 47.2149 29.5398C41.6323 33.6574 35.1201 29.3975 31.6463 24.6615C31.4995 24.2984 31.3478 23.9401 31.1912 23.5867C30.939 23.036 30.5661 22.5494 30.1002 22.1635C29.3467 20.7648 28.6323 19.4004 27.2624 18.4238C25.3885 17.0791 23.0889 18.5661 21.8804 19.9943C18.6023 23.837 19.3753 30.3888 22.3403 34.0942C22.4399 34.2305 22.5863 34.325 22.7513 34.3592C24.5469 36.8621 27.4336 38.8596 29.8702 40.1749C35.6778 43.3158 42.4738 44.7783 48.9909 43.4729C59.7158 41.3282 67.5441 28.3129 59.4907 19.0225ZM48.8735 35.9248L48.7805 36.0278C48.6838 36.1343 48.6016 36.2531 48.5359 36.3812L48.3353 36.4155C48.3353 36.3665 48.3108 36.3174 48.2962 36.2683C48.4919 36.1603 48.6876 36.0475 48.8735 35.9248Z" fill="#97683A"/>
<path d="M61.7707 25.8196C61.6924 25.4172 61.164 25.5497 61.1053 25.8883C61.0699 25.8739 61.0305 25.8729 60.9945 25.8855C60.9584 25.8982 60.9282 25.9236 60.9096 25.957C59.9849 27.8122 60.0387 30.0943 59.4662 32.0966C59.4271 32.234 59.3733 32.3665 59.3292 32.504C58.5111 34.864 56.948 36.892 54.8769 38.2804C51.1535 40.7342 46.8969 39.4631 43.5845 37.0927C40.6489 35.0069 38.3737 35.0511 35.1397 36.4203C30.2518 38.4668 26.6068 34.1579 23.9745 30.6292C23.8508 30.4577 23.6811 30.325 23.4852 30.2464C23.1629 29.9255 22.7827 29.669 22.3648 29.4906C22.2175 29.4053 22.0507 29.3599 21.8806 29.359C21.7105 29.3581 21.5432 29.4016 21.395 29.4853C21.2469 29.5691 21.123 29.6901 21.0357 29.8364C20.9483 29.9828 20.9005 30.1495 20.897 30.32C21.0788 33.2379 22.0349 36.0539 23.6662 38.4767C25.2245 40.8692 27.1962 42.9633 29.4886 44.6604C31.624 46.2265 34.0465 47.3548 36.6172 47.9805C39.188 48.6062 41.8565 48.7171 44.4701 48.3069C54.9698 46.6971 64.0458 36.9111 61.7707 25.8196Z" fill="#7D4716"/>
</g>
<defs>
<clipPath id="clip0">
<rect width="83" height="75" fill="white"/>
</clipPath>
</defs>
</svg>
