<svg width="89" height="79" viewBox="0 0 89 79" fill="none" xmlns="http://www.w3.org/2000/svg">
<path d="M19.1885 7.96638C19.2704 6.84838 19.0657 5.728 18.5936 4.70981C18.1215 3.69161 17.3974 2.80879 16.4888 2.14374C16.6656 1.97703 16.8741 1.84686 17.102 1.76079C17.3299 1.67471 17.5728 1.63445 17.8165 1.64233C18.0602 1.6502 18.2999 1.70607 18.5217 1.80668C18.7435 1.9073 18.943 2.05065 19.1085 2.22843C19.3088 2.48719 19.4704 2.77334 19.5882 3.078C20.2385 4.5813 20.7875 6.35192 20.6063 7.96638H19.1885Z" fill="#744D3E"/>
<path d="M3.40857 38.4638C-1.54579 31.6063 -0.980797 21.4908 4.32802 14.9085C9.63684 8.32631 19.0739 5.51556 27.3009 7.63553C35.528 9.7555 42.2573 16.4648 44.8904 24.4921C46.2975 28.7955 46.6014 33.4007 46.2229 37.9106C45.2848 49.5003 39.5736 60.9365 29.9127 67.5082C26.8772 69.5699 23.4179 71.1579 19.7534 71.4279C16.089 71.6978 12.206 70.4909 9.78875 67.7543C3.16072 60.1954 9.67415 47.7376 3.73105 38.9905L3.40857 38.4638Z" fill="#FFA100"/>
<path d="M8.15259 19.1089C8.14944 19.1436 8.1441 19.178 8.1366 19.2121C8.12061 19.2809 8.10995 19.355 8.0833 19.4529C8.02075 19.678 7.9442 19.899 7.8541 20.1146C7.76657 20.331 7.66139 20.5398 7.53963 20.7392C7.48021 20.8376 7.4134 20.9314 7.33975 21.0198C7.30593 21.0582 7.26478 21.0896 7.21868 21.1121C7.17257 21.1347 7.12243 21.148 7.07113 21.1511C7.01984 21.1543 6.96842 21.1474 6.91983 21.1308C6.87125 21.1141 6.82647 21.0881 6.78808 21.0542C6.73128 21.0043 6.6905 20.939 6.67081 20.8662C6.64058 20.738 6.6298 20.606 6.63883 20.4745C6.65406 20.194 6.72375 19.919 6.84404 19.6647C6.96077 19.4085 7.12433 19.1761 7.32642 18.9792C7.39348 18.9108 7.46763 18.8495 7.54762 18.7966L7.63823 18.7436C7.72317 18.7008 7.82169 18.6929 7.91246 18.7216C8.00324 18.7503 8.07897 18.8134 8.12328 18.8971C8.15526 18.9629 8.16552 19.037 8.15259 19.1089Z" fill="#D78325"/>
<path d="M10.4256 23.1608C10.4256 23.1608 10.4256 23.1925 10.4496 23.2481C10.4653 23.3265 10.4733 23.4063 10.4736 23.4863C10.4732 23.7183 10.4289 23.9481 10.343 24.1638C10.2611 24.3817 10.134 24.5801 9.9699 24.7461C9.89292 24.8281 9.80288 24.8969 9.70339 24.9499C9.60655 24.9976 9.4946 25.0051 9.39216 24.9709C9.28971 24.9367 9.20514 24.8634 9.15705 24.7673C9.13146 24.718 9.11691 24.6638 9.11441 24.6085V24.5899C9.11295 24.4914 9.12188 24.3929 9.14106 24.2962C9.17998 24.104 9.24264 23.9173 9.32762 23.7404C9.40839 23.5613 9.50752 23.3911 9.62344 23.2322C9.66525 23.1756 9.71065 23.1217 9.75936 23.0708L9.82065 23.0046C9.89431 22.9375 9.9917 22.9021 10.0916 22.9061C10.1914 22.91 10.2856 22.9531 10.3537 23.0258C10.3874 23.0649 10.412 23.111 10.4256 23.1608Z" fill="#D78325"/>
<path d="M13.9731 17.6612C13.9775 17.7854 13.9677 17.9097 13.9438 18.0317C13.8997 18.2871 13.8236 18.5361 13.7172 18.7728C13.617 19.0089 13.4852 19.2305 13.3255 19.4318C13.2483 19.5309 13.1588 19.6199 13.059 19.6965C12.9755 19.7588 12.8706 19.7857 12.7671 19.7713C12.6637 19.7569 12.5703 19.7024 12.5073 19.6197C12.4615 19.558 12.4346 19.4845 12.43 19.408C12.4276 19.2844 12.4392 19.161 12.4647 19.0401C12.5135 18.7862 12.5978 18.5403 12.7152 18.3096C12.8273 18.0766 12.9688 17.8587 13.1362 17.6612C13.2152 17.5637 13.3046 17.475 13.4028 17.3965C13.4404 17.368 13.4834 17.3472 13.5292 17.3354C13.5751 17.3236 13.6228 17.3209 13.6697 17.3275C13.7165 17.3342 13.7616 17.35 13.8023 17.3741C13.8429 17.3982 13.8783 17.4301 13.9065 17.468C13.948 17.5241 13.9712 17.5915 13.9731 17.6612Z" fill="#D78325"/>
<path d="M5.22091 25.106C5.22091 25.106 5.22091 25.1378 5.22091 25.1881C5.22091 25.2384 5.22091 25.2992 5.18893 25.3733C5.15195 25.5392 5.09279 25.6994 5.01304 25.8497C4.93642 25.9996 4.8386 26.1377 4.72255 26.26C4.66158 26.3237 4.59364 26.3805 4.52 26.4294H4.50135C4.40606 26.4879 4.29142 26.5068 4.1822 26.482C4.07299 26.4572 3.97797 26.3908 3.9177 26.297C3.89487 26.2629 3.87777 26.2254 3.86706 26.1859C3.84463 26.0878 3.83833 25.9868 3.8484 25.8868C3.86816 25.679 3.93464 25.4782 4.04295 25.2992C4.148 25.1188 4.29066 24.9627 4.46137 24.8414C4.52004 24.7995 4.58249 24.7632 4.64792 24.7329L4.72788 24.7064C4.82752 24.6784 4.93424 24.6905 5.02499 24.7401C5.11573 24.7896 5.18323 24.8725 5.21292 24.9711C5.22289 25.0153 5.22559 25.0609 5.22091 25.106Z" fill="#D78325"/>
<path d="M9.89261 29.0127C9.89405 29.0409 9.89405 29.0692 9.89261 29.0974C9.87662 29.1556 9.89261 29.1927 9.87395 29.2615C9.8553 29.3303 9.85263 29.3991 9.8393 29.4705C9.82742 29.5446 9.81141 29.6179 9.79133 29.6902C9.75938 29.8289 9.71478 29.9645 9.65808 30.0952C9.63409 30.1534 9.60744 30.2063 9.58879 30.246C9.57871 30.268 9.56713 30.2892 9.55414 30.3095L9.5115 30.3784C9.45353 30.4674 9.36272 30.5302 9.25858 30.5535C9.15444 30.5768 9.04526 30.5585 8.9545 30.5027C8.92524 30.4819 8.89762 30.4589 8.87188 30.4339C8.79799 30.3429 8.74439 30.2374 8.71464 30.1243C8.64134 29.8835 8.64134 29.6266 8.71464 29.3859C8.7885 29.1451 8.92995 28.9303 9.1224 28.7665C9.18562 28.7097 9.2576 28.6632 9.33561 28.6289C9.36173 28.6186 9.38842 28.6098 9.41556 28.6024C9.46509 28.5898 9.51666 28.587 9.56728 28.5943C9.61789 28.6016 9.66655 28.6188 9.71043 28.6449C9.75431 28.671 9.79254 28.7054 9.82289 28.7463C9.85325 28.7872 9.87513 28.8337 9.88728 28.883C9.89563 28.9257 9.89743 28.9694 9.89261 29.0127Z" fill="#D78325"/>
<path d="M29.4756 63.546C29.4723 63.5816 29.467 63.617 29.4596 63.6519C29.4386 63.743 29.4082 63.8317 29.369 63.9166C29.2557 64.1752 29.0959 64.4111 28.8973 64.6126C28.7017 64.8148 28.4693 64.9783 28.2123 65.0943C28.0924 65.1498 27.9649 65.1873 27.8339 65.2055C27.7827 65.211 27.731 65.2063 27.6817 65.1918C27.6324 65.1773 27.5864 65.1533 27.5465 65.121C27.5066 65.0888 27.4735 65.049 27.4492 65.004C27.4249 64.959 27.4098 64.9096 27.4048 64.8588C27.3971 64.7838 27.412 64.7083 27.4475 64.6418C27.5029 64.5409 27.5662 64.4444 27.6367 64.3533C27.7812 64.1702 27.9398 63.9985 28.1111 63.8398C28.2781 63.6778 28.4562 63.5275 28.6441 63.3899C28.7267 63.3264 28.7933 63.292 28.8519 63.2523L28.9426 63.1993C28.9845 63.1774 29.0304 63.164 29.0776 63.1598C29.1248 63.1557 29.1723 63.1609 29.2175 63.1752C29.2626 63.1895 29.3044 63.2125 29.3405 63.243C29.3766 63.2735 29.4062 63.3109 29.4276 63.3528C29.4627 63.411 29.4794 63.4783 29.4756 63.546Z" fill="#D78325"/>
<path d="M30.2618 57.9301C30.2618 57.9301 30.2618 57.9671 30.2618 58.0306C30.2486 58.1211 30.2253 58.2099 30.1925 58.2953C30.101 58.5457 29.9637 58.7772 29.7875 58.9781C29.6128 59.1806 29.4012 59.3485 29.1638 59.4731C29.0524 59.5315 28.933 59.5734 28.8094 59.5974C28.7581 59.6057 28.7057 59.6039 28.6551 59.592C28.6045 59.5801 28.5568 59.5584 28.5147 59.5282C28.4726 59.4979 28.4369 59.4597 28.4098 59.4157C28.3826 59.3718 28.3644 59.3229 28.3563 59.2719C28.3453 59.2031 28.3536 59.1326 28.3803 59.0681V59.0522C28.4237 58.9515 28.4763 58.8549 28.5375 58.7638C28.6598 58.5753 28.799 58.3981 28.9533 58.2344C29.1061 58.0706 29.2718 57.9193 29.449 57.7818C29.5263 57.7183 29.5876 57.6839 29.6409 57.6442L29.7288 57.5913C29.7706 57.5684 29.8166 57.554 29.864 57.5488C29.9114 57.5436 29.9594 57.5478 30.0052 57.5611C30.051 57.5743 30.0938 57.5965 30.1309 57.6262C30.1681 57.6559 30.199 57.6926 30.2219 57.7342C30.2538 57.7943 30.2677 57.8623 30.2618 57.9301Z" fill="#D78325"/>
<path d="M25.8513 61.0159C25.8513 61.0159 25.8513 61.0636 25.8327 61.143C25.8042 61.2651 25.7632 61.3839 25.7101 61.4976C25.6368 61.6562 25.5476 61.8069 25.4436 61.9476C25.3291 62.1074 25.1978 62.2547 25.0518 62.3869C24.8934 62.5182 24.7209 62.6319 24.5375 62.7257C24.3804 62.8057 24.2151 62.8687 24.0444 62.9136C23.9233 62.9454 23.7991 62.9649 23.674 62.9718C23.5834 62.9718 23.5301 62.9718 23.5301 62.9718C23.433 62.9663 23.342 62.9229 23.277 62.851C23.2121 62.779 23.1785 62.6845 23.1836 62.588C23.1887 62.495 23.2286 62.4072 23.2955 62.3419L23.3275 62.3128C23.3562 62.2855 23.3865 62.2599 23.4181 62.236L23.6527 62.0561C23.8445 61.9132 24.0871 61.7279 24.3269 61.54L24.6734 61.2541L24.9799 60.9895C25.0731 60.9048 25.1371 60.8598 25.2037 60.7963L25.3023 60.7089C25.3557 60.669 25.4197 60.6453 25.4864 60.6409C25.5531 60.6365 25.6197 60.6515 25.678 60.6841C25.7362 60.7166 25.7837 60.7654 25.8145 60.8243C25.8453 60.8833 25.8581 60.9499 25.8513 61.0159Z" fill="#D78325"/>
<path d="M24.2282 66.2564C24.2152 66.2873 24.2 66.3174 24.1829 66.3463C24.138 66.4261 24.0844 66.5006 24.023 66.5687C23.8476 66.7714 23.6351 66.9394 23.3967 67.0636C23.1594 67.1899 22.8996 67.269 22.6318 67.2965C22.5057 67.3115 22.3781 67.3071 22.2534 67.2833C22.1517 67.2599 22.0635 67.1975 22.008 67.1097C21.9526 67.0219 21.9344 66.9159 21.9576 66.8148C21.9729 66.7461 22.0071 66.6829 22.0562 66.6322C22.1391 66.5546 22.2282 66.4838 22.3227 66.4205C22.5038 66.2941 22.6955 66.1835 22.8957 66.0896C23.0963 65.9933 23.3039 65.9119 23.5166 65.8461C23.6099 65.817 23.6819 65.8038 23.7458 65.7879C23.7783 65.7792 23.8112 65.7721 23.8444 65.7667C23.9381 65.7551 24.0326 65.7797 24.1085 65.8354C24.1844 65.891 24.2358 65.9735 24.2522 66.0658C24.2606 66.1303 24.2523 66.1959 24.2282 66.2564Z" fill="#D78325"/>
<path d="M34.5684 57.3291L34.6031 57.435C34.6286 57.5399 34.642 57.6473 34.6431 57.7553C34.6526 58.077 34.5907 58.3968 34.4618 58.6922C34.3356 58.9894 34.1434 59.2545 33.8995 59.4676C33.7894 59.5672 33.6633 59.6477 33.5264 59.7058C33.4613 59.7306 33.3907 59.7372 33.3221 59.7249C33.2535 59.7126 33.1897 59.6818 33.1374 59.636C33.0852 59.5902 33.0467 59.531 33.026 59.4649C33.0053 59.3988 33.0032 59.3284 33.02 59.2612V59.2294C33.02 59.2294 33.02 59.1897 33.052 59.1315C33.084 59.0733 33.1027 58.9886 33.1426 58.8933C33.2226 58.7081 33.3265 58.4725 33.4385 58.2422C33.4918 58.1258 33.5477 58.012 33.601 57.9008L33.7529 57.5938C33.8009 57.4959 33.8409 57.4403 33.8729 57.3688C33.9048 57.2974 33.9262 57.2683 33.9262 57.2683C33.9757 57.189 34.0549 57.1325 34.1463 57.1111C34.2377 57.0898 34.334 57.1054 34.4139 57.1545C34.4841 57.1933 34.5387 57.255 34.5684 57.3291Z" fill="#D78325"/>
<path d="M35.0854 13.2041L35.4825 13.5985C35.733 13.8472 36.1008 14.2072 36.5139 14.6571C36.7271 14.8768 36.9483 15.1203 37.1828 15.3823C37.4174 15.6443 37.6572 15.9249 37.9104 16.2107C38.1636 16.4965 38.4114 16.8062 38.6566 17.1238C38.9018 17.4414 39.1577 17.7616 39.4055 18.0845C39.6534 18.4074 39.8879 18.7462 40.1091 19.0823C40.3303 19.4184 40.5462 19.7519 40.7487 20.0775C40.9513 20.403 41.1298 20.7285 41.2817 21.0382C41.4336 21.3479 41.5962 21.6443 41.7188 21.9275C41.8414 22.2107 41.956 22.4568 42.0466 22.6977C42.1372 22.9385 42.2145 23.1317 42.2678 23.3037C42.3771 23.6452 42.4304 23.8331 42.4304 23.8331C42.4377 23.8646 42.4323 23.8978 42.4154 23.9254C42.3984 23.9531 42.3713 23.9731 42.3398 23.9813C42.3144 23.9885 42.2873 23.9873 42.2628 23.9777C42.2382 23.9682 42.2175 23.9508 42.2038 23.9284C42.2038 23.9284 42.0946 23.7537 41.9373 23.444C41.8521 23.2879 41.7508 23.0999 41.6309 22.8856C41.5109 22.6712 41.3857 22.4251 41.2418 22.1604C41.0978 21.8957 40.9459 21.6072 40.7807 21.3029C40.6155 20.9985 40.4396 20.6809 40.2477 20.3501C40.0558 20.0192 39.8692 19.6858 39.664 19.347C39.4588 19.0082 39.2456 18.6668 39.0351 18.3227C38.8245 17.9787 38.5953 17.6478 38.3635 17.3249C38.1316 17.0021 37.8971 16.6897 37.6706 16.3854C37.444 16.081 37.2122 15.7978 36.983 15.5385C36.7538 15.2791 36.5406 15.025 36.3354 14.8027C36.1301 14.5804 35.9383 14.3792 35.765 14.2045C35.5918 14.0299 35.4452 13.8843 35.32 13.7625L34.9122 13.3788C34.8999 13.3678 34.89 13.3545 34.8831 13.3397C34.8761 13.3249 34.8722 13.3088 34.8717 13.2924C34.8711 13.2761 34.8739 13.2597 34.8798 13.2445C34.8857 13.2292 34.8947 13.2153 34.9062 13.2035C34.9176 13.1917 34.9314 13.1824 34.9466 13.1761C34.9618 13.1697 34.9781 13.1664 34.9946 13.1665C35.0111 13.1666 35.0274 13.1699 35.0425 13.1764C35.0577 13.1828 35.0714 13.1923 35.0828 13.2041H35.0854Z" fill="#D78325"/>
<path d="M35.5494 16.081L35.7279 16.2822L36.2076 16.8115L37.6814 18.4207C37.9479 18.7171 38.2144 19.0162 38.4303 19.3126C38.6382 19.5811 38.8304 19.8612 39.0059 20.1516C39.1815 20.4365 39.3219 20.7413 39.4244 21.0594C39.4288 21.0756 39.43 21.0924 39.4278 21.1091C39.4256 21.1257 39.4202 21.1417 39.4118 21.1562C39.4033 21.1707 39.3921 21.1834 39.3787 21.1936C39.3653 21.2038 39.35 21.2113 39.3337 21.2156C39.3142 21.2219 39.2933 21.2231 39.2732 21.2189C39.2531 21.2147 39.2345 21.2053 39.2191 21.1917C39.1485 21.1325 39.0817 21.0689 39.0193 21.0012C38.8556 20.8328 38.7009 20.6561 38.5555 20.4719C38.3743 20.2416 38.1798 19.961 37.9719 19.6567C37.868 19.5085 37.764 19.3497 37.6601 19.1882L37.3349 18.7012C37.1191 18.3757 36.8952 18.0528 36.6713 17.759C36.4475 17.4652 36.2289 17.2032 36.0397 16.965C35.6533 16.523 35.3708 16.2451 35.3708 16.2451C35.3478 16.2223 35.335 16.1914 35.335 16.1591C35.335 16.1269 35.3478 16.0959 35.3708 16.0731C35.3941 16.0509 35.4251 16.0386 35.4574 16.0386C35.4897 16.0386 35.5207 16.0509 35.544 16.0731L35.5494 16.081Z" fill="#D78325"/>
<path d="M19.1538 3.65235C19.6575 4.64485 20.441 5.62676 21.1126 6.51868C22.5491 8.42956 24.6758 9.75025 26.9358 10.5548C29.1958 11.3594 31.597 11.6876 33.9903 11.8993C37.9052 12.246 41.9855 12.2699 45.5913 10.7083C44.0482 9.9011 43.0222 8.40045 41.9108 7.06389C39.1525 3.74234 35.3974 1.11686 31.1466 0.264633C26.8958 -0.587589 22.1573 0.542532 19.1538 3.64441" fill="#80B133"/>
<path d="M21.2619 3.62325H22.2214C22.5252 3.62325 22.8983 3.62325 23.3247 3.65501L24.007 3.68148L24.7558 3.7397C25.0224 3.76352 25.2889 3.77676 25.574 3.80852L26.4428 3.91438C26.744 3.9435 27.0478 3.99114 27.3596 4.04142C27.6714 4.09171 27.9939 4.13406 28.3164 4.18699C28.9613 4.31138 29.6303 4.42519 30.3019 4.58928C30.9735 4.75337 31.653 4.92276 32.3326 5.09744C33.0122 5.27212 33.6785 5.50238 34.3261 5.74322C34.9737 5.98407 35.608 6.22756 36.2183 6.47635C36.5221 6.60603 36.8126 6.74101 37.1031 6.87599C37.3936 7.01097 37.6734 7.14066 37.9399 7.27564L38.7208 7.68057C38.9873 7.81291 39.2059 7.95847 39.4351 8.09081C39.6642 8.22314 39.8801 8.35547 40.0827 8.47722L40.6503 8.8504C41.0074 9.08859 41.3139 9.29768 41.5564 9.48824C42.0468 9.85877 42.3187 10.0758 42.3187 10.0758C42.3313 10.0858 42.3419 10.0983 42.3497 10.1124C42.3575 10.1265 42.3624 10.142 42.3641 10.1579C42.3659 10.1739 42.3644 10.1901 42.3598 10.2056C42.3552 10.221 42.3475 10.2354 42.3373 10.2478C42.3187 10.2701 42.2929 10.2855 42.2643 10.2912C42.2357 10.297 42.206 10.2929 42.1801 10.2796C42.1801 10.2796 41.8763 10.1102 41.3566 9.7979C41.0901 9.6391 40.7756 9.45648 40.4078 9.25269L39.8242 8.91656L39.1765 8.56985L38.465 8.18873L37.6921 7.79967C37.4256 7.65675 37.1591 7.53501 36.8713 7.39474C36.5834 7.25446 36.3036 7.13007 36.0078 6.99244C35.4081 6.74366 34.7978 6.46311 34.1582 6.22756C33.5186 5.99201 32.8683 5.75646 32.2154 5.52355C31.5624 5.29065 30.8828 5.10273 30.2299 4.93864C29.577 4.77455 28.9107 4.62369 28.2764 4.48342C27.6421 4.34314 27.0158 4.23992 26.4109 4.17376L25.5474 4.0626C25.2809 4.03084 24.9957 4.01231 24.7478 3.98849L23.9856 3.92497L23.3114 3.89321L22.7197 3.8641C22.5385 3.8641 22.3679 3.8641 22.216 3.8641H21.2566C21.2238 3.86411 21.1924 3.85136 21.169 3.8286C21.1455 3.80585 21.132 3.77488 21.1313 3.74235C21.1313 3.71006 21.1443 3.6791 21.1673 3.65626C21.1902 3.63343 21.2214 3.62061 21.2539 3.62061L21.2619 3.62325Z" fill="#006D58"/>
<path d="M70.091 42.7912C65.7043 36.8362 61.1497 24.5293 54.3805 21.6312C51.265 20.3078 47.5499 20.8372 44.605 22.5125C41.6601 24.1878 39.4188 26.8795 37.7211 29.7961C33.2598 37.4555 32.3643 46.8088 34.3551 55.4687C34.3551 55.4687 37.9077 64.9966 55.1986 60.7382C72.4896 56.4797 70.091 42.7912 70.091 42.7912Z" fill="#E9B52F"/>
<path d="M67.1864 44.1117C66.1523 46.0729 67.4342 49.63 68.7108 51.4456C69.9873 53.2612 72.0661 54.4151 74.2408 54.8862C76.4155 55.3573 78.6861 55.2356 80.8821 54.8545C84.1202 54.2934 87.5901 52.933 88.9999 49.982C84.9224 50.2784 80.3944 49.8258 77.5401 46.9224C76.3329 45.6944 75.512 44.1038 74.1582 43.0372C74.1582 43.0372 72.3299 41.4095 70.2272 41.9203C69.5788 42.0115 68.9627 42.2588 68.4326 42.6408C67.9026 43.0228 67.4747 43.5278 67.1864 44.1117Z" fill="#F0CA43"/>
<path d="M34.3418 55.4712C34.7643 57.3156 35.3183 59.1278 35.9995 60.8942C37.5052 64.7927 39.6053 68.506 42.5022 71.5337C47.907 77.1791 56.2034 80.1036 63.9028 78.6135C71.6021 77.1235 78.3528 71.0547 80.1144 63.4667C81.876 55.8788 78.2995 47.2348 71.4236 43.4845L70.9439 43.1722C69.1876 42.1479 70.5681 43.7015 69.4194 42.1135L65.7283 43.2463L46.5611 55.7226C46.5611 55.7226 45.4765 52.3693 39.9837 53.6053C35.7569 54.5475 34.3418 55.4712 34.3418 55.4712Z" fill="#FFA100"/>
<path d="M69.6916 42.0818C65.161 41.1687 59.5644 42.8599 55.796 45.5224C52.0276 48.1849 49.1333 51.9167 46.5615 55.7438C48.447 54.4332 50.6388 53.6235 52.9283 53.3918C55.2179 53.1601 57.5291 53.514 59.642 54.4199C61.755 55.3258 63.5993 56.7536 64.9996 58.5674C66.4 60.3811 67.3097 62.5206 67.6422 64.7821C75.0271 51.2392 71.0109 44.4796 69.6916 42.0765" fill="#F0CA43"/>
<path d="M44.3229 53.7456C43.582 53.3486 42.6172 53.6344 42.0096 54.2114C41.4019 54.7884 41.0795 55.5956 40.8156 56.387C39.7418 59.7024 39.4149 63.2118 39.8579 66.6666C40.3009 70.1215 41.5031 73.4374 43.3794 76.3798L37.9507 73.0688C35.8639 71.7958 33.7532 70.5042 32.0182 68.7865C30.2833 67.0688 28.9321 64.8536 28.7215 62.4346C28.6378 61.7347 28.7237 61.0251 28.9721 60.3649C29.2187 59.8404 29.55 59.3594 29.9528 58.941C33.4654 55.0001 41.1781 51.5833 44.3229 53.7509" fill="#F0CA43"/>
<path d="M43.3579 53.4438C43.4187 53.434 43.4802 53.4295 43.5418 53.4306C43.8131 53.4288 44.083 53.4699 44.3413 53.5523C44.4506 53.5894 44.5599 53.6264 44.6798 53.6767C44.9217 53.7785 45.1544 53.9007 45.3754 54.0419C45.4873 54.1187 45.5966 54.1954 45.7005 54.2801C45.8012 54.3622 45.8964 54.4506 45.9857 54.5448C46.0707 54.6324 46.1491 54.7262 46.2202 54.8253C46.2837 54.9157 46.3407 55.0103 46.3908 55.1085C46.463 55.2542 46.5141 55.4092 46.5427 55.5691C46.556 55.6855 46.5613 55.749 46.5613 55.749L46.492 55.5849C46.4707 55.532 46.4361 55.4711 46.4014 55.4023C46.3668 55.3335 46.3161 55.262 46.2575 55.1879C46.1978 55.1052 46.1338 55.0257 46.0656 54.9497C45.991 54.873 45.9084 54.7909 45.8204 54.7142C45.7309 54.6311 45.6366 54.5534 45.5379 54.4813C45.4386 54.4038 45.3354 54.3314 45.2288 54.2643C45.0198 54.1276 44.8036 54.0022 44.5812 53.8884C44.3872 53.7875 44.1869 53.6991 43.9815 53.6238C43.7801 53.5436 43.5712 53.4833 43.3579 53.4438Z" fill="#EBBC41"/>
<path d="M42.5425 67.0848V67.1986C42.5425 67.2753 42.5585 67.3494 42.5745 67.4632C42.6507 67.9917 42.8457 68.4965 43.1448 68.9401C43.2034 69.0327 43.2567 69.1095 43.2967 69.1624L43.358 69.2497C43.3735 69.2697 43.3847 69.2926 43.3909 69.3171C43.397 69.3416 43.398 69.367 43.3937 69.3919C43.3895 69.4168 43.3801 69.4405 43.3661 69.4616C43.3522 69.4827 43.334 69.5006 43.3127 69.5144C43.2837 69.5331 43.25 69.543 43.2154 69.543C43.1809 69.543 43.1471 69.5331 43.1182 69.5144C43.1182 69.5144 43.0782 69.4932 43.0115 69.4509C42.9221 69.3915 42.8382 69.3242 42.761 69.2497C42.6508 69.1432 42.5525 69.0252 42.4679 68.8977C42.273 68.6035 42.1498 68.2682 42.1081 67.9185C42.0909 67.7672 42.0909 67.6145 42.1081 67.4632C42.1165 67.3556 42.1362 67.2492 42.1667 67.1456L42.2014 67.0398C42.2083 67.0186 42.2194 66.9989 42.2341 66.9821C42.2487 66.9652 42.2667 66.9514 42.2868 66.9416C42.3069 66.9317 42.3288 66.9259 42.3512 66.9246C42.3736 66.9233 42.3961 66.9265 42.4172 66.9339C42.4511 66.9434 42.4812 66.963 42.5035 66.9899C42.5259 67.0169 42.5395 67.05 42.5425 67.0848Z" fill="#D78325"/>
<path d="M44.2829 68.1936C44.2829 68.1936 44.3709 68.3365 44.4828 68.535C44.5947 68.7335 44.7493 69.0088 44.8959 69.2761C45.0425 69.5434 45.2077 69.8054 45.325 70.0066C45.4422 70.2077 45.5142 70.348 45.5142 70.348C45.5365 70.3918 45.5403 70.4427 45.5248 70.4894C45.5093 70.536 45.4757 70.5746 45.4316 70.5968C45.4013 70.6118 45.3676 70.6185 45.3338 70.6162C45.3001 70.6138 45.2676 70.6026 45.2397 70.5835C45.1272 70.4989 45.0228 70.4041 44.9279 70.3003C44.8316 70.1971 44.7426 70.0874 44.6614 69.9722C44.5646 69.8398 44.4756 69.7019 44.3949 69.5593C44.2461 69.2906 44.1298 69.0055 44.0484 68.7097C44.0104 68.5766 43.9854 68.4401 43.9738 68.3021C43.9722 68.2649 43.983 68.2281 44.0046 68.1975C44.0262 68.167 44.0573 68.1444 44.0932 68.1332C44.129 68.1221 44.1676 68.123 44.2029 68.1358C44.2381 68.1486 44.2682 68.1727 44.2883 68.2042L44.2829 68.1936Z" fill="#D78325"/>
<path d="M46.9054 70.9014L47.0653 71.1872C47.1586 71.354 47.2892 71.5657 47.4304 71.7695C47.5717 71.9733 47.7289 72.1612 47.8541 72.2988L48.062 72.5449C48.0781 72.5639 48.0903 72.5859 48.0976 72.6096C48.105 72.6333 48.1076 72.6582 48.1051 72.6829C48.1026 72.7076 48.0952 72.7315 48.0832 72.7533C48.0712 72.775 48.0549 72.7942 48.0354 72.8096C48.011 72.83 47.9817 72.8437 47.9504 72.8493C47.919 72.8548 47.8868 72.8521 47.8568 72.8414C47.74 72.7976 47.629 72.7399 47.5263 72.6693C47.4208 72.598 47.3225 72.5164 47.2332 72.4258C47.1341 72.3222 47.0449 72.2097 46.9667 72.0897C46.8858 71.9679 46.8154 71.8395 46.7561 71.706C46.7065 71.5887 46.6673 71.4674 46.6389 71.3434C46.6178 71.2566 46.6053 71.1679 46.6016 71.0787C46.6016 71.0178 46.6016 70.9808 46.6016 70.9808C46.6021 70.9434 46.6151 70.9074 46.6385 70.8781C46.6618 70.8488 46.6943 70.8281 46.7307 70.819C46.7672 70.81 46.8057 70.8131 46.8401 70.828C46.8746 70.8429 46.9032 70.8687 46.9214 70.9014H46.9054Z" fill="#D78325"/>
<path d="M77.8839 53.7694L77.9718 53.8302C78.0505 53.8879 78.1244 53.9516 78.193 54.0208C78.2888 54.116 78.3779 54.2177 78.4595 54.3252C78.557 54.4507 78.646 54.5824 78.726 54.7195C78.7997 54.8576 78.863 55.0009 78.9153 55.1483C78.9599 55.2771 78.9955 55.4089 79.0219 55.5426C79.0471 55.6734 79.0587 55.8065 79.0565 55.9396C79.0555 55.964 79.0496 55.9879 79.0393 56.01C79.029 56.032 79.0143 56.0519 78.9963 56.0684C78.9782 56.0848 78.957 56.0976 78.934 56.1059C78.9109 56.1143 78.8865 56.118 78.862 56.117C78.829 56.1149 78.7971 56.1043 78.7695 56.0862C78.7419 56.0681 78.7196 56.0431 78.7047 56.0137C78.7047 56.0137 78.6381 55.8788 78.5501 55.6856C78.4622 55.4923 78.3423 55.2356 78.2117 54.9868C78.0811 54.7381 77.9452 54.4919 77.8332 54.3066L77.6467 53.9891C77.6353 53.97 77.6278 53.9489 77.6247 53.9269C77.6216 53.9049 77.6229 53.8826 77.6286 53.8611C77.6343 53.8397 77.6443 53.8196 77.6579 53.802C77.6715 53.7844 77.6886 53.7697 77.708 53.7588C77.7351 53.7419 77.7665 53.7329 77.7986 53.7329C77.8306 53.7329 77.862 53.7419 77.8892 53.7588L77.8839 53.7694Z" fill="#D78325"/>
<path d="M78.2198 57.4323C78.28 57.5209 78.3334 57.6138 78.3797 57.7102C78.4836 57.9154 78.5727 58.1277 78.6462 58.3454C78.718 58.5624 78.7732 58.7845 78.8114 59.0097C78.8303 59.1146 78.841 59.2208 78.8434 59.3273C78.8434 59.3772 78.8235 59.425 78.788 59.4602C78.7525 59.4954 78.7044 59.5152 78.6542 59.5152C78.6239 59.5152 78.5941 59.508 78.5672 59.4942C78.5403 59.4804 78.5171 59.4604 78.4996 59.4358C78.441 59.3468 78.3885 59.2539 78.3424 59.1579C78.2425 58.9514 78.1596 58.7372 78.0945 58.5174C78.0258 58.2994 77.9741 58.0764 77.94 57.8505C77.9228 57.7454 77.913 57.6393 77.9106 57.5329C77.9104 57.4963 77.922 57.4606 77.9436 57.431C77.9652 57.4014 77.9957 57.3794 78.0308 57.3681C78.0658 57.3569 78.1036 57.3571 78.1385 57.3686C78.1735 57.3802 78.2038 57.4025 78.2251 57.4323H78.2198Z" fill="#D78325"/>
<path d="M78.0866 60.9948L78.1612 61.0689C78.2271 61.1422 78.2876 61.22 78.3425 61.3018C78.4189 61.417 78.4858 61.5383 78.5423 61.6644C78.6049 61.8101 78.6557 61.9606 78.6942 62.1143C78.7304 62.27 78.7527 62.4285 78.7609 62.588C78.7695 62.7259 78.7642 62.8642 78.7449 63.0009C78.7303 63.1357 78.6989 63.2681 78.6516 63.3953C78.6366 63.4342 78.6088 63.4669 78.5727 63.4882C78.5366 63.5095 78.4944 63.5181 78.4528 63.5126C78.4112 63.5071 78.3727 63.4878 78.3435 63.4579C78.3143 63.4279 78.2961 63.3891 78.2918 63.3476C78.2918 63.3476 78.2758 63.2021 78.2518 62.993C78.2279 62.7839 78.1879 62.5113 78.1293 62.244C78.0749 61.996 78.0063 61.7512 77.9241 61.5109L77.8041 61.1668C77.7896 61.1247 77.7924 61.0786 77.8118 61.0384C77.8313 60.9983 77.8658 60.9674 77.9081 60.9524C77.9389 60.9425 77.9718 60.9412 78.0033 60.9486C78.0348 60.9561 78.0637 60.9721 78.0866 60.9948Z" fill="#D78325"/>
<path d="M77.287 64.6207L77.351 64.7345C77.4074 64.8443 77.4547 64.9585 77.4922 65.0759C77.5447 65.2417 77.5822 65.4117 77.6042 65.5841C77.623 65.7822 77.623 65.9815 77.6042 66.1796C77.5861 66.3788 77.5477 66.5756 77.4896 66.7672C77.4401 66.9334 77.3731 67.0939 77.2897 67.2462C77.2329 67.3553 77.1659 67.459 77.0898 67.5559L77.0019 67.6644C76.9742 67.6962 76.9363 67.7176 76.8945 67.7249C76.8528 67.7323 76.8098 67.725 76.7728 67.7045C76.7359 67.6839 76.7071 67.6513 76.6916 67.6122C76.676 67.5731 76.6745 67.5298 76.6874 67.4897V67.4765L76.7274 67.36C76.7567 67.2859 76.7913 67.18 76.8313 67.0556C76.9249 66.7527 76.9891 66.4417 77.0232 66.1267C77.0554 65.8099 77.0554 65.4907 77.0232 65.1739C77.0232 65.0389 76.9992 64.9436 76.9832 64.8589C76.9672 64.7742 76.9619 64.7292 76.9619 64.7292C76.9537 64.6896 76.9602 64.6484 76.9803 64.6132C77.0004 64.578 77.0327 64.5513 77.0712 64.538C77.1097 64.5248 77.1517 64.5258 77.1895 64.541C77.2272 64.5563 77.2581 64.5846 77.2764 64.6207H77.287Z" fill="#D78325"/>
<path d="M54.831 57.4138H54.9029C54.9726 57.4086 55.0427 57.4139 55.1108 57.4297C55.203 57.4476 55.2925 57.477 55.3773 57.517C55.4774 57.5638 55.5714 57.6224 55.6571 57.6917C55.7425 57.7604 55.8179 57.8406 55.881 57.9299C55.9378 58.0118 55.9835 58.1008 56.0169 58.1946C56.0531 58.2837 56.0712 58.379 56.0702 58.4751C56.0628 58.553 56.026 58.6253 55.9672 58.6773C55.9084 58.7293 55.8319 58.7573 55.7531 58.7557C55.7094 58.7548 55.6665 58.744 55.6278 58.7239H55.5985C55.5347 58.6901 55.4733 58.6521 55.4146 58.6101C55.3038 58.5281 55.1979 58.4398 55.0975 58.3454L54.9429 58.1999C54.8923 58.1522 54.847 58.1019 54.807 58.0569C54.767 58.012 54.743 57.9775 54.7084 57.9431L54.6604 57.8876C54.613 57.826 54.5921 57.7484 54.602 57.6715C54.612 57.5947 54.6522 57.5249 54.7137 57.4773C54.7481 57.4485 54.788 57.4269 54.831 57.4138Z" fill="#D78325"/>
<path d="M56.1396 60.5211C56.1307 60.6061 56.111 60.6897 56.081 60.7698C56.022 60.9351 55.9395 61.0911 55.8358 61.233C55.782 61.3073 55.7223 61.3772 55.6572 61.4421C55.602 61.5032 55.5404 61.5582 55.4733 61.6062C55.4052 61.6575 55.3309 61.7002 55.2521 61.7332C55.1733 61.7635 55.0856 61.7616 55.0082 61.7279C54.9308 61.6942 54.87 61.6314 54.839 61.5533C54.8211 61.5079 54.8147 61.4588 54.8204 61.4103C54.8297 61.3259 54.8503 61.2432 54.8817 61.1642C54.9101 61.0874 54.9449 61.013 54.9856 60.9419C55.0319 60.8626 55.0835 60.7866 55.1402 60.7143C55.2491 60.5768 55.3764 60.4548 55.5186 60.3517C55.5878 60.3005 55.663 60.2578 55.7425 60.2246C55.815 60.1977 55.8952 60.2001 55.966 60.2313C56.0367 60.2625 56.0924 60.3199 56.1209 60.3914C56.1362 60.4328 56.1426 60.477 56.1396 60.5211Z" fill="#D78325"/>
<path d="M52.9148 59.3221C52.9801 59.3125 53.0466 59.3125 53.112 59.3221C53.2394 59.3412 53.3623 59.3833 53.4744 59.4465C53.5324 59.4799 53.5868 59.5189 53.637 59.563C53.6841 59.6019 53.7254 59.6474 53.7596 59.698C53.8009 59.7497 53.8333 59.8078 53.8555 59.87C53.8851 59.9585 53.8781 60.0549 53.8361 60.1383C53.7942 60.2216 53.7206 60.285 53.6317 60.3146L53.5784 60.3279C53.5139 60.3373 53.4483 60.3373 53.3838 60.3279C53.3244 60.3188 53.2662 60.3028 53.2106 60.2802C53.1477 60.2562 53.0878 60.2252 53.032 60.1876C52.9275 60.1164 52.8372 60.0267 52.7655 59.9229C52.7258 59.8697 52.6944 59.8108 52.6722 59.7483C52.6452 59.6672 52.6516 59.5788 52.6901 59.5024C52.7285 59.426 52.7959 59.3678 52.8774 59.3407L52.9148 59.3221Z" fill="#D78325"/>
<path d="M51.0971 58.843C51.0741 58.9345 51.041 59.0233 50.9985 59.1077C50.9138 59.2769 50.8072 59.4344 50.6814 59.5761C50.6148 59.6511 50.5427 59.721 50.4655 59.7852C50.3992 59.8442 50.3279 59.8973 50.2523 59.944C50.1754 59.9936 50.0932 60.0344 50.0071 60.0658C49.9679 60.0781 49.9267 60.0825 49.8857 60.0789C49.8448 60.0753 49.805 60.0637 49.7686 60.0448C49.7322 60.0259 49.6999 59.9999 49.6736 59.9686C49.6473 59.9372 49.6275 59.901 49.6154 59.862C49.6009 59.8091 49.6009 59.7534 49.6154 59.7005C49.6383 59.6086 49.6723 59.5197 49.7166 59.4359C49.7562 59.357 49.8025 59.2817 49.8552 59.2109C49.9112 59.1315 49.9805 59.0574 50.0471 58.9806C50.1787 58.8441 50.3274 58.7249 50.4895 58.626C50.5671 58.5768 50.6503 58.5368 50.7374 58.5069C50.7855 58.4918 50.8367 58.4896 50.886 58.5004C50.9352 58.5112 50.9807 58.5346 51.018 58.5684C51.0552 58.6022 51.0829 58.6451 51.0982 58.6928C51.1135 58.7405 51.1159 58.7914 51.1051 58.8404L51.0971 58.843Z" fill="#D78325"/>
<path d="M51.289 62.3311C51.3051 62.3462 51.3194 62.363 51.3316 62.3814C51.3583 62.4211 51.3876 62.4396 51.4222 62.4873C51.4569 62.5349 51.4942 62.5772 51.5288 62.6275C51.5635 62.6778 51.6008 62.7334 51.6328 62.7863C51.697 62.8887 51.7514 62.9968 51.7953 63.1092C51.8215 63.1699 51.842 63.2328 51.8566 63.2971V63.3342C51.8661 63.3749 51.8672 63.417 51.8601 63.4581C51.853 63.4993 51.8377 63.5386 51.8151 63.5738C51.7925 63.609 51.7632 63.6394 51.7287 63.6633C51.6941 63.6871 51.6552 63.7039 51.6141 63.7127C51.5797 63.7179 51.5446 63.7179 51.5102 63.7127C51.4212 63.6975 51.3361 63.6652 51.2597 63.6174C51.1811 63.5731 51.11 63.5169 51.0491 63.4506C50.9787 63.3764 50.9178 63.2937 50.8679 63.2045C50.8204 63.1141 50.7845 63.018 50.7613 62.9187C50.74 62.8321 50.7311 62.743 50.7347 62.654C50.7347 62.5885 50.7446 62.5234 50.764 62.4608C50.7706 62.4396 50.7796 62.4192 50.7906 62.3999C50.8077 62.3644 50.8317 62.3326 50.8613 62.3064C50.8908 62.2803 50.9253 62.2602 50.9628 62.2474C51.0003 62.2345 51.0399 62.2293 51.0794 62.2318C51.119 62.2344 51.1576 62.2447 51.193 62.2623C51.2298 62.2778 51.2626 62.3013 51.289 62.3311Z" fill="#D78325"/>
<path d="M59.4123 61.6671C59.3647 61.7597 59.3094 61.8483 59.2471 61.9318C59.1195 62.1029 58.9777 62.2631 58.8233 62.4108C58.738 62.4876 58.6554 62.567 58.5568 62.6332C58.4798 62.6964 58.3988 62.7547 58.3143 62.8078C58.2302 62.8645 58.141 62.9133 58.0478 62.9534C57.9953 62.974 57.938 62.9796 57.8825 62.9695C57.827 62.9594 57.7755 62.934 57.7338 62.8962C57.6921 62.8584 57.662 62.8097 57.6468 62.7557C57.6317 62.7017 57.6321 62.6446 57.648 62.5908C57.6813 62.4874 57.7279 62.3886 57.7866 62.297C57.8415 62.204 57.9039 62.1154 57.9732 62.0324C58.0555 61.938 58.1446 61.8495 58.2397 61.7677C58.3308 61.6858 58.4279 61.6106 58.5302 61.5427C58.6148 61.4824 58.7039 61.4284 58.7967 61.3813C58.8933 61.3327 58.9952 61.2954 59.1005 61.2701C59.1359 61.2621 59.1726 61.2613 59.2084 61.2678C59.2441 61.2743 59.2781 61.2881 59.3084 61.3082C59.3386 61.3282 59.3643 61.3542 59.384 61.3846C59.4037 61.4149 59.417 61.4489 59.423 61.4845C59.4414 61.5447 59.4376 61.6095 59.4123 61.6671Z" fill="#D78325"/>
<path d="M38.8245 32.051L38.4781 32.845C38.3608 33.1096 38.2355 33.414 38.0969 33.7713C38.0277 33.9478 37.953 34.1383 37.8731 34.343C37.8011 34.5468 37.7238 34.7612 37.6439 34.9835C37.5639 35.2058 37.476 35.4387 37.396 35.6822L37.1562 36.4365C36.9856 36.9526 36.8497 37.511 36.6845 38.0774C36.5192 38.6438 36.386 39.2472 36.266 39.856C36.1461 40.4647 36.0342 41.0893 35.9223 41.7086C35.8103 42.3279 35.733 42.9578 35.6771 43.5772C35.6211 44.1965 35.5678 44.8052 35.5252 45.3954C35.5252 45.6918 35.5012 45.983 35.4905 46.2688C35.4799 46.5546 35.4665 46.8325 35.4692 47.1025C35.4719 47.3725 35.4692 47.6318 35.4692 47.8965C35.4692 48.1612 35.4692 48.3994 35.4852 48.6349C35.4852 49.1113 35.5198 49.5454 35.5438 49.9291C35.5678 50.3129 35.5865 50.649 35.6184 50.9243L35.6957 51.7924C35.6994 51.8397 35.6841 51.8866 35.6532 51.9228C35.6222 51.959 35.5781 51.9815 35.5305 51.9856C35.4843 51.9901 35.4382 51.9766 35.4019 51.9479C35.3656 51.9193 35.3419 51.8777 35.3359 51.8321L35.2107 50.9613C35.168 50.6834 35.1307 50.3447 35.0961 49.9556C35.0748 49.7624 35.0561 49.556 35.0348 49.3363C35.0135 49.1166 35.0081 48.889 34.9948 48.6481C34.9815 48.4073 34.9628 48.1585 34.9575 47.8991C34.9522 47.6398 34.9575 47.3698 34.9575 47.1052C34.9415 46.552 34.9575 45.9724 34.9868 45.3716C35.0161 44.7708 35.0534 44.1488 35.1281 43.5189C35.2027 42.889 35.28 42.2538 35.3679 41.6186C35.4559 40.9834 35.5891 40.3535 35.733 39.7369C35.8769 39.1202 36.0262 38.5194 36.1754 37.9371C36.2554 37.646 36.346 37.3628 36.4286 37.0876C36.5112 36.8123 36.5965 36.5397 36.6951 36.2803C36.7937 36.021 36.8737 35.7669 36.9616 35.5207C37.0496 35.2746 37.1455 35.0443 37.2281 34.8194C37.3108 34.5944 37.396 34.38 37.4813 34.1762L37.7345 33.6046C37.8891 33.2446 38.0303 32.935 38.1556 32.6862L38.5447 31.8922C38.5538 31.8725 38.5667 31.8549 38.5827 31.8402C38.5986 31.8255 38.6174 31.8141 38.6378 31.8066C38.6582 31.7991 38.6799 31.7957 38.7016 31.7965C38.7234 31.7973 38.7448 31.8024 38.7645 31.8115C38.7843 31.8205 38.8021 31.8333 38.8169 31.8492C38.8317 31.865 38.8432 31.8836 38.8507 31.9039C38.8583 31.9242 38.8617 31.9457 38.8609 31.9673C38.86 31.9889 38.8549 32.0102 38.8458 32.0298L38.8245 32.051Z" fill="#F0CA43"/>
<path d="M38.5607 38.3765L38.4515 38.7814C38.3768 39.0461 38.2862 39.4034 38.1849 39.8401C38.1263 40.0597 38.073 40.3006 38.0144 40.5546C37.9558 40.8087 37.9078 41.084 37.8438 41.3486C37.7266 41.9044 37.6226 42.4999 37.532 43.0981C37.492 43.3972 37.4414 43.6936 37.4068 43.99C37.3721 44.2864 37.3348 44.5749 37.3055 44.8581C37.2762 45.1413 37.2548 45.4139 37.2309 45.6706C37.2069 45.9274 37.1882 46.1761 37.1749 46.4038C37.1509 46.8563 37.1243 47.2348 37.1163 47.4995L37.0976 47.9176C37.0922 47.9613 37.071 48.0015 37.0379 48.0306C37.0047 48.0597 36.962 48.0758 36.9177 48.0758C36.8734 48.0758 36.8307 48.0597 36.7976 48.0306C36.7644 48.0015 36.7432 47.9613 36.7378 47.9176C36.7378 47.9176 36.7378 47.7641 36.7112 47.4968C36.6845 47.2295 36.6765 46.8431 36.6872 46.3799C36.6978 45.9168 36.7032 45.3795 36.7511 44.7919C36.7991 44.2044 36.8684 43.6036 36.9617 42.9949C37.055 42.3861 37.1856 41.7801 37.3135 41.2163C37.4414 40.6526 37.5986 40.1365 37.7346 39.6971C37.8705 39.2578 38.0011 38.9031 38.0997 38.6385L38.2516 38.2468C38.2592 38.2263 38.271 38.2075 38.286 38.1916C38.3011 38.1757 38.3192 38.1629 38.3393 38.154C38.3594 38.1452 38.3811 38.1404 38.4031 38.1399C38.4251 38.1395 38.447 38.1434 38.4674 38.1515C38.4889 38.1596 38.5085 38.1719 38.5249 38.1878C38.5414 38.2037 38.5544 38.2228 38.5632 38.2439C38.5719 38.265 38.5762 38.2876 38.5758 38.3104C38.5754 38.3332 38.5702 38.3557 38.5607 38.3765Z" fill="#F0CA43"/>
<path d="M52.6806 22.478L52.8751 22.5363C53.0562 22.589 53.2341 22.6518 53.4081 22.7242C53.5254 22.7718 53.6746 22.8194 53.7999 22.883L54.245 23.0947L54.7353 23.3594C54.9006 23.4626 55.0738 23.5764 55.255 23.6955C55.6347 23.9629 55.9978 24.2528 56.3424 24.5636C56.7334 24.9088 57.1011 25.2792 57.443 25.6725C58.1724 26.5193 58.8269 27.4269 59.3992 28.3854C59.6977 28.8485 59.9642 29.362 60.2307 29.849C60.4972 30.3359 60.7424 30.8203 60.9849 31.2861C61.2274 31.7519 61.4593 32.2018 61.6805 32.6306C61.9017 33.0594 62.1202 33.4537 62.3228 33.8189C62.7359 34.5441 63.0957 35.1423 63.3702 35.5393C63.6447 35.9363 63.8019 36.1665 63.8019 36.1665C63.8266 36.2046 63.836 36.2506 63.8281 36.2953C63.8202 36.34 63.7956 36.38 63.7592 36.4074C63.7228 36.4349 63.6774 36.4476 63.6319 36.4432C63.5865 36.4388 63.5444 36.4175 63.5141 36.3836L63.3861 36.2248C63.3062 36.1189 63.1783 35.9601 63.0344 35.7669C62.8904 35.5737 62.7119 35.3222 62.5173 35.0364C62.3228 34.7506 62.1149 34.4224 61.8964 34.0598C61.462 33.332 60.9769 32.4718 60.4892 31.5402C60.2414 31.077 59.9882 30.598 59.727 30.1136C59.4658 29.6293 59.194 29.1529 58.9035 28.6659C58.3597 27.7319 57.7355 26.8464 57.038 26.0193C56.7167 25.6413 56.376 25.28 56.0172 24.9368C55.6946 24.6325 55.3538 24.3479 54.9965 24.0845C54.826 23.9681 54.666 23.8543 54.5115 23.7458L54.0557 23.4811L53.6427 23.2588C53.5147 23.1926 53.3921 23.145 53.2855 23.0947C53.075 22.9915 52.8831 22.9306 52.7525 22.8803L52.5606 22.8089C52.5201 22.7939 52.4871 22.7637 52.4688 22.7248C52.4504 22.6859 52.4481 22.6414 52.4624 22.6008C52.4767 22.5603 52.5065 22.5269 52.5453 22.5079C52.5841 22.4889 52.6288 22.4858 52.6699 22.4992L52.6806 22.478Z" fill="#F0CA43"/>
<path d="M55.9983 27.3532L56.2089 27.6178C56.3368 27.7793 56.5287 28.0069 56.7419 28.2901C56.9551 28.5733 57.2029 28.9068 57.4588 29.2694C57.7146 29.632 57.9918 30.0263 58.237 30.4233C58.4822 30.8203 58.7407 31.2173 58.9645 31.609C59.1884 32.0007 59.3856 32.358 59.5535 32.6677C59.7214 32.9773 59.8493 33.2473 59.9426 33.4325L60.0839 33.7263C60.0954 33.747 60.1027 33.7697 60.1054 33.7932C60.1082 33.8167 60.1062 33.8405 60.0996 33.8633C60.0931 33.886 60.082 33.9072 60.0672 33.9257C60.0524 33.9442 60.0341 33.9597 60.0132 33.9711C59.9712 33.9943 59.9216 33.9999 59.8754 33.9868C59.8291 33.9736 59.79 33.9428 59.7667 33.901L59.5882 33.6363L59.1298 32.9191C58.7513 32.3236 58.2503 31.5296 57.7466 30.7383L56.3581 28.5601L55.9024 27.8402L55.7292 27.5755C55.7124 27.5404 55.7084 27.5006 55.718 27.4629C55.7276 27.4253 55.7502 27.3921 55.7818 27.3692C55.8134 27.3463 55.8521 27.3351 55.8911 27.3375C55.9302 27.3399 55.9671 27.3557 55.9957 27.3823L55.9983 27.3532Z" fill="#F0CA43"/>
</svg>
