<svg width="103" height="115" viewBox="0 0 103 115" fill="none" xmlns="http://www.w3.org/2000/svg">
<path d="M2.60473 113.765H1.90636H0V99.5869H1.90636H2.60473H8.90893L8.7013 100.664H2.60473V106.09H6.87044V107.167H2.60473V112.65H8.7013L8.49368 113.746H2.60473V113.765Z" fill="#1F7240"/>
<path d="M16.2513 109.965C15.836 109.833 15.4019 109.719 14.9112 109.625C14.4204 109.53 13.7975 109.455 13.0425 109.436L11.5514 113.689H10.4189L15.3264 99.6247H18.0066L22.8952 113.689H20.1584L19.0447 110.476C17.8556 110.381 16.9308 110.211 16.2513 109.965ZM15.8738 101.345L13.4389 108.321C14.8168 108.434 15.8549 108.604 16.5721 108.888C17.1195 109.077 17.8179 109.228 18.6484 109.323L15.8738 101.345Z" fill="#1F7240"/>
<path d="M28.9728 99.5302H32.9366L33.1442 100.627H28.9728V113.727H26.3492V100.627H22.3855L22.1968 99.5302H26.3492H28.9728Z" fill="#1F7240"/>
<path d="M47.9798 113.538L47.7155 113.179C46.7151 113.595 45.3939 113.708 43.7518 113.538C42.5438 113.387 41.5623 112.971 40.7884 112.29C40.0145 111.591 39.6182 110.702 39.6182 109.606C39.6182 108.661 39.9202 107.886 40.5053 107.262C41.0904 106.638 41.8454 106.222 42.7514 106.033C42.204 105.22 41.8643 104.672 41.751 104.389C41.6189 104.105 41.5434 103.859 41.5057 103.67C41.4679 103.481 41.449 103.216 41.449 102.914C41.449 102.063 41.7888 101.307 42.4494 100.645C43.11 99.9838 43.8839 99.6625 44.8088 99.6625C45.7148 99.6814 46.4131 100.003 46.9228 100.645C47.4324 101.269 47.6966 102.044 47.7155 102.933C47.7344 103.557 47.5456 104.199 47.1115 104.842C46.6774 105.485 46.1111 105.939 45.375 106.203C46.6396 107.848 47.8476 109.398 49.0368 110.854C49.2821 110.495 49.3954 110.079 49.3765 109.625C49.5275 109.625 49.6407 109.625 49.754 109.625C49.8672 109.625 49.9616 109.625 50.0749 109.625C50.1881 109.625 50.3014 109.625 50.4524 109.625V109.644C50.4524 110.381 50.2259 111.081 49.7729 111.742C50.2259 112.309 50.7355 112.914 51.2829 113.576L47.9798 113.538ZM43.7518 112.479C44.8654 112.744 45.9601 112.669 47.036 112.253C46.5075 111.496 45.8658 110.608 45.1485 109.568C44.4313 108.529 43.7518 107.564 43.1289 106.638C42.1285 107.205 41.6378 108.188 41.6567 109.606C41.6755 110.438 41.8832 111.081 42.2984 111.572C42.7137 112.026 43.1855 112.347 43.7518 112.479ZM44.7899 100.627C44.3935 100.627 44.0349 100.816 43.714 101.194C43.3931 101.572 43.2799 102.139 43.3743 102.895C43.412 103.103 43.5253 103.368 43.6951 103.689C43.865 104.01 44.0538 104.313 44.2236 104.559C44.3935 104.823 44.5256 104.993 44.6011 105.107C44.62 105.126 44.62 105.145 44.6389 105.145C44.6578 105.182 44.6955 105.239 44.7144 105.258C44.7333 105.277 44.7521 105.315 44.771 105.353C44.7899 105.372 44.8088 105.409 44.8276 105.428C44.8465 105.447 44.8654 105.466 44.8654 105.485C44.8843 105.504 44.8843 105.504 44.8843 105.523L44.9031 105.542L44.922 105.561C45.526 105.315 45.9601 104.937 46.2244 104.426C46.4886 103.916 46.583 103.405 46.5264 102.914C46.432 102.215 46.2433 101.666 45.9224 101.269C45.6015 100.835 45.224 100.627 44.7899 100.627Z" fill="#1F7240"/>
<path d="M65.8542 109.965C65.9108 111.213 65.4956 112.139 64.6085 112.782C63.7214 113.425 62.4945 113.746 60.9279 113.765H60.909H60.8901C60.8713 113.765 60.8335 113.765 60.7958 113.765C60.7391 113.765 60.6825 113.765 60.6259 113.765C60.5693 113.765 60.4749 113.765 60.3805 113.765C59.1159 113.765 58.0589 113.538 57.2284 113.065C56.3979 112.593 55.775 112.007 55.3787 111.307L56.2847 110.57C56.7377 111.232 57.2284 111.704 57.7758 111.988C58.3231 112.272 58.8328 112.461 59.3046 112.517C59.7765 112.574 60.1163 112.612 60.3239 112.593C60.3428 112.593 60.3428 112.593 60.3616 112.612C60.3805 112.612 60.4183 112.612 60.456 112.612C60.5504 112.612 60.7014 112.612 60.909 112.612C61.4564 112.612 61.9471 112.442 62.3624 112.12C62.7776 111.799 62.9852 111.364 62.9852 110.854C62.9852 110.305 62.721 109.814 62.1736 109.398C61.6262 108.982 60.9279 108.547 60.0974 108.094C59.3613 107.697 58.6063 107.224 57.7946 106.695C57.738 106.657 57.6625 106.619 57.587 106.562C57.1907 106.373 56.7377 106.014 56.228 105.504C55.7184 104.993 55.4353 104.275 55.3787 103.33C55.3975 102.12 55.8694 101.213 56.7943 100.57C57.7191 99.946 58.946 99.6058 60.4938 99.5869H60.5126H60.5315C60.5315 99.5869 60.5504 99.5869 60.5693 99.5869H60.5881H60.607C60.6259 99.5869 60.6259 99.5869 60.6448 99.5869C61.8905 99.6058 62.9286 99.8515 63.7402 100.305C64.5518 100.759 65.1559 101.345 65.5522 102.025L64.6462 102.763C64.1932 102.101 63.6836 101.628 63.1362 101.345C62.5889 101.061 62.0792 100.891 61.6074 100.816C61.1355 100.759 60.7958 100.74 60.607 100.74C59.7765 100.759 59.1159 100.948 58.5874 101.307C58.0589 101.666 57.7946 102.12 57.7946 102.668C57.7946 103.179 58.0589 103.595 58.5874 103.954C59.1159 104.294 59.7765 104.653 60.5693 105.031C61.513 105.466 62.4945 105.995 63.5137 106.657C63.5704 106.695 63.627 106.752 63.7025 106.789C64.1744 107.073 64.6273 107.451 65.0992 107.942C65.4956 108.415 65.7598 109.096 65.8542 109.965Z" fill="#1F7240"/>
<path d="M73.1966 109.965C72.7813 109.833 72.3472 109.719 71.8565 109.625C71.3657 109.53 70.7428 109.455 69.9879 109.436L68.4967 113.689H67.3643L72.2717 99.6247H74.9519L79.8405 113.689H77.1225L76.0089 110.476C74.8009 110.381 73.8761 110.211 73.1966 109.965ZM72.8191 101.345L70.3842 108.321C71.7621 108.434 72.8002 108.604 73.5174 108.888C74.0648 109.077 74.7632 109.228 75.5937 109.323L72.8191 101.345Z" fill="#1F7240"/>
<path d="M86.711 112.026L91.0523 99.5491H92.2036L87.2584 113.746H84.5404L79.5952 99.5491H82.351L86.711 112.026Z" fill="#1F7240"/>
<path d="M96.6958 113.765H95.9974H94.0911V99.5869H95.9974H96.6958H103L102.792 100.683H96.6958V106.109H100.961V107.186H96.6958V112.669H102.792L102.585 113.765H96.6958Z" fill="#1F7240"/>
<path d="M53.8372 6.04026C53.2464 7.81549 52.7212 9.63455 52.3054 11.4317C52.2398 11.6947 52.1741 11.9577 52.1304 12.2207C49.6358 10.9057 47.6226 8.29765 46.9661 5.5581C46.9442 5.49235 46.9224 5.40469 46.9224 5.33894C46.8348 4.98828 46.7692 4.63761 46.6816 4.26504C46.6379 4.04587 46.8348 4.02395 47.0974 3.98012C47.5569 3.89246 47.9946 3.87054 48.4322 3.91437C48.9574 3.98012 49.4607 4.00204 49.964 4.0897C51.4083 4.3527 52.8306 4.94444 53.8372 6.04026Z" fill="#5FAD56"/>
<path d="M69.7897 6.6539C69.5709 7.02648 69.3521 7.39906 69.1113 7.77164C69.0457 7.8593 69.0019 7.92505 68.9582 7.9908C68.1485 9.21812 67.1419 10.2701 66.004 11.1248C65.1944 11.7385 64.3191 12.2207 63.4 12.5932C62.3059 13.0316 61.1461 13.3165 59.9426 13.4042C59.6143 13.4261 59.2861 13.448 58.936 13.4261C58.3889 13.4042 57.6887 13.3822 57.3823 12.9439C57.8419 10.9714 58.4108 8.99895 59.111 7.04839C59.6143 6.56623 60.1833 6.17174 60.7741 5.84299C60.9929 5.73341 61.2118 5.62383 61.4525 5.53616C62.9186 4.94442 64.5379 4.87867 66.1134 5.11975C66.7261 5.22933 67.317 5.40466 67.9297 5.53616C68.4549 5.66766 68.9582 5.86491 69.4177 6.14982C69.7241 6.32515 69.921 6.43473 69.7897 6.6539Z" fill="#5FAD56"/>
<path d="M59.8112 2.27062C58.17 6.06216 56.9009 9.94136 56.0693 13.8644C55.3472 13.7329 54.6251 13.6233 53.8811 13.5576C53.5966 13.5137 53.2902 13.4918 52.9839 13.4699C53.4215 11.3659 53.9686 9.26195 54.647 7.15798C54.647 7.15798 54.647 7.15798 54.6688 7.13606C55.3253 5.07592 56.0912 3.03769 56.9665 1.02138C57.2291 0.429642 57.798 0.0789795 58.3889 0.0789795C58.6077 0.0789795 58.8046 0.122813 59.0016 0.210478C59.7893 0.583057 60.1395 1.48163 59.8112 2.27062Z" fill="#1F7240"/>
<path d="M80.906 43.5173C80.906 47.4184 80.162 51.1442 78.8052 54.5632C78.4332 55.5056 78.0175 56.448 77.5579 57.3247C72.5687 67.0117 62.4809 73.6305 50.8395 73.6305C48.6512 73.6305 46.4848 73.3894 44.4279 72.9511C35.7406 71.0662 28.4756 65.4337 24.3617 57.8068C22.064 53.555 20.7729 48.6896 20.7729 43.5173C20.7729 32.6906 26.4843 23.2008 35.0403 17.897C35.85 17.393 36.7034 16.9108 37.5568 16.4944C41.5613 14.5 46.091 13.4042 50.8613 13.4042C51.1896 13.4042 51.5397 13.4261 51.8898 13.448C51.9555 13.4261 52.0211 13.448 52.0868 13.448C52.2181 13.448 52.3275 13.4699 52.4588 13.4699C52.6557 13.4699 52.8308 13.4918 53.0277 13.4918C53.3341 13.5138 53.6185 13.5357 53.9249 13.5795C54.6689 13.6672 55.391 13.7548 56.1131 13.8863C56.3101 13.9083 56.4851 13.9521 56.6602 13.9959C56.8134 14.0178 56.9447 14.0398 57.0978 14.0836C57.1416 14.1055 57.1635 14.1055 57.2072 14.1055C59.7018 14.6315 62.0652 15.4643 64.2534 16.5821C64.5379 16.7136 64.8005 16.867 65.0849 16.9985C67.2732 18.182 69.3083 19.6284 71.1245 21.2722C77.1203 26.7294 80.906 34.685 80.906 43.5173Z" fill="#FFA73A"/>
<path d="M76.9232 37.3369C76.0698 38.3889 74.166 37.052 73.1157 37.8848C72.8968 37.0739 72.6999 36.2411 72.503 35.4302C72.0872 35.0357 71.3432 35.3206 71.0587 35.8247C70.7742 36.3288 70.7742 36.9205 70.7305 37.5122C70.643 38.9149 70.271 40.3175 69.6364 41.5887C68.958 41.1723 68.0608 41.8079 67.7326 42.5311C67.4262 43.2105 67.4043 44.1091 66.9229 44.657C66.5728 45.0953 65.8288 45.3802 65.413 45.7966C64.9316 46.2569 64.3627 46.4103 63.7718 46.1473C63.0935 45.8624 62.5246 46.0596 61.9994 46.4541C60.7302 47.3746 59.3297 47.9225 57.8417 48.339C56.6819 48.6896 55.8504 49.369 55.4128 50.5306C55.2158 51.0128 54.9095 51.4511 54.6031 51.8894C54.2092 52.4373 53.7278 52.7441 53.0057 52.7003C52.5243 52.6565 52.0429 52.8099 51.5614 52.8537C50.708 52.9633 49.8108 53.2482 48.9574 53.2921C48.1478 53.3578 47.2725 52.9852 46.5285 53.4455C45.7188 53.9057 45.6313 55.0015 45.6313 55.922C45.9595 55.9439 46.2878 55.9439 46.616 56.0535C46.9224 56.1631 47.2287 56.3823 47.3162 56.711C47.4694 57.2151 47.0974 57.7192 46.7692 58.1137C46.1565 58.815 45.5 59.5163 44.6247 59.8231C43.7494 60.13 42.6115 59.8231 42.2395 58.9684C41.9332 59.6917 41.6268 60.4149 41.2986 61.1381C41.211 61.3792 41.1016 61.6203 41.1454 61.8833C41.211 62.1682 41.4955 62.3874 41.7581 62.4531C42.0426 62.5408 42.3489 62.497 42.6553 62.497C43.2899 62.4312 43.9682 62.3654 44.5372 62.6504C45.1061 62.9134 45.5438 63.6366 45.2593 64.2283C44.9967 64.6886 44.3621 65.0173 44.4278 65.5214C44.4934 65.8502 44.7779 66.0474 45.0842 66.1789C45.6969 66.4419 46.3534 66.5734 47.0099 66.5953C47.5569 66.5953 48.1478 66.5296 48.5417 66.8802C48.9355 67.209 49.0668 67.976 48.9137 68.4582C48.7605 68.9623 48.3447 69.2034 48.3447 69.8389C48.3447 69.9485 48.1915 70.0362 48.1478 70.1677C48.0821 70.4088 48.0165 70.6718 47.9946 70.9128C47.9727 71.0663 48.0602 71.2197 48.0602 71.3731C48.1259 72.0963 47.9508 72.3155 47.2287 72.447C46.4847 72.6004 45.7407 72.7538 44.9748 72.8634C44.756 72.8853 44.5591 72.9511 44.3621 73.0168C35.6748 71.132 28.4098 65.4995 24.2959 57.8726C24.471 57.2808 24.6023 56.6453 24.843 56.0754C25.0399 55.5714 25.4338 55.2426 25.959 55.0454C26.4404 54.8262 26.9437 54.5851 27.447 54.344C27.3594 53.0291 27.622 52.6565 28.8693 52.7661C30.2042 52.8756 31.2764 52.2839 32.4143 51.7798C33.4428 51.3415 34.4494 50.9032 35.4778 50.4868C35.8936 50.3114 36.2875 50.3333 36.6595 50.5963C36.9658 50.7936 37.2941 50.9908 37.6223 51.1662C37.9506 51.3415 38.235 51.3415 38.4976 50.9908C38.979 50.2895 39.6793 50.0923 40.5108 50.3333C41.408 50.5963 42.2833 50.4868 43.1367 50.1799C44.756 49.6101 46.4409 50.2895 48.0602 49.6101C47.6445 49.369 47.36 48.8869 47.36 48.4047C47.9508 48.5143 48.476 48.9088 48.7386 49.4567C48.8918 49.7854 48.9793 50.1799 49.2419 50.4429C49.5264 50.684 49.9421 50.7278 50.3141 50.7278C50.7737 50.7498 51.2551 50.7498 51.6271 50.5087C51.9991 50.2676 52.2398 49.7635 52.021 49.369C51.8459 49.0841 51.5177 48.9964 51.2113 48.8211C50.9269 48.6677 50.6424 48.3828 50.7299 48.076C50.9487 47.4185 52.0866 47.1993 52.4586 46.5418C52.8525 45.8186 52.8744 44.8762 53.509 44.2625C53.9247 43.8461 54.5593 43.9557 54.9532 43.6269C55.4346 43.2324 55.6097 41.3914 56.5506 41.501C56.7038 41.5229 56.8351 41.6544 56.9445 41.7859C57.2947 42.2462 57.5572 42.7722 57.9292 43.2543C58.3012 43.7146 58.7827 44.131 59.3516 44.2187C59.9205 44.3063 60.5989 43.9338 60.7083 43.3639C60.8177 42.7722 60.3582 42.1585 60.5989 41.6106C60.7739 41.26 61.1678 41.1065 61.5617 41.0627C61.8024 41.0189 62.0431 40.997 62.2838 40.9312C62.4151 40.8655 62.5246 40.8216 62.6558 40.7559C62.3057 40.186 61.9994 39.5286 61.6055 39.0026C61.4961 38.8711 60.3363 37.8629 60.205 38.0163C60.3582 37.841 60.4457 37.6437 60.4895 37.4246C60.5551 37.2054 60.577 36.9643 60.5114 36.7233C60.8615 36.4822 61.2335 36.263 61.6493 36.1096C60.2269 35.2768 58.7826 34.4659 57.3603 33.633C57.0321 33.4577 56.6819 33.2605 56.3099 33.3481C56.0911 33.392 55.9161 33.5235 55.741 33.655C54.2092 34.8165 52.6774 35.5398 51.0363 36.526C51.2332 35.0576 50.5111 34.181 49.8546 32.9975C49.3513 32.0551 48.8261 31.0688 47.4913 31.288C47.36 31.3099 47.2506 31.3976 47.0974 31.4852C47.2068 31.7044 47.2944 31.9016 47.3819 32.077C47.6007 32.5372 47.4257 32.8879 46.9442 32.9317C46.3315 32.9755 45.7188 32.9536 45.1061 32.866C44.6247 32.8221 44.1652 32.6468 43.7056 32.5372C43.2461 32.4057 42.7866 32.2742 42.2614 32.1208C42.5021 31.6825 42.7209 31.2661 42.9616 30.8497C43.2899 30.2579 43.3118 29.6443 42.9179 29.0306C42.6553 28.6142 42.3708 28.1759 42.1301 27.7594C41.8675 27.2992 41.9332 27.1019 42.4146 26.9047C42.7428 26.7513 43.0929 26.7075 43.4212 26.5979C43.7494 26.4883 44.0995 26.3787 44.4059 26.2253C44.7998 26.0061 44.8216 25.765 44.5372 25.4144C44.2965 25.1514 44.0776 24.8665 43.7932 24.6911C42.6553 24.0117 41.4955 23.3542 40.3357 22.6968C40.2044 22.631 40.0731 22.631 39.9637 22.5872C39.2635 22.4338 39.2635 22.4338 38.8915 23.0255C38.4101 23.8364 37.491 24.1651 36.6376 23.8364C36.0687 23.6172 35.9155 23.2008 36.2875 22.6968C36.572 22.3023 36.9221 21.9516 37.2722 21.579C37.0096 21.1626 36.6157 21.1626 36.2656 21.053C35.8061 20.8996 35.3028 20.79 34.8432 20.5928C34.2305 20.3079 34.143 19.9791 34.4931 19.3874C34.6682 19.1244 34.9089 18.9271 35.0621 18.6641C35.1496 18.4888 35.1934 18.2258 35.1058 18.0724C35.0621 18.0066 35.0183 17.919 34.9745 17.8532C35.7842 17.3491 36.6376 16.867 37.491 16.4506C37.5129 16.4506 37.5129 16.4725 37.5348 16.4725C37.9724 16.6697 38.3663 16.9327 38.7821 17.1738C39.5042 17.6121 40.3795 18.0724 41.211 17.8751C41.408 17.8313 41.6049 17.7656 41.6925 17.5902C41.8019 17.4368 41.8237 17.2615 41.8894 17.1081C42.0426 16.7136 42.4802 16.5382 42.896 16.4067C43.4649 16.2314 44.0339 16.0999 44.6247 16.0122C44.9748 15.9684 45.3687 15.9684 45.5656 16.2533C45.6969 16.4067 45.6969 16.6259 45.8064 16.8012C45.9376 17.0423 46.244 17.13 46.5066 17.13C46.7692 17.13 47.0318 17.0423 47.3162 16.9985C47.4475 16.9766 47.6007 16.9547 47.732 16.9547C48.8699 16.9766 49.8984 17.7875 50.6424 18.8395C51.3864 19.8915 51.8678 21.1845 51.9553 22.1488L57.9949 22.3899C58.2137 22.4118 58.4325 22.3899 58.5638 22.2365C58.7826 22.0173 58.6295 21.6667 58.5201 21.3598C58.1699 20.4394 58.3231 19.3216 58.9358 18.5545C58.8045 18.708 57.2728 17.8532 57.0977 17.7436C56.7913 17.5464 56.5069 17.3272 56.2443 17.0862C57.5135 17.393 58.8483 17.5464 60.205 17.5464C61.8243 17.5464 63.4217 17.3272 64.9754 16.8889C67.1636 18.0724 69.1987 19.5189 71.0149 21.1626C71.0806 22.105 71.1681 23.0036 70.8618 23.9022C71.1681 23.9898 71.4526 24.0994 71.7589 24.1432C72.7218 24.2309 73.4877 24.6254 74.1223 25.3925C74.5818 25.9623 75.1507 26.4664 75.6759 26.9924C75.8291 27.1677 75.9823 27.3649 76.1354 27.5622C75.851 27.9348 75.6321 28.2635 75.3914 28.5923C75.107 28.9868 74.9757 29.4251 74.9976 29.8853C75.0851 31.7482 74.91 33.4139 76.2449 34.8604C76.9232 35.6055 77.514 36.6356 76.9232 37.3369Z" fill="#FFC446"/>
<path d="M35.5435 38.7396C34.5369 39.4628 33.3553 39.9669 32.1299 40.0765C31.1233 40.1641 27.5345 40.1641 27.4908 38.5642C27.4689 38.0602 27.9065 37.6876 28.3223 37.3807C28.8256 36.9863 29.3727 36.5918 30.0073 36.5479C30.7294 36.5041 31.3859 36.9205 32.0861 37.0739C33.0708 37.2712 36.0249 36.0219 36.7033 36.9424C37.1628 37.5999 36.0031 38.4108 35.5435 38.7396Z" fill="#FFC446"/>
<path d="M78.805 54.5632C78.433 55.5056 78.0173 56.448 77.5577 57.3247C77.4264 57.2151 77.2952 57.1055 77.2076 56.9959C77.0326 56.7768 76.8575 56.5138 76.5949 56.448C76.3104 56.3823 76.026 56.5795 75.7853 56.7549C75.282 57.1713 74.8224 57.6096 74.4067 58.0918C72.6342 58.6178 70.5991 58.289 69.1111 57.1932C68.8704 57.0179 67.8857 56.2727 67.6888 56.8206C67.645 56.9302 67.645 57.0398 67.6012 57.1494C67.5137 57.3685 67.2511 57.4781 67.0104 57.4781C66.7697 57.5 66.5509 57.4124 66.3102 57.4124C66.0695 57.3904 65.8069 57.4562 65.6537 57.6315C65.4786 57.8288 65.4786 58.1137 65.2817 58.289C65.1285 58.4205 64.9097 58.4205 64.7346 58.3329C64.4939 58.2233 64.4064 58.026 64.1657 58.2014C64.0125 58.3109 63.925 58.552 63.8812 58.7273C63.8374 58.8588 63.7061 59.8889 63.5967 59.8889C64.0125 59.867 64.4283 59.8889 64.844 59.9985C64.9316 60.0204 65.0191 60.0423 65.0629 60.13C65.1066 60.2177 65.041 60.3272 64.9753 60.4149C64.6471 61.0286 64.8659 61.7737 65.1066 62.4312C64.6471 62.6285 64.1657 62.8257 63.7061 63.023C63.2685 63.2202 62.8965 63.0668 62.437 62.9353C61.1678 62.6066 59.7454 62.7819 58.6294 63.4394C58.0386 62.8476 57.3821 62.0367 57.2727 61.1601C58.0167 61.1601 58.7826 61.0943 59.5266 61.0066C59.6141 60.9847 59.7235 60.9628 59.7892 60.919C60.0737 60.7217 59.8986 60.1519 59.8329 59.867C59.7454 59.5602 59.4609 59.4287 59.1984 59.2753C58.8482 59.0561 58.5638 59.2095 58.1918 59.078C57.9511 59.0123 57.7541 58.7931 57.7979 58.552C57.8635 58.1794 58.3449 58.0698 58.4762 57.7192C58.5638 57.4781 58.4544 57.2151 58.3668 56.974C58.2574 56.7329 58.1918 56.4261 58.3668 56.2289C58.6513 56.5138 58.9358 56.7987 59.3078 56.8864C59.6798 56.974 60.0737 56.8425 60.4457 56.6672C60.8614 56.4919 61.2553 56.2727 61.6492 56.0316C61.868 55.8782 62.1087 55.7248 62.3713 55.659C62.6996 55.5933 63.0278 55.681 63.356 55.7029C64.3407 55.7686 64.5814 54.9577 64.0344 54.2564C63.8374 54.0153 63.6624 53.6208 63.8812 53.3797C64.0781 53.1825 64.3626 53.2482 64.6252 53.2921C65.413 53.4236 66.2226 53.2702 66.901 52.8976C66.9885 52.8318 67.0979 52.7661 67.2073 52.7222C67.448 52.5907 67.7106 52.4593 67.9951 52.525C68.2796 52.5688 68.4765 52.788 68.6953 52.9414C69.8551 53.7523 71.365 52.5907 72.3935 53.7742C72.5029 53.9057 72.6123 54.0591 72.7874 54.1249C72.9843 54.1906 73.2031 54.0591 73.3563 53.9057C73.6189 53.6647 73.7721 53.3359 73.969 53.051C74.1879 52.7661 74.4723 52.5031 74.8443 52.5031C75.1944 52.525 75.4789 52.788 75.7634 52.9633C76.4417 53.4236 77.2295 53.5332 78.0173 53.4455C77.9735 54.4756 78.3018 54.5413 78.805 54.5632Z" fill="#FFC446"/>
<path d="M46.5505 88.2706C46.5286 85.0928 45.697 82.397 43.9902 80.0082C42.3053 77.6412 40.0076 75.7783 37.5568 74.2222C35.1716 72.71 32.5019 71.6799 30.1824 70.1019C26.8125 67.8007 23.8364 64.7543 21.8014 61.2039C21.2543 60.2396 20.8604 58.8807 20.0289 58.1137C19.5475 57.6753 17.9282 56.7768 17.3374 57.4342C16.8997 57.9602 17.7969 59.3848 17.9719 59.8451C18.4534 61.0724 18.9348 62.3216 19.4381 63.5489C20.0508 65.0831 21.5607 67.9541 21.5607 67.9541C21.5607 67.9541 22.064 68.9623 22.0859 69.7074C19.7444 66.7487 18.1689 63.264 16.659 59.8012C16.2651 58.9246 16.2213 57.9602 16.3964 57.0178C16.7903 54.4755 17.1842 51.8675 17.0748 49.2813C17.0529 48.7992 16.5933 45.4241 15.7399 45.2706C15.6086 45.2487 15.4773 45.2926 15.346 45.4241C14.9959 45.7528 14.974 46.3665 14.8865 46.8048C14.1425 50.7497 12.7201 54.7385 13.0484 58.815C13.2453 61.16 13.858 63.4174 14.2957 65.7187C14.799 68.4363 15.6524 70.9128 17.6218 72.7977C19.46 74.6167 21.7138 76.1509 23.8802 77.4878C26.1122 78.8466 30.5106 80.5122 34.6902 82.419C35.3904 82.7477 36.0688 83.0545 36.7471 83.4052C37.8412 83.9312 38.8697 84.4791 39.8325 85.027C43.1149 87.4378 45.1281 91.5143 44.8655 95.9852L44.8436 96.3578C44.9312 96.1386 45.0406 95.9195 45.1062 95.7003L45.1281 95.5907C45.522 94.3196 45.9159 93.1361 46.1566 91.843C46.3535 90.7253 46.5723 89.5199 46.5505 88.2706Z" fill="#1F7240"/>
<path d="M55.1064 88.2706C55.1283 85.0928 55.9599 82.397 57.6667 80.0082C59.3516 77.6412 61.6493 75.7783 64.1001 74.2222C66.4853 72.71 69.155 71.6799 71.4745 70.1019C74.8444 67.8007 77.8204 64.7543 79.8555 61.2039C80.4026 60.2396 80.7965 58.8807 81.628 58.1137C82.1094 57.6753 83.7287 56.7768 84.3195 57.4342C84.7572 57.9602 83.86 59.3848 83.6849 59.8451C83.2035 61.0724 82.7221 62.3216 82.2188 63.5489C81.6061 65.0831 80.0962 67.9541 80.0962 67.9541C80.0962 67.9541 79.5929 68.9623 79.571 69.7074C81.9125 66.7487 83.488 63.264 84.9979 59.8012C85.3918 58.9246 85.4355 57.9602 85.2605 57.0178C84.8666 54.4755 84.4727 51.8675 84.5821 49.2813C84.604 48.7992 85.0635 45.4241 85.9169 45.2706C86.0482 45.2487 86.1795 45.2926 86.3108 45.4241C86.6609 45.7528 86.6828 46.3665 86.7704 46.8048C87.5144 50.7497 88.9367 54.7385 88.6085 58.815C88.4115 61.16 87.7988 63.4174 87.3612 65.7187C86.8579 68.4363 86.0045 70.9128 84.0351 72.7977C82.1969 74.6167 79.943 76.1509 77.7767 77.4878C75.5447 78.8466 71.1463 80.5122 66.9667 82.419C66.2665 82.7477 65.5881 83.0545 64.9098 83.4052C63.8157 83.9312 62.7872 84.4791 61.8244 85.027C58.542 87.4378 56.5288 91.5143 56.7914 95.9852L56.8133 96.3578C56.7257 96.1386 56.6163 95.9195 56.5507 95.7003L56.5288 95.5907C56.1349 94.3196 55.741 93.1361 55.5003 91.843C55.3253 90.7253 55.1064 89.5199 55.1064 88.2706Z" fill="#1F7240"/>
</svg>
